<svg xmlns="http://www.w3.org/2000/svg" xmlns:xlink="http://www.w3.org/1999/xlink" version="1.1" class="marks" width="1604" height="900" viewBox="0 0 1604 900"><g fill="none" stroke-miterlimit="10" transform="translate(96,40)"><g class="mark-group role-frame root" role="graphics-object" aria-roledescription="group mark container"><g transform="translate(0,0)"><path class="background" aria-hidden="true" d="M0,0h1500v750h-1500Z"/><g><g class="mark-group role-axis" role="graphics-symbol" aria-roledescription="axis" aria-label="Y-axis titled 'COVID-19 cases (absolute)' for a linear scale with values from 0 to 4,500"><g transform="translate(0.5,0.5)"><path class="background" aria-hidden="true" d="M0,0h0v0h0Z" pointer-events="none"/><g><g class="mark-rule role-axis-grid" pointer-events="none"><line transform="translate(0,750)" x2="1500" y2="0" stroke="#ddd" stroke-width="1" opacity="1"/><line transform="translate(0,667)" x2="1500" y2="0" stroke="#ddd" stroke-width="1" opacity="1"/><line transform="translate(0,583)" x2="1500" y2="0" stroke="#ddd" stroke-width="1" opacity="1"/><line transform="translate(0,500)" x2="1500" y2="0" stroke="#ddd" stroke-width="1" opacity="1"/><line transform="translate(0,417)" x2="1500" y2="0" stroke="#ddd" stroke-width="1" opacity="1"/><line transform="translate(0,333)" x2="1500" y2="0" stroke="#ddd" stroke-width="1" opacity="1"/><line transform="translate(0,250)" x2="1500" y2="0" stroke="#ddd" stroke-width="1" opacity="1"/><line transform="translate(0,167)" x2="1500" y2="0" stroke="#ddd" stroke-width="1" opacity="1"/><line transform="translate(0,83)" x2="1500" y2="0" stroke="#ddd" stroke-width="1" opacity="1"/><line transform="translate(0,0)" x2="1500" y2="0" stroke="#ddd" stroke-width="1" opacity="1"/></g><g class="mark-rule role-axis-tick" pointer-events="none"><line transform="translate(0,750)" x2="-5" y2="0" stroke="#888" stroke-width="1" opacity="1"/><line transform="translate(0,667)" x2="-5" y2="0" stroke="#888" stroke-width="1" opacity="1"/><line transform="translate(0,583)" x2="-5" y2="0" stroke="#888" stroke-width="1" opacity="1"/><line transform="translate(0,500)" x2="-5" y2="0" stroke="#888" stroke-width="1" opacity="1"/><line transform="translate(0,417)" x2="-5" y2="0" stroke="#888" stroke-width="1" opacity="1"/><line transform="translate(0,333)" x2="-5" y2="0" stroke="#888" stroke-width="1" opacity="1"/><line transform="translate(0,250)" x2="-5" y2="0" stroke="#888" stroke-width="1" opacity="1"/><line transform="translate(0,167)" x2="-5" y2="0" stroke="#888" stroke-width="1" opacity="1"/><line transform="translate(0,83)" x2="-5" y2="0" stroke="#888" stroke-width="1" opacity="1"/><line transform="translate(0,0)" x2="-5" y2="0" stroke="#888" stroke-width="1" opacity="1"/></g><g class="mark-text role-axis-label" pointer-events="none"><text text-anchor="end" transform="translate(-7,754)" font-family="sans-serif" font-size="14px" fill="#000" opacity="1">0</text><text text-anchor="end" transform="translate(-7,670.6666666666666)" font-family="sans-serif" font-size="14px" fill="#000" opacity="1">500</text><text text-anchor="end" transform="translate(-7,587.3333333333334)" font-family="sans-serif" font-size="14px" fill="#000" opacity="1">1,000</text><text text-anchor="end" transform="translate(-7,504.00000000000006)" font-family="sans-serif" font-size="14px" fill="#000" opacity="1">1,500</text><text text-anchor="end" transform="translate(-7,420.6666666666667)" font-family="sans-serif" font-size="14px" fill="#000" opacity="1">2,000</text><text text-anchor="end" transform="translate(-7,337.3333333333333)" font-family="sans-serif" font-size="14px" fill="#000" opacity="1">2,500</text><text text-anchor="end" transform="translate(-7,254.00000000000003)" font-family="sans-serif" font-size="14px" fill="#000" opacity="1">3,000</text><text text-anchor="end" transform="translate(-7,170.66666666666666)" font-family="sans-serif" font-size="14px" fill="#000" opacity="1">3,500</text><text text-anchor="end" transform="translate(-7,87.33333333333337)" font-family="sans-serif" font-size="14px" fill="#000" opacity="1">4,000</text><text text-anchor="end" transform="translate(-7,4)" font-family="sans-serif" font-size="14px" fill="#000" opacity="1">4,500</text></g><g class="mark-rule role-axis-domain" pointer-events="none"><line transform="translate(0,750)" x2="0" y2="-750" stroke="#888" stroke-width="1" opacity="1"/></g><g class="mark-text role-axis-title" pointer-events="none"><text text-anchor="middle" transform="translate(-73,375) rotate(-90) translate(0,-4)" font-family="sans-serif" font-size="18px" font-weight="bold" fill="#000" opacity="1">COVID-19 cases (absolute)</text></g></g><path class="foreground" aria-hidden="true" d="" pointer-events="none" display="none"/></g></g><g class="mark-group role-axis" role="graphics-symbol" aria-roledescription="axis" aria-label="X-axis titled 'Date' for a linear scale with values from 2020-02-26 to 2020-11-29"><g transform="translate(0.5,750.5)"><path class="background" aria-hidden="true" d="M0,0h0v0h0Z" pointer-events="none"/><g><g class="mark-rule role-axis-tick" pointer-events="none"><line transform="translate(20,0)" x2="0" y2="5" stroke="#888" stroke-width="1" opacity="1"/><line transform="translate(83,0)" x2="0" y2="5" stroke="#888" stroke-width="1" opacity="1"/><line transform="translate(146,0)" x2="0" y2="5" stroke="#888" stroke-width="1" opacity="1"/><line transform="translate(208,0)" x2="0" y2="5" stroke="#888" stroke-width="1" opacity="1"/><line transform="translate(271,0)" x2="0" y2="5" stroke="#888" stroke-width="1" opacity="1"/><line transform="translate(334,0)" x2="0" y2="5" stroke="#888" stroke-width="1" opacity="1"/><line transform="translate(396,0)" x2="0" y2="5" stroke="#888" stroke-width="1" opacity="1"/><line transform="translate(459,0)" x2="0" y2="5" stroke="#888" stroke-width="1" opacity="1"/><line transform="translate(522,0)" x2="0" y2="5" stroke="#888" stroke-width="1" opacity="1"/><line transform="translate(584,0)" x2="0" y2="5" stroke="#888" stroke-width="1" opacity="1"/><line transform="translate(647,0)" x2="0" y2="5" stroke="#888" stroke-width="1" opacity="1"/><line transform="translate(710,0)" x2="0" y2="5" stroke="#888" stroke-width="1" opacity="1"/><line transform="translate(772,0)" x2="0" y2="5" stroke="#888" stroke-width="1" opacity="1"/><line transform="translate(835,0)" x2="0" y2="5" stroke="#888" stroke-width="1" opacity="1"/><line transform="translate(898,0)" x2="0" y2="5" stroke="#888" stroke-width="1" opacity="1"/><line transform="translate(960,0)" x2="0" y2="5" stroke="#888" stroke-width="1" opacity="1"/><line transform="translate(1023,0)" x2="0" y2="5" stroke="#888" stroke-width="1" opacity="1"/><line transform="translate(1086,0)" x2="0" y2="5" stroke="#888" stroke-width="1" opacity="1"/><line transform="translate(1149,0)" x2="0" y2="5" stroke="#888" stroke-width="1" opacity="1"/><line transform="translate(1211,0)" x2="0" y2="5" stroke="#888" stroke-width="1" opacity="1"/><line transform="translate(1274,0)" x2="0" y2="5" stroke="#888" stroke-width="1" opacity="1"/><line transform="translate(1337,0)" x2="0" y2="5" stroke="#888" stroke-width="1" opacity="1"/><line transform="translate(1399,0)" x2="0" y2="5" stroke="#888" stroke-width="1" opacity="1"/><line transform="translate(1462,0)" x2="0" y2="5" stroke="#888" stroke-width="1" opacity="1"/></g><g class="mark-text role-axis-label" pointer-events="none"><text text-anchor="end" transform="translate(20.356999598876854,7) rotate(-35) translate(0,11)" font-family="sans-serif" font-size="14px" fill="#000" opacity="1">2020-02-29</text><text text-anchor="end" transform="translate(83.03249097472924,7) rotate(-35) translate(0,11)" font-family="sans-serif" font-size="14px" fill="#000" opacity="1">2020-03-12</text><text text-anchor="end" transform="translate(145.70798235058163,7) rotate(-35) translate(0,11)" font-family="sans-serif" font-size="14px" fill="#000" opacity="1">2020-03-23</text><text text-anchor="end" transform="translate(208.38347372643403,7) rotate(-35) translate(0,11)" font-family="sans-serif" font-size="14px" fill="#000" opacity="1">2020-04-04</text><text text-anchor="end" transform="translate(271.05896510228644,7) rotate(-35) translate(0,11)" font-family="sans-serif" font-size="14px" fill="#000" opacity="1">2020-04-16</text><text text-anchor="end" transform="translate(333.7344564781388,7) rotate(-35) translate(0,11)" font-family="sans-serif" font-size="14px" fill="#000" opacity="1">2020-04-27</text><text text-anchor="end" transform="translate(396.4099478539912,7) rotate(-35) translate(0,11)" font-family="sans-serif" font-size="14px" fill="#000" opacity="1">2020-05-09</text><text text-anchor="end" transform="translate(459.08543922984353,7) rotate(-35) translate(0,11)" font-family="sans-serif" font-size="14px" fill="#000" opacity="1">2020-05-20</text><text text-anchor="end" transform="translate(521.760930605696,7) rotate(-35) translate(0,11)" font-family="sans-serif" font-size="14px" fill="#000" opacity="1">2020-06-01</text><text text-anchor="end" transform="translate(584.4364219815483,7) rotate(-35) translate(0,11)" font-family="sans-serif" font-size="14px" fill="#000" opacity="1">2020-06-12</text><text text-anchor="end" transform="translate(647.1119133574008,7) rotate(-35) translate(0,11)" font-family="sans-serif" font-size="14px" fill="#000" opacity="1">2020-06-24</text><text text-anchor="end" transform="translate(709.7874047332531,7) rotate(-35) translate(0,11)" font-family="sans-serif" font-size="14px" fill="#000" opacity="1">2020-07-06</text><text text-anchor="end" transform="translate(772.4628961091055,7) rotate(-35) translate(0,11)" font-family="sans-serif" font-size="14px" fill="#000" opacity="1">2020-07-17</text><text text-anchor="end" transform="translate(835.1383874849579,7) rotate(-35) translate(0,11)" font-family="sans-serif" font-size="14px" fill="#000" opacity="1">2020-07-29</text><text text-anchor="end" transform="translate(897.8138788608103,7) rotate(-35) translate(0,11)" font-family="sans-serif" font-size="14px" fill="#000" opacity="1">2020-08-09</text><text text-anchor="end" transform="translate(960.4893702366626,7) rotate(-35) translate(0,11)" font-family="sans-serif" font-size="14px" fill="#000" opacity="1">2020-08-21</text><text text-anchor="end" transform="translate(1023.164861612515,7) rotate(-35) translate(0,11)" font-family="sans-serif" font-size="14px" fill="#000" opacity="1">2020-09-01</text><text text-anchor="end" transform="translate(1085.8403529883674,7) rotate(-35) translate(0,11)" font-family="sans-serif" font-size="14px" fill="#000" opacity="1">2020-09-13</text><text text-anchor="end" transform="translate(1148.51584436422,7) rotate(-35) translate(0,11)" font-family="sans-serif" font-size="14px" fill="#000" opacity="1">2020-09-25</text><text text-anchor="end" transform="translate(1211.1913357400722,7) rotate(-35) translate(0,11)" font-family="sans-serif" font-size="14px" fill="#000" opacity="1">2020-10-06</text><text text-anchor="end" transform="translate(1273.8668271159245,7) rotate(-35) translate(0,11)" font-family="sans-serif" font-size="14px" fill="#000" opacity="1">2020-10-18</text><text text-anchor="end" transform="translate(1336.542318491777,7) rotate(-35) translate(0,11)" font-family="sans-serif" font-size="14px" fill="#000" opacity="1">2020-10-29</text><text text-anchor="end" transform="translate(1399.2178098676293,7) rotate(-35) translate(0,11)" font-family="sans-serif" font-size="14px" fill="#000" opacity="1">2020-11-10</text><text text-anchor="end" transform="translate(1461.8933012434818,7) rotate(-35) translate(0,11)" font-family="sans-serif" font-size="14px" fill="#000" opacity="1">2020-11-21</text></g><g class="mark-rule role-axis-domain" pointer-events="none"><line transform="translate(0,0)" x2="1500" y2="0" stroke="#888" stroke-width="1" opacity="1"/></g><g class="mark-text role-axis-title" pointer-events="none"><text text-anchor="middle" transform="translate(750,100.70868949136309)" font-family="sans-serif" font-size="18px" font-weight="bold" fill="#000" opacity="1">Date</text></g></g><path class="foreground" aria-hidden="true" d="" pointer-events="none" display="none"/></g></g><g class="mark-line role-mark" role="graphics-symbol" aria-roledescription="line mark container"><path d="M0,750C1.8050541516245489,750,3.610108303249098,750,5.415162454873647,750C7.220216606498195,750,9.025270758122744,750,10.830324909747294,750C12.635379061371841,750,14.44043321299639,750,16.24548736462094,750C18.050541516245488,750,19.855595667870038,750,21.660649819494587,750C23.465703971119137,750,25.270758122743683,750,27.075812274368232,750C28.88086642599278,750,30.685920577617328,750,32.49097472924188,750C34.29602888086642,750,36.101083032490976,750,37.90613718411552,750C39.711191335740075,750,41.51624548736462,750,43.321299638989174,750C45.12635379061372,750,46.931407942238266,750,48.73646209386281,750C50.541516245487365,750,52.34657039711191,750,54.151624548736464,750C55.95667870036101,750,57.76173285198556,750,59.56678700361011,750C61.371841155234655,750,63.17689530685921,750,64.98194945848375,750C66.7870036101083,750,68.59205776173286,749.6666666666666,70.3971119133574,749.6666666666666C72.20216606498195,749.6666666666666,74.0072202166065,749.6666666666666,75.81227436823104,749.6666666666666C77.61732851985559,749.6666666666666,79.42238267148015,749.6111111111111,81.2274368231047,749.5C83.03249097472924,749.3888888888889,84.8375451263538,749.1388888888889,86.64259927797835,748.6666666666666C88.4476534296029,748.1944444444445,90.25270758122744,747.25,92.05776173285199,746.6666666666666C93.86281588447653,746.0833333333333,95.66787003610108,745.2777777777777,97.47292418772562,745.1666666666666C99.27797833935017,745.0555555555555,101.08303249097473,745.1111111111111,102.88808664259928,745C104.69314079422382,744.8888888888889,106.49819494584838,744.5555555555555,108.30324909747293,744C110.10830324909747,743.4444444444445,111.91335740072202,742.2500000000001,113.71841155234657,741.6666666666667C115.52346570397111,741.0833333333334,117.32851985559567,740.7777777777778,119.13357400722022,740.5C120.93862815884476,740.2222222222222,122.74368231046931,740.3055555555555,124.54873646209386,740C126.3537906137184,739.6944444444445,128.15884476534296,739.2222222222223,129.9638989169675,738.6666666666667C131.76895306859205,738.1111111111112,133.57400722021663,737.3611111111111,135.37906137184117,736.6666666666666C137.18411552346572,735.9722222222222,138.98916967509027,735.1111111111111,140.7942238267148,734.5C142.59927797833936,733.8888888888889,144.4043321299639,733.6111111111111,146.20938628158845,733C148.014440433213,732.3888888888889,149.81949458483754,731.8333333333334,151.6245487364621,730.8333333333334C153.42960288808663,729.8333333333334,155.2346570397112,728.1944444444445,157.03971119133575,727C158.8447653429603,725.8055555555555,160.64981949458485,724.3333333333333,162.4548736462094,723.6666666666666C164.25992779783394,723,166.06498194945848,723.1666666666666,167.87003610108303,722.6666666666666C169.67509025270758,722.1666666666666,171.48014440433215,721.2222222222222,173.2851985559567,720.6666666666666C175.09025270758124,720.1111111111111,176.8953068592058,719.8333333333334,178.70036101083033,719.3333333333334C180.50541516245488,718.8333333333334,182.31046931407943,718.1944444444445,184.11552346570397,717.6666666666666C185.92057761732852,717.1388888888888,187.72563176895306,716.7222222222222,189.5306859205776,716.1666666666666C191.33574007220216,715.6111111111111,193.1407942238267,714.9444444444445,194.94584837545125,714.3333333333334C196.7509025270758,713.7222222222223,198.55595667870037,712.8333333333334,200.36101083032491,712.5C202.16606498194946,712.1666666666666,203.971119133574,712.1666666666666,205.77617328519855,712C207.5812274368231,711.8333333333334,209.38628158844767,711.7777777777778,211.19133574007222,711.5C212.99638989169677,711.2222222222223,214.8014440433213,710.6388888888889,216.60649819494586,710.3333333333334C218.4115523465704,710.0277777777778,220.21660649819495,709.9444444444445,222.0216606498195,709.6666666666666C223.82671480144404,709.3888888888888,225.6317689530686,709.0555555555555,227.43682310469313,708.6666666666666C229.24187725631768,708.2777777777777,231.04693140794225,707.7777777777778,232.8519855595668,707.3333333333334C234.65703971119135,706.8888888888889,236.4620938628159,706.5,238.26714801444044,706C240.07220216606498,705.5,241.87725631768953,704.5555555555557,243.68231046931407,704.3333333333334C245.48736462093862,704.1111111111111,247.29241877256317,704,249.0974729241877,704C250.90252707581226,704,252.70758122743683,704,254.51263537906138,704C256.3176895306859,704,258.12274368231044,703.6666666666666,259.927797833935,703.5C261.73285198555953,703.3333333333334,263.5379061371841,703.1111111111111,265.3429602888086,703C267.1480144404332,702.8888888888889,268.9530685920578,702.9444444444445,270.75812274368235,702.8333333333334C272.56317689530687,702.7222222222223,274.36823104693144,702.4722222222222,276.17328519855596,702.3333333333333C277.97833935018053,702.1944444444443,279.78339350180505,702,281.5884476534296,702C283.39350180505414,702,285.1985559566787,702,287.00361010830323,702C288.8086642599278,702,290.6137184115523,701.6666666666667,292.4187725631769,701.6666666666667C294.2238267148014,701.6666666666667,296.028880866426,701.6666666666667,297.8339350180505,701.6666666666667C299.6389891696751,701.6666666666667,301.4440433212996,701.5555555555555,303.2490974729242,701.5C305.05415162454875,701.4444444444445,306.85920577617327,701.4166666666667,308.66425992779784,701.3333333333334C310.4693140794224,701.25,312.27436823104694,701,314.0794223826715,701C315.884476534296,701,317.6895306859206,701,319.4945848375451,701C321.2996389891697,701,323.1046931407942,701,324.9097472924188,701C326.7148014440433,701,328.5198555956679,701,330.3249097472924,701C332.12996389891697,701,333.9350180505415,700.8888888888888,335.74007220216606,700.8333333333333C337.54512635379064,700.7777777777777,339.35018050541515,700.6666666666666,341.1552346570397,700.6666666666666C342.9602888086643,700.6666666666666,344.7653429602888,700.6666666666666,346.5703971119134,700.6666666666666C348.3754512635379,700.6666666666666,350.1805054151625,700.6666666666666,351.985559566787,700.6666666666666C353.7906137184116,700.6666666666666,355.5956678700361,700.6666666666666,357.40072202166067,700.6666666666666C359.2057761732852,700.6666666666666,361.01083032490976,700.6666666666666,362.8158844765343,700.6666666666666C364.62093862815885,700.6666666666666,366.42599277978337,700.6666666666666,368.23104693140795,700.6666666666666C370.03610108303246,700.6666666666666,371.84115523465704,700.6666666666666,373.64620938628155,700.6666666666666C375.45126353790613,700.6666666666666,377.25631768953065,700.6666666666666,379.0613718411552,700.6666666666666C380.86642599277974,700.6666666666666,382.6714801444043,700.5,384.47653429602883,700.5C386.2815884476534,700.5,388.0866425992779,700.5,389.8916967509025,700.5C391.69675090252707,700.5,393.50180505415165,700.5,395.3068592057762,700.5C397.11191335740074,700.5,398.9169675090253,700.5,400.72202166064983,700.5C402.5270758122744,700.5,404.3321299638989,700.5,406.1371841155235,700.5C407.942238267148,700.5,409.7472924187726,700.5,411.5523465703971,700.5C413.3574007220217,700.5,415.1624548736462,700.3333333333334,416.9675090252708,700.3333333333334C418.77256317689535,700.3333333333334,420.57761732851986,700.3333333333334,422.38267148014444,700.3333333333334C424.18772563176896,700.3333333333334,425.99277978339353,700.3333333333334,427.79783393501805,700.3333333333334C429.6028880866426,700.3333333333334,431.40794223826714,700.3333333333334,433.2129963898917,700.3333333333334C435.01805054151623,700.3333333333334,436.8231046931408,700.3333333333334,438.6281588447653,700.3333333333334C440.4332129963899,700.3333333333334,442.2382671480144,700.3333333333334,444.043321299639,700.3333333333334C445.8483754512635,700.3333333333334,447.6534296028881,700.3333333333334,449.4584837545126,700.3333333333334C451.2635379061372,700.3333333333334,453.0685920577617,700.3333333333334,454.87364620938627,700.3333333333334C456.6787003610108,700.3333333333334,458.48375451263536,700.3333333333334,460.2888086642599,700.3333333333334C462.09386281588445,700.3333333333334,463.898916967509,700.3333333333334,465.7039711191336,700.3333333333334C467.5090252707582,700.3333333333334,469.3140794223827,700.3333333333334,471.11913357400726,700.3333333333334C472.9241877256318,700.3333333333334,474.72924187725636,700.3333333333334,476.5342960288809,700.3333333333334C478.33935018050545,700.3333333333334,480.14440433212997,700.3333333333334,481.94945848375454,700.3333333333334C483.75451263537906,700.3333333333334,485.55956678700363,700.3333333333334,487.36462093862815,700.3333333333334C489.1696750902527,700.3333333333334,490.97472924187724,700.1666666666667,492.7797833935018,700.1666666666667C494.58483754512633,700.1666666666667,496.3898916967509,700.1666666666667,498.1949458483754,700.1666666666667C500,700.1666666666667,501.8050541516245,700.1666666666667,503.6101083032491,700.1666666666667C505.41516245487367,700.1666666666667,507.2202166064982,700.1666666666667,509.02527075812276,700.1666666666667C510.8303249097473,700.1666666666667,512.6353790613719,700.1666666666667,514.4404332129964,700.1666666666667C516.2454873646209,700.1666666666667,518.0505415162455,700.1666666666667,519.85559566787,700.1666666666667C521.6606498194946,700.1666666666667,523.4657039711192,700.1666666666667,525.2707581227437,700.1666666666667C527.0758122743682,700.1666666666667,528.8808664259927,700.1666666666667,530.6859205776173,700.1666666666667C532.4909747292419,700.1666666666667,534.2960288808664,700.1666666666667,536.101083032491,700.1666666666667C537.9061371841156,700.1666666666667,539.7111913357402,700,541.5162454873647,700C543.3212996389892,700,545.1263537906137,700,546.9314079422383,700C548.7364620938628,700,550.5415162454874,700,552.3465703971119,700C554.1516245487364,700,555.9566787003611,700,557.7617328519856,700C559.5667870036101,700,561.3718411552347,700,563.1768953068593,700C564.9819494584838,700,566.7870036101083,700,568.5920577617328,700C570.3971119133573,700,572.202166064982,700,574.0072202166065,700C575.812274368231,700,577.6173285198556,700,579.4223826714801,700C581.2274368231047,700,583.0324909747293,700,584.8375451263538,700C586.6425992779783,700,588.447653429603,700,590.2527075812275,700C592.057761732852,700,593.8628158844765,700,595.667870036101,700C597.4729241877255,700,599.2779783393502,700,601.0830324909747,700C602.8880866425992,700,604.6931407942238,700,606.4981949458484,700C608.3032490974729,700,610.1083032490975,700,611.913357400722,700C613.7184115523465,700,615.5234657039712,700,617.3285198555957,700C619.1335740072202,700,620.9386281588448,700,622.7436823104694,700C624.5487364620939,700,626.3537906137185,700,628.158844765343,700C629.9638989169675,700,631.768953068592,700,633.5740072202166,700C635.3790613718411,700,637.1841155234657,700,638.9891696750902,700C640.7942238267148,700,642.5992779783394,700,644.4043321299639,700C646.2093862815884,700,648.014440433213,700,649.8194945848376,700C651.6245487364621,700,653.4296028880866,700,655.2346570397111,700C657.0397111913356,700,658.8447653429603,700,660.6498194945848,700C662.4548736462093,700,664.2599277978339,700,666.0649819494585,700C667.870036101083,700,669.6750902527076,700,671.4801444043321,700C673.2851985559566,700,675.0902527075813,700,676.8953068592058,700C678.7003610108303,700,680.5054151624549,700,682.3104693140795,700C684.115523465704,700,685.9205776173286,700,687.7256317689531,700C689.5306859205776,700,691.3357400722023,699.8333333333334,693.1407942238268,699.8333333333334C694.9458483754513,699.8333333333334,696.7509025270758,699.8333333333334,698.5559566787003,699.8333333333334C700.3610108303249,699.8333333333334,702.1660649819495,699.8333333333334,703.971119133574,699.8333333333334C705.7761732851985,699.8333333333334,707.5812274368232,699.7222222222222,709.3862815884477,699.6666666666666C711.1913357400722,699.6111111111111,712.9963898916968,699.6111111111111,714.8014440433213,699.5C716.6064981949459,699.3888888888889,718.4115523465704,699,720.2166064981949,699C722.0216606498194,699,723.826714801444,699,725.6317689530686,699C727.4368231046931,699,729.2418772563177,699,731.0469314079422,699C732.8519855595667,699,734.6570397111914,698.8333333333334,736.4620938628159,698.8333333333334C738.2671480144404,698.8333333333334,740.0722021660649,698.8333333333334,741.8772563176894,698.8333333333334C743.682310469314,698.8333333333334,745.4873646209386,698.8333333333334,747.2924187725631,698.8333333333334C749.0974729241877,698.8333333333334,750.9025270758123,698.8333333333334,752.7075812274369,698.8333333333334C754.5126353790614,698.8333333333334,756.3176895306859,698.8333333333334,758.1227436823104,698.8333333333334C759.927797833935,698.8333333333334,761.7328519855596,698.8333333333334,763.5379061371841,698.8333333333334C765.3429602888086,698.8333333333334,767.1480144404331,698.8333333333334,768.9530685920577,698.8333333333334C770.7581227436823,698.8333333333334,772.5631768953068,698.6666666666667,774.3682310469314,698.6666666666667C776.173285198556,698.6666666666667,777.9783393501805,698.6666666666667,779.783393501805,698.6666666666667C781.5884476534295,698.6666666666667,783.3935018050541,698.6666666666667,785.1985559566787,698.6666666666667C787.0036101083033,698.6666666666667,788.8086642599278,698.6666666666667,790.6137184115524,698.6666666666667C792.418772563177,698.6666666666667,794.2238267148015,698.4722222222223,796.028880866426,698.3333333333334C797.8339350180505,698.1944444444445,799.6389891696751,697.8333333333333,801.4440433212997,697.8333333333333C803.2490974729242,697.8333333333333,805.0541516245487,697.8333333333333,806.8592057761732,697.8333333333333C808.6642599277978,697.8333333333333,810.4693140794224,697.8333333333333,812.274368231047,697.8333333333333C814.0794223826715,697.8333333333333,815.884476534296,697.7777777777777,817.6895306859205,697.6666666666667C819.4945848375451,697.5555555555558,821.2996389891697,697.2777777777777,823.1046931407942,697.1666666666666C824.9097472924187,697.0555555555555,826.7148014440432,697,828.5198555956678,697C830.3249097472924,697,832.1299638989169,697,833.9350180505415,697C835.7400722021661,697,837.5451263537906,696.75,839.3501805054151,696.6666666666666C841.1552346570397,696.5833333333333,842.9602888086642,696.5,844.7653429602889,696.5C846.5703971119134,696.5,848.3754512635379,696.5,850.1805054151624,696.5C851.985559566787,696.5,853.7906137184116,696.5,855.5956678700361,696.5C857.4007220216607,696.5,859.2057761732852,696.5,861.0108303249099,696.5C862.8158844765344,696.5,864.6209386281589,696.5,866.4259927797834,696.5C868.231046931408,696.5,870.0361010830326,696.5,871.8411552346571,696.5C873.6462093862816,696.5,875.4512635379061,696.5,877.2563176895306,696.5C879.0613718411553,696.5,880.8664259927798,696.5,882.6714801444044,696.5C884.476534296029,696.5,886.2815884476535,696.5,888.086642599278,696.5C889.8916967509025,696.5,891.6967509025271,696.3888888888888,893.5018050541516,696.3333333333333C895.3068592057762,696.2777777777777,897.1119133574007,696.2222222222223,898.9169675090252,696.1666666666667C900.7220216606498,696.1111111111112,902.5270758122743,696,904.332129963899,696C906.1371841155235,696,907.942238267148,696,909.7472924187725,696C911.552346570397,696,913.3574007220217,695.75,915.1624548736462,695.6666666666666C916.9675090252707,695.5833333333333,918.7725631768952,695.5555555555555,920.5776173285198,695.5C922.3826714801444,695.4444444444445,924.1877256317689,695.3888888888889,925.9927797833935,695.3333333333334C927.797833935018,695.2777777777778,929.6028880866427,695.25,931.4079422382672,695.1666666666666C933.2129963898917,695.0833333333333,935.0180505415162,694.9444444444443,936.8231046931407,694.8333333333333C938.6281588447654,694.7222222222222,940.4332129963899,694.5833333333334,942.2382671480145,694.5C944.043321299639,694.4166666666667,945.8483754512636,694.3333333333334,947.6534296028881,694.3333333333334C949.4584837545126,694.3333333333334,951.2635379061372,694.3333333333334,953.0685920577617,694.3333333333334C954.8736462093863,694.3333333333334,956.6787003610108,694.1666666666666,958.4837545126353,694.1666666666666C960.2888086642599,694.1666666666666,962.0938628158844,694.1666666666666,963.8989169675091,694.1666666666666C965.7039711191336,694.1666666666666,967.5090252707581,694.1666666666666,969.3140794223826,694.1666666666666C971.1191335740072,694.1666666666666,972.9241877256318,694.1666666666666,974.7292418772563,694.1666666666666C976.5342960288808,694.1666666666666,978.3393501805053,694.0833333333334,980.1444043321299,694C981.9494584837545,693.9166666666666,983.754512635379,693.6666666666666,985.5595667870036,693.6666666666666C987.3646209386281,693.6666666666666,989.1696750902527,693.6666666666666,990.9747292418772,693.6666666666666C992.7797833935017,693.6666666666666,994.5848375451263,693.3333333333333,996.3898916967509,693.3333333333333C998.1949458483755,693.3333333333333,1000,693.3333333333333,1001.8050541516246,693.3333333333333C1003.6101083032491,693.3333333333333,1005.4151624548737,692.9444444444445,1007.2202166064982,692.8333333333334C1009.0252707581228,692.7222222222223,1010.8303249097473,692.6666666666666,1012.635379061372,692.6666666666666C1014.4404332129965,692.6666666666666,1016.245487364621,692.6666666666666,1018.0505415162455,692.6666666666666C1019.85559566787,692.6666666666666,1021.6606498194947,692.6666666666666,1023.4657039711192,692.6666666666666C1025.2707581227437,692.6666666666666,1027.0758122743682,692.6666666666666,1028.8808664259927,692.6666666666666C1030.6859205776173,692.6666666666666,1032.490974729242,692.5555555555555,1034.2960288808665,692.5C1036.101083032491,692.4444444444445,1037.9061371841156,692.3333333333334,1039.71119133574,692.3333333333334C1041.5162454873646,692.3333333333334,1043.3212996389893,692.3333333333334,1045.1263537906138,692.3333333333334C1046.9314079422384,692.3333333333334,1048.7364620938629,691.7777777777779,1050.5415162454874,691.6666666666667C1052.346570397112,691.5555555555555,1054.1516245487364,691.5555555555555,1055.956678700361,691.5C1057.7617328519855,691.4444444444445,1059.56678700361,691.4166666666667,1061.3718411552345,691.3333333333334C1063.176895306859,691.25,1064.9819494584838,691.0833333333334,1066.7870036101083,691C1068.5920577617328,690.9166666666666,1070.3971119133575,690.8888888888889,1072.202166064982,690.8333333333334C1074.0072202166066,690.7777777777778,1075.812274368231,690.7222222222222,1077.6173285198556,690.6666666666666C1079.4223826714801,690.6111111111111,1081.2274368231049,690.5555555555555,1083.0324909747294,690.5C1084.837545126354,690.4444444444445,1086.6425992779784,690.3888888888888,1088.447653429603,690.3333333333333C1090.2527075812275,690.2777777777777,1092.057761732852,690.2222222222223,1093.8628158844765,690.1666666666667C1095.667870036101,690.1111111111112,1097.4729241877255,690.1111111111111,1099.27797833935,690C1101.0830324909746,689.8888888888889,1102.8880866425993,689.6111111111111,1104.6931407942238,689.5C1106.4981949458484,689.3888888888889,1108.3032490974729,689.3888888888889,1110.1083032490974,689.3333333333334C1111.913357400722,689.2777777777778,1113.7184115523467,689.1666666666666,1115.5234657039712,689.1666666666666C1117.3285198555957,689.1666666666666,1119.1335740072202,689.1666666666666,1120.9386281588447,689.1666666666666C1122.7436823104692,689.1666666666666,1124.548736462094,689.1666666666666,1126.3537906137185,689.1666666666666C1128.158844765343,689.1666666666666,1129.9638989169675,688.9722222222222,1131.768953068592,688.8333333333333C1133.5740072202166,688.6944444444443,1135.379061371841,688.4722222222223,1137.1841155234656,688.3333333333334C1138.9891696750901,688.1944444444445,1140.7942238267146,688.1111111111111,1142.5992779783392,688C1144.4043321299637,687.8888888888889,1146.2093862815884,687.7777777777777,1148.014440433213,687.6666666666666C1149.8194945848375,687.5555555555555,1151.6245487364622,687.3333333333333,1153.4296028880867,687.3333333333333C1155.2346570397112,687.3333333333333,1157.0397111913358,687.3333333333333,1158.8447653429603,687.3333333333333C1160.6498194945848,687.3333333333333,1162.4548736462095,687.1944444444445,1164.259927797834,687C1166.0649819494586,686.8055555555555,1167.870036101083,686.4166666666666,1169.6750902527076,686.1666666666666C1171.4801444043321,685.9166666666666,1173.2851985559569,685.7222222222222,1175.0902527075814,685.5C1176.895306859206,685.2777777777778,1178.7003610108304,685.2777777777778,1180.505415162455,684.8333333333334C1182.3104693140795,684.3888888888889,1184.115523465704,682.4444444444445,1185.9205776173285,682C1187.725631768953,681.5555555555555,1189.5306859205775,681.3333333333333,1191.335740072202,681.3333333333333C1193.1407942238266,681.3333333333333,1194.9458483754513,681.3333333333333,1196.7509025270758,681.3333333333333C1198.5559566787003,681.3333333333333,1200.3610108303249,680.75,1202.1660649819494,680.5C1203.971119133574,680.25,1205.7761732851986,680.1111111111111,1207.5812274368232,679.8333333333333C1209.3862815884477,679.5555555555555,1211.1913357400722,679.3333333333334,1212.9963898916967,678.8333333333334C1214.8014440433212,678.3333333333334,1216.606498194946,677.2777777777777,1218.4115523465705,676.8333333333333C1220.216606498195,676.3888888888888,1222.0216606498195,676.3611111111111,1223.826714801444,676.1666666666666C1225.6317689530686,675.9722222222222,1227.436823104693,675.9444444444443,1229.2418772563176,675.6666666666666C1231.046931407942,675.3888888888888,1232.8519855595669,674.8333333333334,1234.6570397111914,674.5C1236.462093862816,674.1666666666667,1238.2671480144404,674.0277777777778,1240.072202166065,673.6666666666667C1241.8772563176894,673.3055555555557,1243.6823104693142,672.7500000000001,1245.4873646209387,672.3333333333334C1247.2924187725632,671.9166666666667,1249.0974729241877,671.7499999999999,1250.9025270758123,671.1666666666666C1252.7075812274368,670.5833333333333,1254.5126353790615,669.6944444444445,1256.317689530686,668.8333333333334C1258.1227436823106,667.9722222222223,1259.927797833935,667.0555555555555,1261.7328519855596,666C1263.537906137184,664.9444444444445,1265.3429602888086,663.6944444444445,1267.1480144404331,662.5C1268.9530685920577,661.3055555555555,1270.7581227436822,659.9166666666667,1272.5631768953067,658.8333333333334C1274.3682310469312,657.75,1276.173285198556,656.9166666666666,1277.9783393501805,656C1279.783393501805,655.0833333333334,1281.5884476534295,654.4722222222223,1283.393501805054,653.3333333333334C1285.1985559566785,652.1944444444445,1287.0036101083033,651.3333333333333,1288.8086642599278,649.1666666666666C1290.6137184115523,647,1292.418772563177,642.8333333333333,1294.2238267148016,640.3333333333333C1296.028880866426,637.8333333333334,1297.8339350180506,636.3611111111112,1299.6389891696751,634.1666666666667C1301.4440433212997,631.9722222222223,1303.2490974729242,629.1944444444445,1305.0541516245487,627.1666666666666C1306.8592057761732,625.1388888888888,1308.6642599277977,623.9166666666666,1310.4693140794222,622C1312.2743682310468,620.0833333333333,1314.0794223826715,618.7777777777778,1315.884476534296,615.6666666666666C1317.6895306859205,612.5555555555555,1319.494584837545,606.2777777777777,1321.2996389891696,603.3333333333333C1323.104693140794,600.3888888888887,1324.9097472924188,601.5277777777779,1326.7148014440434,598C1328.5198555956679,594.4722222222223,1330.3249097472924,586.5,1332.129963898917,582.1666666666667C1333.9350180505414,577.8333333333333,1335.7400722021662,575.4166666666667,1337.5451263537907,572C1339.3501805054152,568.5833333333334,1341.1552346570397,566,1342.9602888086642,561.6666666666667C1344.7653429602888,557.3333333333334,1346.5703971119135,551.638888888889,1348.375451263538,546C1350.1805054151625,540.3611111111112,1351.985559566787,532.4722222222223,1353.7906137184116,527.8333333333334C1355.595667870036,523.1944444444445,1357.4007220216606,522.4999999999999,1359.2057761732851,518.1666666666666C1361.0108303249096,513.8333333333333,1362.8158844765344,507.5833333333334,1364.620938628159,501.8333333333333C1366.4259927797834,496.0833333333334,1368.231046931408,490.19444444444423,1370.0361010830325,483.66666666666663C1371.841155234657,477.13888888888874,1373.6462093862817,468.4166666666667,1375.4512635379062,462.66666666666663C1377.2563176895308,456.9166666666668,1379.0613718411553,454.7777777777776,1380.8664259927798,449.1666666666667C1382.6714801444043,443.55555555555554,1384.476534296029,435.52777777777794,1386.2815884476536,429.00000000000006C1388.086642599278,422.4722222222224,1389.8916967509026,417.05555555555554,1391.6967509025271,410C1393.5018050541516,402.94444444444446,1395.3068592057762,393.33333333333337,1397.1119133574007,386.6666666666667C1398.9169675090252,380,1400.7220216606497,375.972222222222,1402.5270758122742,369.99999999999994C1404.3321299638988,364.0277777777776,1406.1371841155235,357.47222222222234,1407.942238267148,350.8333333333333C1409.7472924187725,344.19444444444457,1411.552346570397,336.8611111111109,1413.3574007220216,330.16666666666663C1415.162454873646,323.47222222222206,1416.9675090252708,317.58333333333354,1418.7725631768953,310.6666666666667C1420.5776173285199,303.75000000000017,1422.3826714801444,295.8055555555554,1424.187725631769,288.66666666666663C1425.9927797833934,281.5277777777776,1427.7978339350182,275.00000000000017,1429.6028880866427,267.83333333333337C1431.4079422382672,260.66666666666686,1433.2129963898917,251.50000000000003,1435.0180505415162,245.66666666666669C1436.8231046931407,239.83333333333334,1438.6281588447653,239.16666666666643,1440.4332129963898,232.83333333333331C1442.2382671480143,226.49999999999991,1444.043321299639,216.47222222222237,1445.8483754512636,207.66666666666663C1447.653429602888,198.86111111111126,1449.4584837545126,188.80555555555537,1451.2635379061371,180C1453.0685920577616,171.19444444444426,1454.8736462093864,159.50000000000017,1456.678700361011,154.83333333333331C1458.4837545126354,150.16666666666666,1460.28880866426,152.13888888888872,1462.0938628158844,147.83333333333334C1463.898916967509,143.5277777777778,1465.7039711191337,134.44444444444454,1467.5090252707582,129.00000000000003C1469.3140794223827,123.55555555555573,1471.1191335740073,121.08333333333334,1472.9241877256318,115.16666666666667C1474.7292418772563,109.25,1476.5342960288808,100.08333333333336,1478.3393501805053,93.50000000000003C1480.1444043321299,86.9166666666667,1481.9494584837544,81.63888888888879,1483.754512635379,75.66666666666669C1485.5595667870034,69.69444444444434,1487.3646209386281,62.3055555555556,1489.1696750902527,57.66666666666667C1490.9747292418772,53.02777777777794,1492.7797833935017,51.0833333333333,1494.5848375451262,47.833333333333364C1496.3898916967507,44.58333333333329,1498.1949458483755,41.37499999999997,1500,38.16666666666666" stroke="steelblue" stroke-width="3"/></g><g class="mark-symbol role-mark" role="graphics-symbol" aria-roledescription="symbol mark container"><path transform="translate(0,750)" d="M2.23606797749979,0A2.23606797749979,2.23606797749979,0,1,1,-2.23606797749979,0A2.23606797749979,2.23606797749979,0,1,1,2.23606797749979,0" fill="white" stroke="steelblue" stroke-width="1.5"/><path transform="translate(16.24548736462094,750)" d="M2.23606797749979,0A2.23606797749979,2.23606797749979,0,1,1,-2.23606797749979,0A2.23606797749979,2.23606797749979,0,1,1,2.23606797749979,0" fill="white" stroke="steelblue" stroke-width="1.5"/><path transform="translate(32.49097472924188,750)" d="M2.23606797749979,0A2.23606797749979,2.23606797749979,0,1,1,-2.23606797749979,0A2.23606797749979,2.23606797749979,0,1,1,2.23606797749979,0" fill="white" stroke="steelblue" stroke-width="1.5"/><path transform="translate(48.73646209386281,750)" d="M2.23606797749979,0A2.23606797749979,2.23606797749979,0,1,1,-2.23606797749979,0A2.23606797749979,2.23606797749979,0,1,1,2.23606797749979,0" fill="white" stroke="steelblue" stroke-width="1.5"/><path transform="translate(64.98194945848375,750)" d="M2.23606797749979,0A2.23606797749979,2.23606797749979,0,1,1,-2.23606797749979,0A2.23606797749979,2.23606797749979,0,1,1,2.23606797749979,0" fill="white" stroke="steelblue" stroke-width="1.5"/><path transform="translate(81.2274368231047,749.5)" d="M2.23606797749979,0A2.23606797749979,2.23606797749979,0,1,1,-2.23606797749979,0A2.23606797749979,2.23606797749979,0,1,1,2.23606797749979,0" fill="white" stroke="steelblue" stroke-width="1.5"/><path transform="translate(97.47292418772562,745.1666666666666)" d="M2.23606797749979,0A2.23606797749979,2.23606797749979,0,1,1,-2.23606797749979,0A2.23606797749979,2.23606797749979,0,1,1,2.23606797749979,0" fill="white" stroke="steelblue" stroke-width="1.5"/><path transform="translate(113.71841155234657,741.6666666666667)" d="M2.23606797749979,0A2.23606797749979,2.23606797749979,0,1,1,-2.23606797749979,0A2.23606797749979,2.23606797749979,0,1,1,2.23606797749979,0" fill="white" stroke="steelblue" stroke-width="1.5"/><path transform="translate(129.9638989169675,738.6666666666667)" d="M2.23606797749979,0A2.23606797749979,2.23606797749979,0,1,1,-2.23606797749979,0A2.23606797749979,2.23606797749979,0,1,1,2.23606797749979,0" fill="white" stroke="steelblue" stroke-width="1.5"/><path transform="translate(146.20938628158845,733)" d="M2.23606797749979,0A2.23606797749979,2.23606797749979,0,1,1,-2.23606797749979,0A2.23606797749979,2.23606797749979,0,1,1,2.23606797749979,0" fill="white" stroke="steelblue" stroke-width="1.5"/><path transform="translate(162.4548736462094,723.6666666666666)" d="M2.23606797749979,0A2.23606797749979,2.23606797749979,0,1,1,-2.23606797749979,0A2.23606797749979,2.23606797749979,0,1,1,2.23606797749979,0" fill="white" stroke="steelblue" stroke-width="1.5"/><path transform="translate(178.70036101083033,719.3333333333334)" d="M2.23606797749979,0A2.23606797749979,2.23606797749979,0,1,1,-2.23606797749979,0A2.23606797749979,2.23606797749979,0,1,1,2.23606797749979,0" fill="white" stroke="steelblue" stroke-width="1.5"/><path transform="translate(194.94584837545125,714.3333333333334)" d="M2.23606797749979,0A2.23606797749979,2.23606797749979,0,1,1,-2.23606797749979,0A2.23606797749979,2.23606797749979,0,1,1,2.23606797749979,0" fill="white" stroke="steelblue" stroke-width="1.5"/><path transform="translate(211.19133574007222,711.5)" d="M2.23606797749979,0A2.23606797749979,2.23606797749979,0,1,1,-2.23606797749979,0A2.23606797749979,2.23606797749979,0,1,1,2.23606797749979,0" fill="white" stroke="steelblue" stroke-width="1.5"/><path transform="translate(227.43682310469313,708.6666666666666)" d="M2.23606797749979,0A2.23606797749979,2.23606797749979,0,1,1,-2.23606797749979,0A2.23606797749979,2.23606797749979,0,1,1,2.23606797749979,0" fill="white" stroke="steelblue" stroke-width="1.5"/><path transform="translate(243.68231046931407,704.3333333333334)" d="M2.23606797749979,0A2.23606797749979,2.23606797749979,0,1,1,-2.23606797749979,0A2.23606797749979,2.23606797749979,0,1,1,2.23606797749979,0" fill="white" stroke="steelblue" stroke-width="1.5"/><path transform="translate(259.927797833935,703.5)" d="M2.23606797749979,0A2.23606797749979,2.23606797749979,0,1,1,-2.23606797749979,0A2.23606797749979,2.23606797749979,0,1,1,2.23606797749979,0" fill="white" stroke="steelblue" stroke-width="1.5"/><path transform="translate(276.17328519855596,702.3333333333333)" d="M2.23606797749979,0A2.23606797749979,2.23606797749979,0,1,1,-2.23606797749979,0A2.23606797749979,2.23606797749979,0,1,1,2.23606797749979,0" fill="white" stroke="steelblue" stroke-width="1.5"/><path transform="translate(292.4187725631769,701.6666666666667)" d="M2.23606797749979,0A2.23606797749979,2.23606797749979,0,1,1,-2.23606797749979,0A2.23606797749979,2.23606797749979,0,1,1,2.23606797749979,0" fill="white" stroke="steelblue" stroke-width="1.5"/><path transform="translate(308.66425992779784,701.3333333333334)" d="M2.23606797749979,0A2.23606797749979,2.23606797749979,0,1,1,-2.23606797749979,0A2.23606797749979,2.23606797749979,0,1,1,2.23606797749979,0" fill="white" stroke="steelblue" stroke-width="1.5"/><path transform="translate(324.9097472924188,701)" d="M2.23606797749979,0A2.23606797749979,2.23606797749979,0,1,1,-2.23606797749979,0A2.23606797749979,2.23606797749979,0,1,1,2.23606797749979,0" fill="white" stroke="steelblue" stroke-width="1.5"/><path transform="translate(341.1552346570397,700.6666666666666)" d="M2.23606797749979,0A2.23606797749979,2.23606797749979,0,1,1,-2.23606797749979,0A2.23606797749979,2.23606797749979,0,1,1,2.23606797749979,0" fill="white" stroke="steelblue" stroke-width="1.5"/><path transform="translate(357.40072202166067,700.6666666666666)" d="M2.23606797749979,0A2.23606797749979,2.23606797749979,0,1,1,-2.23606797749979,0A2.23606797749979,2.23606797749979,0,1,1,2.23606797749979,0" fill="white" stroke="steelblue" stroke-width="1.5"/><path transform="translate(373.64620938628155,700.6666666666666)" d="M2.23606797749979,0A2.23606797749979,2.23606797749979,0,1,1,-2.23606797749979,0A2.23606797749979,2.23606797749979,0,1,1,2.23606797749979,0" fill="white" stroke="steelblue" stroke-width="1.5"/><path transform="translate(389.8916967509025,700.5)" d="M2.23606797749979,0A2.23606797749979,2.23606797749979,0,1,1,-2.23606797749979,0A2.23606797749979,2.23606797749979,0,1,1,2.23606797749979,0" fill="white" stroke="steelblue" stroke-width="1.5"/><path transform="translate(406.1371841155235,700.5)" d="M2.23606797749979,0A2.23606797749979,2.23606797749979,0,1,1,-2.23606797749979,0A2.23606797749979,2.23606797749979,0,1,1,2.23606797749979,0" fill="white" stroke="steelblue" stroke-width="1.5"/><path transform="translate(422.38267148014444,700.3333333333334)" d="M2.23606797749979,0A2.23606797749979,2.23606797749979,0,1,1,-2.23606797749979,0A2.23606797749979,2.23606797749979,0,1,1,2.23606797749979,0" fill="white" stroke="steelblue" stroke-width="1.5"/><path transform="translate(438.6281588447653,700.3333333333334)" d="M2.23606797749979,0A2.23606797749979,2.23606797749979,0,1,1,-2.23606797749979,0A2.23606797749979,2.23606797749979,0,1,1,2.23606797749979,0" fill="white" stroke="steelblue" stroke-width="1.5"/><path transform="translate(454.87364620938627,700.3333333333334)" d="M2.23606797749979,0A2.23606797749979,2.23606797749979,0,1,1,-2.23606797749979,0A2.23606797749979,2.23606797749979,0,1,1,2.23606797749979,0" fill="white" stroke="steelblue" stroke-width="1.5"/><path transform="translate(471.11913357400726,700.3333333333334)" d="M2.23606797749979,0A2.23606797749979,2.23606797749979,0,1,1,-2.23606797749979,0A2.23606797749979,2.23606797749979,0,1,1,2.23606797749979,0" fill="white" stroke="steelblue" stroke-width="1.5"/><path transform="translate(487.36462093862815,700.3333333333334)" d="M2.23606797749979,0A2.23606797749979,2.23606797749979,0,1,1,-2.23606797749979,0A2.23606797749979,2.23606797749979,0,1,1,2.23606797749979,0" fill="white" stroke="steelblue" stroke-width="1.5"/><path transform="translate(503.6101083032491,700.1666666666667)" d="M2.23606797749979,0A2.23606797749979,2.23606797749979,0,1,1,-2.23606797749979,0A2.23606797749979,2.23606797749979,0,1,1,2.23606797749979,0" fill="white" stroke="steelblue" stroke-width="1.5"/><path transform="translate(519.85559566787,700.1666666666667)" d="M2.23606797749979,0A2.23606797749979,2.23606797749979,0,1,1,-2.23606797749979,0A2.23606797749979,2.23606797749979,0,1,1,2.23606797749979,0" fill="white" stroke="steelblue" stroke-width="1.5"/><path transform="translate(536.101083032491,700.1666666666667)" d="M2.23606797749979,0A2.23606797749979,2.23606797749979,0,1,1,-2.23606797749979,0A2.23606797749979,2.23606797749979,0,1,1,2.23606797749979,0" fill="white" stroke="steelblue" stroke-width="1.5"/><path transform="translate(552.3465703971119,700)" d="M2.23606797749979,0A2.23606797749979,2.23606797749979,0,1,1,-2.23606797749979,0A2.23606797749979,2.23606797749979,0,1,1,2.23606797749979,0" fill="white" stroke="steelblue" stroke-width="1.5"/><path transform="translate(568.5920577617328,700)" d="M2.23606797749979,0A2.23606797749979,2.23606797749979,0,1,1,-2.23606797749979,0A2.23606797749979,2.23606797749979,0,1,1,2.23606797749979,0" fill="white" stroke="steelblue" stroke-width="1.5"/><path transform="translate(584.8375451263538,700)" d="M2.23606797749979,0A2.23606797749979,2.23606797749979,0,1,1,-2.23606797749979,0A2.23606797749979,2.23606797749979,0,1,1,2.23606797749979,0" fill="white" stroke="steelblue" stroke-width="1.5"/><path transform="translate(601.0830324909747,700)" d="M2.23606797749979,0A2.23606797749979,2.23606797749979,0,1,1,-2.23606797749979,0A2.23606797749979,2.23606797749979,0,1,1,2.23606797749979,0" fill="white" stroke="steelblue" stroke-width="1.5"/><path transform="translate(617.3285198555957,700)" d="M2.23606797749979,0A2.23606797749979,2.23606797749979,0,1,1,-2.23606797749979,0A2.23606797749979,2.23606797749979,0,1,1,2.23606797749979,0" fill="white" stroke="steelblue" stroke-width="1.5"/><path transform="translate(633.5740072202166,700)" d="M2.23606797749979,0A2.23606797749979,2.23606797749979,0,1,1,-2.23606797749979,0A2.23606797749979,2.23606797749979,0,1,1,2.23606797749979,0" fill="white" stroke="steelblue" stroke-width="1.5"/><path transform="translate(649.8194945848376,700)" d="M2.23606797749979,0A2.23606797749979,2.23606797749979,0,1,1,-2.23606797749979,0A2.23606797749979,2.23606797749979,0,1,1,2.23606797749979,0" fill="white" stroke="steelblue" stroke-width="1.5"/><path transform="translate(666.0649819494585,700)" d="M2.23606797749979,0A2.23606797749979,2.23606797749979,0,1,1,-2.23606797749979,0A2.23606797749979,2.23606797749979,0,1,1,2.23606797749979,0" fill="white" stroke="steelblue" stroke-width="1.5"/><path transform="translate(682.3104693140795,700)" d="M2.23606797749979,0A2.23606797749979,2.23606797749979,0,1,1,-2.23606797749979,0A2.23606797749979,2.23606797749979,0,1,1,2.23606797749979,0" fill="white" stroke="steelblue" stroke-width="1.5"/><path transform="translate(698.5559566787003,699.8333333333334)" d="M2.23606797749979,0A2.23606797749979,2.23606797749979,0,1,1,-2.23606797749979,0A2.23606797749979,2.23606797749979,0,1,1,2.23606797749979,0" fill="white" stroke="steelblue" stroke-width="1.5"/><path transform="translate(714.8014440433213,699.5)" d="M2.23606797749979,0A2.23606797749979,2.23606797749979,0,1,1,-2.23606797749979,0A2.23606797749979,2.23606797749979,0,1,1,2.23606797749979,0" fill="white" stroke="steelblue" stroke-width="1.5"/><path transform="translate(731.0469314079422,699)" d="M2.23606797749979,0A2.23606797749979,2.23606797749979,0,1,1,-2.23606797749979,0A2.23606797749979,2.23606797749979,0,1,1,2.23606797749979,0" fill="white" stroke="steelblue" stroke-width="1.5"/><path transform="translate(747.2924187725631,698.8333333333334)" d="M2.23606797749979,0A2.23606797749979,2.23606797749979,0,1,1,-2.23606797749979,0A2.23606797749979,2.23606797749979,0,1,1,2.23606797749979,0" fill="white" stroke="steelblue" stroke-width="1.5"/><path transform="translate(763.5379061371841,698.8333333333334)" d="M2.23606797749979,0A2.23606797749979,2.23606797749979,0,1,1,-2.23606797749979,0A2.23606797749979,2.23606797749979,0,1,1,2.23606797749979,0" fill="white" stroke="steelblue" stroke-width="1.5"/><path transform="translate(779.783393501805,698.6666666666667)" d="M2.23606797749979,0A2.23606797749979,2.23606797749979,0,1,1,-2.23606797749979,0A2.23606797749979,2.23606797749979,0,1,1,2.23606797749979,0" fill="white" stroke="steelblue" stroke-width="1.5"/><path transform="translate(796.028880866426,698.3333333333334)" d="M2.23606797749979,0A2.23606797749979,2.23606797749979,0,1,1,-2.23606797749979,0A2.23606797749979,2.23606797749979,0,1,1,2.23606797749979,0" fill="white" stroke="steelblue" stroke-width="1.5"/><path transform="translate(812.274368231047,697.8333333333333)" d="M2.23606797749979,0A2.23606797749979,2.23606797749979,0,1,1,-2.23606797749979,0A2.23606797749979,2.23606797749979,0,1,1,2.23606797749979,0" fill="white" stroke="steelblue" stroke-width="1.5"/><path transform="translate(828.5198555956678,697)" d="M2.23606797749979,0A2.23606797749979,2.23606797749979,0,1,1,-2.23606797749979,0A2.23606797749979,2.23606797749979,0,1,1,2.23606797749979,0" fill="white" stroke="steelblue" stroke-width="1.5"/><path transform="translate(844.7653429602889,696.5)" d="M2.23606797749979,0A2.23606797749979,2.23606797749979,0,1,1,-2.23606797749979,0A2.23606797749979,2.23606797749979,0,1,1,2.23606797749979,0" fill="white" stroke="steelblue" stroke-width="1.5"/><path transform="translate(861.0108303249099,696.5)" d="M2.23606797749979,0A2.23606797749979,2.23606797749979,0,1,1,-2.23606797749979,0A2.23606797749979,2.23606797749979,0,1,1,2.23606797749979,0" fill="white" stroke="steelblue" stroke-width="1.5"/><path transform="translate(877.2563176895306,696.5)" d="M2.23606797749979,0A2.23606797749979,2.23606797749979,0,1,1,-2.23606797749979,0A2.23606797749979,2.23606797749979,0,1,1,2.23606797749979,0" fill="white" stroke="steelblue" stroke-width="1.5"/><path transform="translate(893.5018050541516,696.3333333333333)" d="M2.23606797749979,0A2.23606797749979,2.23606797749979,0,1,1,-2.23606797749979,0A2.23606797749979,2.23606797749979,0,1,1,2.23606797749979,0" fill="white" stroke="steelblue" stroke-width="1.5"/><path transform="translate(909.7472924187725,696)" d="M2.23606797749979,0A2.23606797749979,2.23606797749979,0,1,1,-2.23606797749979,0A2.23606797749979,2.23606797749979,0,1,1,2.23606797749979,0" fill="white" stroke="steelblue" stroke-width="1.5"/><path transform="translate(925.9927797833935,695.3333333333334)" d="M2.23606797749979,0A2.23606797749979,2.23606797749979,0,1,1,-2.23606797749979,0A2.23606797749979,2.23606797749979,0,1,1,2.23606797749979,0" fill="white" stroke="steelblue" stroke-width="1.5"/><path transform="translate(942.2382671480145,694.5)" d="M2.23606797749979,0A2.23606797749979,2.23606797749979,0,1,1,-2.23606797749979,0A2.23606797749979,2.23606797749979,0,1,1,2.23606797749979,0" fill="white" stroke="steelblue" stroke-width="1.5"/><path transform="translate(958.4837545126353,694.1666666666666)" d="M2.23606797749979,0A2.23606797749979,2.23606797749979,0,1,1,-2.23606797749979,0A2.23606797749979,2.23606797749979,0,1,1,2.23606797749979,0" fill="white" stroke="steelblue" stroke-width="1.5"/><path transform="translate(974.7292418772563,694.1666666666666)" d="M2.23606797749979,0A2.23606797749979,2.23606797749979,0,1,1,-2.23606797749979,0A2.23606797749979,2.23606797749979,0,1,1,2.23606797749979,0" fill="white" stroke="steelblue" stroke-width="1.5"/><path transform="translate(990.9747292418772,693.6666666666666)" d="M2.23606797749979,0A2.23606797749979,2.23606797749979,0,1,1,-2.23606797749979,0A2.23606797749979,2.23606797749979,0,1,1,2.23606797749979,0" fill="white" stroke="steelblue" stroke-width="1.5"/><path transform="translate(1007.2202166064982,692.8333333333334)" d="M2.23606797749979,0A2.23606797749979,2.23606797749979,0,1,1,-2.23606797749979,0A2.23606797749979,2.23606797749979,0,1,1,2.23606797749979,0" fill="white" stroke="steelblue" stroke-width="1.5"/><path transform="translate(1023.4657039711192,692.6666666666666)" d="M2.23606797749979,0A2.23606797749979,2.23606797749979,0,1,1,-2.23606797749979,0A2.23606797749979,2.23606797749979,0,1,1,2.23606797749979,0" fill="white" stroke="steelblue" stroke-width="1.5"/><path transform="translate(1039.71119133574,692.3333333333334)" d="M2.23606797749979,0A2.23606797749979,2.23606797749979,0,1,1,-2.23606797749979,0A2.23606797749979,2.23606797749979,0,1,1,2.23606797749979,0" fill="white" stroke="steelblue" stroke-width="1.5"/><path transform="translate(1055.956678700361,691.5)" d="M2.23606797749979,0A2.23606797749979,2.23606797749979,0,1,1,-2.23606797749979,0A2.23606797749979,2.23606797749979,0,1,1,2.23606797749979,0" fill="white" stroke="steelblue" stroke-width="1.5"/><path transform="translate(1072.202166064982,690.8333333333334)" d="M2.23606797749979,0A2.23606797749979,2.23606797749979,0,1,1,-2.23606797749979,0A2.23606797749979,2.23606797749979,0,1,1,2.23606797749979,0" fill="white" stroke="steelblue" stroke-width="1.5"/><path transform="translate(1088.447653429603,690.3333333333333)" d="M2.23606797749979,0A2.23606797749979,2.23606797749979,0,1,1,-2.23606797749979,0A2.23606797749979,2.23606797749979,0,1,1,2.23606797749979,0" fill="white" stroke="steelblue" stroke-width="1.5"/><path transform="translate(1104.6931407942238,689.5)" d="M2.23606797749979,0A2.23606797749979,2.23606797749979,0,1,1,-2.23606797749979,0A2.23606797749979,2.23606797749979,0,1,1,2.23606797749979,0" fill="white" stroke="steelblue" stroke-width="1.5"/><path transform="translate(1120.9386281588447,689.1666666666666)" d="M2.23606797749979,0A2.23606797749979,2.23606797749979,0,1,1,-2.23606797749979,0A2.23606797749979,2.23606797749979,0,1,1,2.23606797749979,0" fill="white" stroke="steelblue" stroke-width="1.5"/><path transform="translate(1137.1841155234656,688.3333333333334)" d="M2.23606797749979,0A2.23606797749979,2.23606797749979,0,1,1,-2.23606797749979,0A2.23606797749979,2.23606797749979,0,1,1,2.23606797749979,0" fill="white" stroke="steelblue" stroke-width="1.5"/><path transform="translate(1153.4296028880867,687.3333333333333)" d="M2.23606797749979,0A2.23606797749979,2.23606797749979,0,1,1,-2.23606797749979,0A2.23606797749979,2.23606797749979,0,1,1,2.23606797749979,0" fill="white" stroke="steelblue" stroke-width="1.5"/><path transform="translate(1169.6750902527076,686.1666666666666)" d="M2.23606797749979,0A2.23606797749979,2.23606797749979,0,1,1,-2.23606797749979,0A2.23606797749979,2.23606797749979,0,1,1,2.23606797749979,0" fill="white" stroke="steelblue" stroke-width="1.5"/><path transform="translate(1185.9205776173285,682)" d="M2.23606797749979,0A2.23606797749979,2.23606797749979,0,1,1,-2.23606797749979,0A2.23606797749979,2.23606797749979,0,1,1,2.23606797749979,0" fill="white" stroke="steelblue" stroke-width="1.5"/><path transform="translate(1202.1660649819494,680.5)" d="M2.23606797749979,0A2.23606797749979,2.23606797749979,0,1,1,-2.23606797749979,0A2.23606797749979,2.23606797749979,0,1,1,2.23606797749979,0" fill="white" stroke="steelblue" stroke-width="1.5"/><path transform="translate(1218.4115523465705,676.8333333333333)" d="M2.23606797749979,0A2.23606797749979,2.23606797749979,0,1,1,-2.23606797749979,0A2.23606797749979,2.23606797749979,0,1,1,2.23606797749979,0" fill="white" stroke="steelblue" stroke-width="1.5"/><path transform="translate(1234.6570397111914,674.5)" d="M2.23606797749979,0A2.23606797749979,2.23606797749979,0,1,1,-2.23606797749979,0A2.23606797749979,2.23606797749979,0,1,1,2.23606797749979,0" fill="white" stroke="steelblue" stroke-width="1.5"/><path transform="translate(1250.9025270758123,671.1666666666666)" d="M2.23606797749979,0A2.23606797749979,2.23606797749979,0,1,1,-2.23606797749979,0A2.23606797749979,2.23606797749979,0,1,1,2.23606797749979,0" fill="white" stroke="steelblue" stroke-width="1.5"/><path transform="translate(1267.1480144404331,662.5)" d="M2.23606797749979,0A2.23606797749979,2.23606797749979,0,1,1,-2.23606797749979,0A2.23606797749979,2.23606797749979,0,1,1,2.23606797749979,0" fill="white" stroke="steelblue" stroke-width="1.5"/><path transform="translate(1283.393501805054,653.3333333333334)" d="M2.23606797749979,0A2.23606797749979,2.23606797749979,0,1,1,-2.23606797749979,0A2.23606797749979,2.23606797749979,0,1,1,2.23606797749979,0" fill="white" stroke="steelblue" stroke-width="1.5"/><path transform="translate(1299.6389891696751,634.1666666666667)" d="M2.23606797749979,0A2.23606797749979,2.23606797749979,0,1,1,-2.23606797749979,0A2.23606797749979,2.23606797749979,0,1,1,2.23606797749979,0" fill="white" stroke="steelblue" stroke-width="1.5"/><path transform="translate(1315.884476534296,615.6666666666666)" d="M2.23606797749979,0A2.23606797749979,2.23606797749979,0,1,1,-2.23606797749979,0A2.23606797749979,2.23606797749979,0,1,1,2.23606797749979,0" fill="white" stroke="steelblue" stroke-width="1.5"/><path transform="translate(1332.129963898917,582.1666666666667)" d="M2.23606797749979,0A2.23606797749979,2.23606797749979,0,1,1,-2.23606797749979,0A2.23606797749979,2.23606797749979,0,1,1,2.23606797749979,0" fill="white" stroke="steelblue" stroke-width="1.5"/><path transform="translate(1348.375451263538,546)" d="M2.23606797749979,0A2.23606797749979,2.23606797749979,0,1,1,-2.23606797749979,0A2.23606797749979,2.23606797749979,0,1,1,2.23606797749979,0" fill="white" stroke="steelblue" stroke-width="1.5"/><path transform="translate(1364.620938628159,501.8333333333333)" d="M2.23606797749979,0A2.23606797749979,2.23606797749979,0,1,1,-2.23606797749979,0A2.23606797749979,2.23606797749979,0,1,1,2.23606797749979,0" fill="white" stroke="steelblue" stroke-width="1.5"/><path transform="translate(1380.8664259927798,449.1666666666667)" d="M2.23606797749979,0A2.23606797749979,2.23606797749979,0,1,1,-2.23606797749979,0A2.23606797749979,2.23606797749979,0,1,1,2.23606797749979,0" fill="white" stroke="steelblue" stroke-width="1.5"/><path transform="translate(1397.1119133574007,386.6666666666667)" d="M2.23606797749979,0A2.23606797749979,2.23606797749979,0,1,1,-2.23606797749979,0A2.23606797749979,2.23606797749979,0,1,1,2.23606797749979,0" fill="white" stroke="steelblue" stroke-width="1.5"/><path transform="translate(1413.3574007220216,330.16666666666663)" d="M2.23606797749979,0A2.23606797749979,2.23606797749979,0,1,1,-2.23606797749979,0A2.23606797749979,2.23606797749979,0,1,1,2.23606797749979,0" fill="white" stroke="steelblue" stroke-width="1.5"/><path transform="translate(1429.6028880866427,267.83333333333337)" d="M2.23606797749979,0A2.23606797749979,2.23606797749979,0,1,1,-2.23606797749979,0A2.23606797749979,2.23606797749979,0,1,1,2.23606797749979,0" fill="white" stroke="steelblue" stroke-width="1.5"/><path transform="translate(1445.8483754512636,207.66666666666663)" d="M2.23606797749979,0A2.23606797749979,2.23606797749979,0,1,1,-2.23606797749979,0A2.23606797749979,2.23606797749979,0,1,1,2.23606797749979,0" fill="white" stroke="steelblue" stroke-width="1.5"/><path transform="translate(1462.0938628158844,147.83333333333334)" d="M2.23606797749979,0A2.23606797749979,2.23606797749979,0,1,1,-2.23606797749979,0A2.23606797749979,2.23606797749979,0,1,1,2.23606797749979,0" fill="white" stroke="steelblue" stroke-width="1.5"/><path transform="translate(1478.3393501805053,93.50000000000003)" d="M2.23606797749979,0A2.23606797749979,2.23606797749979,0,1,1,-2.23606797749979,0A2.23606797749979,2.23606797749979,0,1,1,2.23606797749979,0" fill="white" stroke="steelblue" stroke-width="1.5"/><path transform="translate(1494.5848375451262,47.833333333333364)" d="M2.23606797749979,0A2.23606797749979,2.23606797749979,0,1,1,-2.23606797749979,0A2.23606797749979,2.23606797749979,0,1,1,2.23606797749979,0" fill="white" stroke="steelblue" stroke-width="1.5"/></g><g class="mark-group role-title"><g transform="translate(706,-35)"><path class="background" aria-hidden="true" d="M0,0h0v0h0Z" pointer-events="none"/><g><g class="mark-text role-title-text" role="graphics-symbol" aria-roledescription="title" aria-label="Title text 'Total COVID-19 cases in 'Bezirk Amstetten' (absolute)'" pointer-events="none"><text text-anchor="middle" transform="translate(0,19)" font-family="sans-serif" font-size="24px" font-weight="bold" fill="#000" opacity="1">Total COVID-19 cases in 'Bezirk Amstetten' (absolute)</text></g></g><path class="foreground" aria-hidden="true" d="" pointer-events="none" display="none"/></g></g></g><path class="foreground" aria-hidden="true" d="" display="none"/></g></g></g></svg>