<svg xmlns="http://www.w3.org/2000/svg" xmlns:xlink="http://www.w3.org/1999/xlink" version="1.1" class="marks" width="1582" height="900" viewBox="0 0 1582 900"><g fill="none" stroke-miterlimit="10" transform="translate(74,40)"><g class="mark-group role-frame root" role="graphics-object" aria-roledescription="group mark container"><g transform="translate(0,0)"><path class="background" aria-hidden="true" d="M0,0h1500v750h-1500Z"/><g><g class="mark-group role-axis" role="graphics-symbol" aria-roledescription="axis" aria-label="Y-axis titled 'Active COVID-19 cases (absolute)' for a linear scale with values from 0 to 160"><g transform="translate(0.5,0.5)"><path class="background" aria-hidden="true" d="M0,0h0v0h0Z" pointer-events="none"/><g><g class="mark-rule role-axis-grid" pointer-events="none"><line transform="translate(0,750)" x2="1500" y2="0" stroke="#ddd" stroke-width="1" opacity="1"/><line transform="translate(0,656)" x2="1500" y2="0" stroke="#ddd" stroke-width="1" opacity="1"/><line transform="translate(0,563)" x2="1500" y2="0" stroke="#ddd" stroke-width="1" opacity="1"/><line transform="translate(0,469)" x2="1500" y2="0" stroke="#ddd" stroke-width="1" opacity="1"/><line transform="translate(0,375)" x2="1500" y2="0" stroke="#ddd" stroke-width="1" opacity="1"/><line transform="translate(0,281)" x2="1500" y2="0" stroke="#ddd" stroke-width="1" opacity="1"/><line transform="translate(0,188)" x2="1500" y2="0" stroke="#ddd" stroke-width="1" opacity="1"/><line transform="translate(0,94)" x2="1500" y2="0" stroke="#ddd" stroke-width="1" opacity="1"/><line transform="translate(0,0)" x2="1500" y2="0" stroke="#ddd" stroke-width="1" opacity="1"/></g><g class="mark-rule role-axis-tick" pointer-events="none"><line transform="translate(0,750)" x2="-5" y2="0" stroke="#888" stroke-width="1" opacity="1"/><line transform="translate(0,656)" x2="-5" y2="0" stroke="#888" stroke-width="1" opacity="1"/><line transform="translate(0,563)" x2="-5" y2="0" stroke="#888" stroke-width="1" opacity="1"/><line transform="translate(0,469)" x2="-5" y2="0" stroke="#888" stroke-width="1" opacity="1"/><line transform="translate(0,375)" x2="-5" y2="0" stroke="#888" stroke-width="1" opacity="1"/><line transform="translate(0,281)" x2="-5" y2="0" stroke="#888" stroke-width="1" opacity="1"/><line transform="translate(0,188)" x2="-5" y2="0" stroke="#888" stroke-width="1" opacity="1"/><line transform="translate(0,94)" x2="-5" y2="0" stroke="#888" stroke-width="1" opacity="1"/><line transform="translate(0,0)" x2="-5" y2="0" stroke="#888" stroke-width="1" opacity="1"/></g><g class="mark-text role-axis-label" pointer-events="none"><text text-anchor="end" transform="translate(-7,754)" font-family="sans-serif" font-size="14px" fill="#000" opacity="1">0</text><text text-anchor="end" transform="translate(-7,660.25)" font-family="sans-serif" font-size="14px" fill="#000" opacity="1">20</text><text text-anchor="end" transform="translate(-7,566.5)" font-family="sans-serif" font-size="14px" fill="#000" opacity="1">40</text><text text-anchor="end" transform="translate(-7,472.75)" font-family="sans-serif" font-size="14px" fill="#000" opacity="1">60</text><text text-anchor="end" transform="translate(-7,379)" font-family="sans-serif" font-size="14px" fill="#000" opacity="1">80</text><text text-anchor="end" transform="translate(-7,285.25)" font-family="sans-serif" font-size="14px" fill="#000" opacity="1">100</text><text text-anchor="end" transform="translate(-7,191.5)" font-family="sans-serif" font-size="14px" fill="#000" opacity="1">120</text><text text-anchor="end" transform="translate(-7,97.75)" font-family="sans-serif" font-size="14px" fill="#000" opacity="1">140</text><text text-anchor="end" transform="translate(-7,4)" font-family="sans-serif" font-size="14px" fill="#000" opacity="1">160</text></g><g class="mark-rule role-axis-domain" pointer-events="none"><line transform="translate(0,750)" x2="0" y2="-750" stroke="#888" stroke-width="1" opacity="1"/></g><g class="mark-text role-axis-title" pointer-events="none"><text text-anchor="middle" transform="translate(-50,375) rotate(-90) translate(0,-4)" font-family="sans-serif" font-size="18px" font-weight="bold" fill="#000" opacity="1">Active COVID-19 cases (absolute)</text></g></g><path class="foreground" aria-hidden="true" d="" pointer-events="none" display="none"/></g></g><g class="mark-group role-axis" role="graphics-symbol" aria-roledescription="axis" aria-label="X-axis titled 'Date' for a linear scale with values from 2020-02-26 to 2020-10-21"><g transform="translate(0.5,750.5)"><path class="background" aria-hidden="true" d="M0,0h0v0h0Z" pointer-events="none"/><g><g class="mark-rule role-axis-tick" pointer-events="none"><line transform="translate(24,0)" x2="0" y2="5" stroke="#888" stroke-width="1" opacity="1"/><line transform="translate(97,0)" x2="0" y2="5" stroke="#888" stroke-width="1" opacity="1"/><line transform="translate(170,0)" x2="0" y2="5" stroke="#888" stroke-width="1" opacity="1"/><line transform="translate(243,0)" x2="0" y2="5" stroke="#888" stroke-width="1" opacity="1"/><line transform="translate(315,0)" x2="0" y2="5" stroke="#888" stroke-width="1" opacity="1"/><line transform="translate(388,0)" x2="0" y2="5" stroke="#888" stroke-width="1" opacity="1"/><line transform="translate(461,0)" x2="0" y2="5" stroke="#888" stroke-width="1" opacity="1"/><line transform="translate(534,0)" x2="0" y2="5" stroke="#888" stroke-width="1" opacity="1"/><line transform="translate(607,0)" x2="0" y2="5" stroke="#888" stroke-width="1" opacity="1"/><line transform="translate(680,0)" x2="0" y2="5" stroke="#888" stroke-width="1" opacity="1"/><line transform="translate(753,0)" x2="0" y2="5" stroke="#888" stroke-width="1" opacity="1"/><line transform="translate(826,0)" x2="0" y2="5" stroke="#888" stroke-width="1" opacity="1"/><line transform="translate(899,0)" x2="0" y2="5" stroke="#888" stroke-width="1" opacity="1"/><line transform="translate(972,0)" x2="0" y2="5" stroke="#888" stroke-width="1" opacity="1"/><line transform="translate(1045,0)" x2="0" y2="5" stroke="#888" stroke-width="1" opacity="1"/><line transform="translate(1118,0)" x2="0" y2="5" stroke="#888" stroke-width="1" opacity="1"/><line transform="translate(1191,0)" x2="0" y2="5" stroke="#888" stroke-width="1" opacity="1"/><line transform="translate(1264,0)" x2="0" y2="5" stroke="#888" stroke-width="1" opacity="1"/><line transform="translate(1337,0)" x2="0" y2="5" stroke="#888" stroke-width="1" opacity="1"/><line transform="translate(1410,0)" x2="0" y2="5" stroke="#888" stroke-width="1" opacity="1"/><line transform="translate(1483,0)" x2="0" y2="5" stroke="#888" stroke-width="1" opacity="1"/></g><g class="mark-text role-axis-label" pointer-events="none"><text text-anchor="end" transform="translate(23.69281045751634,7) rotate(-35) translate(0,11)" font-family="sans-serif" font-size="14px" fill="#000" opacity="1">2020-02-29</text><text text-anchor="end" transform="translate(96.63865546218486,7) rotate(-35) translate(0,11)" font-family="sans-serif" font-size="14px" fill="#000" opacity="1">2020-03-12</text><text text-anchor="end" transform="translate(169.5845004668534,7) rotate(-35) translate(0,11)" font-family="sans-serif" font-size="14px" fill="#000" opacity="1">2020-03-23</text><text text-anchor="end" transform="translate(242.53034547152194,7) rotate(-35) translate(0,11)" font-family="sans-serif" font-size="14px" fill="#000" opacity="1">2020-04-04</text><text text-anchor="end" transform="translate(315.4761904761905,7) rotate(-35) translate(0,11)" font-family="sans-serif" font-size="14px" fill="#000" opacity="1">2020-04-16</text><text text-anchor="end" transform="translate(388.422035480859,7) rotate(-35) translate(0,11)" font-family="sans-serif" font-size="14px" fill="#000" opacity="1">2020-04-27</text><text text-anchor="end" transform="translate(461.3678804855275,7) rotate(-35) translate(0,11)" font-family="sans-serif" font-size="14px" fill="#000" opacity="1">2020-05-09</text><text text-anchor="end" transform="translate(534.3137254901961,7) rotate(-35) translate(0,11)" font-family="sans-serif" font-size="14px" fill="#000" opacity="1">2020-05-20</text><text text-anchor="end" transform="translate(607.2595704948646,7) rotate(-35) translate(0,11)" font-family="sans-serif" font-size="14px" fill="#000" opacity="1">2020-06-01</text><text text-anchor="end" transform="translate(680.2054154995332,7) rotate(-35) translate(0,11)" font-family="sans-serif" font-size="14px" fill="#000" opacity="1">2020-06-12</text><text text-anchor="end" transform="translate(753.1512605042017,7) rotate(-35) translate(0,11)" font-family="sans-serif" font-size="14px" fill="#000" opacity="1">2020-06-24</text><text text-anchor="end" transform="translate(826.0971055088702,7) rotate(-35) translate(0,11)" font-family="sans-serif" font-size="14px" fill="#000" opacity="1">2020-07-06</text><text text-anchor="end" transform="translate(899.0429505135388,7) rotate(-35) translate(0,11)" font-family="sans-serif" font-size="14px" fill="#000" opacity="1">2020-07-17</text><text text-anchor="end" transform="translate(971.9887955182073,7) rotate(-35) translate(0,11)" font-family="sans-serif" font-size="14px" fill="#000" opacity="1">2020-07-29</text><text text-anchor="end" transform="translate(1044.9346405228757,7) rotate(-35) translate(0,11)" font-family="sans-serif" font-size="14px" fill="#000" opacity="1">2020-08-09</text><text text-anchor="end" transform="translate(1117.8804855275444,7) rotate(-35) translate(0,11)" font-family="sans-serif" font-size="14px" fill="#000" opacity="1">2020-08-21</text><text text-anchor="end" transform="translate(1190.8263305322128,7) rotate(-35) translate(0,11)" font-family="sans-serif" font-size="14px" fill="#000" opacity="1">2020-09-01</text><text text-anchor="end" transform="translate(1263.7721755368814,7) rotate(-35) translate(0,11)" font-family="sans-serif" font-size="14px" fill="#000" opacity="1">2020-09-13</text><text text-anchor="end" transform="translate(1336.71802054155,7) rotate(-35) translate(0,11)" font-family="sans-serif" font-size="14px" fill="#000" opacity="1">2020-09-25</text><text text-anchor="end" transform="translate(1409.6638655462184,7) rotate(-35) translate(0,11)" font-family="sans-serif" font-size="14px" fill="#000" opacity="1">2020-10-06</text><text text-anchor="end" transform="translate(1482.609710550887,7) rotate(-35) translate(0,11)" font-family="sans-serif" font-size="14px" fill="#000" opacity="1">2020-10-18</text></g><g class="mark-rule role-axis-domain" pointer-events="none"><line transform="translate(0,0)" x2="1500" y2="0" stroke="#888" stroke-width="1" opacity="1"/></g><g class="mark-text role-axis-title" pointer-events="none"><text text-anchor="middle" transform="translate(750,100.70868949136309)" font-family="sans-serif" font-size="18px" font-weight="bold" fill="#000" opacity="1">Date</text></g></g><path class="foreground" aria-hidden="true" d="" pointer-events="none" display="none"/></g></g><g class="mark-line role-mark" role="graphics-symbol" aria-roledescription="line mark container"><path d="M0,750C2.100840336134454,750,4.201680672268907,750,6.302521008403361,750C8.403361344537815,750,10.504201680672269,750,12.605042016806722,750C14.705882352941176,750,16.80672268907563,750,18.907563025210084,750C21.008403361344538,750,23.10924369747899,750,25.210084033613445,750C27.310924369747898,750,29.411764705882355,750,31.51260504201681,750C33.61344537815126,750,35.714285714285715,750,37.81512605042017,750C39.91596638655462,750,42.016806722689076,750,44.11764705882353,750C46.21848739495798,750,48.319327731092436,750,50.42016806722689,750C52.52100840336134,750,54.621848739495796,750,56.72268907563025,750C58.8235294117647,750,60.92436974789916,750,63.02521008403362,750C65.12605042016807,750,67.22689075630252,750,69.32773109243698,750C71.42857142857143,750,73.52941176470588,750,75.63025210084034,750C77.73109243697479,750,79.83193277310924,740.625,81.9327731092437,740.625C84.03361344537815,740.625,86.1344537815126,740.625,88.23529411764706,740.625C90.33613445378151,740.625,92.43697478991596,739.0625,94.53781512605042,735.9375C96.63865546218487,732.8125,98.73949579831933,725.78125,100.84033613445378,712.5C102.94117647058823,699.21875,105.04201680672269,672.65625,107.14285714285714,656.25C109.24369747899159,639.84375,111.34453781512605,617.1875,113.4453781512605,614.0625C115.54621848739495,610.9375,117.6470588235294,612.5,119.74789915966386,609.375C121.84873949579831,606.25,123.94957983193278,596.875,126.05042016806723,581.25C128.1512605042017,565.625,130.25210084033614,532.03125,132.3529411764706,515.625C134.45378151260505,499.21875000000006,136.55462184873952,490.62500000000006,138.65546218487395,482.81250000000006C140.75630252100842,475,142.85714285714286,477.34375000000006,144.95798319327733,468.75C147.05882352941177,460.15625,149.15966386554624,446.8749999999999,151.26050420168067,431.24999999999994C153.36134453781514,415.62499999999994,155.46218487394958,390.625,157.56302521008405,375C159.6638655462185,359.37500000000006,161.76470588235296,350.78124999999994,163.8655462184874,337.49999999999994C165.96638655462183,324.21874999999994,168.0672268907563,311.71875,170.16806722689074,295.31250000000006C172.2689075630252,278.90625000000006,174.36974789915965,263.28125000000006,176.47058823529412,239.06249999999997C178.57142857142856,214.84375,180.67226890756302,172.65624999999994,182.77310924369746,149.99999999999997C184.87394957983193,127.34374999999989,186.97478991596637,109.37499999999996,189.07563025210084,103.12499999999997C191.1764705882353,96.87499999999999,193.27731092436974,93.75,195.3781512605042,93.75C197.47899159663865,93.75,199.57983193277312,95.3125,201.68067226890756,98.43749999999999C203.78151260504202,101.56249999999999,205.88235294117646,126.56249999999997,207.98319327731093,126.56249999999997C210.08403361344537,126.56249999999997,212.18487394957984,106.24999999999994,214.28571428571428,103.12499999999997C216.38655462184875,99.99999999999999,218.48739495798318,101.56249999999997,220.58823529411765,98.43749999999999C222.6890756302521,95.31250000000001,224.78991596638656,76.56249999999994,226.890756302521,70.3125C228.99159663865547,64.06250000000003,231.0924369747899,60.937500000000036,233.19327731092437,60.937500000000036C235.2941176470588,60.937500000000036,237.39495798319328,60.937500000000036,239.49579831932772,60.937500000000036C241.5966386554622,60.937500000000036,243.69747899159663,57.81249999999997,245.7983193277311,56.249999999999964C247.89915966386556,54.68749999999996,250,51.562499999999986,252.10084033613447,51.562499999999986C254.2016806722689,51.562499999999986,256.30252100840335,56.249999999999964,258.4033613445378,56.249999999999964C260.5042016806723,56.249999999999964,262.60504201680675,46.875,264.7058823529412,46.875C266.8067226890756,46.875,268.9075630252101,60.937500000000036,271.0084033613445,60.937500000000036C273.109243697479,60.937500000000036,275.21008403361344,60.937500000000036,277.3109243697479,60.937500000000036C279.4117647058824,60.937500000000036,281.5126050420168,60.937500000000036,283.61344537815125,60.937500000000036C285.7142857142857,60.937500000000036,287.8151260504202,81.24999999999986,289.91596638655466,93.75C292.01680672268907,106.24999999999991,294.11764705882354,113.28125000000038,296.21848739495795,135.93750000000003C298.3193277310924,158.59375000000009,300.4201680672269,207.81250000000003,302.52100840336135,229.68750000000003C304.6218487394958,251.56249999999983,306.7226890756302,253.90625,308.8235294117647,267.18749999999994C310.92436974789916,280.46875,313.02521008403363,292.9687499999998,315.1260504201681,309.375C317.2268907563025,325.7812499999999,319.327731092437,365.62500000000006,321.4285714285714,365.62500000000006C323.52941176470586,365.62500000000006,325.6302521008403,365.62500000000006,327.7310924369748,365.62500000000006C329.83193277310926,365.62500000000006,331.9327731092437,367.96875,334.0336134453782,370.3125C336.1344537815126,372.65625,338.2352941176471,373.4375,340.3361344537815,379.6875C342.43697478991595,385.9375000000001,344.5378151260504,423.4375,346.6386554621849,426.5625C348.73949579831935,429.68749999999994,350.84033613445376,428.125,352.94117647058823,431.24999999999994C355.0420168067227,434.37499999999994,357.14285714285717,435.93749999999994,359.24369747899163,445.3125C361.34453781512605,454.6874999999999,363.4453781512605,490.62500000000006,365.5462184873949,496.875C367.6470588235294,503.12500000000006,369.74789915966386,506.25000000000006,371.8487394957983,506.25000000000006C373.9495798319328,506.25000000000006,376.0504201680672,506.25000000000006,378.1512605042017,506.25000000000006C380.25210084033614,506.25000000000006,382.35294117647055,517.96875,384.453781512605,525C386.5546218487395,532.03125,388.65546218487395,548.4375,390.7563025210084,548.4375C392.8571428571429,548.4375,394.9579831932773,548.4375,397.05882352941177,548.4375C399.15966386554624,548.4375,401.26050420168065,581.25,403.3613445378151,590.625C405.4621848739496,600,407.563025210084,600.78125,409.66386554621846,604.6875C411.7647058823529,608.59375,413.8655462184874,610.9375,415.96638655462186,614.0625C418.06722689075633,617.1875,420.16806722689074,620.3125,422.2689075630252,623.4375C424.3697478991597,626.5625,426.4705882352941,629.6875,428.57142857142856,632.8125C430.672268907563,635.9375,432.7731092436975,635.9375,434.87394957983196,642.1875C436.9747899159664,648.4375,439.07563025210084,668.75,441.1764705882353,675C443.2773109243698,681.25,445.3781512605042,681.25,447.47899159663865,684.375C449.5798319327731,687.5,451.68067226890753,691.40625,453.781512605042,693.75C455.88235294117646,696.09375,457.98319327731093,698.4375,460.0840336134454,698.4375C462.18487394957987,698.4375,464.2857142857143,698.4375,466.38655462184875,698.4375C468.4873949579832,698.4375,470.5882352941176,708.59375,472.6890756302521,712.5C474.78991596638656,716.40625,476.89075630252097,721.875,478.99159663865544,721.875C481.0924369747899,721.875,483.1932773109244,717.1875,485.29411764705884,717.1875C487.3949579831933,717.1875,489.4957983193277,723.4375,491.5966386554622,726.5625C493.69747899159665,729.6875,495.79831932773106,735.9375,497.89915966386553,735.9375C500,735.9375,502.10084033613447,735.9375,504.20168067226894,735.9375C506.3025210084034,735.9375,508.4033613445378,735.9375,510.5042016806723,735.9375C512.6050420168067,735.9375,514.7058823529412,739.0625,516.8067226890756,740.625C518.90756302521,742.1875,521.0084033613446,745.3125,523.109243697479,745.3125C525.2100840336135,745.3125,527.3109243697479,745.3125,529.4117647058824,745.3125C531.5126050420168,745.3125,533.6134453781514,745.3125,535.7142857142858,745.3125C537.8151260504202,745.3125,539.9159663865546,745.3125,542.016806722689,745.3125C544.1176470588234,745.3125,546.218487394958,745.3125,548.3193277310924,745.3125C550.4201680672269,745.3125,552.5210084033613,745.3125,554.6218487394958,745.3125C556.7226890756302,745.3125,558.8235294117648,745.3125,560.9243697478992,745.3125C563.0252100840336,745.3125,565.1260504201681,745.3125,567.2268907563025,745.3125C569.3277310924369,745.3125,571.4285714285714,745.3125,573.5294117647059,745.3125C575.6302521008404,745.3125,577.7310924369748,745.3125,579.8319327731093,745.3125C581.9327731092437,745.3125,584.0336134453781,745.3125,586.1344537815125,745.3125C588.235294117647,745.3125,590.3361344537815,745.3125,592.4369747899159,745.3125C594.5378151260504,745.3125,596.6386554621848,745.3125,598.7394957983194,745.3125C600.8403361344538,745.3125,602.9411764705883,745.3125,605.0420168067227,745.3125C607.1428571428571,745.3125,609.2436974789916,745.3125,611.344537815126,745.3125C613.4453781512605,745.3125,615.546218487395,745.3125,617.6470588235294,745.3125C619.7478991596639,745.3125,621.8487394957983,745.3125,623.9495798319329,745.3125C626.0504201680673,745.3125,628.1512605042018,740.625,630.2521008403362,740.625C632.3529411764706,740.625,634.453781512605,740.625,636.5546218487394,740.625C638.6554621848738,740.625,640.7563025210084,740.625,642.8571428571428,740.625C644.9579831932773,740.625,647.0588235294117,740.625,649.1596638655462,740.625C651.2605042016806,740.625,653.3613445378152,740.625,655.4621848739496,740.625C657.563025210084,740.625,659.6638655462185,745.3125,661.7647058823529,745.3125C663.8655462184875,745.3125,665.9663865546219,745.3125,668.0672268907564,745.3125C670.1680672268908,745.3125,672.2689075630253,750,674.3697478991597,750C676.4705882352941,750,678.5714285714286,750,680.672268907563,750C682.7731092436974,750,684.8739495798319,750,686.9747899159663,750C689.0756302521008,750,691.1764705882352,750,693.2773109243698,750C695.3781512605042,750,697.4789915966387,750,699.5798319327731,750C701.6806722689075,750,703.781512605042,750,705.8823529411765,750C707.9831932773109,750,710.0840336134454,750,712.1848739495798,750C714.2857142857143,750,716.3865546218487,750,718.4873949579833,750C720.5882352941177,750,722.6890756302522,750,724.7899159663866,750C726.890756302521,750,728.9915966386554,750,731.0924369747898,750C733.1932773109243,750,735.2941176470588,750,737.3949579831932,750C739.4957983193277,750,741.5966386554621,750,743.6974789915967,750C745.7983193277311,750,747.8991596638656,750,750,750C752.1008403361344,750,754.2016806722689,750,756.3025210084033,750C758.4033613445378,750,760.5042016806723,750,762.6050420168067,750C764.7058823529411,750,766.8067226890756,750,768.90756302521,750C771.0084033613446,750,773.109243697479,750,775.2100840336135,750C777.3109243697479,750,779.4117647058824,750,781.5126050420168,750C783.6134453781513,750,785.7142857142858,750,787.8151260504202,750C789.9159663865546,750,792.0168067226891,750,794.1176470588235,750C796.218487394958,750,798.3193277310925,750,800.4201680672269,750C802.5210084033613,750,804.6218487394958,745.3125,806.7226890756302,745.3125C808.8235294117646,745.3125,810.9243697478992,745.3125,813.0252100840336,745.3125C815.126050420168,745.3125,817.2268907563025,745.3125,819.3277310924369,745.3125C821.4285714285714,745.3125,823.5294117647059,742.1875,825.6302521008404,740.625C827.7310924369748,739.0625,829.8319327731093,739.0625,831.9327731092437,735.9375C834.0336134453781,732.8125,836.1344537815127,721.875,838.2352941176471,721.875C840.3361344537815,721.875,842.436974789916,721.875,844.5378151260504,721.875C846.6386554621848,721.875,848.7394957983194,721.875,850.8403361344538,721.875C852.9411764705882,721.875,855.0420168067227,717.1875,857.1428571428571,717.1875C859.2436974789915,717.1875,861.344537815126,717.1875,863.4453781512605,717.1875C865.546218487395,717.1875,867.6470588235294,717.1875,869.7478991596639,717.1875C871.8487394957983,717.1875,873.9495798319329,717.1875,876.0504201680673,717.1875C878.1512605042017,717.1875,880.2521008403362,717.1875,882.3529411764706,717.1875C884.453781512605,717.1875,886.5546218487395,720.3125,888.655462184874,721.875C890.7563025210084,723.4375,892.8571428571429,726.5625,894.9579831932773,726.5625C897.0588235294117,726.5625,899.1596638655462,721.875,901.2605042016806,721.875C903.3613445378151,721.875,905.4621848739496,721.875,907.563025210084,721.875C909.6638655462184,721.875,911.7647058823529,724.21875,913.8655462184873,726.5625C915.9663865546219,728.90625,918.0672268907563,735.9375,920.1680672268908,735.9375C922.2689075630252,735.9375,924.3697478991597,734.375,926.4705882352941,731.25C928.5714285714286,728.125,930.6722689075631,717.1875,932.7731092436975,717.1875C934.8739495798319,717.1875,936.9747899159664,717.1875,939.0756302521008,717.1875C941.1764705882352,717.1875,943.2773109243698,717.1875,945.3781512605042,717.1875C947.4789915966386,717.1875,949.5798319327731,714.84375,951.6806722689075,712.5C953.7815126050419,710.15625,955.8823529411765,705.46875,957.9831932773109,703.125C960.0840336134454,700.78125,962.1848739495798,698.4375,964.2857142857143,698.4375C966.3865546218487,698.4375,968.4873949579833,698.4375,970.5882352941177,698.4375C972.6890756302521,698.4375,974.7899159663866,693.75,976.890756302521,693.75C978.9915966386554,693.75,981.09243697479,696.875,983.1932773109244,698.4375C985.2941176470588,700,987.3949579831933,700.78125,989.4957983193277,703.125C991.5966386554621,705.46875,993.6974789915967,712.5,995.7983193277311,712.5C997.8991596638655,712.5,1000,712.5,1002.1008403361344,712.5C1004.2016806722689,712.5,1006.3025210084033,719.53125,1008.4033613445379,721.875C1010.5042016806723,724.21875,1012.6050420168068,726.5625,1014.7058823529412,726.5625C1016.8067226890756,726.5625,1018.9075630252102,726.5625,1021.0084033613446,726.5625C1023.109243697479,726.5625,1025.2100840336134,742.1875,1027.310924369748,745.3125C1029.4117647058824,748.4375,1031.5126050420167,750,1033.6134453781513,750C1035.7142857142858,750,1037.81512605042,746.875,1039.9159663865546,745.3125C1042.0168067226891,743.75,1044.1176470588234,742.1875,1046.218487394958,740.625C1048.3193277310925,739.0625,1050.4201680672268,735.9375,1052.5210084033613,735.9375C1054.6218487394958,735.9375,1056.7226890756303,735.9375,1058.8235294117649,735.9375C1060.9243697478994,735.9375,1063.0252100840337,728.90625,1065.1260504201682,726.5625C1067.2268907563027,724.21875,1069.327731092437,723.4375,1071.4285714285716,721.875C1073.529411764706,720.3125,1075.6302521008404,718.75,1077.731092436975,717.1875C1079.8319327731092,715.625,1081.9327731092437,714.8437499999999,1084.033613445378,712.5C1086.1344537815125,710.15625,1088.2352941176468,706.25,1090.3361344537814,703.125C1092.436974789916,700,1094.5378151260502,696.09375,1096.6386554621847,693.75C1098.7394957983192,691.4062499999999,1100.8403361344538,689.0625,1102.9411764705883,689.0625C1105.0420168067228,689.0625,1107.142857142857,698.4375,1109.2436974789916,698.4375C1111.3445378151262,698.4375,1113.4453781512605,693.75,1115.546218487395,693.75C1117.6470588235295,693.75,1119.7478991596638,696.09375,1121.8487394957983,698.4375C1123.9495798319329,700.78125,1126.0504201680671,704.6875,1128.1512605042017,707.8125C1130.2521008403362,710.9375,1132.3529411764705,717.1875,1134.453781512605,717.1875C1136.5546218487395,717.1875,1138.6554621848738,717.1875,1140.7563025210084,717.1875C1142.857142857143,717.1875,1144.9579831932772,718.7500000000001,1147.0588235294117,721.875C1149.1596638655462,725,1151.2605042016808,735.9375,1153.3613445378153,735.9375C1155.4621848739498,735.9375,1157.563025210084,731.25,1159.6638655462186,731.25C1161.7647058823532,731.25,1163.8655462184875,731.25,1165.966386554622,731.25C1168.0672268907563,731.25,1170.1680672268908,717.1875,1172.268907563025,717.1875C1174.3697478991596,717.1875,1176.470588235294,717.1875,1178.5714285714284,717.1875C1180.672268907563,717.1875,1182.7731092436973,717.1875,1184.8739495798318,717.1875C1186.9747899159663,717.1875,1189.0756302521006,717.1875,1191.1764705882351,717.1875C1193.2773109243697,717.1875,1195.3781512605042,717.1875,1197.4789915966387,717.1875C1199.5798319327732,717.1875,1201.6806722689075,717.1875,1203.781512605042,717.1875C1205.8823529411766,717.1875,1207.9831932773109,717.1875,1210.0840336134454,717.1875C1212.18487394958,717.1875,1214.2857142857142,717.1875,1216.3865546218487,717.1875C1218.4873949579833,717.1875,1220.5882352941176,703.125,1222.689075630252,703.125C1224.7899159663866,703.125,1226.890756302521,712.5,1228.9915966386554,712.5C1231.09243697479,712.5,1233.1932773109243,710.15625,1235.2941176470588,707.8125C1237.3949579831933,705.46875,1239.4957983193276,700.78125,1241.5966386554621,698.4375C1243.6974789915967,696.0937499999999,1245.7983193277312,693.75,1247.8991596638657,693.75C1250.0000000000002,693.75,1252.1008403361345,698.4375,1254.201680672269,698.4375C1256.3025210084036,698.4375,1258.4033613445379,693.75,1260.5042016806724,693.75C1262.6050420168067,693.75,1264.7058823529412,698.4375,1266.8067226890755,698.4375C1268.90756302521,698.4375,1271.0084033613443,693.75,1273.1092436974789,693.75C1275.2100840336134,693.75,1277.3109243697477,698.4375,1279.4117647058822,698.4375C1281.5126050420167,698.4375,1283.613445378151,684.375,1285.7142857142856,684.375C1287.81512605042,684.375,1289.9159663865546,693.75,1292.0168067226891,693.75C1294.1176470588236,693.75,1296.218487394958,693.75,1298.3193277310925,693.75C1300.420168067227,693.75,1302.5210084033613,693.75,1304.6218487394958,693.75C1306.7226890756303,693.75,1308.8235294117646,703.125,1310.9243697478992,703.125C1313.0252100840337,703.125,1315.126050420168,696.09375,1317.2268907563025,693.75C1319.327731092437,691.40625,1321.4285714285713,691.40625,1323.5294117647059,689.0625C1325.6302521008404,686.71875,1327.7310924369747,679.6875,1329.8319327731092,679.6875C1331.9327731092437,679.6875,1334.0336134453783,684.375,1336.1344537815128,684.375C1338.2352941176473,684.375,1340.3361344537816,679.6875,1342.4369747899161,679.6875C1344.5378151260506,679.6875,1346.638655462185,689.0625,1348.7394957983195,689.0625C1350.840336134454,689.0625,1352.9411764705883,687.5,1355.0420168067228,684.375C1357.142857142857,681.2500000000001,1359.2436974789916,667.1875,1361.344537815126,660.9375C1363.4453781512605,654.6874999999999,1365.5462184873948,652.34375,1367.6470588235293,646.875C1369.7478991596638,641.40625,1371.848739495798,640.625,1373.9495798319326,628.125C1376.0504201680671,615.625,1378.1512605042014,557.8124999999997,1380.252100840336,548.4375C1382.3529411764705,539.0625,1384.453781512605,534.375,1386.5546218487395,534.375C1388.655462184874,534.375,1390.7563025210084,534.375,1392.857142857143,534.375C1394.9579831932774,534.375,1397.0588235294117,518.75,1399.1596638655462,515.625C1401.2605042016808,512.5,1403.361344537815,514.0625,1405.4621848739496,510.9375C1407.563025210084,507.8125,1409.6638655462184,498.4375,1411.764705882353,492.1875C1413.8655462184875,485.9375,1415.9663865546217,473.4375,1418.0672268907563,473.4375C1420.1680672268908,473.4375,1422.268907563025,487.5,1424.3697478991596,487.5C1426.4705882352941,487.5,1428.5714285714287,482.81250000000006,1430.6722689075632,482.81250000000006C1432.7731092436977,482.81250000000006,1434.873949579832,506.25000000000006,1436.9747899159665,506.25000000000006C1439.075630252101,506.25000000000006,1441.1764705882354,506.25000000000006,1443.2773109243699,506.25000000000006C1445.3781512605044,506.25000000000006,1447.4789915966387,490.62500000000017,1449.5798319327732,482.81250000000006C1451.6806722689075,475.00000000000017,1453.781512605042,471.0937499999997,1455.8823529411764,459.37500000000006C1457.9831932773109,447.65625,1460.0840336134452,433.59375000000006,1462.1848739495797,412.50000000000006C1464.2857142857142,391.40625000000006,1466.3865546218485,351.5625,1468.487394957983,332.8125C1470.5882352941176,314.0625,1472.6890756302519,321.875,1474.7899159663864,300C1476.890756302521,278.1249999999992,1478.9915966386554,223.43750000000017,1481.09243697479,196.87499999999997C1483.1932773109245,170.31250000000074,1485.2941176470588,156.25,1487.3949579831933,140.625C1489.4957983193278,125,1491.5966386554621,111.71874999999997,1493.6974789915967,103.12499999999997C1495.7983193277312,94.53124999999997,1497.8991596638655,91.796875,1500,89.06250000000001" stroke="steelblue" stroke-width="3"/></g><g class="mark-symbol role-mark" role="graphics-symbol" aria-roledescription="symbol mark container"><path transform="translate(0,750)" d="M2.23606797749979,0A2.23606797749979,2.23606797749979,0,1,1,-2.23606797749979,0A2.23606797749979,2.23606797749979,0,1,1,2.23606797749979,0" fill="white" stroke="steelblue" stroke-width="1.5"/><path transform="translate(18.907563025210084,750)" d="M2.23606797749979,0A2.23606797749979,2.23606797749979,0,1,1,-2.23606797749979,0A2.23606797749979,2.23606797749979,0,1,1,2.23606797749979,0" fill="white" stroke="steelblue" stroke-width="1.5"/><path transform="translate(37.81512605042017,750)" d="M2.23606797749979,0A2.23606797749979,2.23606797749979,0,1,1,-2.23606797749979,0A2.23606797749979,2.23606797749979,0,1,1,2.23606797749979,0" fill="white" stroke="steelblue" stroke-width="1.5"/><path transform="translate(56.72268907563025,750)" d="M2.23606797749979,0A2.23606797749979,2.23606797749979,0,1,1,-2.23606797749979,0A2.23606797749979,2.23606797749979,0,1,1,2.23606797749979,0" fill="white" stroke="steelblue" stroke-width="1.5"/><path transform="translate(75.63025210084034,750)" d="M2.23606797749979,0A2.23606797749979,2.23606797749979,0,1,1,-2.23606797749979,0A2.23606797749979,2.23606797749979,0,1,1,2.23606797749979,0" fill="white" stroke="steelblue" stroke-width="1.5"/><path transform="translate(94.53781512605042,735.9375)" d="M2.23606797749979,0A2.23606797749979,2.23606797749979,0,1,1,-2.23606797749979,0A2.23606797749979,2.23606797749979,0,1,1,2.23606797749979,0" fill="white" stroke="steelblue" stroke-width="1.5"/><path transform="translate(113.4453781512605,614.0625)" d="M2.23606797749979,0A2.23606797749979,2.23606797749979,0,1,1,-2.23606797749979,0A2.23606797749979,2.23606797749979,0,1,1,2.23606797749979,0" fill="white" stroke="steelblue" stroke-width="1.5"/><path transform="translate(132.3529411764706,515.625)" d="M2.23606797749979,0A2.23606797749979,2.23606797749979,0,1,1,-2.23606797749979,0A2.23606797749979,2.23606797749979,0,1,1,2.23606797749979,0" fill="white" stroke="steelblue" stroke-width="1.5"/><path transform="translate(151.26050420168067,431.24999999999994)" d="M2.23606797749979,0A2.23606797749979,2.23606797749979,0,1,1,-2.23606797749979,0A2.23606797749979,2.23606797749979,0,1,1,2.23606797749979,0" fill="white" stroke="steelblue" stroke-width="1.5"/><path transform="translate(170.16806722689074,295.31250000000006)" d="M2.23606797749979,0A2.23606797749979,2.23606797749979,0,1,1,-2.23606797749979,0A2.23606797749979,2.23606797749979,0,1,1,2.23606797749979,0" fill="white" stroke="steelblue" stroke-width="1.5"/><path transform="translate(189.07563025210084,103.12499999999997)" d="M2.23606797749979,0A2.23606797749979,2.23606797749979,0,1,1,-2.23606797749979,0A2.23606797749979,2.23606797749979,0,1,1,2.23606797749979,0" fill="white" stroke="steelblue" stroke-width="1.5"/><path transform="translate(207.98319327731093,126.56249999999997)" d="M2.23606797749979,0A2.23606797749979,2.23606797749979,0,1,1,-2.23606797749979,0A2.23606797749979,2.23606797749979,0,1,1,2.23606797749979,0" fill="white" stroke="steelblue" stroke-width="1.5"/><path transform="translate(226.890756302521,70.3125)" d="M2.23606797749979,0A2.23606797749979,2.23606797749979,0,1,1,-2.23606797749979,0A2.23606797749979,2.23606797749979,0,1,1,2.23606797749979,0" fill="white" stroke="steelblue" stroke-width="1.5"/><path transform="translate(245.7983193277311,56.249999999999964)" d="M2.23606797749979,0A2.23606797749979,2.23606797749979,0,1,1,-2.23606797749979,0A2.23606797749979,2.23606797749979,0,1,1,2.23606797749979,0" fill="white" stroke="steelblue" stroke-width="1.5"/><path transform="translate(264.7058823529412,46.875)" d="M2.23606797749979,0A2.23606797749979,2.23606797749979,0,1,1,-2.23606797749979,0A2.23606797749979,2.23606797749979,0,1,1,2.23606797749979,0" fill="white" stroke="steelblue" stroke-width="1.5"/><path transform="translate(283.61344537815125,60.937500000000036)" d="M2.23606797749979,0A2.23606797749979,2.23606797749979,0,1,1,-2.23606797749979,0A2.23606797749979,2.23606797749979,0,1,1,2.23606797749979,0" fill="white" stroke="steelblue" stroke-width="1.5"/><path transform="translate(302.52100840336135,229.68750000000003)" d="M2.23606797749979,0A2.23606797749979,2.23606797749979,0,1,1,-2.23606797749979,0A2.23606797749979,2.23606797749979,0,1,1,2.23606797749979,0" fill="white" stroke="steelblue" stroke-width="1.5"/><path transform="translate(321.4285714285714,365.62500000000006)" d="M2.23606797749979,0A2.23606797749979,2.23606797749979,0,1,1,-2.23606797749979,0A2.23606797749979,2.23606797749979,0,1,1,2.23606797749979,0" fill="white" stroke="steelblue" stroke-width="1.5"/><path transform="translate(340.3361344537815,379.6875)" d="M2.23606797749979,0A2.23606797749979,2.23606797749979,0,1,1,-2.23606797749979,0A2.23606797749979,2.23606797749979,0,1,1,2.23606797749979,0" fill="white" stroke="steelblue" stroke-width="1.5"/><path transform="translate(359.24369747899163,445.3125)" d="M2.23606797749979,0A2.23606797749979,2.23606797749979,0,1,1,-2.23606797749979,0A2.23606797749979,2.23606797749979,0,1,1,2.23606797749979,0" fill="white" stroke="steelblue" stroke-width="1.5"/><path transform="translate(378.1512605042017,506.25000000000006)" d="M2.23606797749979,0A2.23606797749979,2.23606797749979,0,1,1,-2.23606797749979,0A2.23606797749979,2.23606797749979,0,1,1,2.23606797749979,0" fill="white" stroke="steelblue" stroke-width="1.5"/><path transform="translate(397.05882352941177,548.4375)" d="M2.23606797749979,0A2.23606797749979,2.23606797749979,0,1,1,-2.23606797749979,0A2.23606797749979,2.23606797749979,0,1,1,2.23606797749979,0" fill="white" stroke="steelblue" stroke-width="1.5"/><path transform="translate(415.96638655462186,614.0625)" d="M2.23606797749979,0A2.23606797749979,2.23606797749979,0,1,1,-2.23606797749979,0A2.23606797749979,2.23606797749979,0,1,1,2.23606797749979,0" fill="white" stroke="steelblue" stroke-width="1.5"/><path transform="translate(434.87394957983196,642.1875)" d="M2.23606797749979,0A2.23606797749979,2.23606797749979,0,1,1,-2.23606797749979,0A2.23606797749979,2.23606797749979,0,1,1,2.23606797749979,0" fill="white" stroke="steelblue" stroke-width="1.5"/><path transform="translate(453.781512605042,693.75)" d="M2.23606797749979,0A2.23606797749979,2.23606797749979,0,1,1,-2.23606797749979,0A2.23606797749979,2.23606797749979,0,1,1,2.23606797749979,0" fill="white" stroke="steelblue" stroke-width="1.5"/><path transform="translate(472.6890756302521,712.5)" d="M2.23606797749979,0A2.23606797749979,2.23606797749979,0,1,1,-2.23606797749979,0A2.23606797749979,2.23606797749979,0,1,1,2.23606797749979,0" fill="white" stroke="steelblue" stroke-width="1.5"/><path transform="translate(491.5966386554622,726.5625)" d="M2.23606797749979,0A2.23606797749979,2.23606797749979,0,1,1,-2.23606797749979,0A2.23606797749979,2.23606797749979,0,1,1,2.23606797749979,0" fill="white" stroke="steelblue" stroke-width="1.5"/><path transform="translate(510.5042016806723,735.9375)" d="M2.23606797749979,0A2.23606797749979,2.23606797749979,0,1,1,-2.23606797749979,0A2.23606797749979,2.23606797749979,0,1,1,2.23606797749979,0" fill="white" stroke="steelblue" stroke-width="1.5"/><path transform="translate(529.4117647058824,745.3125)" d="M2.23606797749979,0A2.23606797749979,2.23606797749979,0,1,1,-2.23606797749979,0A2.23606797749979,2.23606797749979,0,1,1,2.23606797749979,0" fill="white" stroke="steelblue" stroke-width="1.5"/><path transform="translate(548.3193277310924,745.3125)" d="M2.23606797749979,0A2.23606797749979,2.23606797749979,0,1,1,-2.23606797749979,0A2.23606797749979,2.23606797749979,0,1,1,2.23606797749979,0" fill="white" stroke="steelblue" stroke-width="1.5"/><path transform="translate(567.2268907563025,745.3125)" d="M2.23606797749979,0A2.23606797749979,2.23606797749979,0,1,1,-2.23606797749979,0A2.23606797749979,2.23606797749979,0,1,1,2.23606797749979,0" fill="white" stroke="steelblue" stroke-width="1.5"/><path transform="translate(586.1344537815125,745.3125)" d="M2.23606797749979,0A2.23606797749979,2.23606797749979,0,1,1,-2.23606797749979,0A2.23606797749979,2.23606797749979,0,1,1,2.23606797749979,0" fill="white" stroke="steelblue" stroke-width="1.5"/><path transform="translate(605.0420168067227,745.3125)" d="M2.23606797749979,0A2.23606797749979,2.23606797749979,0,1,1,-2.23606797749979,0A2.23606797749979,2.23606797749979,0,1,1,2.23606797749979,0" fill="white" stroke="steelblue" stroke-width="1.5"/><path transform="translate(623.9495798319329,745.3125)" d="M2.23606797749979,0A2.23606797749979,2.23606797749979,0,1,1,-2.23606797749979,0A2.23606797749979,2.23606797749979,0,1,1,2.23606797749979,0" fill="white" stroke="steelblue" stroke-width="1.5"/><path transform="translate(642.8571428571428,740.625)" d="M2.23606797749979,0A2.23606797749979,2.23606797749979,0,1,1,-2.23606797749979,0A2.23606797749979,2.23606797749979,0,1,1,2.23606797749979,0" fill="white" stroke="steelblue" stroke-width="1.5"/><path transform="translate(661.7647058823529,745.3125)" d="M2.23606797749979,0A2.23606797749979,2.23606797749979,0,1,1,-2.23606797749979,0A2.23606797749979,2.23606797749979,0,1,1,2.23606797749979,0" fill="white" stroke="steelblue" stroke-width="1.5"/><path transform="translate(680.672268907563,750)" d="M2.23606797749979,0A2.23606797749979,2.23606797749979,0,1,1,-2.23606797749979,0A2.23606797749979,2.23606797749979,0,1,1,2.23606797749979,0" fill="white" stroke="steelblue" stroke-width="1.5"/><path transform="translate(699.5798319327731,750)" d="M2.23606797749979,0A2.23606797749979,2.23606797749979,0,1,1,-2.23606797749979,0A2.23606797749979,2.23606797749979,0,1,1,2.23606797749979,0" fill="white" stroke="steelblue" stroke-width="1.5"/><path transform="translate(718.4873949579833,750)" d="M2.23606797749979,0A2.23606797749979,2.23606797749979,0,1,1,-2.23606797749979,0A2.23606797749979,2.23606797749979,0,1,1,2.23606797749979,0" fill="white" stroke="steelblue" stroke-width="1.5"/><path transform="translate(737.3949579831932,750)" d="M2.23606797749979,0A2.23606797749979,2.23606797749979,0,1,1,-2.23606797749979,0A2.23606797749979,2.23606797749979,0,1,1,2.23606797749979,0" fill="white" stroke="steelblue" stroke-width="1.5"/><path transform="translate(756.3025210084033,750)" d="M2.23606797749979,0A2.23606797749979,2.23606797749979,0,1,1,-2.23606797749979,0A2.23606797749979,2.23606797749979,0,1,1,2.23606797749979,0" fill="white" stroke="steelblue" stroke-width="1.5"/><path transform="translate(775.2100840336135,750)" d="M2.23606797749979,0A2.23606797749979,2.23606797749979,0,1,1,-2.23606797749979,0A2.23606797749979,2.23606797749979,0,1,1,2.23606797749979,0" fill="white" stroke="steelblue" stroke-width="1.5"/><path transform="translate(794.1176470588235,750)" d="M2.23606797749979,0A2.23606797749979,2.23606797749979,0,1,1,-2.23606797749979,0A2.23606797749979,2.23606797749979,0,1,1,2.23606797749979,0" fill="white" stroke="steelblue" stroke-width="1.5"/><path transform="translate(813.0252100840336,745.3125)" d="M2.23606797749979,0A2.23606797749979,2.23606797749979,0,1,1,-2.23606797749979,0A2.23606797749979,2.23606797749979,0,1,1,2.23606797749979,0" fill="white" stroke="steelblue" stroke-width="1.5"/><path transform="translate(831.9327731092437,735.9375)" d="M2.23606797749979,0A2.23606797749979,2.23606797749979,0,1,1,-2.23606797749979,0A2.23606797749979,2.23606797749979,0,1,1,2.23606797749979,0" fill="white" stroke="steelblue" stroke-width="1.5"/><path transform="translate(850.8403361344538,721.875)" d="M2.23606797749979,0A2.23606797749979,2.23606797749979,0,1,1,-2.23606797749979,0A2.23606797749979,2.23606797749979,0,1,1,2.23606797749979,0" fill="white" stroke="steelblue" stroke-width="1.5"/><path transform="translate(869.7478991596639,717.1875)" d="M2.23606797749979,0A2.23606797749979,2.23606797749979,0,1,1,-2.23606797749979,0A2.23606797749979,2.23606797749979,0,1,1,2.23606797749979,0" fill="white" stroke="steelblue" stroke-width="1.5"/><path transform="translate(888.655462184874,721.875)" d="M2.23606797749979,0A2.23606797749979,2.23606797749979,0,1,1,-2.23606797749979,0A2.23606797749979,2.23606797749979,0,1,1,2.23606797749979,0" fill="white" stroke="steelblue" stroke-width="1.5"/><path transform="translate(907.563025210084,721.875)" d="M2.23606797749979,0A2.23606797749979,2.23606797749979,0,1,1,-2.23606797749979,0A2.23606797749979,2.23606797749979,0,1,1,2.23606797749979,0" fill="white" stroke="steelblue" stroke-width="1.5"/><path transform="translate(926.4705882352941,731.25)" d="M2.23606797749979,0A2.23606797749979,2.23606797749979,0,1,1,-2.23606797749979,0A2.23606797749979,2.23606797749979,0,1,1,2.23606797749979,0" fill="white" stroke="steelblue" stroke-width="1.5"/><path transform="translate(945.3781512605042,717.1875)" d="M2.23606797749979,0A2.23606797749979,2.23606797749979,0,1,1,-2.23606797749979,0A2.23606797749979,2.23606797749979,0,1,1,2.23606797749979,0" fill="white" stroke="steelblue" stroke-width="1.5"/><path transform="translate(964.2857142857143,698.4375)" d="M2.23606797749979,0A2.23606797749979,2.23606797749979,0,1,1,-2.23606797749979,0A2.23606797749979,2.23606797749979,0,1,1,2.23606797749979,0" fill="white" stroke="steelblue" stroke-width="1.5"/><path transform="translate(983.1932773109244,698.4375)" d="M2.23606797749979,0A2.23606797749979,2.23606797749979,0,1,1,-2.23606797749979,0A2.23606797749979,2.23606797749979,0,1,1,2.23606797749979,0" fill="white" stroke="steelblue" stroke-width="1.5"/><path transform="translate(1002.1008403361344,712.5)" d="M2.23606797749979,0A2.23606797749979,2.23606797749979,0,1,1,-2.23606797749979,0A2.23606797749979,2.23606797749979,0,1,1,2.23606797749979,0" fill="white" stroke="steelblue" stroke-width="1.5"/><path transform="translate(1021.0084033613446,726.5625)" d="M2.23606797749979,0A2.23606797749979,2.23606797749979,0,1,1,-2.23606797749979,0A2.23606797749979,2.23606797749979,0,1,1,2.23606797749979,0" fill="white" stroke="steelblue" stroke-width="1.5"/><path transform="translate(1039.9159663865546,745.3125)" d="M2.23606797749979,0A2.23606797749979,2.23606797749979,0,1,1,-2.23606797749979,0A2.23606797749979,2.23606797749979,0,1,1,2.23606797749979,0" fill="white" stroke="steelblue" stroke-width="1.5"/><path transform="translate(1058.8235294117649,735.9375)" d="M2.23606797749979,0A2.23606797749979,2.23606797749979,0,1,1,-2.23606797749979,0A2.23606797749979,2.23606797749979,0,1,1,2.23606797749979,0" fill="white" stroke="steelblue" stroke-width="1.5"/><path transform="translate(1077.731092436975,717.1875)" d="M2.23606797749979,0A2.23606797749979,2.23606797749979,0,1,1,-2.23606797749979,0A2.23606797749979,2.23606797749979,0,1,1,2.23606797749979,0" fill="white" stroke="steelblue" stroke-width="1.5"/><path transform="translate(1096.6386554621847,693.75)" d="M2.23606797749979,0A2.23606797749979,2.23606797749979,0,1,1,-2.23606797749979,0A2.23606797749979,2.23606797749979,0,1,1,2.23606797749979,0" fill="white" stroke="steelblue" stroke-width="1.5"/><path transform="translate(1115.546218487395,693.75)" d="M2.23606797749979,0A2.23606797749979,2.23606797749979,0,1,1,-2.23606797749979,0A2.23606797749979,2.23606797749979,0,1,1,2.23606797749979,0" fill="white" stroke="steelblue" stroke-width="1.5"/><path transform="translate(1134.453781512605,717.1875)" d="M2.23606797749979,0A2.23606797749979,2.23606797749979,0,1,1,-2.23606797749979,0A2.23606797749979,2.23606797749979,0,1,1,2.23606797749979,0" fill="white" stroke="steelblue" stroke-width="1.5"/><path transform="translate(1153.3613445378153,735.9375)" d="M2.23606797749979,0A2.23606797749979,2.23606797749979,0,1,1,-2.23606797749979,0A2.23606797749979,2.23606797749979,0,1,1,2.23606797749979,0" fill="white" stroke="steelblue" stroke-width="1.5"/><path transform="translate(1172.268907563025,717.1875)" d="M2.23606797749979,0A2.23606797749979,2.23606797749979,0,1,1,-2.23606797749979,0A2.23606797749979,2.23606797749979,0,1,1,2.23606797749979,0" fill="white" stroke="steelblue" stroke-width="1.5"/><path transform="translate(1191.1764705882351,717.1875)" d="M2.23606797749979,0A2.23606797749979,2.23606797749979,0,1,1,-2.23606797749979,0A2.23606797749979,2.23606797749979,0,1,1,2.23606797749979,0" fill="white" stroke="steelblue" stroke-width="1.5"/><path transform="translate(1210.0840336134454,717.1875)" d="M2.23606797749979,0A2.23606797749979,2.23606797749979,0,1,1,-2.23606797749979,0A2.23606797749979,2.23606797749979,0,1,1,2.23606797749979,0" fill="white" stroke="steelblue" stroke-width="1.5"/><path transform="translate(1228.9915966386554,712.5)" d="M2.23606797749979,0A2.23606797749979,2.23606797749979,0,1,1,-2.23606797749979,0A2.23606797749979,2.23606797749979,0,1,1,2.23606797749979,0" fill="white" stroke="steelblue" stroke-width="1.5"/><path transform="translate(1247.8991596638657,693.75)" d="M2.23606797749979,0A2.23606797749979,2.23606797749979,0,1,1,-2.23606797749979,0A2.23606797749979,2.23606797749979,0,1,1,2.23606797749979,0" fill="white" stroke="steelblue" stroke-width="1.5"/><path transform="translate(1266.8067226890755,698.4375)" d="M2.23606797749979,0A2.23606797749979,2.23606797749979,0,1,1,-2.23606797749979,0A2.23606797749979,2.23606797749979,0,1,1,2.23606797749979,0" fill="white" stroke="steelblue" stroke-width="1.5"/><path transform="translate(1285.7142857142856,684.375)" d="M2.23606797749979,0A2.23606797749979,2.23606797749979,0,1,1,-2.23606797749979,0A2.23606797749979,2.23606797749979,0,1,1,2.23606797749979,0" fill="white" stroke="steelblue" stroke-width="1.5"/><path transform="translate(1304.6218487394958,693.75)" d="M2.23606797749979,0A2.23606797749979,2.23606797749979,0,1,1,-2.23606797749979,0A2.23606797749979,2.23606797749979,0,1,1,2.23606797749979,0" fill="white" stroke="steelblue" stroke-width="1.5"/><path transform="translate(1323.5294117647059,689.0625)" d="M2.23606797749979,0A2.23606797749979,2.23606797749979,0,1,1,-2.23606797749979,0A2.23606797749979,2.23606797749979,0,1,1,2.23606797749979,0" fill="white" stroke="steelblue" stroke-width="1.5"/><path transform="translate(1342.4369747899161,679.6875)" d="M2.23606797749979,0A2.23606797749979,2.23606797749979,0,1,1,-2.23606797749979,0A2.23606797749979,2.23606797749979,0,1,1,2.23606797749979,0" fill="white" stroke="steelblue" stroke-width="1.5"/><path transform="translate(1361.344537815126,660.9375)" d="M2.23606797749979,0A2.23606797749979,2.23606797749979,0,1,1,-2.23606797749979,0A2.23606797749979,2.23606797749979,0,1,1,2.23606797749979,0" fill="white" stroke="steelblue" stroke-width="1.5"/><path transform="translate(1380.252100840336,548.4375)" d="M2.23606797749979,0A2.23606797749979,2.23606797749979,0,1,1,-2.23606797749979,0A2.23606797749979,2.23606797749979,0,1,1,2.23606797749979,0" fill="white" stroke="steelblue" stroke-width="1.5"/><path transform="translate(1399.1596638655462,515.625)" d="M2.23606797749979,0A2.23606797749979,2.23606797749979,0,1,1,-2.23606797749979,0A2.23606797749979,2.23606797749979,0,1,1,2.23606797749979,0" fill="white" stroke="steelblue" stroke-width="1.5"/><path transform="translate(1418.0672268907563,473.4375)" d="M2.23606797749979,0A2.23606797749979,2.23606797749979,0,1,1,-2.23606797749979,0A2.23606797749979,2.23606797749979,0,1,1,2.23606797749979,0" fill="white" stroke="steelblue" stroke-width="1.5"/><path transform="translate(1436.9747899159665,506.25000000000006)" d="M2.23606797749979,0A2.23606797749979,2.23606797749979,0,1,1,-2.23606797749979,0A2.23606797749979,2.23606797749979,0,1,1,2.23606797749979,0" fill="white" stroke="steelblue" stroke-width="1.5"/><path transform="translate(1455.8823529411764,459.37500000000006)" d="M2.23606797749979,0A2.23606797749979,2.23606797749979,0,1,1,-2.23606797749979,0A2.23606797749979,2.23606797749979,0,1,1,2.23606797749979,0" fill="white" stroke="steelblue" stroke-width="1.5"/><path transform="translate(1474.7899159663864,300)" d="M2.23606797749979,0A2.23606797749979,2.23606797749979,0,1,1,-2.23606797749979,0A2.23606797749979,2.23606797749979,0,1,1,2.23606797749979,0" fill="white" stroke="steelblue" stroke-width="1.5"/><path transform="translate(1493.6974789915967,103.12499999999997)" d="M2.23606797749979,0A2.23606797749979,2.23606797749979,0,1,1,-2.23606797749979,0A2.23606797749979,2.23606797749979,0,1,1,2.23606797749979,0" fill="white" stroke="steelblue" stroke-width="1.5"/></g><g class="mark-group role-title"><g transform="translate(717.4738907485746,-35)"><path class="background" aria-hidden="true" d="M0,0h0v0h0Z" pointer-events="none"/><g><g class="mark-text role-title-text" role="graphics-symbol" aria-roledescription="title" aria-label="Title text 'Active COVID-19 cases in 'Bezirk Amstetten' (absolute)'" pointer-events="none"><text text-anchor="middle" transform="translate(0,19)" font-family="sans-serif" font-size="24px" font-weight="bold" fill="#000" opacity="1">Active COVID-19 cases in 'Bezirk Amstetten' (absolute)</text></g></g><path class="foreground" aria-hidden="true" d="" pointer-events="none" display="none"/></g></g></g><path class="foreground" aria-hidden="true" d="" display="none"/></g></g></g></svg>