<svg xmlns="http://www.w3.org/2000/svg" xmlns:xlink="http://www.w3.org/1999/xlink" version="1.1" class="marks" width="1585" height="900" viewBox="0 0 1585 900"><g fill="none" stroke-miterlimit="10" transform="translate(77,40)"><g class="mark-group role-frame root" role="graphics-object" aria-roledescription="group mark container"><g transform="translate(0,0)"><path class="background" aria-hidden="true" d="M0,0h1500v750h-1500Z"/><g><g class="mark-group role-axis" role="graphics-symbol" aria-roledescription="axis" aria-label="Y-axis titled 'COVID-19 deaths (absolute)' for a linear scale with values from 0 to 50"><g transform="translate(0.5,0.5)"><path class="background" aria-hidden="true" d="M0,0h0v0h0Z" pointer-events="none"/><g><g class="mark-rule role-axis-grid" pointer-events="none"><line transform="translate(0,750)" x2="1500" y2="0" stroke="#ddd" stroke-width="1" opacity="1"/><line transform="translate(0,675)" x2="1500" y2="0" stroke="#ddd" stroke-width="1" opacity="1"/><line transform="translate(0,600)" x2="1500" y2="0" stroke="#ddd" stroke-width="1" opacity="1"/><line transform="translate(0,525)" x2="1500" y2="0" stroke="#ddd" stroke-width="1" opacity="1"/><line transform="translate(0,450)" x2="1500" y2="0" stroke="#ddd" stroke-width="1" opacity="1"/><line transform="translate(0,375)" x2="1500" y2="0" stroke="#ddd" stroke-width="1" opacity="1"/><line transform="translate(0,300)" x2="1500" y2="0" stroke="#ddd" stroke-width="1" opacity="1"/><line transform="translate(0,225)" x2="1500" y2="0" stroke="#ddd" stroke-width="1" opacity="1"/><line transform="translate(0,150)" x2="1500" y2="0" stroke="#ddd" stroke-width="1" opacity="1"/><line transform="translate(0,75)" x2="1500" y2="0" stroke="#ddd" stroke-width="1" opacity="1"/><line transform="translate(0,0)" x2="1500" y2="0" stroke="#ddd" stroke-width="1" opacity="1"/></g><g class="mark-rule role-axis-tick" pointer-events="none"><line transform="translate(0,750)" x2="-5" y2="0" stroke="#888" stroke-width="1" opacity="1"/><line transform="translate(0,675)" x2="-5" y2="0" stroke="#888" stroke-width="1" opacity="1"/><line transform="translate(0,600)" x2="-5" y2="0" stroke="#888" stroke-width="1" opacity="1"/><line transform="translate(0,525)" x2="-5" y2="0" stroke="#888" stroke-width="1" opacity="1"/><line transform="translate(0,450)" x2="-5" y2="0" stroke="#888" stroke-width="1" opacity="1"/><line transform="translate(0,375)" x2="-5" y2="0" stroke="#888" stroke-width="1" opacity="1"/><line transform="translate(0,300)" x2="-5" y2="0" stroke="#888" stroke-width="1" opacity="1"/><line transform="translate(0,225)" x2="-5" y2="0" stroke="#888" stroke-width="1" opacity="1"/><line transform="translate(0,150)" x2="-5" y2="0" stroke="#888" stroke-width="1" opacity="1"/><line transform="translate(0,75)" x2="-5" y2="0" stroke="#888" stroke-width="1" opacity="1"/><line transform="translate(0,0)" x2="-5" y2="0" stroke="#888" stroke-width="1" opacity="1"/></g><g class="mark-text role-axis-label" pointer-events="none"><text text-anchor="end" transform="translate(-7,754)" font-family="sans-serif" font-size="14px" fill="#000" opacity="1">0</text><text text-anchor="end" transform="translate(-7,679)" font-family="sans-serif" font-size="14px" fill="#000" opacity="1">5</text><text text-anchor="end" transform="translate(-7,604)" font-family="sans-serif" font-size="14px" fill="#000" opacity="1">10</text><text text-anchor="end" transform="translate(-7,529)" font-family="sans-serif" font-size="14px" fill="#000" opacity="1">15</text><text text-anchor="end" transform="translate(-7,454)" font-family="sans-serif" font-size="14px" fill="#000" opacity="1">20</text><text text-anchor="end" transform="translate(-7,379)" font-family="sans-serif" font-size="14px" fill="#000" opacity="1">25</text><text text-anchor="end" transform="translate(-7,304)" font-family="sans-serif" font-size="14px" fill="#000" opacity="1">30</text><text text-anchor="end" transform="translate(-7,229.00000000000003)" font-family="sans-serif" font-size="14px" fill="#000" opacity="1">35</text><text text-anchor="end" transform="translate(-7,153.99999999999997)" font-family="sans-serif" font-size="14px" fill="#000" opacity="1">40</text><text text-anchor="end" transform="translate(-7,78.99999999999999)" font-family="sans-serif" font-size="14px" fill="#000" opacity="1">45</text><text text-anchor="end" transform="translate(-7,4)" font-family="sans-serif" font-size="14px" fill="#000" opacity="1">50</text></g><g class="mark-rule role-axis-domain" pointer-events="none"><line transform="translate(0,750)" x2="0" y2="-750" stroke="#888" stroke-width="1" opacity="1"/></g><g class="mark-text role-axis-title" pointer-events="none"><text text-anchor="middle" transform="translate(-39,375) rotate(-90) translate(0,-4)" font-family="sans-serif" font-size="18px" font-weight="bold" fill="#000" opacity="1">COVID-19 deaths (absolute)</text></g></g><path class="foreground" aria-hidden="true" d="" pointer-events="none" display="none"/></g></g><g class="mark-group role-axis" role="graphics-symbol" aria-roledescription="axis" aria-label="X-axis titled 'Date' for a linear scale with values from 2020-02-26 to 2020-11-29"><g transform="translate(0.5,750.5)"><path class="background" aria-hidden="true" d="M0,0h0v0h0Z" pointer-events="none"/><g><g class="mark-rule role-axis-tick" pointer-events="none"><line transform="translate(20,0)" x2="0" y2="5" stroke="#888" stroke-width="1" opacity="1"/><line transform="translate(83,0)" x2="0" y2="5" stroke="#888" stroke-width="1" opacity="1"/><line transform="translate(146,0)" x2="0" y2="5" stroke="#888" stroke-width="1" opacity="1"/><line transform="translate(208,0)" x2="0" y2="5" stroke="#888" stroke-width="1" opacity="1"/><line transform="translate(271,0)" x2="0" y2="5" stroke="#888" stroke-width="1" opacity="1"/><line transform="translate(334,0)" x2="0" y2="5" stroke="#888" stroke-width="1" opacity="1"/><line transform="translate(396,0)" x2="0" y2="5" stroke="#888" stroke-width="1" opacity="1"/><line transform="translate(459,0)" x2="0" y2="5" stroke="#888" stroke-width="1" opacity="1"/><line transform="translate(522,0)" x2="0" y2="5" stroke="#888" stroke-width="1" opacity="1"/><line transform="translate(584,0)" x2="0" y2="5" stroke="#888" stroke-width="1" opacity="1"/><line transform="translate(647,0)" x2="0" y2="5" stroke="#888" stroke-width="1" opacity="1"/><line transform="translate(710,0)" x2="0" y2="5" stroke="#888" stroke-width="1" opacity="1"/><line transform="translate(772,0)" x2="0" y2="5" stroke="#888" stroke-width="1" opacity="1"/><line transform="translate(835,0)" x2="0" y2="5" stroke="#888" stroke-width="1" opacity="1"/><line transform="translate(898,0)" x2="0" y2="5" stroke="#888" stroke-width="1" opacity="1"/><line transform="translate(960,0)" x2="0" y2="5" stroke="#888" stroke-width="1" opacity="1"/><line transform="translate(1023,0)" x2="0" y2="5" stroke="#888" stroke-width="1" opacity="1"/><line transform="translate(1086,0)" x2="0" y2="5" stroke="#888" stroke-width="1" opacity="1"/><line transform="translate(1149,0)" x2="0" y2="5" stroke="#888" stroke-width="1" opacity="1"/><line transform="translate(1211,0)" x2="0" y2="5" stroke="#888" stroke-width="1" opacity="1"/><line transform="translate(1274,0)" x2="0" y2="5" stroke="#888" stroke-width="1" opacity="1"/><line transform="translate(1337,0)" x2="0" y2="5" stroke="#888" stroke-width="1" opacity="1"/><line transform="translate(1399,0)" x2="0" y2="5" stroke="#888" stroke-width="1" opacity="1"/><line transform="translate(1462,0)" x2="0" y2="5" stroke="#888" stroke-width="1" opacity="1"/></g><g class="mark-text role-axis-label" pointer-events="none"><text text-anchor="end" transform="translate(20.356999598876854,7) rotate(-35) translate(0,11)" font-family="sans-serif" font-size="14px" fill="#000" opacity="1">2020-02-29</text><text text-anchor="end" transform="translate(83.03249097472924,7) rotate(-35) translate(0,11)" font-family="sans-serif" font-size="14px" fill="#000" opacity="1">2020-03-12</text><text text-anchor="end" transform="translate(145.70798235058163,7) rotate(-35) translate(0,11)" font-family="sans-serif" font-size="14px" fill="#000" opacity="1">2020-03-23</text><text text-anchor="end" transform="translate(208.38347372643403,7) rotate(-35) translate(0,11)" font-family="sans-serif" font-size="14px" fill="#000" opacity="1">2020-04-04</text><text text-anchor="end" transform="translate(271.05896510228644,7) rotate(-35) translate(0,11)" font-family="sans-serif" font-size="14px" fill="#000" opacity="1">2020-04-16</text><text text-anchor="end" transform="translate(333.7344564781388,7) rotate(-35) translate(0,11)" font-family="sans-serif" font-size="14px" fill="#000" opacity="1">2020-04-27</text><text text-anchor="end" transform="translate(396.4099478539912,7) rotate(-35) translate(0,11)" font-family="sans-serif" font-size="14px" fill="#000" opacity="1">2020-05-09</text><text text-anchor="end" transform="translate(459.08543922984353,7) rotate(-35) translate(0,11)" font-family="sans-serif" font-size="14px" fill="#000" opacity="1">2020-05-20</text><text text-anchor="end" transform="translate(521.760930605696,7) rotate(-35) translate(0,11)" font-family="sans-serif" font-size="14px" fill="#000" opacity="1">2020-06-01</text><text text-anchor="end" transform="translate(584.4364219815483,7) rotate(-35) translate(0,11)" font-family="sans-serif" font-size="14px" fill="#000" opacity="1">2020-06-12</text><text text-anchor="end" transform="translate(647.1119133574008,7) rotate(-35) translate(0,11)" font-family="sans-serif" font-size="14px" fill="#000" opacity="1">2020-06-24</text><text text-anchor="end" transform="translate(709.7874047332531,7) rotate(-35) translate(0,11)" font-family="sans-serif" font-size="14px" fill="#000" opacity="1">2020-07-06</text><text text-anchor="end" transform="translate(772.4628961091055,7) rotate(-35) translate(0,11)" font-family="sans-serif" font-size="14px" fill="#000" opacity="1">2020-07-17</text><text text-anchor="end" transform="translate(835.1383874849579,7) rotate(-35) translate(0,11)" font-family="sans-serif" font-size="14px" fill="#000" opacity="1">2020-07-29</text><text text-anchor="end" transform="translate(897.8138788608103,7) rotate(-35) translate(0,11)" font-family="sans-serif" font-size="14px" fill="#000" opacity="1">2020-08-09</text><text text-anchor="end" transform="translate(960.4893702366626,7) rotate(-35) translate(0,11)" font-family="sans-serif" font-size="14px" fill="#000" opacity="1">2020-08-21</text><text text-anchor="end" transform="translate(1023.164861612515,7) rotate(-35) translate(0,11)" font-family="sans-serif" font-size="14px" fill="#000" opacity="1">2020-09-01</text><text text-anchor="end" transform="translate(1085.8403529883674,7) rotate(-35) translate(0,11)" font-family="sans-serif" font-size="14px" fill="#000" opacity="1">2020-09-13</text><text text-anchor="end" transform="translate(1148.51584436422,7) rotate(-35) translate(0,11)" font-family="sans-serif" font-size="14px" fill="#000" opacity="1">2020-09-25</text><text text-anchor="end" transform="translate(1211.1913357400722,7) rotate(-35) translate(0,11)" font-family="sans-serif" font-size="14px" fill="#000" opacity="1">2020-10-06</text><text text-anchor="end" transform="translate(1273.8668271159245,7) rotate(-35) translate(0,11)" font-family="sans-serif" font-size="14px" fill="#000" opacity="1">2020-10-18</text><text text-anchor="end" transform="translate(1336.542318491777,7) rotate(-35) translate(0,11)" font-family="sans-serif" font-size="14px" fill="#000" opacity="1">2020-10-29</text><text text-anchor="end" transform="translate(1399.2178098676293,7) rotate(-35) translate(0,11)" font-family="sans-serif" font-size="14px" fill="#000" opacity="1">2020-11-10</text><text text-anchor="end" transform="translate(1461.8933012434818,7) rotate(-35) translate(0,11)" font-family="sans-serif" font-size="14px" fill="#000" opacity="1">2020-11-21</text></g><g class="mark-rule role-axis-domain" pointer-events="none"><line transform="translate(0,0)" x2="1500" y2="0" stroke="#888" stroke-width="1" opacity="1"/></g><g class="mark-text role-axis-title" pointer-events="none"><text text-anchor="middle" transform="translate(750,100.70868949136309)" font-family="sans-serif" font-size="18px" font-weight="bold" fill="#000" opacity="1">Date</text></g></g><path class="foreground" aria-hidden="true" d="" pointer-events="none" display="none"/></g></g><g class="mark-line role-mark" role="graphics-symbol" aria-roledescription="line mark container"><path d="M0,750C1.8050541516245489,750,3.610108303249098,750,5.415162454873647,750C7.220216606498195,750,9.025270758122744,750,10.830324909747294,750C12.635379061371841,750,14.44043321299639,750,16.24548736462094,750C18.050541516245488,750,19.855595667870038,750,21.660649819494587,750C23.465703971119137,750,25.270758122743683,750,27.075812274368232,750C28.88086642599278,750,30.685920577617328,750,32.49097472924188,750C34.29602888086642,750,36.101083032490976,750,37.90613718411552,750C39.711191335740075,750,41.51624548736462,750,43.321299638989174,750C45.12635379061372,750,46.931407942238266,750,48.73646209386281,750C50.541516245487365,750,52.34657039711191,750,54.151624548736464,750C55.95667870036101,750,57.76173285198556,750,59.56678700361011,750C61.371841155234655,750,63.17689530685921,750,64.98194945848375,750C66.7870036101083,750,68.59205776173286,750,70.3971119133574,750C72.20216606498195,750,74.0072202166065,750,75.81227436823104,750C77.61732851985559,750,79.42238267148015,750,81.2274368231047,750C83.03249097472924,750,84.8375451263538,750,86.64259927797835,750C88.4476534296029,750,90.25270758122744,750,92.05776173285199,750C93.86281588447653,750,95.66787003610108,750,97.47292418772562,750C99.27797833935017,750,101.08303249097473,750,102.88808664259928,750C104.69314079422382,750,106.49819494584838,750,108.30324909747293,750C110.10830324909747,750,111.91335740072202,750,113.71841155234657,750C115.52346570397111,750,117.32851985559567,750,119.13357400722022,750C120.93862815884476,750,122.74368231046931,750,124.54873646209386,750C126.3537906137184,750,128.15884476534296,750,129.9638989169675,750C131.76895306859205,750,133.57400722021663,750,135.37906137184117,750C137.18411552346572,750,138.98916967509027,750,140.7942238267148,750C142.59927797833936,750,144.4043321299639,750,146.20938628158845,750C148.014440433213,750,149.81949458483754,750,151.6245487364621,750C153.42960288808663,750,155.2346570397112,740,157.03971119133575,735C158.8447653429603,730,160.64981949458485,725,162.4548736462094,720C164.25992779783394,715,166.06498194945848,710,167.87003610108303,705C169.67509025270758,700,171.48014440433215,690,173.2851985559567,690C175.09025270758124,690,176.8953068592058,690,178.70036101083033,690C180.50541516245488,690,182.31046931407943,690,184.11552346570397,690C185.92057761732852,690,187.72563176895306,690,189.5306859205776,690C191.33574007220216,690,193.1407942238267,690,194.94584837545125,690C196.7509025270758,690,198.55595667870037,675,200.36101083032491,675C202.16606498194946,675,203.971119133574,675,205.77617328519855,675C207.5812274368231,675,209.38628158844767,660,211.19133574007222,660C212.99638989169677,660,214.8014440433213,660,216.60649819494586,660C218.4115523465704,660,220.21660649819495,650,222.0216606498195,645C223.82671480144404,640,225.6317689530686,630,227.43682310469313,630C229.24187725631768,630,231.04693140794225,630,232.8519855595668,630C234.65703971119135,630,236.4620938628159,630,238.26714801444044,630C240.07220216606498,630,241.87725631768953,600,243.68231046931407,600C245.48736462093862,600,247.29241877256317,600,249.0974729241877,600C250.90252707581226,600,252.70758122743683,570,254.51263537906138,570C256.3176895306859,570,258.12274368231044,570,259.927797833935,570C261.73285198555953,570,263.5379061371841,560,265.3429602888086,555C267.1480144404332,550,268.9530685920578,540,270.75812274368235,540C272.56317689530687,540,274.36823104693144,540,276.17328519855596,540C277.97833935018053,540,279.78339350180505,540,281.5884476534296,540C283.39350180505414,540,285.1985559566787,525,287.00361010830323,525C288.8086642599278,525,290.6137184115523,525,292.4187725631769,525C294.2238267148014,525,296.028880866426,525,297.8339350180505,525C299.6389891696751,525,301.4440433212996,525,303.2490974729242,525C305.05415162454875,525,306.85920577617327,525,308.66425992779784,525C310.4693140794224,525,312.27436823104694,525,314.0794223826715,525C315.884476534296,525,317.6895306859206,525,319.4945848375451,525C321.2996389891697,525,323.1046931407942,525,324.9097472924188,525C326.7148014440433,525,328.5198555956679,525,330.3249097472924,525C332.12996389891697,525,333.9350180505415,525,335.74007220216606,525C337.54512635379064,525,339.35018050541515,525,341.1552346570397,525C342.9602888086643,525,344.7653429602888,525,346.5703971119134,525C348.3754512635379,525,350.1805054151625,525,351.985559566787,525C353.7906137184116,525,355.5956678700361,525,357.40072202166067,525C359.2057761732852,525,361.01083032490976,525,362.8158844765343,525C364.62093862815885,525,366.42599277978337,525,368.23104693140795,525C370.03610108303246,525,371.84115523465704,509.99999999999994,373.64620938628155,509.99999999999994C375.45126353790613,509.99999999999994,377.25631768953065,509.99999999999994,379.0613718411552,509.99999999999994C380.86642599277974,509.99999999999994,382.6714801444043,509.99999999999994,384.47653429602883,509.99999999999994C386.2815884476534,509.99999999999994,388.0866425992779,509.99999999999994,389.8916967509025,509.99999999999994C391.69675090252707,509.99999999999994,393.50180505415165,509.99999999999994,395.3068592057762,509.99999999999994C397.11191335740074,509.99999999999994,398.9169675090253,509.99999999999994,400.72202166064983,509.99999999999994C402.5270758122744,509.99999999999994,404.3321299638989,509.99999999999994,406.1371841155235,509.99999999999994C407.942238267148,509.99999999999994,409.7472924187726,509.99999999999994,411.5523465703971,509.99999999999994C413.3574007220217,509.99999999999994,415.1624548736462,509.99999999999994,416.9675090252708,509.99999999999994C418.77256317689535,509.99999999999994,420.57761732851986,509.99999999999994,422.38267148014444,509.99999999999994C424.18772563176896,509.99999999999994,425.99277978339353,509.99999999999994,427.79783393501805,509.99999999999994C429.6028880866426,509.99999999999994,431.40794223826714,509.99999999999994,433.2129963898917,509.99999999999994C435.01805054151623,509.99999999999994,436.8231046931408,509.99999999999994,438.6281588447653,509.99999999999994C440.4332129963899,509.99999999999994,442.2382671480144,509.99999999999994,444.043321299639,509.99999999999994C445.8483754512635,509.99999999999994,447.6534296028881,509.99999999999994,449.4584837545126,509.99999999999994C451.2635379061372,509.99999999999994,453.0685920577617,509.99999999999994,454.87364620938627,509.99999999999994C456.6787003610108,509.99999999999994,458.48375451263536,509.99999999999994,460.2888086642599,509.99999999999994C462.09386281588445,509.99999999999994,463.898916967509,509.99999999999994,465.7039711191336,509.99999999999994C467.5090252707582,509.99999999999994,469.3140794223827,509.99999999999994,471.11913357400726,509.99999999999994C472.9241877256318,509.99999999999994,474.72924187725636,509.99999999999994,476.5342960288809,509.99999999999994C478.33935018050545,509.99999999999994,480.14440433212997,509.99999999999994,481.94945848375454,509.99999999999994C483.75451263537906,509.99999999999994,485.55956678700363,509.99999999999994,487.36462093862815,509.99999999999994C489.1696750902527,509.99999999999994,490.97472924187724,509.99999999999994,492.7797833935018,509.99999999999994C494.58483754512633,509.99999999999994,496.3898916967509,509.99999999999994,498.1949458483754,509.99999999999994C500,509.99999999999994,501.8050541516245,509.99999999999994,503.6101083032491,509.99999999999994C505.41516245487367,509.99999999999994,507.2202166064982,509.99999999999994,509.02527075812276,509.99999999999994C510.8303249097473,509.99999999999994,512.6353790613719,509.99999999999994,514.4404332129964,509.99999999999994C516.2454873646209,509.99999999999994,518.0505415162455,509.99999999999994,519.85559566787,509.99999999999994C521.6606498194946,509.99999999999994,523.4657039711192,509.99999999999994,525.2707581227437,509.99999999999994C527.0758122743682,509.99999999999994,528.8808664259927,509.99999999999994,530.6859205776173,509.99999999999994C532.4909747292419,509.99999999999994,534.2960288808664,509.99999999999994,536.101083032491,509.99999999999994C537.9061371841156,509.99999999999994,539.7111913357402,509.99999999999994,541.5162454873647,509.99999999999994C543.3212996389892,509.99999999999994,545.1263537906137,509.99999999999994,546.9314079422383,509.99999999999994C548.7364620938628,509.99999999999994,550.5415162454874,509.99999999999994,552.3465703971119,509.99999999999994C554.1516245487364,509.99999999999994,555.9566787003611,509.99999999999994,557.7617328519856,509.99999999999994C559.5667870036101,509.99999999999994,561.3718411552347,509.99999999999994,563.1768953068593,509.99999999999994C564.9819494584838,509.99999999999994,566.7870036101083,509.99999999999994,568.5920577617328,509.99999999999994C570.3971119133573,509.99999999999994,572.202166064982,509.99999999999994,574.0072202166065,509.99999999999994C575.812274368231,509.99999999999994,577.6173285198556,509.99999999999994,579.4223826714801,509.99999999999994C581.2274368231047,509.99999999999994,583.0324909747293,509.99999999999994,584.8375451263538,509.99999999999994C586.6425992779783,509.99999999999994,588.447653429603,509.99999999999994,590.2527075812275,509.99999999999994C592.057761732852,509.99999999999994,593.8628158844765,509.99999999999994,595.667870036101,509.99999999999994C597.4729241877255,509.99999999999994,599.2779783393502,509.99999999999994,601.0830324909747,509.99999999999994C602.8880866425992,509.99999999999994,604.6931407942238,509.99999999999994,606.4981949458484,509.99999999999994C608.3032490974729,509.99999999999994,610.1083032490975,509.99999999999994,611.913357400722,509.99999999999994C613.7184115523465,509.99999999999994,615.5234657039712,509.99999999999994,617.3285198555957,509.99999999999994C619.1335740072202,509.99999999999994,620.9386281588448,509.99999999999994,622.7436823104694,509.99999999999994C624.5487364620939,509.99999999999994,626.3537906137185,509.99999999999994,628.158844765343,509.99999999999994C629.9638989169675,509.99999999999994,631.768953068592,509.99999999999994,633.5740072202166,509.99999999999994C635.3790613718411,509.99999999999994,637.1841155234657,509.99999999999994,638.9891696750902,509.99999999999994C640.7942238267148,509.99999999999994,642.5992779783394,509.99999999999994,644.4043321299639,509.99999999999994C646.2093862815884,509.99999999999994,648.014440433213,509.99999999999994,649.8194945848376,509.99999999999994C651.6245487364621,509.99999999999994,653.4296028880866,509.99999999999994,655.2346570397111,509.99999999999994C657.0397111913356,509.99999999999994,658.8447653429603,509.99999999999994,660.6498194945848,509.99999999999994C662.4548736462093,509.99999999999994,664.2599277978339,509.99999999999994,666.0649819494585,509.99999999999994C667.870036101083,509.99999999999994,669.6750902527076,509.99999999999994,671.4801444043321,509.99999999999994C673.2851985559566,509.99999999999994,675.0902527075813,509.99999999999994,676.8953068592058,509.99999999999994C678.7003610108303,509.99999999999994,680.5054151624549,509.99999999999994,682.3104693140795,509.99999999999994C684.115523465704,509.99999999999994,685.9205776173286,509.99999999999994,687.7256317689531,509.99999999999994C689.5306859205776,509.99999999999994,691.3357400722023,509.99999999999994,693.1407942238268,509.99999999999994C694.9458483754513,509.99999999999994,696.7509025270758,509.99999999999994,698.5559566787003,509.99999999999994C700.3610108303249,509.99999999999994,702.1660649819495,509.99999999999994,703.971119133574,509.99999999999994C705.7761732851985,509.99999999999994,707.5812274368232,509.99999999999994,709.3862815884477,509.99999999999994C711.1913357400722,509.99999999999994,712.9963898916968,509.99999999999994,714.8014440433213,509.99999999999994C716.6064981949459,509.99999999999994,718.4115523465704,509.99999999999994,720.2166064981949,509.99999999999994C722.0216606498194,509.99999999999994,723.826714801444,509.99999999999994,725.6317689530686,509.99999999999994C727.4368231046931,509.99999999999994,729.2418772563177,509.99999999999994,731.0469314079422,509.99999999999994C732.8519855595667,509.99999999999994,734.6570397111914,509.99999999999994,736.4620938628159,509.99999999999994C738.2671480144404,509.99999999999994,740.0722021660649,509.99999999999994,741.8772563176894,509.99999999999994C743.682310469314,509.99999999999994,745.4873646209386,509.99999999999994,747.2924187725631,509.99999999999994C749.0974729241877,509.99999999999994,750.9025270758123,509.99999999999994,752.7075812274369,509.99999999999994C754.5126353790614,509.99999999999994,756.3176895306859,509.99999999999994,758.1227436823104,509.99999999999994C759.927797833935,509.99999999999994,761.7328519855596,509.99999999999994,763.5379061371841,509.99999999999994C765.3429602888086,509.99999999999994,767.1480144404331,509.99999999999994,768.9530685920577,509.99999999999994C770.7581227436823,509.99999999999994,772.5631768953068,509.99999999999994,774.3682310469314,509.99999999999994C776.173285198556,509.99999999999994,777.9783393501805,509.99999999999994,779.783393501805,509.99999999999994C781.5884476534295,509.99999999999994,783.3935018050541,509.99999999999994,785.1985559566787,509.99999999999994C787.0036101083033,509.99999999999994,788.8086642599278,509.99999999999994,790.6137184115524,509.99999999999994C792.418772563177,509.99999999999994,794.2238267148015,509.99999999999994,796.028880866426,509.99999999999994C797.8339350180505,509.99999999999994,799.6389891696751,509.99999999999994,801.4440433212997,509.99999999999994C803.2490974729242,509.99999999999994,805.0541516245487,509.99999999999994,806.8592057761732,509.99999999999994C808.6642599277978,509.99999999999994,810.4693140794224,509.99999999999994,812.274368231047,509.99999999999994C814.0794223826715,509.99999999999994,815.884476534296,509.99999999999994,817.6895306859205,509.99999999999994C819.4945848375451,509.99999999999994,821.2996389891697,509.99999999999994,823.1046931407942,509.99999999999994C824.9097472924187,509.99999999999994,826.7148014440432,509.99999999999994,828.5198555956678,509.99999999999994C830.3249097472924,509.99999999999994,832.1299638989169,509.99999999999994,833.9350180505415,509.99999999999994C835.7400722021661,509.99999999999994,837.5451263537906,509.99999999999994,839.3501805054151,509.99999999999994C841.1552346570397,509.99999999999994,842.9602888086642,509.99999999999994,844.7653429602889,509.99999999999994C846.5703971119134,509.99999999999994,848.3754512635379,509.99999999999994,850.1805054151624,509.99999999999994C851.985559566787,509.99999999999994,853.7906137184116,509.99999999999994,855.5956678700361,509.99999999999994C857.4007220216607,509.99999999999994,859.2057761732852,509.99999999999994,861.0108303249099,509.99999999999994C862.8158844765344,509.99999999999994,864.6209386281589,509.99999999999994,866.4259927797834,509.99999999999994C868.231046931408,509.99999999999994,870.0361010830326,509.99999999999994,871.8411552346571,509.99999999999994C873.6462093862816,509.99999999999994,875.4512635379061,509.99999999999994,877.2563176895306,509.99999999999994C879.0613718411553,509.99999999999994,880.8664259927798,509.99999999999994,882.6714801444044,509.99999999999994C884.476534296029,509.99999999999994,886.2815884476535,509.99999999999994,888.086642599278,509.99999999999994C889.8916967509025,509.99999999999994,891.6967509025271,509.99999999999994,893.5018050541516,509.99999999999994C895.3068592057762,509.99999999999994,897.1119133574007,509.99999999999994,898.9169675090252,509.99999999999994C900.7220216606498,509.99999999999994,902.5270758122743,509.99999999999994,904.332129963899,509.99999999999994C906.1371841155235,509.99999999999994,907.942238267148,509.99999999999994,909.7472924187725,509.99999999999994C911.552346570397,509.99999999999994,913.3574007220217,509.99999999999994,915.1624548736462,509.99999999999994C916.9675090252707,509.99999999999994,918.7725631768952,509.99999999999994,920.5776173285198,509.99999999999994C922.3826714801444,509.99999999999994,924.1877256317689,509.99999999999994,925.9927797833935,509.99999999999994C927.797833935018,509.99999999999994,929.6028880866427,509.99999999999994,931.4079422382672,509.99999999999994C933.2129963898917,509.99999999999994,935.0180505415162,509.99999999999994,936.8231046931407,509.99999999999994C938.6281588447654,509.99999999999994,940.4332129963899,509.99999999999994,942.2382671480145,509.99999999999994C944.043321299639,509.99999999999994,945.8483754512636,509.99999999999994,947.6534296028881,509.99999999999994C949.4584837545126,509.99999999999994,951.2635379061372,509.99999999999994,953.0685920577617,509.99999999999994C954.8736462093863,509.99999999999994,956.6787003610108,509.99999999999994,958.4837545126353,509.99999999999994C960.2888086642599,509.99999999999994,962.0938628158844,509.99999999999994,963.8989169675091,509.99999999999994C965.7039711191336,509.99999999999994,967.5090252707581,509.99999999999994,969.3140794223826,509.99999999999994C971.1191335740072,509.99999999999994,972.9241877256318,509.99999999999994,974.7292418772563,509.99999999999994C976.5342960288808,509.99999999999994,978.3393501805053,509.99999999999994,980.1444043321299,509.99999999999994C981.9494584837545,509.99999999999994,983.754512635379,509.99999999999994,985.5595667870036,509.99999999999994C987.3646209386281,509.99999999999994,989.1696750902527,509.99999999999994,990.9747292418772,509.99999999999994C992.7797833935017,509.99999999999994,994.5848375451263,509.99999999999994,996.3898916967509,509.99999999999994C998.1949458483755,509.99999999999994,1000,509.99999999999994,1001.8050541516246,509.99999999999994C1003.6101083032491,509.99999999999994,1005.4151624548737,509.99999999999994,1007.2202166064982,509.99999999999994C1009.0252707581228,509.99999999999994,1010.8303249097473,509.99999999999994,1012.635379061372,509.99999999999994C1014.4404332129965,509.99999999999994,1016.245487364621,509.99999999999994,1018.0505415162455,509.99999999999994C1019.85559566787,509.99999999999994,1021.6606498194947,509.99999999999994,1023.4657039711192,509.99999999999994C1025.2707581227437,509.99999999999994,1027.0758122743682,509.99999999999994,1028.8808664259927,509.99999999999994C1030.6859205776173,509.99999999999994,1032.490974729242,509.99999999999994,1034.2960288808665,509.99999999999994C1036.101083032491,509.99999999999994,1037.9061371841156,509.99999999999994,1039.71119133574,509.99999999999994C1041.5162454873646,509.99999999999994,1043.3212996389893,509.99999999999994,1045.1263537906138,509.99999999999994C1046.9314079422384,509.99999999999994,1048.7364620938629,509.99999999999994,1050.5415162454874,509.99999999999994C1052.346570397112,509.99999999999994,1054.1516245487364,509.99999999999994,1055.956678700361,509.99999999999994C1057.7617328519855,509.99999999999994,1059.56678700361,509.99999999999994,1061.3718411552345,509.99999999999994C1063.176895306859,509.99999999999994,1064.9819494584838,509.99999999999994,1066.7870036101083,509.99999999999994C1068.5920577617328,509.99999999999994,1070.3971119133575,509.99999999999994,1072.202166064982,509.99999999999994C1074.0072202166066,509.99999999999994,1075.812274368231,509.99999999999994,1077.6173285198556,509.99999999999994C1079.4223826714801,509.99999999999994,1081.2274368231049,509.99999999999994,1083.0324909747294,509.99999999999994C1084.837545126354,509.99999999999994,1086.6425992779784,509.99999999999994,1088.447653429603,509.99999999999994C1090.2527075812275,509.99999999999994,1092.057761732852,509.99999999999994,1093.8628158844765,509.99999999999994C1095.667870036101,509.99999999999994,1097.4729241877255,509.99999999999994,1099.27797833935,509.99999999999994C1101.0830324909746,509.99999999999994,1102.8880866425993,509.99999999999994,1104.6931407942238,509.99999999999994C1106.4981949458484,509.99999999999994,1108.3032490974729,509.99999999999994,1110.1083032490974,509.99999999999994C1111.913357400722,509.99999999999994,1113.7184115523467,509.99999999999994,1115.5234657039712,509.99999999999994C1117.3285198555957,509.99999999999994,1119.1335740072202,509.99999999999994,1120.9386281588447,509.99999999999994C1122.7436823104692,509.99999999999994,1124.548736462094,509.99999999999994,1126.3537906137185,509.99999999999994C1128.158844765343,509.99999999999994,1129.9638989169675,509.99999999999994,1131.768953068592,509.99999999999994C1133.5740072202166,509.99999999999994,1135.379061371841,509.99999999999994,1137.1841155234656,509.99999999999994C1138.9891696750901,509.99999999999994,1140.7942238267146,509.99999999999994,1142.5992779783392,509.99999999999994C1144.4043321299637,509.99999999999994,1146.2093862815884,509.99999999999994,1148.014440433213,509.99999999999994C1149.8194945848375,509.99999999999994,1151.6245487364622,509.99999999999994,1153.4296028880867,509.99999999999994C1155.2346570397112,509.99999999999994,1157.0397111913358,509.99999999999994,1158.8447653429603,509.99999999999994C1160.6498194945848,509.99999999999994,1162.4548736462095,509.99999999999994,1164.259927797834,509.99999999999994C1166.0649819494586,509.99999999999994,1167.870036101083,509.99999999999994,1169.6750902527076,509.99999999999994C1171.4801444043321,509.99999999999994,1173.2851985559569,509.99999999999994,1175.0902527075814,509.99999999999994C1176.895306859206,509.99999999999994,1178.7003610108304,509.99999999999994,1180.505415162455,509.99999999999994C1182.3104693140795,509.99999999999994,1184.115523465704,509.99999999999994,1185.9205776173285,509.99999999999994C1187.725631768953,509.99999999999994,1189.5306859205775,509.99999999999994,1191.335740072202,509.99999999999994C1193.1407942238266,509.99999999999994,1194.9458483754513,509.99999999999994,1196.7509025270758,509.99999999999994C1198.5559566787003,509.99999999999994,1200.3610108303249,509.99999999999994,1202.1660649819494,509.99999999999994C1203.971119133574,509.99999999999994,1205.7761732851986,509.99999999999994,1207.5812274368232,509.99999999999994C1209.3862815884477,509.99999999999994,1211.1913357400722,509.99999999999994,1212.9963898916967,509.99999999999994C1214.8014440433212,509.99999999999994,1216.606498194946,509.99999999999994,1218.4115523465705,509.99999999999994C1220.216606498195,509.99999999999994,1222.0216606498195,509.99999999999994,1223.826714801444,509.99999999999994C1225.6317689530686,509.99999999999994,1227.436823104693,509.99999999999994,1229.2418772563176,509.99999999999994C1231.046931407942,509.99999999999994,1232.8519855595669,509.99999999999994,1234.6570397111914,509.99999999999994C1236.462093862816,509.99999999999994,1238.2671480144404,509.99999999999994,1240.072202166065,509.99999999999994C1241.8772563176894,509.99999999999994,1243.6823104693142,509.99999999999994,1245.4873646209387,509.99999999999994C1247.2924187725632,509.99999999999994,1249.0974729241877,509.99999999999994,1250.9025270758123,509.99999999999994C1252.7075812274368,509.99999999999994,1254.5126353790615,509.99999999999994,1256.317689530686,509.99999999999994C1258.1227436823106,509.99999999999994,1259.927797833935,509.99999999999994,1261.7328519855596,509.99999999999994C1263.537906137184,509.99999999999994,1265.3429602888086,509.99999999999994,1267.1480144404331,509.99999999999994C1268.9530685920577,509.99999999999994,1270.7581227436822,509.99999999999994,1272.5631768953067,509.99999999999994C1274.3682310469312,509.99999999999994,1276.173285198556,509.99999999999994,1277.9783393501805,509.99999999999994C1279.783393501805,509.99999999999994,1281.5884476534295,509.99999999999994,1283.393501805054,509.99999999999994C1285.1985559566785,509.99999999999994,1287.0036101083033,509.99999999999994,1288.8086642599278,509.99999999999994C1290.6137184115523,509.99999999999994,1292.418772563177,509.99999999999994,1294.2238267148016,509.99999999999994C1296.028880866426,509.99999999999994,1297.8339350180506,509.99999999999994,1299.6389891696751,509.99999999999994C1301.4440433212997,509.99999999999994,1303.2490974729242,494.99999999999994,1305.0541516245487,494.99999999999994C1306.8592057761732,494.99999999999994,1308.6642599277977,494.99999999999994,1310.4693140794222,494.99999999999994C1312.2743682310468,494.99999999999994,1314.0794223826715,494.99999999999994,1315.884476534296,494.99999999999994C1317.6895306859205,494.99999999999994,1319.494584837545,472.49999999999994,1321.2996389891696,465C1323.104693140794,457.4999999999998,1324.9097472924188,455.0000000000001,1326.7148014440434,450C1328.5198555956679,445.0000000000001,1330.3249097472924,435.00000000000006,1332.129963898917,435.00000000000006C1333.9350180505414,435.00000000000006,1335.7400722021662,435.00000000000006,1337.5451263537907,435.00000000000006C1339.3501805054152,435.00000000000006,1341.1552346570397,420.00000000000006,1342.9602888086642,420.00000000000006C1344.7653429602888,420.00000000000006,1346.5703971119135,420.00000000000006,1348.375451263538,420.00000000000006C1350.1805054151625,420.00000000000006,1351.985559566787,405,1353.7906137184116,390C1355.595667870036,375,1357.4007220216606,339.99999999999943,1359.2057761732851,329.99999999999994C1361.0108303249096,320,1362.8158844765344,320.00000000000017,1364.620938628159,315.00000000000006C1366.4259927797834,310.00000000000017,1368.231046931408,300,1370.0361010830325,300C1371.841155234657,300,1373.6462093862817,300,1375.4512635379062,300C1377.2563176895308,300,1379.0613718411553,292.4999999999997,1380.8664259927798,285C1382.6714801444043,277.49999999999994,1384.476534296029,254.99999999999997,1386.2815884476536,254.99999999999997C1388.086642599278,254.99999999999997,1389.8916967509026,254.99999999999997,1391.6967509025271,254.99999999999997C1393.5018050541516,254.99999999999997,1395.3068592057762,225.00000000000003,1397.1119133574007,225.00000000000003C1398.9169675090252,225.00000000000003,1400.7220216606497,225.00000000000003,1402.5270758122742,225.00000000000003C1404.3321299638988,225.00000000000003,1406.1371841155235,225.00000000000003,1407.942238267148,225.00000000000003C1409.7472924187725,225.00000000000003,1411.552346570397,225.00000000000003,1413.3574007220216,225.00000000000003C1415.162454873646,225.00000000000003,1416.9675090252708,225.00000000000003,1418.7725631768953,225.00000000000003C1420.5776173285199,225.00000000000003,1422.3826714801444,210.00000000000003,1424.187725631769,210.00000000000003C1425.9927797833934,210.00000000000003,1427.7978339350182,210.00000000000003,1429.6028880866427,210.00000000000003C1431.4079422382672,210.00000000000003,1433.2129963898917,210.00000000000003,1435.0180505415162,210.00000000000003C1436.8231046931407,210.00000000000003,1438.6281588447653,195,1440.4332129963898,195C1442.2382671480143,195,1444.043321299639,195,1445.8483754512636,195C1447.653429602888,195,1449.4584837545126,187.49999999999974,1451.2635379061371,180C1453.0685920577616,172.49999999999994,1454.8736462093864,157.50000000000003,1456.678700361011,149.99999999999997C1458.4837545126354,142.50000000000023,1460.28880866426,139.99999999999991,1462.0938628158844,135.00000000000003C1463.898916967509,129.99999999999994,1465.7039711191337,127.5000000000003,1467.5090252707582,120.00000000000003C1469.3140794223827,112.50000000000007,1471.1191335740073,100.00000000000001,1472.9241877256318,90C1474.7292418772563,79.99999999999999,1476.5342960288808,59.99999999999997,1478.3393501805053,59.99999999999997C1480.1444043321299,59.99999999999997,1481.9494584837544,59.99999999999997,1483.754512635379,59.99999999999997C1485.5595667870034,59.99999999999997,1487.3646209386281,59.99999999999997,1489.1696750902527,59.99999999999997C1490.9747292418772,59.99999999999997,1492.7797833935017,59.99999999999997,1494.5848375451262,59.99999999999997C1496.3898916967507,59.99999999999997,1498.1949458483755,59.99999999999997,1500,59.99999999999997" stroke="steelblue" stroke-width="3"/></g><g class="mark-symbol role-mark" role="graphics-symbol" aria-roledescription="symbol mark container"><path transform="translate(0,750)" d="M2.23606797749979,0A2.23606797749979,2.23606797749979,0,1,1,-2.23606797749979,0A2.23606797749979,2.23606797749979,0,1,1,2.23606797749979,0" fill="white" stroke="steelblue" stroke-width="1.5"/><path transform="translate(16.24548736462094,750)" d="M2.23606797749979,0A2.23606797749979,2.23606797749979,0,1,1,-2.23606797749979,0A2.23606797749979,2.23606797749979,0,1,1,2.23606797749979,0" fill="white" stroke="steelblue" stroke-width="1.5"/><path transform="translate(32.49097472924188,750)" d="M2.23606797749979,0A2.23606797749979,2.23606797749979,0,1,1,-2.23606797749979,0A2.23606797749979,2.23606797749979,0,1,1,2.23606797749979,0" fill="white" stroke="steelblue" stroke-width="1.5"/><path transform="translate(48.73646209386281,750)" d="M2.23606797749979,0A2.23606797749979,2.23606797749979,0,1,1,-2.23606797749979,0A2.23606797749979,2.23606797749979,0,1,1,2.23606797749979,0" fill="white" stroke="steelblue" stroke-width="1.5"/><path transform="translate(64.98194945848375,750)" d="M2.23606797749979,0A2.23606797749979,2.23606797749979,0,1,1,-2.23606797749979,0A2.23606797749979,2.23606797749979,0,1,1,2.23606797749979,0" fill="white" stroke="steelblue" stroke-width="1.5"/><path transform="translate(81.2274368231047,750)" d="M2.23606797749979,0A2.23606797749979,2.23606797749979,0,1,1,-2.23606797749979,0A2.23606797749979,2.23606797749979,0,1,1,2.23606797749979,0" fill="white" stroke="steelblue" stroke-width="1.5"/><path transform="translate(97.47292418772562,750)" d="M2.23606797749979,0A2.23606797749979,2.23606797749979,0,1,1,-2.23606797749979,0A2.23606797749979,2.23606797749979,0,1,1,2.23606797749979,0" fill="white" stroke="steelblue" stroke-width="1.5"/><path transform="translate(113.71841155234657,750)" d="M2.23606797749979,0A2.23606797749979,2.23606797749979,0,1,1,-2.23606797749979,0A2.23606797749979,2.23606797749979,0,1,1,2.23606797749979,0" fill="white" stroke="steelblue" stroke-width="1.5"/><path transform="translate(129.9638989169675,750)" d="M2.23606797749979,0A2.23606797749979,2.23606797749979,0,1,1,-2.23606797749979,0A2.23606797749979,2.23606797749979,0,1,1,2.23606797749979,0" fill="white" stroke="steelblue" stroke-width="1.5"/><path transform="translate(146.20938628158845,750)" d="M2.23606797749979,0A2.23606797749979,2.23606797749979,0,1,1,-2.23606797749979,0A2.23606797749979,2.23606797749979,0,1,1,2.23606797749979,0" fill="white" stroke="steelblue" stroke-width="1.5"/><path transform="translate(162.4548736462094,720)" d="M2.23606797749979,0A2.23606797749979,2.23606797749979,0,1,1,-2.23606797749979,0A2.23606797749979,2.23606797749979,0,1,1,2.23606797749979,0" fill="white" stroke="steelblue" stroke-width="1.5"/><path transform="translate(178.70036101083033,690)" d="M2.23606797749979,0A2.23606797749979,2.23606797749979,0,1,1,-2.23606797749979,0A2.23606797749979,2.23606797749979,0,1,1,2.23606797749979,0" fill="white" stroke="steelblue" stroke-width="1.5"/><path transform="translate(194.94584837545125,690)" d="M2.23606797749979,0A2.23606797749979,2.23606797749979,0,1,1,-2.23606797749979,0A2.23606797749979,2.23606797749979,0,1,1,2.23606797749979,0" fill="white" stroke="steelblue" stroke-width="1.5"/><path transform="translate(211.19133574007222,660)" d="M2.23606797749979,0A2.23606797749979,2.23606797749979,0,1,1,-2.23606797749979,0A2.23606797749979,2.23606797749979,0,1,1,2.23606797749979,0" fill="white" stroke="steelblue" stroke-width="1.5"/><path transform="translate(227.43682310469313,630)" d="M2.23606797749979,0A2.23606797749979,2.23606797749979,0,1,1,-2.23606797749979,0A2.23606797749979,2.23606797749979,0,1,1,2.23606797749979,0" fill="white" stroke="steelblue" stroke-width="1.5"/><path transform="translate(243.68231046931407,600)" d="M2.23606797749979,0A2.23606797749979,2.23606797749979,0,1,1,-2.23606797749979,0A2.23606797749979,2.23606797749979,0,1,1,2.23606797749979,0" fill="white" stroke="steelblue" stroke-width="1.5"/><path transform="translate(259.927797833935,570)" d="M2.23606797749979,0A2.23606797749979,2.23606797749979,0,1,1,-2.23606797749979,0A2.23606797749979,2.23606797749979,0,1,1,2.23606797749979,0" fill="white" stroke="steelblue" stroke-width="1.5"/><path transform="translate(276.17328519855596,540)" d="M2.23606797749979,0A2.23606797749979,2.23606797749979,0,1,1,-2.23606797749979,0A2.23606797749979,2.23606797749979,0,1,1,2.23606797749979,0" fill="white" stroke="steelblue" stroke-width="1.5"/><path transform="translate(292.4187725631769,525)" d="M2.23606797749979,0A2.23606797749979,2.23606797749979,0,1,1,-2.23606797749979,0A2.23606797749979,2.23606797749979,0,1,1,2.23606797749979,0" fill="white" stroke="steelblue" stroke-width="1.5"/><path transform="translate(308.66425992779784,525)" d="M2.23606797749979,0A2.23606797749979,2.23606797749979,0,1,1,-2.23606797749979,0A2.23606797749979,2.23606797749979,0,1,1,2.23606797749979,0" fill="white" stroke="steelblue" stroke-width="1.5"/><path transform="translate(324.9097472924188,525)" d="M2.23606797749979,0A2.23606797749979,2.23606797749979,0,1,1,-2.23606797749979,0A2.23606797749979,2.23606797749979,0,1,1,2.23606797749979,0" fill="white" stroke="steelblue" stroke-width="1.5"/><path transform="translate(341.1552346570397,525)" d="M2.23606797749979,0A2.23606797749979,2.23606797749979,0,1,1,-2.23606797749979,0A2.23606797749979,2.23606797749979,0,1,1,2.23606797749979,0" fill="white" stroke="steelblue" stroke-width="1.5"/><path transform="translate(357.40072202166067,525)" d="M2.23606797749979,0A2.23606797749979,2.23606797749979,0,1,1,-2.23606797749979,0A2.23606797749979,2.23606797749979,0,1,1,2.23606797749979,0" fill="white" stroke="steelblue" stroke-width="1.5"/><path transform="translate(373.64620938628155,509.99999999999994)" d="M2.23606797749979,0A2.23606797749979,2.23606797749979,0,1,1,-2.23606797749979,0A2.23606797749979,2.23606797749979,0,1,1,2.23606797749979,0" fill="white" stroke="steelblue" stroke-width="1.5"/><path transform="translate(389.8916967509025,509.99999999999994)" d="M2.23606797749979,0A2.23606797749979,2.23606797749979,0,1,1,-2.23606797749979,0A2.23606797749979,2.23606797749979,0,1,1,2.23606797749979,0" fill="white" stroke="steelblue" stroke-width="1.5"/><path transform="translate(406.1371841155235,509.99999999999994)" d="M2.23606797749979,0A2.23606797749979,2.23606797749979,0,1,1,-2.23606797749979,0A2.23606797749979,2.23606797749979,0,1,1,2.23606797749979,0" fill="white" stroke="steelblue" stroke-width="1.5"/><path transform="translate(422.38267148014444,509.99999999999994)" d="M2.23606797749979,0A2.23606797749979,2.23606797749979,0,1,1,-2.23606797749979,0A2.23606797749979,2.23606797749979,0,1,1,2.23606797749979,0" fill="white" stroke="steelblue" stroke-width="1.5"/><path transform="translate(438.6281588447653,509.99999999999994)" d="M2.23606797749979,0A2.23606797749979,2.23606797749979,0,1,1,-2.23606797749979,0A2.23606797749979,2.23606797749979,0,1,1,2.23606797749979,0" fill="white" stroke="steelblue" stroke-width="1.5"/><path transform="translate(454.87364620938627,509.99999999999994)" d="M2.23606797749979,0A2.23606797749979,2.23606797749979,0,1,1,-2.23606797749979,0A2.23606797749979,2.23606797749979,0,1,1,2.23606797749979,0" fill="white" stroke="steelblue" stroke-width="1.5"/><path transform="translate(471.11913357400726,509.99999999999994)" d="M2.23606797749979,0A2.23606797749979,2.23606797749979,0,1,1,-2.23606797749979,0A2.23606797749979,2.23606797749979,0,1,1,2.23606797749979,0" fill="white" stroke="steelblue" stroke-width="1.5"/><path transform="translate(487.36462093862815,509.99999999999994)" d="M2.23606797749979,0A2.23606797749979,2.23606797749979,0,1,1,-2.23606797749979,0A2.23606797749979,2.23606797749979,0,1,1,2.23606797749979,0" fill="white" stroke="steelblue" stroke-width="1.5"/><path transform="translate(503.6101083032491,509.99999999999994)" d="M2.23606797749979,0A2.23606797749979,2.23606797749979,0,1,1,-2.23606797749979,0A2.23606797749979,2.23606797749979,0,1,1,2.23606797749979,0" fill="white" stroke="steelblue" stroke-width="1.5"/><path transform="translate(519.85559566787,509.99999999999994)" d="M2.23606797749979,0A2.23606797749979,2.23606797749979,0,1,1,-2.23606797749979,0A2.23606797749979,2.23606797749979,0,1,1,2.23606797749979,0" fill="white" stroke="steelblue" stroke-width="1.5"/><path transform="translate(536.101083032491,509.99999999999994)" d="M2.23606797749979,0A2.23606797749979,2.23606797749979,0,1,1,-2.23606797749979,0A2.23606797749979,2.23606797749979,0,1,1,2.23606797749979,0" fill="white" stroke="steelblue" stroke-width="1.5"/><path transform="translate(552.3465703971119,509.99999999999994)" d="M2.23606797749979,0A2.23606797749979,2.23606797749979,0,1,1,-2.23606797749979,0A2.23606797749979,2.23606797749979,0,1,1,2.23606797749979,0" fill="white" stroke="steelblue" stroke-width="1.5"/><path transform="translate(568.5920577617328,509.99999999999994)" d="M2.23606797749979,0A2.23606797749979,2.23606797749979,0,1,1,-2.23606797749979,0A2.23606797749979,2.23606797749979,0,1,1,2.23606797749979,0" fill="white" stroke="steelblue" stroke-width="1.5"/><path transform="translate(584.8375451263538,509.99999999999994)" d="M2.23606797749979,0A2.23606797749979,2.23606797749979,0,1,1,-2.23606797749979,0A2.23606797749979,2.23606797749979,0,1,1,2.23606797749979,0" fill="white" stroke="steelblue" stroke-width="1.5"/><path transform="translate(601.0830324909747,509.99999999999994)" d="M2.23606797749979,0A2.23606797749979,2.23606797749979,0,1,1,-2.23606797749979,0A2.23606797749979,2.23606797749979,0,1,1,2.23606797749979,0" fill="white" stroke="steelblue" stroke-width="1.5"/><path transform="translate(617.3285198555957,509.99999999999994)" d="M2.23606797749979,0A2.23606797749979,2.23606797749979,0,1,1,-2.23606797749979,0A2.23606797749979,2.23606797749979,0,1,1,2.23606797749979,0" fill="white" stroke="steelblue" stroke-width="1.5"/><path transform="translate(633.5740072202166,509.99999999999994)" d="M2.23606797749979,0A2.23606797749979,2.23606797749979,0,1,1,-2.23606797749979,0A2.23606797749979,2.23606797749979,0,1,1,2.23606797749979,0" fill="white" stroke="steelblue" stroke-width="1.5"/><path transform="translate(649.8194945848376,509.99999999999994)" d="M2.23606797749979,0A2.23606797749979,2.23606797749979,0,1,1,-2.23606797749979,0A2.23606797749979,2.23606797749979,0,1,1,2.23606797749979,0" fill="white" stroke="steelblue" stroke-width="1.5"/><path transform="translate(666.0649819494585,509.99999999999994)" d="M2.23606797749979,0A2.23606797749979,2.23606797749979,0,1,1,-2.23606797749979,0A2.23606797749979,2.23606797749979,0,1,1,2.23606797749979,0" fill="white" stroke="steelblue" stroke-width="1.5"/><path transform="translate(682.3104693140795,509.99999999999994)" d="M2.23606797749979,0A2.23606797749979,2.23606797749979,0,1,1,-2.23606797749979,0A2.23606797749979,2.23606797749979,0,1,1,2.23606797749979,0" fill="white" stroke="steelblue" stroke-width="1.5"/><path transform="translate(698.5559566787003,509.99999999999994)" d="M2.23606797749979,0A2.23606797749979,2.23606797749979,0,1,1,-2.23606797749979,0A2.23606797749979,2.23606797749979,0,1,1,2.23606797749979,0" fill="white" stroke="steelblue" stroke-width="1.5"/><path transform="translate(714.8014440433213,509.99999999999994)" d="M2.23606797749979,0A2.23606797749979,2.23606797749979,0,1,1,-2.23606797749979,0A2.23606797749979,2.23606797749979,0,1,1,2.23606797749979,0" fill="white" stroke="steelblue" stroke-width="1.5"/><path transform="translate(731.0469314079422,509.99999999999994)" d="M2.23606797749979,0A2.23606797749979,2.23606797749979,0,1,1,-2.23606797749979,0A2.23606797749979,2.23606797749979,0,1,1,2.23606797749979,0" fill="white" stroke="steelblue" stroke-width="1.5"/><path transform="translate(747.2924187725631,509.99999999999994)" d="M2.23606797749979,0A2.23606797749979,2.23606797749979,0,1,1,-2.23606797749979,0A2.23606797749979,2.23606797749979,0,1,1,2.23606797749979,0" fill="white" stroke="steelblue" stroke-width="1.5"/><path transform="translate(763.5379061371841,509.99999999999994)" d="M2.23606797749979,0A2.23606797749979,2.23606797749979,0,1,1,-2.23606797749979,0A2.23606797749979,2.23606797749979,0,1,1,2.23606797749979,0" fill="white" stroke="steelblue" stroke-width="1.5"/><path transform="translate(779.783393501805,509.99999999999994)" d="M2.23606797749979,0A2.23606797749979,2.23606797749979,0,1,1,-2.23606797749979,0A2.23606797749979,2.23606797749979,0,1,1,2.23606797749979,0" fill="white" stroke="steelblue" stroke-width="1.5"/><path transform="translate(796.028880866426,509.99999999999994)" d="M2.23606797749979,0A2.23606797749979,2.23606797749979,0,1,1,-2.23606797749979,0A2.23606797749979,2.23606797749979,0,1,1,2.23606797749979,0" fill="white" stroke="steelblue" stroke-width="1.5"/><path transform="translate(812.274368231047,509.99999999999994)" d="M2.23606797749979,0A2.23606797749979,2.23606797749979,0,1,1,-2.23606797749979,0A2.23606797749979,2.23606797749979,0,1,1,2.23606797749979,0" fill="white" stroke="steelblue" stroke-width="1.5"/><path transform="translate(828.5198555956678,509.99999999999994)" d="M2.23606797749979,0A2.23606797749979,2.23606797749979,0,1,1,-2.23606797749979,0A2.23606797749979,2.23606797749979,0,1,1,2.23606797749979,0" fill="white" stroke="steelblue" stroke-width="1.5"/><path transform="translate(844.7653429602889,509.99999999999994)" d="M2.23606797749979,0A2.23606797749979,2.23606797749979,0,1,1,-2.23606797749979,0A2.23606797749979,2.23606797749979,0,1,1,2.23606797749979,0" fill="white" stroke="steelblue" stroke-width="1.5"/><path transform="translate(861.0108303249099,509.99999999999994)" d="M2.23606797749979,0A2.23606797749979,2.23606797749979,0,1,1,-2.23606797749979,0A2.23606797749979,2.23606797749979,0,1,1,2.23606797749979,0" fill="white" stroke="steelblue" stroke-width="1.5"/><path transform="translate(877.2563176895306,509.99999999999994)" d="M2.23606797749979,0A2.23606797749979,2.23606797749979,0,1,1,-2.23606797749979,0A2.23606797749979,2.23606797749979,0,1,1,2.23606797749979,0" fill="white" stroke="steelblue" stroke-width="1.5"/><path transform="translate(893.5018050541516,509.99999999999994)" d="M2.23606797749979,0A2.23606797749979,2.23606797749979,0,1,1,-2.23606797749979,0A2.23606797749979,2.23606797749979,0,1,1,2.23606797749979,0" fill="white" stroke="steelblue" stroke-width="1.5"/><path transform="translate(909.7472924187725,509.99999999999994)" d="M2.23606797749979,0A2.23606797749979,2.23606797749979,0,1,1,-2.23606797749979,0A2.23606797749979,2.23606797749979,0,1,1,2.23606797749979,0" fill="white" stroke="steelblue" stroke-width="1.5"/><path transform="translate(925.9927797833935,509.99999999999994)" d="M2.23606797749979,0A2.23606797749979,2.23606797749979,0,1,1,-2.23606797749979,0A2.23606797749979,2.23606797749979,0,1,1,2.23606797749979,0" fill="white" stroke="steelblue" stroke-width="1.5"/><path transform="translate(942.2382671480145,509.99999999999994)" d="M2.23606797749979,0A2.23606797749979,2.23606797749979,0,1,1,-2.23606797749979,0A2.23606797749979,2.23606797749979,0,1,1,2.23606797749979,0" fill="white" stroke="steelblue" stroke-width="1.5"/><path transform="translate(958.4837545126353,509.99999999999994)" d="M2.23606797749979,0A2.23606797749979,2.23606797749979,0,1,1,-2.23606797749979,0A2.23606797749979,2.23606797749979,0,1,1,2.23606797749979,0" fill="white" stroke="steelblue" stroke-width="1.5"/><path transform="translate(974.7292418772563,509.99999999999994)" d="M2.23606797749979,0A2.23606797749979,2.23606797749979,0,1,1,-2.23606797749979,0A2.23606797749979,2.23606797749979,0,1,1,2.23606797749979,0" fill="white" stroke="steelblue" stroke-width="1.5"/><path transform="translate(990.9747292418772,509.99999999999994)" d="M2.23606797749979,0A2.23606797749979,2.23606797749979,0,1,1,-2.23606797749979,0A2.23606797749979,2.23606797749979,0,1,1,2.23606797749979,0" fill="white" stroke="steelblue" stroke-width="1.5"/><path transform="translate(1007.2202166064982,509.99999999999994)" d="M2.23606797749979,0A2.23606797749979,2.23606797749979,0,1,1,-2.23606797749979,0A2.23606797749979,2.23606797749979,0,1,1,2.23606797749979,0" fill="white" stroke="steelblue" stroke-width="1.5"/><path transform="translate(1023.4657039711192,509.99999999999994)" d="M2.23606797749979,0A2.23606797749979,2.23606797749979,0,1,1,-2.23606797749979,0A2.23606797749979,2.23606797749979,0,1,1,2.23606797749979,0" fill="white" stroke="steelblue" stroke-width="1.5"/><path transform="translate(1039.71119133574,509.99999999999994)" d="M2.23606797749979,0A2.23606797749979,2.23606797749979,0,1,1,-2.23606797749979,0A2.23606797749979,2.23606797749979,0,1,1,2.23606797749979,0" fill="white" stroke="steelblue" stroke-width="1.5"/><path transform="translate(1055.956678700361,509.99999999999994)" d="M2.23606797749979,0A2.23606797749979,2.23606797749979,0,1,1,-2.23606797749979,0A2.23606797749979,2.23606797749979,0,1,1,2.23606797749979,0" fill="white" stroke="steelblue" stroke-width="1.5"/><path transform="translate(1072.202166064982,509.99999999999994)" d="M2.23606797749979,0A2.23606797749979,2.23606797749979,0,1,1,-2.23606797749979,0A2.23606797749979,2.23606797749979,0,1,1,2.23606797749979,0" fill="white" stroke="steelblue" stroke-width="1.5"/><path transform="translate(1088.447653429603,509.99999999999994)" d="M2.23606797749979,0A2.23606797749979,2.23606797749979,0,1,1,-2.23606797749979,0A2.23606797749979,2.23606797749979,0,1,1,2.23606797749979,0" fill="white" stroke="steelblue" stroke-width="1.5"/><path transform="translate(1104.6931407942238,509.99999999999994)" d="M2.23606797749979,0A2.23606797749979,2.23606797749979,0,1,1,-2.23606797749979,0A2.23606797749979,2.23606797749979,0,1,1,2.23606797749979,0" fill="white" stroke="steelblue" stroke-width="1.5"/><path transform="translate(1120.9386281588447,509.99999999999994)" d="M2.23606797749979,0A2.23606797749979,2.23606797749979,0,1,1,-2.23606797749979,0A2.23606797749979,2.23606797749979,0,1,1,2.23606797749979,0" fill="white" stroke="steelblue" stroke-width="1.5"/><path transform="translate(1137.1841155234656,509.99999999999994)" d="M2.23606797749979,0A2.23606797749979,2.23606797749979,0,1,1,-2.23606797749979,0A2.23606797749979,2.23606797749979,0,1,1,2.23606797749979,0" fill="white" stroke="steelblue" stroke-width="1.5"/><path transform="translate(1153.4296028880867,509.99999999999994)" d="M2.23606797749979,0A2.23606797749979,2.23606797749979,0,1,1,-2.23606797749979,0A2.23606797749979,2.23606797749979,0,1,1,2.23606797749979,0" fill="white" stroke="steelblue" stroke-width="1.5"/><path transform="translate(1169.6750902527076,509.99999999999994)" d="M2.23606797749979,0A2.23606797749979,2.23606797749979,0,1,1,-2.23606797749979,0A2.23606797749979,2.23606797749979,0,1,1,2.23606797749979,0" fill="white" stroke="steelblue" stroke-width="1.5"/><path transform="translate(1185.9205776173285,509.99999999999994)" d="M2.23606797749979,0A2.23606797749979,2.23606797749979,0,1,1,-2.23606797749979,0A2.23606797749979,2.23606797749979,0,1,1,2.23606797749979,0" fill="white" stroke="steelblue" stroke-width="1.5"/><path transform="translate(1202.1660649819494,509.99999999999994)" d="M2.23606797749979,0A2.23606797749979,2.23606797749979,0,1,1,-2.23606797749979,0A2.23606797749979,2.23606797749979,0,1,1,2.23606797749979,0" fill="white" stroke="steelblue" stroke-width="1.5"/><path transform="translate(1218.4115523465705,509.99999999999994)" d="M2.23606797749979,0A2.23606797749979,2.23606797749979,0,1,1,-2.23606797749979,0A2.23606797749979,2.23606797749979,0,1,1,2.23606797749979,0" fill="white" stroke="steelblue" stroke-width="1.5"/><path transform="translate(1234.6570397111914,509.99999999999994)" d="M2.23606797749979,0A2.23606797749979,2.23606797749979,0,1,1,-2.23606797749979,0A2.23606797749979,2.23606797749979,0,1,1,2.23606797749979,0" fill="white" stroke="steelblue" stroke-width="1.5"/><path transform="translate(1250.9025270758123,509.99999999999994)" d="M2.23606797749979,0A2.23606797749979,2.23606797749979,0,1,1,-2.23606797749979,0A2.23606797749979,2.23606797749979,0,1,1,2.23606797749979,0" fill="white" stroke="steelblue" stroke-width="1.5"/><path transform="translate(1267.1480144404331,509.99999999999994)" d="M2.23606797749979,0A2.23606797749979,2.23606797749979,0,1,1,-2.23606797749979,0A2.23606797749979,2.23606797749979,0,1,1,2.23606797749979,0" fill="white" stroke="steelblue" stroke-width="1.5"/><path transform="translate(1283.393501805054,509.99999999999994)" d="M2.23606797749979,0A2.23606797749979,2.23606797749979,0,1,1,-2.23606797749979,0A2.23606797749979,2.23606797749979,0,1,1,2.23606797749979,0" fill="white" stroke="steelblue" stroke-width="1.5"/><path transform="translate(1299.6389891696751,509.99999999999994)" d="M2.23606797749979,0A2.23606797749979,2.23606797749979,0,1,1,-2.23606797749979,0A2.23606797749979,2.23606797749979,0,1,1,2.23606797749979,0" fill="white" stroke="steelblue" stroke-width="1.5"/><path transform="translate(1315.884476534296,494.99999999999994)" d="M2.23606797749979,0A2.23606797749979,2.23606797749979,0,1,1,-2.23606797749979,0A2.23606797749979,2.23606797749979,0,1,1,2.23606797749979,0" fill="white" stroke="steelblue" stroke-width="1.5"/><path transform="translate(1332.129963898917,435.00000000000006)" d="M2.23606797749979,0A2.23606797749979,2.23606797749979,0,1,1,-2.23606797749979,0A2.23606797749979,2.23606797749979,0,1,1,2.23606797749979,0" fill="white" stroke="steelblue" stroke-width="1.5"/><path transform="translate(1348.375451263538,420.00000000000006)" d="M2.23606797749979,0A2.23606797749979,2.23606797749979,0,1,1,-2.23606797749979,0A2.23606797749979,2.23606797749979,0,1,1,2.23606797749979,0" fill="white" stroke="steelblue" stroke-width="1.5"/><path transform="translate(1364.620938628159,315.00000000000006)" d="M2.23606797749979,0A2.23606797749979,2.23606797749979,0,1,1,-2.23606797749979,0A2.23606797749979,2.23606797749979,0,1,1,2.23606797749979,0" fill="white" stroke="steelblue" stroke-width="1.5"/><path transform="translate(1380.8664259927798,285)" d="M2.23606797749979,0A2.23606797749979,2.23606797749979,0,1,1,-2.23606797749979,0A2.23606797749979,2.23606797749979,0,1,1,2.23606797749979,0" fill="white" stroke="steelblue" stroke-width="1.5"/><path transform="translate(1397.1119133574007,225.00000000000003)" d="M2.23606797749979,0A2.23606797749979,2.23606797749979,0,1,1,-2.23606797749979,0A2.23606797749979,2.23606797749979,0,1,1,2.23606797749979,0" fill="white" stroke="steelblue" stroke-width="1.5"/><path transform="translate(1413.3574007220216,225.00000000000003)" d="M2.23606797749979,0A2.23606797749979,2.23606797749979,0,1,1,-2.23606797749979,0A2.23606797749979,2.23606797749979,0,1,1,2.23606797749979,0" fill="white" stroke="steelblue" stroke-width="1.5"/><path transform="translate(1429.6028880866427,210.00000000000003)" d="M2.23606797749979,0A2.23606797749979,2.23606797749979,0,1,1,-2.23606797749979,0A2.23606797749979,2.23606797749979,0,1,1,2.23606797749979,0" fill="white" stroke="steelblue" stroke-width="1.5"/><path transform="translate(1445.8483754512636,195)" d="M2.23606797749979,0A2.23606797749979,2.23606797749979,0,1,1,-2.23606797749979,0A2.23606797749979,2.23606797749979,0,1,1,2.23606797749979,0" fill="white" stroke="steelblue" stroke-width="1.5"/><path transform="translate(1462.0938628158844,135.00000000000003)" d="M2.23606797749979,0A2.23606797749979,2.23606797749979,0,1,1,-2.23606797749979,0A2.23606797749979,2.23606797749979,0,1,1,2.23606797749979,0" fill="white" stroke="steelblue" stroke-width="1.5"/><path transform="translate(1478.3393501805053,59.99999999999997)" d="M2.23606797749979,0A2.23606797749979,2.23606797749979,0,1,1,-2.23606797749979,0A2.23606797749979,2.23606797749979,0,1,1,2.23606797749979,0" fill="white" stroke="steelblue" stroke-width="1.5"/><path transform="translate(1494.5848375451262,59.99999999999997)" d="M2.23606797749979,0A2.23606797749979,2.23606797749979,0,1,1,-2.23606797749979,0A2.23606797749979,2.23606797749979,0,1,1,2.23606797749979,0" fill="white" stroke="steelblue" stroke-width="1.5"/></g><g class="mark-group role-title"><g transform="translate(715.8059853192549,-35)"><path class="background" aria-hidden="true" d="M0,0h0v0h0Z" pointer-events="none"/><g><g class="mark-text role-title-text" role="graphics-symbol" aria-roledescription="title" aria-label="Title text 'Total COVID-19 deaths in 'Bezirk Amstetten' (absolute)'" pointer-events="none"><text text-anchor="middle" transform="translate(0,19)" font-family="sans-serif" font-size="24px" font-weight="bold" fill="#000" opacity="1">Total COVID-19 deaths in 'Bezirk Amstetten' (absolute)</text></g></g><path class="foreground" aria-hidden="true" d="" pointer-events="none" display="none"/></g></g></g><path class="foreground" aria-hidden="true" d="" display="none"/></g></g></g></svg>