<svg xmlns="http://www.w3.org/2000/svg" xmlns:xlink="http://www.w3.org/1999/xlink" version="1.1" class="marks" width="1604" height="900" viewBox="0 0 1604 900"><g fill="none" stroke-miterlimit="10" transform="translate(96,40)"><g class="mark-group role-frame root" role="graphics-object" aria-roledescription="group mark container"><g transform="translate(0,0)"><path class="background" aria-hidden="true" d="M0,0h1500v750h-1500Z"/><g><g class="mark-group role-axis" role="graphics-symbol" aria-roledescription="axis" aria-label="Y-axis titled 'Active COVID-19 cases (absolute)' for a linear scale with values from 0 to 2,200"><g transform="translate(0.5,0.5)"><path class="background" aria-hidden="true" d="M0,0h0v0h0Z" pointer-events="none"/><g><g class="mark-rule role-axis-grid" pointer-events="none"><line transform="translate(0,750)" x2="1500" y2="0" stroke="#ddd" stroke-width="1" opacity="1"/><line transform="translate(0,682)" x2="1500" y2="0" stroke="#ddd" stroke-width="1" opacity="1"/><line transform="translate(0,614)" x2="1500" y2="0" stroke="#ddd" stroke-width="1" opacity="1"/><line transform="translate(0,545)" x2="1500" y2="0" stroke="#ddd" stroke-width="1" opacity="1"/><line transform="translate(0,477)" x2="1500" y2="0" stroke="#ddd" stroke-width="1" opacity="1"/><line transform="translate(0,409)" x2="1500" y2="0" stroke="#ddd" stroke-width="1" opacity="1"/><line transform="translate(0,341)" x2="1500" y2="0" stroke="#ddd" stroke-width="1" opacity="1"/><line transform="translate(0,273)" x2="1500" y2="0" stroke="#ddd" stroke-width="1" opacity="1"/><line transform="translate(0,205)" x2="1500" y2="0" stroke="#ddd" stroke-width="1" opacity="1"/><line transform="translate(0,136)" x2="1500" y2="0" stroke="#ddd" stroke-width="1" opacity="1"/><line transform="translate(0,68)" x2="1500" y2="0" stroke="#ddd" stroke-width="1" opacity="1"/><line transform="translate(0,0)" x2="1500" y2="0" stroke="#ddd" stroke-width="1" opacity="1"/></g><g class="mark-rule role-axis-tick" pointer-events="none"><line transform="translate(0,750)" x2="-5" y2="0" stroke="#888" stroke-width="1" opacity="1"/><line transform="translate(0,682)" x2="-5" y2="0" stroke="#888" stroke-width="1" opacity="1"/><line transform="translate(0,614)" x2="-5" y2="0" stroke="#888" stroke-width="1" opacity="1"/><line transform="translate(0,545)" x2="-5" y2="0" stroke="#888" stroke-width="1" opacity="1"/><line transform="translate(0,477)" x2="-5" y2="0" stroke="#888" stroke-width="1" opacity="1"/><line transform="translate(0,409)" x2="-5" y2="0" stroke="#888" stroke-width="1" opacity="1"/><line transform="translate(0,341)" x2="-5" y2="0" stroke="#888" stroke-width="1" opacity="1"/><line transform="translate(0,273)" x2="-5" y2="0" stroke="#888" stroke-width="1" opacity="1"/><line transform="translate(0,205)" x2="-5" y2="0" stroke="#888" stroke-width="1" opacity="1"/><line transform="translate(0,136)" x2="-5" y2="0" stroke="#888" stroke-width="1" opacity="1"/><line transform="translate(0,68)" x2="-5" y2="0" stroke="#888" stroke-width="1" opacity="1"/><line transform="translate(0,0)" x2="-5" y2="0" stroke="#888" stroke-width="1" opacity="1"/></g><g class="mark-text role-axis-label" pointer-events="none"><text text-anchor="end" transform="translate(-7,754)" font-family="sans-serif" font-size="14px" fill="#000" opacity="1">0</text><text text-anchor="end" transform="translate(-7,685.8181818181818)" font-family="sans-serif" font-size="14px" fill="#000" opacity="1">200</text><text text-anchor="end" transform="translate(-7,617.6363636363636)" font-family="sans-serif" font-size="14px" fill="#000" opacity="1">400</text><text text-anchor="end" transform="translate(-7,549.4545454545455)" font-family="sans-serif" font-size="14px" fill="#000" opacity="1">600</text><text text-anchor="end" transform="translate(-7,481.27272727272725)" font-family="sans-serif" font-size="14px" fill="#000" opacity="1">800</text><text text-anchor="end" transform="translate(-7,413.09090909090907)" font-family="sans-serif" font-size="14px" fill="#000" opacity="1">1,000</text><text text-anchor="end" transform="translate(-7,344.90909090909093)" font-family="sans-serif" font-size="14px" fill="#000" opacity="1">1,200</text><text text-anchor="end" transform="translate(-7,276.72727272727275)" font-family="sans-serif" font-size="14px" fill="#000" opacity="1">1,400</text><text text-anchor="end" transform="translate(-7,208.54545454545453)" font-family="sans-serif" font-size="14px" fill="#000" opacity="1">1,600</text><text text-anchor="end" transform="translate(-7,140.36363636363632)" font-family="sans-serif" font-size="14px" fill="#000" opacity="1">1,800</text><text text-anchor="end" transform="translate(-7,72.1818181818182)" font-family="sans-serif" font-size="14px" fill="#000" opacity="1">2,000</text><text text-anchor="end" transform="translate(-7,4)" font-family="sans-serif" font-size="14px" fill="#000" opacity="1">2,200</text></g><g class="mark-rule role-axis-domain" pointer-events="none"><line transform="translate(0,750)" x2="0" y2="-750" stroke="#888" stroke-width="1" opacity="1"/></g><g class="mark-text role-axis-title" pointer-events="none"><text text-anchor="middle" transform="translate(-73,375) rotate(-90) translate(0,-4)" font-family="sans-serif" font-size="18px" font-weight="bold" fill="#000" opacity="1">Active COVID-19 cases (absolute)</text></g></g><path class="foreground" aria-hidden="true" d="" pointer-events="none" display="none"/></g></g><g class="mark-group role-axis" role="graphics-symbol" aria-roledescription="axis" aria-label="X-axis titled 'Date' for a linear scale with values from 2020-02-26 to 2020-11-29"><g transform="translate(0.5,750.5)"><path class="background" aria-hidden="true" d="M0,0h0v0h0Z" pointer-events="none"/><g><g class="mark-rule role-axis-tick" pointer-events="none"><line transform="translate(20,0)" x2="0" y2="5" stroke="#888" stroke-width="1" opacity="1"/><line transform="translate(83,0)" x2="0" y2="5" stroke="#888" stroke-width="1" opacity="1"/><line transform="translate(146,0)" x2="0" y2="5" stroke="#888" stroke-width="1" opacity="1"/><line transform="translate(208,0)" x2="0" y2="5" stroke="#888" stroke-width="1" opacity="1"/><line transform="translate(271,0)" x2="0" y2="5" stroke="#888" stroke-width="1" opacity="1"/><line transform="translate(334,0)" x2="0" y2="5" stroke="#888" stroke-width="1" opacity="1"/><line transform="translate(396,0)" x2="0" y2="5" stroke="#888" stroke-width="1" opacity="1"/><line transform="translate(459,0)" x2="0" y2="5" stroke="#888" stroke-width="1" opacity="1"/><line transform="translate(522,0)" x2="0" y2="5" stroke="#888" stroke-width="1" opacity="1"/><line transform="translate(584,0)" x2="0" y2="5" stroke="#888" stroke-width="1" opacity="1"/><line transform="translate(647,0)" x2="0" y2="5" stroke="#888" stroke-width="1" opacity="1"/><line transform="translate(710,0)" x2="0" y2="5" stroke="#888" stroke-width="1" opacity="1"/><line transform="translate(772,0)" x2="0" y2="5" stroke="#888" stroke-width="1" opacity="1"/><line transform="translate(835,0)" x2="0" y2="5" stroke="#888" stroke-width="1" opacity="1"/><line transform="translate(898,0)" x2="0" y2="5" stroke="#888" stroke-width="1" opacity="1"/><line transform="translate(960,0)" x2="0" y2="5" stroke="#888" stroke-width="1" opacity="1"/><line transform="translate(1023,0)" x2="0" y2="5" stroke="#888" stroke-width="1" opacity="1"/><line transform="translate(1086,0)" x2="0" y2="5" stroke="#888" stroke-width="1" opacity="1"/><line transform="translate(1149,0)" x2="0" y2="5" stroke="#888" stroke-width="1" opacity="1"/><line transform="translate(1211,0)" x2="0" y2="5" stroke="#888" stroke-width="1" opacity="1"/><line transform="translate(1274,0)" x2="0" y2="5" stroke="#888" stroke-width="1" opacity="1"/><line transform="translate(1337,0)" x2="0" y2="5" stroke="#888" stroke-width="1" opacity="1"/><line transform="translate(1399,0)" x2="0" y2="5" stroke="#888" stroke-width="1" opacity="1"/><line transform="translate(1462,0)" x2="0" y2="5" stroke="#888" stroke-width="1" opacity="1"/></g><g class="mark-text role-axis-label" pointer-events="none"><text text-anchor="end" transform="translate(20.356999598876854,7) rotate(-35) translate(0,11)" font-family="sans-serif" font-size="14px" fill="#000" opacity="1">2020-02-29</text><text text-anchor="end" transform="translate(83.03249097472924,7) rotate(-35) translate(0,11)" font-family="sans-serif" font-size="14px" fill="#000" opacity="1">2020-03-12</text><text text-anchor="end" transform="translate(145.70798235058163,7) rotate(-35) translate(0,11)" font-family="sans-serif" font-size="14px" fill="#000" opacity="1">2020-03-23</text><text text-anchor="end" transform="translate(208.38347372643403,7) rotate(-35) translate(0,11)" font-family="sans-serif" font-size="14px" fill="#000" opacity="1">2020-04-04</text><text text-anchor="end" transform="translate(271.05896510228644,7) rotate(-35) translate(0,11)" font-family="sans-serif" font-size="14px" fill="#000" opacity="1">2020-04-16</text><text text-anchor="end" transform="translate(333.7344564781388,7) rotate(-35) translate(0,11)" font-family="sans-serif" font-size="14px" fill="#000" opacity="1">2020-04-27</text><text text-anchor="end" transform="translate(396.4099478539912,7) rotate(-35) translate(0,11)" font-family="sans-serif" font-size="14px" fill="#000" opacity="1">2020-05-09</text><text text-anchor="end" transform="translate(459.08543922984353,7) rotate(-35) translate(0,11)" font-family="sans-serif" font-size="14px" fill="#000" opacity="1">2020-05-20</text><text text-anchor="end" transform="translate(521.760930605696,7) rotate(-35) translate(0,11)" font-family="sans-serif" font-size="14px" fill="#000" opacity="1">2020-06-01</text><text text-anchor="end" transform="translate(584.4364219815483,7) rotate(-35) translate(0,11)" font-family="sans-serif" font-size="14px" fill="#000" opacity="1">2020-06-12</text><text text-anchor="end" transform="translate(647.1119133574008,7) rotate(-35) translate(0,11)" font-family="sans-serif" font-size="14px" fill="#000" opacity="1">2020-06-24</text><text text-anchor="end" transform="translate(709.7874047332531,7) rotate(-35) translate(0,11)" font-family="sans-serif" font-size="14px" fill="#000" opacity="1">2020-07-06</text><text text-anchor="end" transform="translate(772.4628961091055,7) rotate(-35) translate(0,11)" font-family="sans-serif" font-size="14px" fill="#000" opacity="1">2020-07-17</text><text text-anchor="end" transform="translate(835.1383874849579,7) rotate(-35) translate(0,11)" font-family="sans-serif" font-size="14px" fill="#000" opacity="1">2020-07-29</text><text text-anchor="end" transform="translate(897.8138788608103,7) rotate(-35) translate(0,11)" font-family="sans-serif" font-size="14px" fill="#000" opacity="1">2020-08-09</text><text text-anchor="end" transform="translate(960.4893702366626,7) rotate(-35) translate(0,11)" font-family="sans-serif" font-size="14px" fill="#000" opacity="1">2020-08-21</text><text text-anchor="end" transform="translate(1023.164861612515,7) rotate(-35) translate(0,11)" font-family="sans-serif" font-size="14px" fill="#000" opacity="1">2020-09-01</text><text text-anchor="end" transform="translate(1085.8403529883674,7) rotate(-35) translate(0,11)" font-family="sans-serif" font-size="14px" fill="#000" opacity="1">2020-09-13</text><text text-anchor="end" transform="translate(1148.51584436422,7) rotate(-35) translate(0,11)" font-family="sans-serif" font-size="14px" fill="#000" opacity="1">2020-09-25</text><text text-anchor="end" transform="translate(1211.1913357400722,7) rotate(-35) translate(0,11)" font-family="sans-serif" font-size="14px" fill="#000" opacity="1">2020-10-06</text><text text-anchor="end" transform="translate(1273.8668271159245,7) rotate(-35) translate(0,11)" font-family="sans-serif" font-size="14px" fill="#000" opacity="1">2020-10-18</text><text text-anchor="end" transform="translate(1336.542318491777,7) rotate(-35) translate(0,11)" font-family="sans-serif" font-size="14px" fill="#000" opacity="1">2020-10-29</text><text text-anchor="end" transform="translate(1399.2178098676293,7) rotate(-35) translate(0,11)" font-family="sans-serif" font-size="14px" fill="#000" opacity="1">2020-11-10</text><text text-anchor="end" transform="translate(1461.8933012434818,7) rotate(-35) translate(0,11)" font-family="sans-serif" font-size="14px" fill="#000" opacity="1">2020-11-21</text></g><g class="mark-rule role-axis-domain" pointer-events="none"><line transform="translate(0,0)" x2="1500" y2="0" stroke="#888" stroke-width="1" opacity="1"/></g><g class="mark-text role-axis-title" pointer-events="none"><text text-anchor="middle" transform="translate(750,100.70868949136309)" font-family="sans-serif" font-size="18px" font-weight="bold" fill="#000" opacity="1">Date</text></g></g><path class="foreground" aria-hidden="true" d="" pointer-events="none" display="none"/></g></g><g class="mark-line role-mark" role="graphics-symbol" aria-roledescription="line mark container"><path d="M0,750C1.8050541516245489,750,3.610108303249098,750,5.415162454873647,750C7.220216606498195,750,9.025270758122744,750,10.830324909747294,750C12.635379061371841,750,14.44043321299639,750,16.24548736462094,750C18.050541516245488,750,19.855595667870038,750,21.660649819494587,750C23.465703971119137,750,25.270758122743683,750,27.075812274368232,750C28.88086642599278,750,30.685920577617328,750,32.49097472924188,750C34.29602888086642,750,36.101083032490976,750,37.90613718411552,750C39.711191335740075,750,41.51624548736462,750,43.321299638989174,750C45.12635379061372,750,46.931407942238266,750,48.73646209386281,750C50.541516245487365,750,52.34657039711191,750,54.151624548736464,750C55.95667870036101,750,57.76173285198556,750,59.56678700361011,750C61.371841155234655,750,63.17689530685921,750,64.98194945848375,750C66.7870036101083,750,68.59205776173286,749.3181818181819,70.3971119133574,749.3181818181819C72.20216606498195,749.3181818181819,74.0072202166065,749.3181818181819,75.81227436823104,749.3181818181819C77.61732851985559,749.3181818181819,79.42238267148015,749.2045454545455,81.2274368231047,748.9772727272727C83.03249097472924,748.75,84.8375451263538,748.2386363636364,86.64259927797835,747.2727272727273C88.4476534296029,746.3068181818181,90.25270758122744,744.375,92.05776173285199,743.1818181818182C93.86281588447653,741.9886363636365,95.66787003610108,740.3409090909091,97.47292418772562,740.1136363636364C99.27797833935017,739.8863636363636,101.08303249097473,740,102.88808664259928,739.7727272727273C104.69314079422382,739.5454545454545,106.49819494584838,738.8636363636364,108.30324909747293,737.7272727272727C110.10830324909747,736.5909090909091,111.91335740072202,734.1477272727273,113.71841155234657,732.9545454545455C115.52346570397111,731.7613636363636,117.32851985559567,731.1363636363637,119.13357400722022,730.5681818181819C120.93862815884476,730.0000000000001,122.74368231046931,730.1704545454546,124.54873646209386,729.5454545454546C126.3537906137184,728.9204545454546,128.15884476534296,727.9545454545455,129.9638989169675,726.8181818181819C131.76895306859205,725.6818181818182,133.57400722021663,723.8636363636364,135.37906137184117,722.7272727272727C137.18411552346572,721.5909090909091,138.98916967509027,720.9659090909091,140.7942238267148,720C142.59927797833936,719.0340909090909,144.4043321299639,718.125,146.20938628158845,716.9318181818182C148.014440433213,715.7386363636365,149.81949458483754,714.6022727272727,151.6245487364621,712.8409090909091C153.42960288808663,711.0795454545455,155.2346570397112,708.0113636363636,157.03971119133575,706.3636363636364C158.8447653429603,704.7159090909091,160.64981949458485,703.409090909091,162.4548736462094,702.9545454545455C164.25992779783394,702.5,166.06498194945848,702.2727272727273,167.87003610108303,702.2727272727273C169.67509025270758,702.2727272727273,171.48014440433215,702.3863636363636,173.2851985559567,702.6136363636364C175.09025270758124,702.8409090909091,176.8953068592058,704.6590909090909,178.70036101083033,704.6590909090909C180.50541516245488,704.6590909090909,182.31046931407943,703.1818181818182,184.11552346570397,702.9545454545455C185.92057761732852,702.7272727272727,187.72563176895306,702.8409090909091,189.5306859205776,702.6136363636364C191.33574007220216,702.3863636363636,193.1407942238267,701.0227272727271,194.94584837545125,700.5681818181818C196.7509025270758,700.1136363636364,198.55595667870037,699.8863636363636,200.36101083032491,699.8863636363636C202.16606498194946,699.8863636363636,203.971119133574,699.8863636363636,205.77617328519855,699.8863636363636C207.5812274368231,699.8863636363636,209.38628158844767,699.6590909090909,211.19133574007222,699.5454545454545C212.99638989169677,699.4318181818181,214.8014440433213,699.2045454545455,216.60649819494586,699.2045454545455C218.4115523465704,699.2045454545455,220.21660649819495,699.5454545454545,222.0216606498195,699.5454545454545C223.82671480144404,699.5454545454545,225.6317689530686,698.8636363636364,227.43682310469313,698.8636363636364C229.24187725631768,698.8636363636364,231.04693140794225,699.8863636363636,232.8519855595668,699.8863636363636C234.65703971119135,699.8863636363636,236.4620938628159,699.8863636363636,238.26714801444044,699.8863636363636C240.07220216606498,699.8863636363636,241.87725631768953,699.8863636363636,243.68231046931407,699.8863636363636C245.48736462093862,699.8863636363636,247.29241877256317,701.3636363636364,249.0974729241877,702.2727272727273C250.90252707581226,703.1818181818181,252.70758122743683,703.6931818181819,254.51263537906138,705.3409090909091C256.3176895306859,706.9886363636364,258.12274368231044,710.5681818181819,259.927797833935,712.159090909091C261.73285198555953,713.7500000000001,263.5379061371841,713.9204545454545,265.3429602888086,714.8863636363636C267.1480144404332,715.8522727272727,268.9530685920578,716.7613636363636,270.75812274368235,717.9545454545455C272.56317689530687,719.1477272727274,274.36823104693144,722.0454545454546,276.17328519855596,722.0454545454546C277.97833935018053,722.0454545454546,279.78339350180505,722.0454545454546,281.5884476534296,722.0454545454546C283.39350180505414,722.0454545454546,285.1985559566787,722.2159090909091,287.00361010830323,722.3863636363636C288.8086642599278,722.5568181818181,290.6137184115523,722.6136363636364,292.4187725631769,723.0681818181819C294.2238267148014,723.5227272727274,296.028880866426,726.25,297.8339350180505,726.4772727272727C299.6389891696751,726.7045454545455,301.4440433212996,726.5909090909091,303.2490974729242,726.8181818181819C305.05415162454875,727.0454545454546,306.85920577617327,727.159090909091,308.66425992779784,727.8409090909091C310.4693140794224,728.5227272727273,312.27436823104694,731.1363636363637,314.0794223826715,731.5909090909091C315.884476534296,732.0454545454545,317.6895306859206,732.2727272727273,319.4945848375451,732.2727272727273C321.2996389891697,732.2727272727273,323.1046931407942,732.2727272727273,324.9097472924188,732.2727272727273C326.7148014440433,732.2727272727273,328.5198555956679,733.125,330.3249097472924,733.6363636363636C332.12996389891697,734.1477272727273,333.9350180505415,735.3409090909091,335.74007220216606,735.3409090909091C337.54512635379064,735.3409090909091,339.35018050541515,735.3409090909091,341.1552346570397,735.3409090909091C342.9602888086643,735.3409090909091,344.7653429602888,737.7272727272727,346.5703971119134,738.4090909090909C348.3754512635379,739.090909090909,350.1805054151625,739.1477272727274,351.985559566787,739.4318181818182C353.7906137184116,739.7159090909091,355.5956678700361,739.8863636363636,357.40072202166067,740.1136363636364C359.2057761732852,740.3409090909091,361.01083032490976,740.5681818181818,362.8158844765343,740.7954545454545C364.62093862815885,741.0227272727273,366.42599277978337,741.25,368.23104693140795,741.4772727272727C370.03610108303246,741.7045454545455,371.84115523465704,741.7045454545455,373.64620938628155,742.1590909090909C375.45126353790613,742.6136363636363,377.25631768953065,744.090909090909,379.0613718411552,744.5454545454545C380.86642599277974,745,382.6714801444043,745,384.47653429602883,745.2272727272727C386.2815884476534,745.4545454545455,388.0866425992779,745.7386363636364,389.8916967509025,745.9090909090909C391.69675090252707,746.0795454545454,393.50180505415165,746.25,395.3068592057762,746.25C397.11191335740074,746.25,398.9169675090253,746.25,400.72202166064983,746.25C402.5270758122744,746.25,404.3321299638989,746.9886363636364,406.1371841155235,747.2727272727273C407.942238267148,747.5568181818181,409.7472924187726,747.9545454545455,411.5523465703971,747.9545454545455C413.3574007220217,747.9545454545455,415.1624548736462,747.6136363636364,416.9675090252708,747.6136363636364C418.77256317689535,747.6136363636364,420.57761732851986,748.0681818181818,422.38267148014444,748.2954545454545C424.18772563176896,748.5227272727273,425.99277978339353,748.9772727272727,427.79783393501805,748.9772727272727C429.6028880866426,748.9772727272727,431.40794223826714,748.9772727272727,433.2129963898917,748.9772727272727C435.01805054151623,748.9772727272727,436.8231046931408,748.9772727272727,438.6281588447653,748.9772727272727C440.4332129963899,748.9772727272727,442.2382671480144,749.2045454545455,444.043321299639,749.3181818181819C445.8483754512635,749.4318181818182,447.6534296028881,749.6590909090909,449.4584837545126,749.6590909090909C451.2635379061372,749.6590909090909,453.0685920577617,749.6590909090909,454.87364620938627,749.6590909090909C456.6787003610108,749.6590909090909,458.48375451263536,749.6590909090909,460.2888086642599,749.6590909090909C462.09386281588445,749.6590909090909,463.898916967509,749.6590909090909,465.7039711191336,749.6590909090909C467.5090252707582,749.6590909090909,469.3140794223827,749.6590909090909,471.11913357400726,749.6590909090909C472.9241877256318,749.6590909090909,474.72924187725636,749.6590909090909,476.5342960288809,749.6590909090909C478.33935018050545,749.6590909090909,480.14440433212997,749.6590909090909,481.94945848375454,749.6590909090909C483.75451263537906,749.6590909090909,485.55956678700363,749.6590909090909,487.36462093862815,749.6590909090909C489.1696750902527,749.6590909090909,490.97472924187724,749.6590909090909,492.7797833935018,749.6590909090909C494.58483754512633,749.6590909090909,496.3898916967509,749.6590909090909,498.1949458483754,749.6590909090909C500,749.6590909090909,501.8050541516245,749.6590909090909,503.6101083032491,749.6590909090909C505.41516245487367,749.6590909090909,507.2202166064982,749.6590909090909,509.02527075812276,749.6590909090909C510.8303249097473,749.6590909090909,512.6353790613719,749.6590909090909,514.4404332129964,749.6590909090909C516.2454873646209,749.6590909090909,518.0505415162455,749.6590909090909,519.85559566787,749.6590909090909C521.6606498194946,749.6590909090909,523.4657039711192,749.6590909090909,525.2707581227437,749.6590909090909C527.0758122743682,749.6590909090909,528.8808664259927,749.6590909090909,530.6859205776173,749.6590909090909C532.4909747292419,749.6590909090909,534.2960288808664,749.6590909090909,536.101083032491,749.6590909090909C537.9061371841156,749.6590909090909,539.7111913357402,749.3181818181819,541.5162454873647,749.3181818181819C543.3212996389892,749.3181818181819,545.1263537906137,749.3181818181819,546.9314079422383,749.3181818181819C548.7364620938628,749.3181818181819,550.5415162454874,749.3181818181819,552.3465703971119,749.3181818181819C554.1516245487364,749.3181818181819,555.9566787003611,749.3181818181819,557.7617328519856,749.3181818181819C559.5667870036101,749.3181818181819,561.3718411552347,749.3181818181819,563.1768953068593,749.3181818181819C564.9819494584838,749.3181818181819,566.7870036101083,749.6590909090909,568.5920577617328,749.6590909090909C570.3971119133573,749.6590909090909,572.202166064982,749.6590909090909,574.0072202166065,749.6590909090909C575.812274368231,749.6590909090909,577.6173285198556,750,579.4223826714801,750C581.2274368231047,750,583.0324909747293,750,584.8375451263538,750C586.6425992779783,750,588.447653429603,750,590.2527075812275,750C592.057761732852,750,593.8628158844765,750,595.667870036101,750C597.4729241877255,750,599.2779783393502,750,601.0830324909747,750C602.8880866425992,750,604.6931407942238,750,606.4981949458484,750C608.3032490974729,750,610.1083032490975,750,611.913357400722,750C613.7184115523465,750,615.5234657039712,750,617.3285198555957,750C619.1335740072202,750,620.9386281588448,750,622.7436823104694,750C624.5487364620939,750,626.3537906137185,750,628.158844765343,750C629.9638989169675,750,631.768953068592,750,633.5740072202166,750C635.3790613718411,750,637.1841155234657,750,638.9891696750902,750C640.7942238267148,750,642.5992779783394,750,644.4043321299639,750C646.2093862815884,750,648.014440433213,750,649.8194945848376,750C651.6245487364621,750,653.4296028880866,750,655.2346570397111,750C657.0397111913356,750,658.8447653429603,750,660.6498194945848,750C662.4548736462093,750,664.2599277978339,750,666.0649819494585,750C667.870036101083,750,669.6750902527076,750,671.4801444043321,750C673.2851985559566,750,675.0902527075813,750,676.8953068592058,750C678.7003610108303,750,680.5054151624549,750,682.3104693140795,750C684.115523465704,750,685.9205776173286,750,687.7256317689531,750C689.5306859205776,750,691.3357400722023,749.6590909090909,693.1407942238268,749.6590909090909C694.9458483754513,749.6590909090909,696.7509025270758,749.6590909090909,698.5559566787003,749.6590909090909C700.3610108303249,749.6590909090909,702.1660649819495,749.6590909090909,703.971119133574,749.6590909090909C705.7761732851985,749.6590909090909,707.5812274368232,749.4318181818182,709.3862815884477,749.3181818181819C711.1913357400722,749.2045454545455,712.9963898916968,749.2045454545455,714.8014440433213,748.9772727272727C716.6064981949459,748.75,718.4115523465704,747.9545454545455,720.2166064981949,747.9545454545455C722.0216606498194,747.9545454545455,723.826714801444,747.9545454545455,725.6317689530686,747.9545454545455C727.4368231046931,747.9545454545455,729.2418772563177,747.9545454545455,731.0469314079422,747.9545454545455C732.8519855595667,747.9545454545455,734.6570397111914,747.6136363636364,736.4620938628159,747.6136363636364C738.2671480144404,747.6136363636364,740.0722021660649,747.6136363636364,741.8772563176894,747.6136363636364C743.682310469314,747.6136363636364,745.4873646209386,747.6136363636364,747.2924187725631,747.6136363636364C749.0974729241877,747.6136363636364,750.9025270758123,747.6136363636364,752.7075812274369,747.6136363636364C754.5126353790614,747.6136363636364,756.3176895306859,747.6136363636364,758.1227436823104,747.6136363636364C759.927797833935,747.6136363636364,761.7328519855596,747.8409090909091,763.5379061371841,747.9545454545455C765.3429602888086,748.0681818181819,767.1480144404331,748.2954545454545,768.9530685920577,748.2954545454545C770.7581227436823,748.2954545454545,772.5631768953068,747.9545454545455,774.3682310469314,747.9545454545455C776.173285198556,747.9545454545455,777.9783393501805,747.9545454545455,779.783393501805,747.9545454545455C781.5884476534295,747.9545454545455,783.3935018050541,748.125,785.1985559566787,748.2954545454545C787.0036101083033,748.465909090909,788.8086642599278,748.9772727272727,790.6137184115524,748.9772727272727C792.418772563177,748.9772727272727,794.2238267148015,748.8636363636364,796.028880866426,748.6363636363636C797.8339350180505,748.4090909090909,799.6389891696751,747.6136363636364,801.4440433212997,747.6136363636364C803.2490974729242,747.6136363636364,805.0541516245487,747.6136363636364,806.8592057761732,747.6136363636364C808.6642599277978,747.6136363636364,810.4693140794224,747.6136363636364,812.274368231047,747.6136363636364C814.0794223826715,747.6136363636364,815.884476534296,747.4431818181818,817.6895306859205,747.2727272727273C819.4945848375451,747.1022727272727,821.2996389891697,746.7613636363636,823.1046931407942,746.5909090909091C824.9097472924187,746.4204545454546,826.7148014440432,746.25,828.5198555956678,746.25C830.3249097472924,746.25,832.1299638989169,746.25,833.9350180505415,746.25C835.7400722021661,746.25,837.5451263537906,745.9090909090909,839.3501805054151,745.9090909090909C841.1552346570397,745.9090909090909,842.9602888086642,746.1363636363636,844.7653429602889,746.25C846.5703971119134,746.3636363636364,848.3754512635379,746.4204545454546,850.1805054151624,746.5909090909091C851.985559566787,746.7613636363636,853.7906137184116,747.2727272727273,855.5956678700361,747.2727272727273C857.4007220216607,747.2727272727273,859.2057761732852,747.2727272727273,861.0108303249099,747.2727272727273C862.8158844765344,747.2727272727273,864.6209386281589,747.784090909091,866.4259927797834,747.9545454545455C868.231046931408,748.125,870.0361010830326,748.2954545454545,871.8411552346571,748.2954545454545C873.6462093862816,748.2954545454545,875.4512635379061,748.2954545454545,877.2563176895306,748.2954545454545C879.0613718411553,748.2954545454545,880.8664259927798,749.4318181818181,882.6714801444044,749.6590909090909C884.476534296029,749.8863636363636,886.2815884476535,750,888.086642599278,750C889.8916967509025,750,891.6967509025271,749.7727272727273,893.5018050541516,749.6590909090909C895.3068592057762,749.5454545454545,897.1119133574007,749.4318181818182,898.9169675090252,749.3181818181819C900.7220216606498,749.2045454545455,902.5270758122743,748.9772727272727,904.332129963899,748.9772727272727C906.1371841155235,748.9772727272727,907.942238267148,748.9772727272727,909.7472924187725,748.9772727272727C911.552346570397,748.9772727272727,913.3574007220217,748.465909090909,915.1624548736462,748.2954545454545C916.9675090252707,748.125,918.7725631768952,748.0681818181819,920.5776173285198,747.9545454545455C922.3826714801444,747.8409090909091,924.1877256317689,747.7272727272727,925.9927797833935,747.6136363636364C927.797833935018,747.5,929.6028880866427,747.4431818181818,931.4079422382672,747.2727272727273C933.2129963898917,747.1022727272727,935.0180505415162,746.8181818181819,936.8231046931407,746.5909090909091C938.6281588447654,746.3636363636364,940.4332129963899,746.0795454545454,942.2382671480145,745.9090909090909C944.043321299639,745.7386363636364,945.8483754512636,745.5681818181819,947.6534296028881,745.5681818181819C949.4584837545126,745.5681818181819,951.2635379061372,746.25,953.0685920577617,746.25C954.8736462093863,746.25,956.6787003610108,745.9090909090909,958.4837545126353,745.9090909090909C960.2888086642599,745.9090909090909,962.0938628158844,746.0795454545455,963.8989169675091,746.25C965.7039711191336,746.4204545454545,967.5090252707581,746.7045454545454,969.3140794223826,746.9318181818181C971.1191335740072,747.1590909090909,972.9241877256318,747.6136363636364,974.7292418772563,747.6136363636364C976.5342960288808,747.6136363636364,978.3393501805053,747.6136363636364,980.1444043321299,747.6136363636364C981.9494584837545,747.6136363636364,983.754512635379,747.7272727272727,985.5595667870036,747.9545454545455C987.3646209386281,748.1818181818182,989.1696750902527,748.9772727272727,990.9747292418772,748.9772727272727C992.7797833935017,748.9772727272727,994.5848375451263,748.6363636363636,996.3898916967509,748.6363636363636C998.1949458483755,748.6363636363636,1000,748.6363636363636,1001.8050541516246,748.6363636363636C1003.6101083032491,748.6363636363636,1005.4151624548737,747.6136363636364,1007.2202166064982,747.6136363636364C1009.0252707581228,747.6136363636364,1010.8303249097473,747.6136363636364,1012.635379061372,747.6136363636364C1014.4404332129965,747.6136363636364,1016.245487364621,747.6136363636364,1018.0505415162455,747.6136363636364C1019.85559566787,747.6136363636364,1021.6606498194947,747.6136363636364,1023.4657039711192,747.6136363636364C1025.2707581227437,747.6136363636364,1027.0758122743682,747.6136363636364,1028.8808664259927,747.6136363636364C1030.6859205776173,747.6136363636364,1032.490974729242,747.6136363636364,1034.2960288808665,747.6136363636364C1036.101083032491,747.6136363636364,1037.9061371841156,747.6136363636364,1039.71119133574,747.6136363636364C1041.5162454873646,747.6136363636364,1043.3212996389893,747.6136363636364,1045.1263537906138,747.6136363636364C1046.9314079422384,747.6136363636364,1048.7364620938629,746.5909090909091,1050.5415162454874,746.5909090909091C1052.346570397112,746.5909090909091,1054.1516245487364,747.2727272727273,1055.956678700361,747.2727272727273C1057.7617328519855,747.2727272727273,1059.56678700361,747.1022727272726,1061.3718411552345,746.9318181818181C1063.176895306859,746.7613636363636,1064.9819494584838,746.4204545454545,1066.7870036101083,746.25C1068.5920577617328,746.0795454545455,1070.3971119133575,745.9090909090909,1072.202166064982,745.9090909090909C1074.0072202166066,745.9090909090909,1075.812274368231,746.25,1077.6173285198556,746.25C1079.4223826714801,746.25,1081.2274368231049,745.9090909090909,1083.0324909747294,745.9090909090909C1084.837545126354,745.9090909090909,1086.6425992779784,746.25,1088.447653429603,746.25C1090.2527075812275,746.25,1092.057761732852,745.9090909090909,1093.8628158844765,745.9090909090909C1095.667870036101,745.9090909090909,1097.4729241877255,746.25,1099.27797833935,746.25C1101.0830324909746,746.25,1102.8880866425993,745.2272727272727,1104.6931407942238,745.2272727272727C1106.4981949458484,745.2272727272727,1108.3032490974729,745.9090909090909,1110.1083032490974,745.9090909090909C1111.913357400722,745.9090909090909,1113.7184115523467,745.9090909090909,1115.5234657039712,745.9090909090909C1117.3285198555957,745.9090909090909,1119.1335740072202,745.9090909090909,1120.9386281588447,745.9090909090909C1122.7436823104692,745.9090909090909,1124.548736462094,746.5909090909091,1126.3537906137185,746.5909090909091C1128.158844765343,746.5909090909091,1129.9638989169675,746.0795454545454,1131.768953068592,745.9090909090909C1133.5740072202166,745.7386363636364,1135.379061371841,745.7386363636364,1137.1841155234656,745.5681818181819C1138.9891696750901,745.3977272727274,1140.7942238267146,744.8863636363636,1142.5992779783392,744.8863636363636C1144.4043321299637,744.8863636363636,1146.2093862815884,745.2272727272727,1148.014440433213,745.2272727272727C1149.8194945848375,745.2272727272727,1151.6245487364622,744.8863636363636,1153.4296028880867,744.8863636363636C1155.2346570397112,744.8863636363636,1157.0397111913358,745.5681818181819,1158.8447653429603,745.5681818181819C1160.6498194945848,745.5681818181819,1162.4548736462095,745.4545454545455,1164.259927797834,745.2272727272727C1166.0649819494586,745,1167.870036101083,743.9772727272727,1169.6750902527076,743.5227272727273C1171.4801444043321,743.0681818181818,1173.2851985559569,742.8977272727273,1175.0902527075814,742.5C1176.895306859206,742.1022727272727,1178.7003610108304,742.0454545454545,1180.505415162455,741.1363636363636C1182.3104693140795,740.2272727272727,1184.115523465704,736.0227272727273,1185.9205776173285,735.3409090909091C1187.725631768953,734.659090909091,1189.5306859205775,734.3181818181819,1191.335740072202,734.3181818181819C1193.1407942238266,734.3181818181819,1194.9458483754513,734.3181818181819,1196.7509025270758,734.3181818181819C1198.5559566787003,734.3181818181819,1200.3610108303249,733.1818181818182,1202.1660649819494,732.9545454545455C1203.971119133574,732.7272727272727,1205.7761732851986,732.8409090909091,1207.5812274368232,732.6136363636364C1209.3862815884477,732.3863636363636,1211.1913357400722,731.7045454545455,1212.9963898916967,731.25C1214.8014440433212,730.7954545454545,1216.606498194946,729.8863636363636,1218.4115523465705,729.8863636363636C1220.216606498195,729.8863636363636,1222.0216606498195,730.9090909090909,1223.826714801444,730.9090909090909C1225.6317689530686,730.9090909090909,1227.436823104693,730.5681818181819,1229.2418772563176,730.5681818181819C1231.046931407942,730.5681818181819,1232.8519855595669,732.2727272727273,1234.6570397111914,732.2727272727273C1236.462093862816,732.2727272727273,1238.2671480144404,732.2727272727273,1240.072202166065,732.2727272727273C1241.8772563176894,732.2727272727273,1243.6823104693142,731.1363636363637,1245.4873646209387,730.5681818181819C1247.2924187725632,730.0000000000001,1249.0974729241877,729.7159090909091,1250.9025270758123,728.8636363636364C1252.7075812274368,728.0113636363636,1254.5126353790615,726.9886363636365,1256.317689530686,725.4545454545455C1258.1227436823106,723.9204545454546,1259.927797833935,721.0227272727274,1261.7328519855596,719.659090909091C1263.537906137184,718.2954545454546,1265.3429602888086,718.8636363636364,1267.1480144404331,717.2727272727273C1268.9530685920577,715.6818181818181,1270.7581227436822,711.7045454545454,1272.5631768953067,709.7727272727273C1274.3682310469312,707.840909090909,1276.173285198556,706.8181818181819,1277.9783393501805,705.6818181818182C1279.783393501805,704.5454545454546,1281.5884476534295,704.6590909090909,1283.393501805054,702.9545454545455C1285.1985559566785,701.25,1287.0036101083033,699.4318181818181,1288.8086642599278,695.4545454545454C1290.6137184115523,691.4772727272726,1292.418772563177,683.8636363636365,1294.2238267148016,679.0909090909091C1296.028880866426,674.318181818182,1297.8339350180506,670.6818181818181,1299.6389891696751,666.8181818181818C1301.4440433212997,662.9545454545454,1303.2490974729242,658.6931818181818,1305.0541516245487,655.9090909090909C1306.8592057761732,653.125,1308.6642599277977,652.9545454545454,1310.4693140794222,650.1136363636364C1312.2743682310468,647.2727272727273,1314.0794223826715,643.1250000000001,1315.884476534296,638.8636363636364C1317.6895306859205,634.6022727272729,1319.494584837545,627.9545454545455,1321.2996389891696,624.5454545454546C1323.104693140794,621.1363636363636,1324.9097472924188,622.5000000000001,1326.7148014440434,618.409090909091C1328.5198555956679,614.3181818181821,1330.3249097472924,596.931818181818,1332.129963898917,593.5227272727273C1333.9350180505414,590.1136363636364,1335.7400722021662,591.8181818181818,1337.5451263537907,588.4090909090909C1339.3501805054152,585.0000000000001,1341.1552346570397,574.715909090909,1342.9602888086642,568.9772727272727C1344.7653429602888,563.2386363636363,1346.5703971119135,562.4431818181822,1348.375451263538,553.9772727272727C1350.1805054151625,545.5113636363637,1351.985559566787,525.2272727272729,1353.7906137184116,518.1818181818182C1355.595667870036,511.1363636363636,1357.4007220216606,511.3068181818181,1359.2057761732851,507.6136363636363C1361.0108303249096,503.92045454545445,1362.8158844765344,503.01136363636397,1364.620938628159,496.0227272727273C1366.4259927797834,489.03409090909093,1368.231046931408,476.2499999999997,1370.0361010830325,465.68181818181813C1371.841155234657,455.1136363636361,1373.6462093862817,440.2272727272728,1375.4512635379062,432.61363636363643C1377.2563176895308,425.0000000000004,1379.0613718411553,424.09090909090907,1380.8664259927798,420.00000000000006C1382.6714801444043,415.9090909090909,1384.476534296029,413.7500000000002,1386.2815884476536,408.0681818181818C1388.086642599278,402.3863636363637,1389.8916967509026,394.375,1391.6967509025271,385.9090909090909C1393.5018050541516,377.44318181818176,1395.3068592057762,366.3636363636364,1397.1119133574007,357.27272727272725C1398.9169675090252,348.18181818181813,1400.7220216606497,339.54545454545433,1402.5270758122742,331.3636363636363C1404.3321299638988,323.18181818181796,1406.1371841155235,316.8750000000002,1407.942238267148,308.1818181818182C1409.7472924187725,299.48863636363654,1411.552346570397,288.74999999999983,1413.3574007220216,279.2045454545455C1415.162454873646,269.65909090909076,1416.9675090252708,262.386363636364,1418.7725631768953,250.90909090909093C1420.5776173285199,239.43181818181836,1422.3826714801444,221.64772727272708,1424.187725631769,210.34090909090904C1425.9927797833934,199.03409090909054,1427.7978339350182,193.52272727272756,1429.6028880866427,183.06818181818184C1431.4079422382672,172.61363636363654,1433.2129963898917,155.85227272727272,1435.0180505415162,147.61363636363635C1436.8231046931407,139.37499999999997,1438.6281588447653,141.5909090909088,1440.4332129963898,133.63636363636365C1442.2382671480143,125.68181818181817,1444.043321299639,111.76136363636392,1445.8483754512636,99.88636363636364C1447.653429602888,88.01136363636385,1449.4584837545126,76.59090909090868,1451.2635379061371,62.3863636363636C1453.0685920577616,48.18181818181792,1454.8736462093864,14.6590909090909,1456.678700361011,14.6590909090909C1458.4837545126354,14.6590909090909,1460.28880866426,14.6590909090909,1462.0938628158844,14.6590909090909C1463.898916967509,14.6590909090909,1465.7039711191337,22.897727272726815,1467.5090252707582,34.43181818181817C1469.3140794223827,45.96590909090905,1471.1191335740073,71.36363636363636,1472.9241877256318,83.86363636363636C1474.7292418772563,96.36363636363636,1476.5342960288808,109.43181818181816,1478.3393501805053,109.43181818181816C1480.1444043321299,109.43181818181816,1481.9494584837544,91.93181818181806,1483.754512635379,84.88636363636363C1485.5595667870034,77.8409090909089,1487.3646209386281,67.15909090909095,1489.1696750902527,67.15909090909095C1490.9747292418772,67.15909090909095,1492.7797833935017,71.9318181818182,1494.5848375451262,71.9318181818182C1496.3898916967507,71.9318181818182,1498.1949458483755,65.62500000000001,1500,59.31818181818183" stroke="steelblue" stroke-width="3"/></g><g class="mark-symbol role-mark" role="graphics-symbol" aria-roledescription="symbol mark container"><path transform="translate(0,750)" d="M2.23606797749979,0A2.23606797749979,2.23606797749979,0,1,1,-2.23606797749979,0A2.23606797749979,2.23606797749979,0,1,1,2.23606797749979,0" fill="white" stroke="steelblue" stroke-width="1.5"/><path transform="translate(16.24548736462094,750)" d="M2.23606797749979,0A2.23606797749979,2.23606797749979,0,1,1,-2.23606797749979,0A2.23606797749979,2.23606797749979,0,1,1,2.23606797749979,0" fill="white" stroke="steelblue" stroke-width="1.5"/><path transform="translate(32.49097472924188,750)" d="M2.23606797749979,0A2.23606797749979,2.23606797749979,0,1,1,-2.23606797749979,0A2.23606797749979,2.23606797749979,0,1,1,2.23606797749979,0" fill="white" stroke="steelblue" stroke-width="1.5"/><path transform="translate(48.73646209386281,750)" d="M2.23606797749979,0A2.23606797749979,2.23606797749979,0,1,1,-2.23606797749979,0A2.23606797749979,2.23606797749979,0,1,1,2.23606797749979,0" fill="white" stroke="steelblue" stroke-width="1.5"/><path transform="translate(64.98194945848375,750)" d="M2.23606797749979,0A2.23606797749979,2.23606797749979,0,1,1,-2.23606797749979,0A2.23606797749979,2.23606797749979,0,1,1,2.23606797749979,0" fill="white" stroke="steelblue" stroke-width="1.5"/><path transform="translate(81.2274368231047,748.9772727272727)" d="M2.23606797749979,0A2.23606797749979,2.23606797749979,0,1,1,-2.23606797749979,0A2.23606797749979,2.23606797749979,0,1,1,2.23606797749979,0" fill="white" stroke="steelblue" stroke-width="1.5"/><path transform="translate(97.47292418772562,740.1136363636364)" d="M2.23606797749979,0A2.23606797749979,2.23606797749979,0,1,1,-2.23606797749979,0A2.23606797749979,2.23606797749979,0,1,1,2.23606797749979,0" fill="white" stroke="steelblue" stroke-width="1.5"/><path transform="translate(113.71841155234657,732.9545454545455)" d="M2.23606797749979,0A2.23606797749979,2.23606797749979,0,1,1,-2.23606797749979,0A2.23606797749979,2.23606797749979,0,1,1,2.23606797749979,0" fill="white" stroke="steelblue" stroke-width="1.5"/><path transform="translate(129.9638989169675,726.8181818181819)" d="M2.23606797749979,0A2.23606797749979,2.23606797749979,0,1,1,-2.23606797749979,0A2.23606797749979,2.23606797749979,0,1,1,2.23606797749979,0" fill="white" stroke="steelblue" stroke-width="1.5"/><path transform="translate(146.20938628158845,716.9318181818182)" d="M2.23606797749979,0A2.23606797749979,2.23606797749979,0,1,1,-2.23606797749979,0A2.23606797749979,2.23606797749979,0,1,1,2.23606797749979,0" fill="white" stroke="steelblue" stroke-width="1.5"/><path transform="translate(162.4548736462094,702.9545454545455)" d="M2.23606797749979,0A2.23606797749979,2.23606797749979,0,1,1,-2.23606797749979,0A2.23606797749979,2.23606797749979,0,1,1,2.23606797749979,0" fill="white" stroke="steelblue" stroke-width="1.5"/><path transform="translate(178.70036101083033,704.6590909090909)" d="M2.23606797749979,0A2.23606797749979,2.23606797749979,0,1,1,-2.23606797749979,0A2.23606797749979,2.23606797749979,0,1,1,2.23606797749979,0" fill="white" stroke="steelblue" stroke-width="1.5"/><path transform="translate(194.94584837545125,700.5681818181818)" d="M2.23606797749979,0A2.23606797749979,2.23606797749979,0,1,1,-2.23606797749979,0A2.23606797749979,2.23606797749979,0,1,1,2.23606797749979,0" fill="white" stroke="steelblue" stroke-width="1.5"/><path transform="translate(211.19133574007222,699.5454545454545)" d="M2.23606797749979,0A2.23606797749979,2.23606797749979,0,1,1,-2.23606797749979,0A2.23606797749979,2.23606797749979,0,1,1,2.23606797749979,0" fill="white" stroke="steelblue" stroke-width="1.5"/><path transform="translate(227.43682310469313,698.8636363636364)" d="M2.23606797749979,0A2.23606797749979,2.23606797749979,0,1,1,-2.23606797749979,0A2.23606797749979,2.23606797749979,0,1,1,2.23606797749979,0" fill="white" stroke="steelblue" stroke-width="1.5"/><path transform="translate(243.68231046931407,699.8863636363636)" d="M2.23606797749979,0A2.23606797749979,2.23606797749979,0,1,1,-2.23606797749979,0A2.23606797749979,2.23606797749979,0,1,1,2.23606797749979,0" fill="white" stroke="steelblue" stroke-width="1.5"/><path transform="translate(259.927797833935,712.159090909091)" d="M2.23606797749979,0A2.23606797749979,2.23606797749979,0,1,1,-2.23606797749979,0A2.23606797749979,2.23606797749979,0,1,1,2.23606797749979,0" fill="white" stroke="steelblue" stroke-width="1.5"/><path transform="translate(276.17328519855596,722.0454545454546)" d="M2.23606797749979,0A2.23606797749979,2.23606797749979,0,1,1,-2.23606797749979,0A2.23606797749979,2.23606797749979,0,1,1,2.23606797749979,0" fill="white" stroke="steelblue" stroke-width="1.5"/><path transform="translate(292.4187725631769,723.0681818181819)" d="M2.23606797749979,0A2.23606797749979,2.23606797749979,0,1,1,-2.23606797749979,0A2.23606797749979,2.23606797749979,0,1,1,2.23606797749979,0" fill="white" stroke="steelblue" stroke-width="1.5"/><path transform="translate(308.66425992779784,727.8409090909091)" d="M2.23606797749979,0A2.23606797749979,2.23606797749979,0,1,1,-2.23606797749979,0A2.23606797749979,2.23606797749979,0,1,1,2.23606797749979,0" fill="white" stroke="steelblue" stroke-width="1.5"/><path transform="translate(324.9097472924188,732.2727272727273)" d="M2.23606797749979,0A2.23606797749979,2.23606797749979,0,1,1,-2.23606797749979,0A2.23606797749979,2.23606797749979,0,1,1,2.23606797749979,0" fill="white" stroke="steelblue" stroke-width="1.5"/><path transform="translate(341.1552346570397,735.3409090909091)" d="M2.23606797749979,0A2.23606797749979,2.23606797749979,0,1,1,-2.23606797749979,0A2.23606797749979,2.23606797749979,0,1,1,2.23606797749979,0" fill="white" stroke="steelblue" stroke-width="1.5"/><path transform="translate(357.40072202166067,740.1136363636364)" d="M2.23606797749979,0A2.23606797749979,2.23606797749979,0,1,1,-2.23606797749979,0A2.23606797749979,2.23606797749979,0,1,1,2.23606797749979,0" fill="white" stroke="steelblue" stroke-width="1.5"/><path transform="translate(373.64620938628155,742.1590909090909)" d="M2.23606797749979,0A2.23606797749979,2.23606797749979,0,1,1,-2.23606797749979,0A2.23606797749979,2.23606797749979,0,1,1,2.23606797749979,0" fill="white" stroke="steelblue" stroke-width="1.5"/><path transform="translate(389.8916967509025,745.9090909090909)" d="M2.23606797749979,0A2.23606797749979,2.23606797749979,0,1,1,-2.23606797749979,0A2.23606797749979,2.23606797749979,0,1,1,2.23606797749979,0" fill="white" stroke="steelblue" stroke-width="1.5"/><path transform="translate(406.1371841155235,747.2727272727273)" d="M2.23606797749979,0A2.23606797749979,2.23606797749979,0,1,1,-2.23606797749979,0A2.23606797749979,2.23606797749979,0,1,1,2.23606797749979,0" fill="white" stroke="steelblue" stroke-width="1.5"/><path transform="translate(422.38267148014444,748.2954545454545)" d="M2.23606797749979,0A2.23606797749979,2.23606797749979,0,1,1,-2.23606797749979,0A2.23606797749979,2.23606797749979,0,1,1,2.23606797749979,0" fill="white" stroke="steelblue" stroke-width="1.5"/><path transform="translate(438.6281588447653,748.9772727272727)" d="M2.23606797749979,0A2.23606797749979,2.23606797749979,0,1,1,-2.23606797749979,0A2.23606797749979,2.23606797749979,0,1,1,2.23606797749979,0" fill="white" stroke="steelblue" stroke-width="1.5"/><path transform="translate(454.87364620938627,749.6590909090909)" d="M2.23606797749979,0A2.23606797749979,2.23606797749979,0,1,1,-2.23606797749979,0A2.23606797749979,2.23606797749979,0,1,1,2.23606797749979,0" fill="white" stroke="steelblue" stroke-width="1.5"/><path transform="translate(471.11913357400726,749.6590909090909)" d="M2.23606797749979,0A2.23606797749979,2.23606797749979,0,1,1,-2.23606797749979,0A2.23606797749979,2.23606797749979,0,1,1,2.23606797749979,0" fill="white" stroke="steelblue" stroke-width="1.5"/><path transform="translate(487.36462093862815,749.6590909090909)" d="M2.23606797749979,0A2.23606797749979,2.23606797749979,0,1,1,-2.23606797749979,0A2.23606797749979,2.23606797749979,0,1,1,2.23606797749979,0" fill="white" stroke="steelblue" stroke-width="1.5"/><path transform="translate(503.6101083032491,749.6590909090909)" d="M2.23606797749979,0A2.23606797749979,2.23606797749979,0,1,1,-2.23606797749979,0A2.23606797749979,2.23606797749979,0,1,1,2.23606797749979,0" fill="white" stroke="steelblue" stroke-width="1.5"/><path transform="translate(519.85559566787,749.6590909090909)" d="M2.23606797749979,0A2.23606797749979,2.23606797749979,0,1,1,-2.23606797749979,0A2.23606797749979,2.23606797749979,0,1,1,2.23606797749979,0" fill="white" stroke="steelblue" stroke-width="1.5"/><path transform="translate(536.101083032491,749.6590909090909)" d="M2.23606797749979,0A2.23606797749979,2.23606797749979,0,1,1,-2.23606797749979,0A2.23606797749979,2.23606797749979,0,1,1,2.23606797749979,0" fill="white" stroke="steelblue" stroke-width="1.5"/><path transform="translate(552.3465703971119,749.3181818181819)" d="M2.23606797749979,0A2.23606797749979,2.23606797749979,0,1,1,-2.23606797749979,0A2.23606797749979,2.23606797749979,0,1,1,2.23606797749979,0" fill="white" stroke="steelblue" stroke-width="1.5"/><path transform="translate(568.5920577617328,749.6590909090909)" d="M2.23606797749979,0A2.23606797749979,2.23606797749979,0,1,1,-2.23606797749979,0A2.23606797749979,2.23606797749979,0,1,1,2.23606797749979,0" fill="white" stroke="steelblue" stroke-width="1.5"/><path transform="translate(584.8375451263538,750)" d="M2.23606797749979,0A2.23606797749979,2.23606797749979,0,1,1,-2.23606797749979,0A2.23606797749979,2.23606797749979,0,1,1,2.23606797749979,0" fill="white" stroke="steelblue" stroke-width="1.5"/><path transform="translate(601.0830324909747,750)" d="M2.23606797749979,0A2.23606797749979,2.23606797749979,0,1,1,-2.23606797749979,0A2.23606797749979,2.23606797749979,0,1,1,2.23606797749979,0" fill="white" stroke="steelblue" stroke-width="1.5"/><path transform="translate(617.3285198555957,750)" d="M2.23606797749979,0A2.23606797749979,2.23606797749979,0,1,1,-2.23606797749979,0A2.23606797749979,2.23606797749979,0,1,1,2.23606797749979,0" fill="white" stroke="steelblue" stroke-width="1.5"/><path transform="translate(633.5740072202166,750)" d="M2.23606797749979,0A2.23606797749979,2.23606797749979,0,1,1,-2.23606797749979,0A2.23606797749979,2.23606797749979,0,1,1,2.23606797749979,0" fill="white" stroke="steelblue" stroke-width="1.5"/><path transform="translate(649.8194945848376,750)" d="M2.23606797749979,0A2.23606797749979,2.23606797749979,0,1,1,-2.23606797749979,0A2.23606797749979,2.23606797749979,0,1,1,2.23606797749979,0" fill="white" stroke="steelblue" stroke-width="1.5"/><path transform="translate(666.0649819494585,750)" d="M2.23606797749979,0A2.23606797749979,2.23606797749979,0,1,1,-2.23606797749979,0A2.23606797749979,2.23606797749979,0,1,1,2.23606797749979,0" fill="white" stroke="steelblue" stroke-width="1.5"/><path transform="translate(682.3104693140795,750)" d="M2.23606797749979,0A2.23606797749979,2.23606797749979,0,1,1,-2.23606797749979,0A2.23606797749979,2.23606797749979,0,1,1,2.23606797749979,0" fill="white" stroke="steelblue" stroke-width="1.5"/><path transform="translate(698.5559566787003,749.6590909090909)" d="M2.23606797749979,0A2.23606797749979,2.23606797749979,0,1,1,-2.23606797749979,0A2.23606797749979,2.23606797749979,0,1,1,2.23606797749979,0" fill="white" stroke="steelblue" stroke-width="1.5"/><path transform="translate(714.8014440433213,748.9772727272727)" d="M2.23606797749979,0A2.23606797749979,2.23606797749979,0,1,1,-2.23606797749979,0A2.23606797749979,2.23606797749979,0,1,1,2.23606797749979,0" fill="white" stroke="steelblue" stroke-width="1.5"/><path transform="translate(731.0469314079422,747.9545454545455)" d="M2.23606797749979,0A2.23606797749979,2.23606797749979,0,1,1,-2.23606797749979,0A2.23606797749979,2.23606797749979,0,1,1,2.23606797749979,0" fill="white" stroke="steelblue" stroke-width="1.5"/><path transform="translate(747.2924187725631,747.6136363636364)" d="M2.23606797749979,0A2.23606797749979,2.23606797749979,0,1,1,-2.23606797749979,0A2.23606797749979,2.23606797749979,0,1,1,2.23606797749979,0" fill="white" stroke="steelblue" stroke-width="1.5"/><path transform="translate(763.5379061371841,747.9545454545455)" d="M2.23606797749979,0A2.23606797749979,2.23606797749979,0,1,1,-2.23606797749979,0A2.23606797749979,2.23606797749979,0,1,1,2.23606797749979,0" fill="white" stroke="steelblue" stroke-width="1.5"/><path transform="translate(779.783393501805,747.9545454545455)" d="M2.23606797749979,0A2.23606797749979,2.23606797749979,0,1,1,-2.23606797749979,0A2.23606797749979,2.23606797749979,0,1,1,2.23606797749979,0" fill="white" stroke="steelblue" stroke-width="1.5"/><path transform="translate(796.028880866426,748.6363636363636)" d="M2.23606797749979,0A2.23606797749979,2.23606797749979,0,1,1,-2.23606797749979,0A2.23606797749979,2.23606797749979,0,1,1,2.23606797749979,0" fill="white" stroke="steelblue" stroke-width="1.5"/><path transform="translate(812.274368231047,747.6136363636364)" d="M2.23606797749979,0A2.23606797749979,2.23606797749979,0,1,1,-2.23606797749979,0A2.23606797749979,2.23606797749979,0,1,1,2.23606797749979,0" fill="white" stroke="steelblue" stroke-width="1.5"/><path transform="translate(828.5198555956678,746.25)" d="M2.23606797749979,0A2.23606797749979,2.23606797749979,0,1,1,-2.23606797749979,0A2.23606797749979,2.23606797749979,0,1,1,2.23606797749979,0" fill="white" stroke="steelblue" stroke-width="1.5"/><path transform="translate(844.7653429602889,746.25)" d="M2.23606797749979,0A2.23606797749979,2.23606797749979,0,1,1,-2.23606797749979,0A2.23606797749979,2.23606797749979,0,1,1,2.23606797749979,0" fill="white" stroke="steelblue" stroke-width="1.5"/><path transform="translate(861.0108303249099,747.2727272727273)" d="M2.23606797749979,0A2.23606797749979,2.23606797749979,0,1,1,-2.23606797749979,0A2.23606797749979,2.23606797749979,0,1,1,2.23606797749979,0" fill="white" stroke="steelblue" stroke-width="1.5"/><path transform="translate(877.2563176895306,748.2954545454545)" d="M2.23606797749979,0A2.23606797749979,2.23606797749979,0,1,1,-2.23606797749979,0A2.23606797749979,2.23606797749979,0,1,1,2.23606797749979,0" fill="white" stroke="steelblue" stroke-width="1.5"/><path transform="translate(893.5018050541516,749.6590909090909)" d="M2.23606797749979,0A2.23606797749979,2.23606797749979,0,1,1,-2.23606797749979,0A2.23606797749979,2.23606797749979,0,1,1,2.23606797749979,0" fill="white" stroke="steelblue" stroke-width="1.5"/><path transform="translate(909.7472924187725,748.9772727272727)" d="M2.23606797749979,0A2.23606797749979,2.23606797749979,0,1,1,-2.23606797749979,0A2.23606797749979,2.23606797749979,0,1,1,2.23606797749979,0" fill="white" stroke="steelblue" stroke-width="1.5"/><path transform="translate(925.9927797833935,747.6136363636364)" d="M2.23606797749979,0A2.23606797749979,2.23606797749979,0,1,1,-2.23606797749979,0A2.23606797749979,2.23606797749979,0,1,1,2.23606797749979,0" fill="white" stroke="steelblue" stroke-width="1.5"/><path transform="translate(942.2382671480145,745.9090909090909)" d="M2.23606797749979,0A2.23606797749979,2.23606797749979,0,1,1,-2.23606797749979,0A2.23606797749979,2.23606797749979,0,1,1,2.23606797749979,0" fill="white" stroke="steelblue" stroke-width="1.5"/><path transform="translate(958.4837545126353,745.9090909090909)" d="M2.23606797749979,0A2.23606797749979,2.23606797749979,0,1,1,-2.23606797749979,0A2.23606797749979,2.23606797749979,0,1,1,2.23606797749979,0" fill="white" stroke="steelblue" stroke-width="1.5"/><path transform="translate(974.7292418772563,747.6136363636364)" d="M2.23606797749979,0A2.23606797749979,2.23606797749979,0,1,1,-2.23606797749979,0A2.23606797749979,2.23606797749979,0,1,1,2.23606797749979,0" fill="white" stroke="steelblue" stroke-width="1.5"/><path transform="translate(990.9747292418772,748.9772727272727)" d="M2.23606797749979,0A2.23606797749979,2.23606797749979,0,1,1,-2.23606797749979,0A2.23606797749979,2.23606797749979,0,1,1,2.23606797749979,0" fill="white" stroke="steelblue" stroke-width="1.5"/><path transform="translate(1007.2202166064982,747.6136363636364)" d="M2.23606797749979,0A2.23606797749979,2.23606797749979,0,1,1,-2.23606797749979,0A2.23606797749979,2.23606797749979,0,1,1,2.23606797749979,0" fill="white" stroke="steelblue" stroke-width="1.5"/><path transform="translate(1023.4657039711192,747.6136363636364)" d="M2.23606797749979,0A2.23606797749979,2.23606797749979,0,1,1,-2.23606797749979,0A2.23606797749979,2.23606797749979,0,1,1,2.23606797749979,0" fill="white" stroke="steelblue" stroke-width="1.5"/><path transform="translate(1039.71119133574,747.6136363636364)" d="M2.23606797749979,0A2.23606797749979,2.23606797749979,0,1,1,-2.23606797749979,0A2.23606797749979,2.23606797749979,0,1,1,2.23606797749979,0" fill="white" stroke="steelblue" stroke-width="1.5"/><path transform="translate(1055.956678700361,747.2727272727273)" d="M2.23606797749979,0A2.23606797749979,2.23606797749979,0,1,1,-2.23606797749979,0A2.23606797749979,2.23606797749979,0,1,1,2.23606797749979,0" fill="white" stroke="steelblue" stroke-width="1.5"/><path transform="translate(1072.202166064982,745.9090909090909)" d="M2.23606797749979,0A2.23606797749979,2.23606797749979,0,1,1,-2.23606797749979,0A2.23606797749979,2.23606797749979,0,1,1,2.23606797749979,0" fill="white" stroke="steelblue" stroke-width="1.5"/><path transform="translate(1088.447653429603,746.25)" d="M2.23606797749979,0A2.23606797749979,2.23606797749979,0,1,1,-2.23606797749979,0A2.23606797749979,2.23606797749979,0,1,1,2.23606797749979,0" fill="white" stroke="steelblue" stroke-width="1.5"/><path transform="translate(1104.6931407942238,745.2272727272727)" d="M2.23606797749979,0A2.23606797749979,2.23606797749979,0,1,1,-2.23606797749979,0A2.23606797749979,2.23606797749979,0,1,1,2.23606797749979,0" fill="white" stroke="steelblue" stroke-width="1.5"/><path transform="translate(1120.9386281588447,745.9090909090909)" d="M2.23606797749979,0A2.23606797749979,2.23606797749979,0,1,1,-2.23606797749979,0A2.23606797749979,2.23606797749979,0,1,1,2.23606797749979,0" fill="white" stroke="steelblue" stroke-width="1.5"/><path transform="translate(1137.1841155234656,745.5681818181819)" d="M2.23606797749979,0A2.23606797749979,2.23606797749979,0,1,1,-2.23606797749979,0A2.23606797749979,2.23606797749979,0,1,1,2.23606797749979,0" fill="white" stroke="steelblue" stroke-width="1.5"/><path transform="translate(1153.4296028880867,744.8863636363636)" d="M2.23606797749979,0A2.23606797749979,2.23606797749979,0,1,1,-2.23606797749979,0A2.23606797749979,2.23606797749979,0,1,1,2.23606797749979,0" fill="white" stroke="steelblue" stroke-width="1.5"/><path transform="translate(1169.6750902527076,743.5227272727273)" d="M2.23606797749979,0A2.23606797749979,2.23606797749979,0,1,1,-2.23606797749979,0A2.23606797749979,2.23606797749979,0,1,1,2.23606797749979,0" fill="white" stroke="steelblue" stroke-width="1.5"/><path transform="translate(1185.9205776173285,735.3409090909091)" d="M2.23606797749979,0A2.23606797749979,2.23606797749979,0,1,1,-2.23606797749979,0A2.23606797749979,2.23606797749979,0,1,1,2.23606797749979,0" fill="white" stroke="steelblue" stroke-width="1.5"/><path transform="translate(1202.1660649819494,732.9545454545455)" d="M2.23606797749979,0A2.23606797749979,2.23606797749979,0,1,1,-2.23606797749979,0A2.23606797749979,2.23606797749979,0,1,1,2.23606797749979,0" fill="white" stroke="steelblue" stroke-width="1.5"/><path transform="translate(1218.4115523465705,729.8863636363636)" d="M2.23606797749979,0A2.23606797749979,2.23606797749979,0,1,1,-2.23606797749979,0A2.23606797749979,2.23606797749979,0,1,1,2.23606797749979,0" fill="white" stroke="steelblue" stroke-width="1.5"/><path transform="translate(1234.6570397111914,732.2727272727273)" d="M2.23606797749979,0A2.23606797749979,2.23606797749979,0,1,1,-2.23606797749979,0A2.23606797749979,2.23606797749979,0,1,1,2.23606797749979,0" fill="white" stroke="steelblue" stroke-width="1.5"/><path transform="translate(1250.9025270758123,728.8636363636364)" d="M2.23606797749979,0A2.23606797749979,2.23606797749979,0,1,1,-2.23606797749979,0A2.23606797749979,2.23606797749979,0,1,1,2.23606797749979,0" fill="white" stroke="steelblue" stroke-width="1.5"/><path transform="translate(1267.1480144404331,717.2727272727273)" d="M2.23606797749979,0A2.23606797749979,2.23606797749979,0,1,1,-2.23606797749979,0A2.23606797749979,2.23606797749979,0,1,1,2.23606797749979,0" fill="white" stroke="steelblue" stroke-width="1.5"/><path transform="translate(1283.393501805054,702.9545454545455)" d="M2.23606797749979,0A2.23606797749979,2.23606797749979,0,1,1,-2.23606797749979,0A2.23606797749979,2.23606797749979,0,1,1,2.23606797749979,0" fill="white" stroke="steelblue" stroke-width="1.5"/><path transform="translate(1299.6389891696751,666.8181818181818)" d="M2.23606797749979,0A2.23606797749979,2.23606797749979,0,1,1,-2.23606797749979,0A2.23606797749979,2.23606797749979,0,1,1,2.23606797749979,0" fill="white" stroke="steelblue" stroke-width="1.5"/><path transform="translate(1315.884476534296,638.8636363636364)" d="M2.23606797749979,0A2.23606797749979,2.23606797749979,0,1,1,-2.23606797749979,0A2.23606797749979,2.23606797749979,0,1,1,2.23606797749979,0" fill="white" stroke="steelblue" stroke-width="1.5"/><path transform="translate(1332.129963898917,593.5227272727273)" d="M2.23606797749979,0A2.23606797749979,2.23606797749979,0,1,1,-2.23606797749979,0A2.23606797749979,2.23606797749979,0,1,1,2.23606797749979,0" fill="white" stroke="steelblue" stroke-width="1.5"/><path transform="translate(1348.375451263538,553.9772727272727)" d="M2.23606797749979,0A2.23606797749979,2.23606797749979,0,1,1,-2.23606797749979,0A2.23606797749979,2.23606797749979,0,1,1,2.23606797749979,0" fill="white" stroke="steelblue" stroke-width="1.5"/><path transform="translate(1364.620938628159,496.0227272727273)" d="M2.23606797749979,0A2.23606797749979,2.23606797749979,0,1,1,-2.23606797749979,0A2.23606797749979,2.23606797749979,0,1,1,2.23606797749979,0" fill="white" stroke="steelblue" stroke-width="1.5"/><path transform="translate(1380.8664259927798,420.00000000000006)" d="M2.23606797749979,0A2.23606797749979,2.23606797749979,0,1,1,-2.23606797749979,0A2.23606797749979,2.23606797749979,0,1,1,2.23606797749979,0" fill="white" stroke="steelblue" stroke-width="1.5"/><path transform="translate(1397.1119133574007,357.27272727272725)" d="M2.23606797749979,0A2.23606797749979,2.23606797749979,0,1,1,-2.23606797749979,0A2.23606797749979,2.23606797749979,0,1,1,2.23606797749979,0" fill="white" stroke="steelblue" stroke-width="1.5"/><path transform="translate(1413.3574007220216,279.2045454545455)" d="M2.23606797749979,0A2.23606797749979,2.23606797749979,0,1,1,-2.23606797749979,0A2.23606797749979,2.23606797749979,0,1,1,2.23606797749979,0" fill="white" stroke="steelblue" stroke-width="1.5"/><path transform="translate(1429.6028880866427,183.06818181818184)" d="M2.23606797749979,0A2.23606797749979,2.23606797749979,0,1,1,-2.23606797749979,0A2.23606797749979,2.23606797749979,0,1,1,2.23606797749979,0" fill="white" stroke="steelblue" stroke-width="1.5"/><path transform="translate(1445.8483754512636,99.88636363636364)" d="M2.23606797749979,0A2.23606797749979,2.23606797749979,0,1,1,-2.23606797749979,0A2.23606797749979,2.23606797749979,0,1,1,2.23606797749979,0" fill="white" stroke="steelblue" stroke-width="1.5"/><path transform="translate(1462.0938628158844,14.6590909090909)" d="M2.23606797749979,0A2.23606797749979,2.23606797749979,0,1,1,-2.23606797749979,0A2.23606797749979,2.23606797749979,0,1,1,2.23606797749979,0" fill="white" stroke="steelblue" stroke-width="1.5"/><path transform="translate(1478.3393501805053,109.43181818181816)" d="M2.23606797749979,0A2.23606797749979,2.23606797749979,0,1,1,-2.23606797749979,0A2.23606797749979,2.23606797749979,0,1,1,2.23606797749979,0" fill="white" stroke="steelblue" stroke-width="1.5"/><path transform="translate(1494.5848375451262,71.9318181818182)" d="M2.23606797749979,0A2.23606797749979,2.23606797749979,0,1,1,-2.23606797749979,0A2.23606797749979,2.23606797749979,0,1,1,2.23606797749979,0" fill="white" stroke="steelblue" stroke-width="1.5"/></g><g class="mark-group role-title"><g transform="translate(706,-35)"><path class="background" aria-hidden="true" d="M0,0h0v0h0Z" pointer-events="none"/><g><g class="mark-text role-title-text" role="graphics-symbol" aria-roledescription="title" aria-label="Title text 'Active COVID-19 cases in 'Bezirk Amstetten' (absolute)'" pointer-events="none"><text text-anchor="middle" transform="translate(0,19)" font-family="sans-serif" font-size="24px" font-weight="bold" fill="#000" opacity="1">Active COVID-19 cases in 'Bezirk Amstetten' (absolute)</text></g></g><path class="foreground" aria-hidden="true" d="" pointer-events="none" display="none"/></g></g></g><path class="foreground" aria-hidden="true" d="" display="none"/></g></g></g></svg>