<svg xmlns="http://www.w3.org/2000/svg" xmlns:xlink="http://www.w3.org/1999/xlink" version="1.1" class="marks" width="1582" height="900" viewBox="0 0 1582 900"><g fill="none" stroke-miterlimit="10" transform="translate(74,40)"><g class="mark-group role-frame root" role="graphics-object" aria-roledescription="group mark container"><g transform="translate(0,0)"><path class="background" aria-hidden="true" d="M0,0h1500v750h-1500Z"/><g><g class="mark-group role-axis" role="graphics-symbol" aria-roledescription="axis" aria-label="Y-axis titled 'COVID-19 recovered count (absolute)' for a linear scale with values from 0 to 450"><g transform="translate(0.5,0.5)"><path class="background" aria-hidden="true" d="M0,0h0v0h0Z" pointer-events="none"/><g><g class="mark-rule role-axis-grid" pointer-events="none"><line transform="translate(0,750)" x2="1500" y2="0" stroke="#ddd" stroke-width="1" opacity="1"/><line transform="translate(0,667)" x2="1500" y2="0" stroke="#ddd" stroke-width="1" opacity="1"/><line transform="translate(0,583)" x2="1500" y2="0" stroke="#ddd" stroke-width="1" opacity="1"/><line transform="translate(0,500)" x2="1500" y2="0" stroke="#ddd" stroke-width="1" opacity="1"/><line transform="translate(0,417)" x2="1500" y2="0" stroke="#ddd" stroke-width="1" opacity="1"/><line transform="translate(0,333)" x2="1500" y2="0" stroke="#ddd" stroke-width="1" opacity="1"/><line transform="translate(0,250)" x2="1500" y2="0" stroke="#ddd" stroke-width="1" opacity="1"/><line transform="translate(0,167)" x2="1500" y2="0" stroke="#ddd" stroke-width="1" opacity="1"/><line transform="translate(0,83)" x2="1500" y2="0" stroke="#ddd" stroke-width="1" opacity="1"/><line transform="translate(0,0)" x2="1500" y2="0" stroke="#ddd" stroke-width="1" opacity="1"/></g><g class="mark-rule role-axis-tick" pointer-events="none"><line transform="translate(0,750)" x2="-5" y2="0" stroke="#888" stroke-width="1" opacity="1"/><line transform="translate(0,667)" x2="-5" y2="0" stroke="#888" stroke-width="1" opacity="1"/><line transform="translate(0,583)" x2="-5" y2="0" stroke="#888" stroke-width="1" opacity="1"/><line transform="translate(0,500)" x2="-5" y2="0" stroke="#888" stroke-width="1" opacity="1"/><line transform="translate(0,417)" x2="-5" y2="0" stroke="#888" stroke-width="1" opacity="1"/><line transform="translate(0,333)" x2="-5" y2="0" stroke="#888" stroke-width="1" opacity="1"/><line transform="translate(0,250)" x2="-5" y2="0" stroke="#888" stroke-width="1" opacity="1"/><line transform="translate(0,167)" x2="-5" y2="0" stroke="#888" stroke-width="1" opacity="1"/><line transform="translate(0,83)" x2="-5" y2="0" stroke="#888" stroke-width="1" opacity="1"/><line transform="translate(0,0)" x2="-5" y2="0" stroke="#888" stroke-width="1" opacity="1"/></g><g class="mark-text role-axis-label" pointer-events="none"><text text-anchor="end" transform="translate(-7,754)" font-family="sans-serif" font-size="14px" fill="#000" opacity="1">0</text><text text-anchor="end" transform="translate(-7,670.6666666666666)" font-family="sans-serif" font-size="14px" fill="#000" opacity="1">50</text><text text-anchor="end" transform="translate(-7,587.3333333333334)" font-family="sans-serif" font-size="14px" fill="#000" opacity="1">100</text><text text-anchor="end" transform="translate(-7,504.00000000000006)" font-family="sans-serif" font-size="14px" fill="#000" opacity="1">150</text><text text-anchor="end" transform="translate(-7,420.6666666666667)" font-family="sans-serif" font-size="14px" fill="#000" opacity="1">200</text><text text-anchor="end" transform="translate(-7,337.3333333333333)" font-family="sans-serif" font-size="14px" fill="#000" opacity="1">250</text><text text-anchor="end" transform="translate(-7,254.00000000000003)" font-family="sans-serif" font-size="14px" fill="#000" opacity="1">300</text><text text-anchor="end" transform="translate(-7,170.66666666666666)" font-family="sans-serif" font-size="14px" fill="#000" opacity="1">350</text><text text-anchor="end" transform="translate(-7,87.33333333333337)" font-family="sans-serif" font-size="14px" fill="#000" opacity="1">400</text><text text-anchor="end" transform="translate(-7,4)" font-family="sans-serif" font-size="14px" fill="#000" opacity="1">450</text></g><g class="mark-rule role-axis-domain" pointer-events="none"><line transform="translate(0,750)" x2="0" y2="-750" stroke="#888" stroke-width="1" opacity="1"/></g><g class="mark-text role-axis-title" pointer-events="none"><text text-anchor="middle" transform="translate(-50,375) rotate(-90) translate(0,-4)" font-family="sans-serif" font-size="18px" font-weight="bold" fill="#000" opacity="1">COVID-19 recovered count (absolute)</text></g></g><path class="foreground" aria-hidden="true" d="" pointer-events="none" display="none"/></g></g><g class="mark-group role-axis" role="graphics-symbol" aria-roledescription="axis" aria-label="X-axis titled 'Date' for a linear scale with values from 2020-02-26 to 2020-10-21"><g transform="translate(0.5,750.5)"><path class="background" aria-hidden="true" d="M0,0h0v0h0Z" pointer-events="none"/><g><g class="mark-rule role-axis-tick" pointer-events="none"><line transform="translate(24,0)" x2="0" y2="5" stroke="#888" stroke-width="1" opacity="1"/><line transform="translate(97,0)" x2="0" y2="5" stroke="#888" stroke-width="1" opacity="1"/><line transform="translate(170,0)" x2="0" y2="5" stroke="#888" stroke-width="1" opacity="1"/><line transform="translate(243,0)" x2="0" y2="5" stroke="#888" stroke-width="1" opacity="1"/><line transform="translate(315,0)" x2="0" y2="5" stroke="#888" stroke-width="1" opacity="1"/><line transform="translate(388,0)" x2="0" y2="5" stroke="#888" stroke-width="1" opacity="1"/><line transform="translate(461,0)" x2="0" y2="5" stroke="#888" stroke-width="1" opacity="1"/><line transform="translate(534,0)" x2="0" y2="5" stroke="#888" stroke-width="1" opacity="1"/><line transform="translate(607,0)" x2="0" y2="5" stroke="#888" stroke-width="1" opacity="1"/><line transform="translate(680,0)" x2="0" y2="5" stroke="#888" stroke-width="1" opacity="1"/><line transform="translate(753,0)" x2="0" y2="5" stroke="#888" stroke-width="1" opacity="1"/><line transform="translate(826,0)" x2="0" y2="5" stroke="#888" stroke-width="1" opacity="1"/><line transform="translate(899,0)" x2="0" y2="5" stroke="#888" stroke-width="1" opacity="1"/><line transform="translate(972,0)" x2="0" y2="5" stroke="#888" stroke-width="1" opacity="1"/><line transform="translate(1045,0)" x2="0" y2="5" stroke="#888" stroke-width="1" opacity="1"/><line transform="translate(1118,0)" x2="0" y2="5" stroke="#888" stroke-width="1" opacity="1"/><line transform="translate(1191,0)" x2="0" y2="5" stroke="#888" stroke-width="1" opacity="1"/><line transform="translate(1264,0)" x2="0" y2="5" stroke="#888" stroke-width="1" opacity="1"/><line transform="translate(1337,0)" x2="0" y2="5" stroke="#888" stroke-width="1" opacity="1"/><line transform="translate(1410,0)" x2="0" y2="5" stroke="#888" stroke-width="1" opacity="1"/><line transform="translate(1483,0)" x2="0" y2="5" stroke="#888" stroke-width="1" opacity="1"/></g><g class="mark-text role-axis-label" pointer-events="none"><text text-anchor="end" transform="translate(23.69281045751634,7) rotate(-35) translate(0,11)" font-family="sans-serif" font-size="14px" fill="#000" opacity="1">2020-02-29</text><text text-anchor="end" transform="translate(96.63865546218486,7) rotate(-35) translate(0,11)" font-family="sans-serif" font-size="14px" fill="#000" opacity="1">2020-03-12</text><text text-anchor="end" transform="translate(169.5845004668534,7) rotate(-35) translate(0,11)" font-family="sans-serif" font-size="14px" fill="#000" opacity="1">2020-03-23</text><text text-anchor="end" transform="translate(242.53034547152194,7) rotate(-35) translate(0,11)" font-family="sans-serif" font-size="14px" fill="#000" opacity="1">2020-04-04</text><text text-anchor="end" transform="translate(315.4761904761905,7) rotate(-35) translate(0,11)" font-family="sans-serif" font-size="14px" fill="#000" opacity="1">2020-04-16</text><text text-anchor="end" transform="translate(388.422035480859,7) rotate(-35) translate(0,11)" font-family="sans-serif" font-size="14px" fill="#000" opacity="1">2020-04-27</text><text text-anchor="end" transform="translate(461.3678804855275,7) rotate(-35) translate(0,11)" font-family="sans-serif" font-size="14px" fill="#000" opacity="1">2020-05-09</text><text text-anchor="end" transform="translate(534.3137254901961,7) rotate(-35) translate(0,11)" font-family="sans-serif" font-size="14px" fill="#000" opacity="1">2020-05-20</text><text text-anchor="end" transform="translate(607.2595704948646,7) rotate(-35) translate(0,11)" font-family="sans-serif" font-size="14px" fill="#000" opacity="1">2020-06-01</text><text text-anchor="end" transform="translate(680.2054154995332,7) rotate(-35) translate(0,11)" font-family="sans-serif" font-size="14px" fill="#000" opacity="1">2020-06-12</text><text text-anchor="end" transform="translate(753.1512605042017,7) rotate(-35) translate(0,11)" font-family="sans-serif" font-size="14px" fill="#000" opacity="1">2020-06-24</text><text text-anchor="end" transform="translate(826.0971055088702,7) rotate(-35) translate(0,11)" font-family="sans-serif" font-size="14px" fill="#000" opacity="1">2020-07-06</text><text text-anchor="end" transform="translate(899.0429505135388,7) rotate(-35) translate(0,11)" font-family="sans-serif" font-size="14px" fill="#000" opacity="1">2020-07-17</text><text text-anchor="end" transform="translate(971.9887955182073,7) rotate(-35) translate(0,11)" font-family="sans-serif" font-size="14px" fill="#000" opacity="1">2020-07-29</text><text text-anchor="end" transform="translate(1044.9346405228757,7) rotate(-35) translate(0,11)" font-family="sans-serif" font-size="14px" fill="#000" opacity="1">2020-08-09</text><text text-anchor="end" transform="translate(1117.8804855275444,7) rotate(-35) translate(0,11)" font-family="sans-serif" font-size="14px" fill="#000" opacity="1">2020-08-21</text><text text-anchor="end" transform="translate(1190.8263305322128,7) rotate(-35) translate(0,11)" font-family="sans-serif" font-size="14px" fill="#000" opacity="1">2020-09-01</text><text text-anchor="end" transform="translate(1263.7721755368814,7) rotate(-35) translate(0,11)" font-family="sans-serif" font-size="14px" fill="#000" opacity="1">2020-09-13</text><text text-anchor="end" transform="translate(1336.71802054155,7) rotate(-35) translate(0,11)" font-family="sans-serif" font-size="14px" fill="#000" opacity="1">2020-09-25</text><text text-anchor="end" transform="translate(1409.6638655462184,7) rotate(-35) translate(0,11)" font-family="sans-serif" font-size="14px" fill="#000" opacity="1">2020-10-06</text><text text-anchor="end" transform="translate(1482.609710550887,7) rotate(-35) translate(0,11)" font-family="sans-serif" font-size="14px" fill="#000" opacity="1">2020-10-18</text></g><g class="mark-rule role-axis-domain" pointer-events="none"><line transform="translate(0,0)" x2="1500" y2="0" stroke="#888" stroke-width="1" opacity="1"/></g><g class="mark-text role-axis-title" pointer-events="none"><text text-anchor="middle" transform="translate(750,100.70868949136309)" font-family="sans-serif" font-size="18px" font-weight="bold" fill="#000" opacity="1">Date</text></g></g><path class="foreground" aria-hidden="true" d="" pointer-events="none" display="none"/></g></g><g class="mark-line role-mark" role="graphics-symbol" aria-roledescription="line mark container"><path d="M0,750C2.100840336134454,750,4.201680672268907,750,6.302521008403361,750C8.403361344537815,750,10.504201680672269,750,12.605042016806722,750C14.705882352941176,750,16.80672268907563,750,18.907563025210084,750C21.008403361344538,750,23.10924369747899,750,25.210084033613445,750C27.310924369747898,750,29.411764705882355,750,31.51260504201681,750C33.61344537815126,750,35.714285714285715,750,37.81512605042017,750C39.91596638655462,750,42.016806722689076,750,44.11764705882353,750C46.21848739495798,750,48.319327731092436,750,50.42016806722689,750C52.52100840336134,750,54.621848739495796,750,56.72268907563025,750C58.8235294117647,750,60.92436974789916,750,63.02521008403362,750C65.12605042016807,750,67.22689075630252,750,69.32773109243698,750C71.42857142857143,750,73.52941176470588,750,75.63025210084034,750C77.73109243697479,750,79.83193277310924,750,81.9327731092437,750C84.03361344537815,750,86.1344537815126,750,88.23529411764706,750C90.33613445378151,750,92.43697478991596,750,94.53781512605042,750C96.63865546218487,750,98.73949579831933,750,100.84033613445378,750C102.94117647058823,750,105.04201680672269,750,107.14285714285714,750C109.24369747899159,750,111.34453781512605,750,113.4453781512605,750C115.54621848739495,750,117.6470588235294,750,119.74789915966386,750C121.84873949579831,750,123.94957983193278,750,126.05042016806723,750C128.1512605042017,750,130.25210084033614,750,132.3529411764706,750C134.45378151260505,750,136.55462184873952,750,138.65546218487395,750C140.75630252100842,750,142.85714285714286,750,144.95798319327733,750C147.05882352941177,750,149.15966386554624,750,151.26050420168067,750C153.36134453781514,750,155.46218487394958,750,157.56302521008405,750C159.6638655462185,750,161.76470588235296,741.6666666666667,163.8655462184874,741.6666666666667C165.96638655462183,741.6666666666667,168.0672268907563,741.6666666666667,170.16806722689074,741.6666666666667C172.2689075630252,741.6666666666667,174.36974789915965,741.1111111111111,176.47058823529412,740C178.57142857142856,738.8888888888889,180.67226890756302,738.3333333333334,182.77310924369746,735C184.87394957983193,731.6666666666666,186.97478991596637,723.3333333333334,189.07563025210084,720C191.1764705882353,716.6666666666666,193.27731092436974,718.3333333333334,195.3781512605042,715C197.47899159663865,711.6666666666666,199.57983193277312,702.2222222222222,201.68067226890756,695C203.78151260504202,687.7777777777777,205.88235294117646,676.9444444444443,207.98319327731093,671.6666666666666C210.08403361344537,666.3888888888889,212.18487394957984,666.9444444444445,214.28571428571428,663.3333333333334C216.38655462184875,659.7222222222223,218.48739495798318,653.6111111111111,220.58823529411765,650C222.6890756302521,646.3888888888889,224.78991596638656,645.2777777777778,226.890756302521,641.6666666666667C228.99159663865547,638.0555555555557,231.0924369747899,631.3888888888888,233.19327731092437,628.3333333333333C235.2941176470588,625.2777777777777,237.39495798319328,624.4444444444445,239.49579831932772,623.3333333333334C241.5966386554622,622.2222222222223,243.69747899159663,622.7777777777778,245.7983193277311,621.6666666666666C247.89915966386556,620.5555555555554,250,614.4444444444446,252.10084033613447,611.6666666666667C254.2016806722689,608.888888888889,256.30252100840335,606.9444444444445,258.4033613445378,605C260.5042016806723,603.0555555555555,262.60504201680675,603.3333333333334,264.7058823529412,600C266.8067226890756,596.6666666666667,268.9075630252101,586.9444444444443,271.0084033613445,581.6666666666666C273.109243697479,576.3888888888888,275.21008403361344,572.7777777777778,277.3109243697479,568.3333333333334C279.4117647058824,563.8888888888889,281.5126050420168,559.7222222222222,283.61344537815125,555C285.7142857142857,550.2777777777777,287.8151260504202,544.4444444444445,289.91596638655466,540C292.01680672268907,535.5555555555557,294.11764705882354,536.1111111111111,296.21848739495795,528.3333333333334C298.3193277310924,520.5555555555554,300.4201680672269,499.1666666666667,302.52100840336135,490C304.6218487394958,480.8333333333334,306.7226890756302,478.61111111111114,308.8235294117647,473.33333333333337C310.92436974789916,468.0555555555556,313.02521008403363,465.0000000000001,315.1260504201681,458.33333333333337C317.2268907563025,451.66666666666674,319.327731092437,435.55555555555554,321.4285714285714,433.3333333333333C323.52941176470586,431.1111111111111,325.6302521008403,429.99999999999994,327.7310924369748,429.99999999999994C329.83193277310926,429.99999999999994,331.9327731092437,429.99999999999994,334.0336134453782,429.99999999999994C336.1344537815126,429.99999999999994,338.2352941176471,427.2222222222222,340.3361344537815,423.33333333333337C342.43697478991595,419.44444444444446,344.5378151260504,408.8888888888888,346.6386554621849,406.66666666666663C348.73949579831935,404.44444444444446,350.84033613445376,405,352.94117647058823,403.33333333333337C355.0420168067227,401.66666666666674,357.14285714285717,401.11111111111114,359.24369747899163,396.66666666666674C361.34453781512605,392.2222222222224,363.4453781512605,377.22222222222223,365.5462184873949,375C367.6470588235294,372.77777777777777,369.74789915966386,371.66666666666663,371.8487394957983,371.66666666666663C373.9495798319328,371.66666666666663,376.0504201680672,371.66666666666663,378.1512605042017,371.66666666666663C380.25210084033614,371.66666666666663,382.35294117647055,367.77777777777777,384.453781512605,365C386.5546218487395,362.22222222222223,388.65546218487395,356.1111111111112,390.7563025210084,355.00000000000006C392.8571428571429,353.8888888888889,394.9579831932773,354.4444444444445,397.05882352941177,353.33333333333337C399.15966386554624,352.22222222222223,401.26050420168065,341.66666666666674,403.3613445378151,338.33333333333337C405.4621848739496,335,407.563025210084,334.72222222222223,409.66386554621846,333.3333333333333C411.7647058823529,331.9444444444444,413.8655462184874,331.11111111111103,415.96638655462186,329.99999999999994C418.06722689075633,328.88888888888886,420.16806722689074,327.77777777777777,422.2689075630252,326.6666666666667C424.3697478991597,325.5555555555556,426.4705882352941,324.16666666666663,428.57142857142856,323.3333333333333C430.672268907563,322.49999999999994,432.7731092436975,322.77777777777777,434.87394957983196,321.66666666666663C436.9747899159664,320.55555555555554,439.07563025210084,312.77777777777777,441.1764705882353,310C443.2773109243698,307.22222222222223,445.3781512605042,306.3888888888888,447.47899159663865,304.99999999999994C449.5798319327731,303.6111111111111,451.68067226890753,302.5,453.781512605042,301.6666666666667C455.88235294117646,300.83333333333337,457.98319327731093,300,460.0840336134454,300C462.18487394957987,300,464.2857142857143,300,466.38655462184875,300C468.4873949579832,300,470.5882352941176,296.3888888888889,472.6890756302521,295C474.78991596638656,293.6111111111111,476.89075630252097,291.66666666666663,478.99159663865544,291.66666666666663C481.0924369747899,291.66666666666663,483.1932773109244,291.66666666666663,485.29411764705884,291.66666666666663C487.3949579831933,291.66666666666663,489.4957983193277,289.44444444444446,491.5966386554622,288.33333333333337C493.69747899159665,287.2222222222223,495.79831932773106,285,497.89915966386553,285C500,285,502.10084033613447,285,504.20168067226894,285C506.3025210084034,285,508.4033613445378,285,510.5042016806723,285C512.6050420168067,285,514.7058823529412,283.88888888888886,516.8067226890756,283.3333333333333C518.90756302521,282.77777777777777,521.0084033613446,281.66666666666663,523.109243697479,281.66666666666663C525.2100840336135,281.66666666666663,527.3109243697479,281.66666666666663,529.4117647058824,281.66666666666663C531.5126050420168,281.66666666666663,533.6134453781514,281.66666666666663,535.7142857142858,281.66666666666663C537.8151260504202,281.66666666666663,539.9159663865546,281.66666666666663,542.016806722689,281.66666666666663C544.1176470588234,281.66666666666663,546.218487394958,281.66666666666663,548.3193277310924,281.66666666666663C550.4201680672269,281.66666666666663,552.5210084033613,281.66666666666663,554.6218487394958,281.66666666666663C556.7226890756302,281.66666666666663,558.8235294117648,281.66666666666663,560.9243697478992,281.66666666666663C563.0252100840336,281.66666666666663,565.1260504201681,281.66666666666663,567.2268907563025,281.66666666666663C569.3277310924369,281.66666666666663,571.4285714285714,279.99999999999994,573.5294117647059,279.99999999999994C575.6302521008404,279.99999999999994,577.7310924369748,279.99999999999994,579.8319327731093,279.99999999999994C581.9327731092437,279.99999999999994,584.0336134453781,279.99999999999994,586.1344537815125,279.99999999999994C588.235294117647,279.99999999999994,590.3361344537815,279.99999999999994,592.4369747899159,279.99999999999994C594.5378151260504,279.99999999999994,596.6386554621848,279.99999999999994,598.7394957983194,279.99999999999994C600.8403361344538,279.99999999999994,602.9411764705883,279.99999999999994,605.0420168067227,279.99999999999994C607.1428571428571,279.99999999999994,609.2436974789916,279.99999999999994,611.344537815126,279.99999999999994C613.4453781512605,279.99999999999994,615.546218487395,279.99999999999994,617.6470588235294,279.99999999999994C619.7478991596639,279.99999999999994,621.8487394957983,279.99999999999994,623.9495798319329,279.99999999999994C626.0504201680673,279.99999999999994,628.1512605042018,279.99999999999994,630.2521008403362,279.99999999999994C632.3529411764706,279.99999999999994,634.453781512605,279.99999999999994,636.5546218487394,279.99999999999994C638.6554621848738,279.99999999999994,640.7563025210084,279.99999999999994,642.8571428571428,279.99999999999994C644.9579831932773,279.99999999999994,647.0588235294117,279.99999999999994,649.1596638655462,279.99999999999994C651.2605042016806,279.99999999999994,653.3613445378152,279.99999999999994,655.4621848739496,279.99999999999994C657.563025210084,279.99999999999994,659.6638655462185,278.3333333333333,661.7647058823529,278.3333333333333C663.8655462184875,278.3333333333333,665.9663865546219,278.3333333333333,668.0672268907564,278.3333333333333C670.1680672268908,278.3333333333333,672.2689075630253,276.6666666666667,674.3697478991597,276.6666666666667C676.4705882352941,276.6666666666667,678.5714285714286,276.6666666666667,680.672268907563,276.6666666666667C682.7731092436974,276.6666666666667,684.8739495798319,276.6666666666667,686.9747899159663,276.6666666666667C689.0756302521008,276.6666666666667,691.1764705882352,276.6666666666667,693.2773109243698,276.6666666666667C695.3781512605042,276.6666666666667,697.4789915966387,276.6666666666667,699.5798319327731,276.6666666666667C701.6806722689075,276.6666666666667,703.781512605042,276.6666666666667,705.8823529411765,276.6666666666667C707.9831932773109,276.6666666666667,710.0840336134454,276.6666666666667,712.1848739495798,276.6666666666667C714.2857142857143,276.6666666666667,716.3865546218487,276.6666666666667,718.4873949579833,276.6666666666667C720.5882352941177,276.6666666666667,722.6890756302522,276.6666666666667,724.7899159663866,276.6666666666667C726.890756302521,276.6666666666667,728.9915966386554,276.6666666666667,731.0924369747898,276.6666666666667C733.1932773109243,276.6666666666667,735.2941176470588,276.6666666666667,737.3949579831932,276.6666666666667C739.4957983193277,276.6666666666667,741.5966386554621,276.6666666666667,743.6974789915967,276.6666666666667C745.7983193277311,276.6666666666667,747.8991596638656,276.6666666666667,750,276.6666666666667C752.1008403361344,276.6666666666667,754.2016806722689,276.6666666666667,756.3025210084033,276.6666666666667C758.4033613445378,276.6666666666667,760.5042016806723,276.6666666666667,762.6050420168067,276.6666666666667C764.7058823529411,276.6666666666667,766.8067226890756,276.6666666666667,768.90756302521,276.6666666666667C771.0084033613446,276.6666666666667,773.109243697479,276.6666666666667,775.2100840336135,276.6666666666667C777.3109243697479,276.6666666666667,779.4117647058824,276.6666666666667,781.5126050420168,276.6666666666667C783.6134453781513,276.6666666666667,785.7142857142858,276.6666666666667,787.8151260504202,276.6666666666667C789.9159663865546,276.6666666666667,792.0168067226891,276.6666666666667,794.1176470588235,276.6666666666667C796.218487394958,276.6666666666667,798.3193277310925,276.6666666666667,800.4201680672269,276.6666666666667C802.5210084033613,276.6666666666667,804.6218487394958,276.6666666666667,806.7226890756302,276.6666666666667C808.8235294117646,276.6666666666667,810.9243697478992,276.6666666666667,813.0252100840336,276.6666666666667C815.126050420168,276.6666666666667,817.2268907563025,276.6666666666667,819.3277310924369,276.6666666666667C821.4285714285714,276.6666666666667,823.5294117647059,276.6666666666667,825.6302521008404,276.6666666666667C827.7310924369748,276.6666666666667,829.8319327731093,276.6666666666667,831.9327731092437,276.6666666666667C834.0336134453781,276.6666666666667,836.1344537815127,276.6666666666667,838.2352941176471,276.6666666666667C840.3361344537815,276.6666666666667,842.436974789916,276.6666666666667,844.5378151260504,276.6666666666667C846.6386554621848,276.6666666666667,848.7394957983194,276.6666666666667,850.8403361344538,276.6666666666667C852.9411764705882,276.6666666666667,855.0420168067227,276.6666666666667,857.1428571428571,276.6666666666667C859.2436974789915,276.6666666666667,861.344537815126,276.6666666666667,863.4453781512605,276.6666666666667C865.546218487395,276.6666666666667,867.6470588235294,276.6666666666667,869.7478991596639,276.6666666666667C871.8487394957983,276.6666666666667,873.9495798319329,276.6666666666667,876.0504201680673,276.6666666666667C878.1512605042017,276.6666666666667,880.2521008403362,276.6666666666667,882.3529411764706,276.6666666666667C884.453781512605,276.6666666666667,886.5546218487395,275.55555555555554,888.655462184874,275C890.7563025210084,274.44444444444446,892.8571428571429,273.33333333333337,894.9579831932773,273.33333333333337C897.0588235294117,273.33333333333337,899.1596638655462,273.33333333333337,901.2605042016806,273.33333333333337C903.3613445378151,273.33333333333337,905.4621848739496,273.33333333333337,907.563025210084,273.33333333333337C909.6638655462184,273.33333333333337,911.7647058823529,272.5,913.8655462184873,271.6666666666667C915.9663865546219,270.8333333333333,918.0672268907563,269.1666666666667,920.1680672268908,268.3333333333333C922.2689075630252,267.5,924.3697478991597,266.66666666666663,926.4705882352941,266.66666666666663C928.5714285714286,266.66666666666663,930.6722689075631,266.66666666666663,932.7731092436975,266.66666666666663C934.8739495798319,266.66666666666663,936.9747899159664,266.66666666666663,939.0756302521008,266.66666666666663C941.1764705882352,266.66666666666663,943.2773109243698,266.66666666666663,945.3781512605042,266.66666666666663C947.4789915966386,266.66666666666663,949.5798319327731,266.66666666666663,951.6806722689075,266.66666666666663C953.7815126050419,266.66666666666663,955.8823529411765,265.00000000000006,957.9831932773109,265.00000000000006C960.0840336134454,265.00000000000006,962.1848739495798,265.00000000000006,964.2857142857143,265.00000000000006C966.3865546218487,265.00000000000006,968.4873949579833,265.00000000000006,970.5882352941177,265.00000000000006C972.6890756302521,265.00000000000006,974.7899159663866,264.16666666666674,976.890756302521,263.33333333333337C978.9915966386554,262.5,981.09243697479,260.83333333333337,983.1932773109244,260C985.2941176470588,259.16666666666663,987.3949579831933,259.16666666666663,989.4957983193277,258.3333333333333C991.5966386554621,257.5,993.6974789915967,254.99999999999997,995.7983193277311,254.99999999999997C997.8991596638655,254.99999999999997,1000,254.99999999999997,1002.1008403361344,254.99999999999997C1004.2016806722689,254.99999999999997,1006.3025210084033,252.50000000000003,1008.4033613445379,251.6666666666667C1010.5042016806723,250.8333333333334,1012.6050420168068,250.00000000000003,1014.7058823529412,250.00000000000003C1016.8067226890756,250.00000000000003,1018.9075630252102,250.00000000000003,1021.0084033613446,250.00000000000003C1023.109243697479,250.00000000000003,1025.2100840336134,244.44444444444443,1027.310924369748,243.33333333333331C1029.4117647058824,242.2222222222222,1031.5126050420167,241.66666666666663,1033.6134453781513,241.66666666666663C1035.7142857142858,241.66666666666663,1037.81512605042,241.66666666666663,1039.9159663865546,241.66666666666663C1042.0168067226891,241.66666666666663,1044.1176470588234,241.66666666666663,1046.218487394958,241.66666666666663C1048.3193277310925,241.66666666666663,1050.4201680672268,241.66666666666663,1052.5210084033613,241.66666666666663C1054.6218487394958,241.66666666666663,1056.7226890756303,241.66666666666663,1058.8235294117649,241.66666666666663C1060.9243697478994,241.66666666666663,1063.0252100840337,241.66666666666663,1065.1260504201682,241.66666666666663C1067.2268907563027,241.66666666666663,1069.327731092437,241.66666666666663,1071.4285714285716,241.66666666666663C1073.529411764706,241.66666666666663,1075.6302521008404,241.66666666666663,1077.731092436975,241.66666666666663C1079.8319327731092,241.66666666666663,1081.9327731092437,241.66666666666663,1084.033613445378,241.66666666666663C1086.1344537815125,241.66666666666663,1088.2352941176468,241.66666666666663,1090.3361344537814,241.66666666666663C1092.436974789916,241.66666666666663,1094.5378151260502,241.66666666666663,1096.6386554621847,241.66666666666663C1098.7394957983192,241.66666666666663,1100.8403361344538,241.66666666666663,1102.9411764705883,241.66666666666663C1105.0420168067228,241.66666666666663,1107.142857142857,238.33333333333337,1109.2436974789916,238.33333333333337C1111.3445378151262,238.33333333333337,1113.4453781512605,238.33333333333337,1115.546218487395,238.33333333333337C1117.6470588235295,238.33333333333337,1119.7478991596638,237.50000000000003,1121.8487394957983,236.66666666666669C1123.9495798319329,235.83333333333334,1126.0504201680671,234.44444444444446,1128.1512605042017,233.33333333333334C1130.2521008403362,232.22222222222223,1132.3529411764705,230.83333333333331,1134.453781512605,229.99999999999997C1136.5546218487395,229.16666666666663,1138.6554621848738,229.44444444444443,1140.7563025210084,228.33333333333331C1142.857142857143,227.2222222222222,1144.9579831932772,224.99999999999997,1147.0588235294117,223.33333333333334C1149.1596638655462,221.66666666666666,1151.2605042016808,219.44444444444443,1153.3613445378153,218.33333333333331C1155.4621848739498,217.22222222222223,1157.563025210084,216.66666666666666,1159.6638655462186,216.66666666666666C1161.7647058823532,216.66666666666666,1163.8655462184875,216.66666666666666,1165.966386554622,216.66666666666666C1168.0672268907563,216.66666666666666,1170.1680672268908,216.66666666666666,1172.268907563025,216.66666666666666C1174.3697478991596,216.66666666666666,1176.470588235294,214.99999999999997,1178.5714285714284,214.99999999999997C1180.672268907563,214.99999999999997,1182.7731092436973,214.99999999999997,1184.8739495798318,214.99999999999997C1186.9747899159663,214.99999999999997,1189.0756302521006,214.99999999999997,1191.1764705882351,214.99999999999997C1193.2773109243697,214.99999999999997,1195.3781512605042,214.99999999999997,1197.4789915966387,214.99999999999997C1199.5798319327732,214.99999999999997,1201.6806722689075,213.8888888888889,1203.781512605042,213.33333333333337C1205.8823529411766,212.77777777777783,1207.9831932773109,211.66666666666669,1210.0840336134454,211.66666666666669C1212.18487394958,211.66666666666669,1214.2857142857142,211.66666666666669,1216.3865546218487,211.66666666666669C1218.4873949579833,211.66666666666669,1220.5882352941176,211.11111111111114,1222.689075630252,210.00000000000003C1224.7899159663866,208.8888888888889,1226.890756302521,205,1228.9915966386554,205C1231.09243697479,205,1233.1932773109243,205,1235.2941176470588,205C1237.3949579831933,205,1239.4957983193276,205,1241.5966386554621,205C1243.6974789915967,205,1245.7983193277312,205,1247.8991596638657,205C1250.0000000000002,205,1252.1008403361345,201.66666666666663,1254.201680672269,201.66666666666663C1256.3025210084036,201.66666666666663,1258.4033613445379,201.66666666666663,1260.5042016806724,201.66666666666663C1262.6050420168067,201.66666666666663,1264.7058823529412,198.33333333333337,1266.8067226890755,198.33333333333337C1268.90756302521,198.33333333333337,1271.0084033613443,198.33333333333337,1273.1092436974789,198.33333333333337C1275.2100840336134,198.33333333333337,1277.3109243697477,195,1279.4117647058822,195C1281.5126050420167,195,1283.613445378151,195,1285.7142857142856,195C1287.81512605042,195,1289.9159663865546,191.1111111111111,1292.0168067226891,189.99999999999997C1294.1176470588236,188.88888888888889,1296.218487394958,188.3333333333333,1298.3193277310925,188.3333333333333C1300.420168067227,188.3333333333333,1302.5210084033613,188.3333333333333,1304.6218487394958,188.3333333333333C1306.7226890756303,188.3333333333333,1308.8235294117646,185.00000000000003,1310.9243697478992,185.00000000000003C1313.0252100840337,185.00000000000003,1315.126050420168,185.00000000000003,1317.2268907563025,185.00000000000003C1319.327731092437,185.00000000000003,1321.4285714285713,181.66666666666666,1323.5294117647059,181.66666666666666C1325.6302521008404,181.66666666666666,1327.7310924369747,181.66666666666666,1329.8319327731092,181.66666666666666C1331.9327731092437,181.66666666666666,1334.0336134453783,177.77777777777774,1336.1344537815128,176.66666666666663C1338.2352941176473,175.55555555555554,1340.3361344537816,175.8333333333333,1342.4369747899161,174.99999999999997C1344.5378151260506,174.16666666666666,1346.638655462185,172.5,1348.7394957983195,171.66666666666669C1350.840336134454,170.83333333333337,1352.9411764705883,170,1355.0420168067228,170C1357.142857142857,170,1359.2436974789916,170,1361.344537815126,170C1363.4453781512605,170,1365.5462184873948,168.33333333333334,1367.6470588235293,168.33333333333334C1369.7478991596638,168.33333333333334,1371.848739495798,168.33333333333334,1373.9495798319326,168.33333333333334C1376.0504201680671,168.33333333333334,1378.1512605042014,168.33333333333334,1380.252100840336,168.33333333333334C1382.3529411764705,168.33333333333334,1384.453781512605,166.66666666666666,1386.5546218487395,166.66666666666666C1388.655462184874,166.66666666666666,1390.7563025210084,166.66666666666666,1392.857142857143,166.66666666666666C1394.9579831932774,166.66666666666666,1397.0588235294117,166.1111111111111,1399.1596638655462,164.99999999999997C1401.2605042016808,163.88888888888886,1403.361344537815,161.3888888888889,1405.4621848739496,160.00000000000003C1407.563025210084,158.61111111111114,1409.6638655462184,158.8888888888889,1411.764705882353,156.66666666666669C1413.8655462184875,154.44444444444446,1415.9663865546217,147.5,1418.0672268907563,143.33333333333334C1420.1680672268908,139.16666666666669,1422.268907563025,133.88888888888886,1424.3697478991596,131.66666666666669C1426.4705882352941,129.44444444444443,1428.5714285714287,130.55555555555557,1430.6722689075632,128.33333333333331C1432.7731092436977,126.11111111111114,1434.873949579832,113.0555555555556,1436.9747899159665,108.33333333333337C1439.075630252101,103.61111111111114,1441.1764705882354,102.2222222222222,1443.2773109243699,99.99999999999997C1445.3781512605044,97.77777777777774,1447.4789915966387,96.38888888888893,1449.5798319327732,95.00000000000003C1451.6806722689075,93.61111111111119,1453.781512605042,93.3333333333333,1455.8823529411764,91.66666666666667C1457.9831932773109,89.99999999999999,1460.0840336134452,84.99999999999997,1462.1848739495797,84.99999999999997C1464.2857142857142,84.99999999999997,1466.3865546218485,84.99999999999997,1468.487394957983,84.99999999999997C1470.5882352941176,84.99999999999997,1472.6890756302519,61.66666666666665,1474.7899159663864,61.66666666666665C1476.890756302521,61.66666666666665,1478.9915966386554,61.66666666666665,1481.09243697479,61.66666666666665C1483.1932773109245,61.66666666666665,1485.2941176470588,56.94444444444445,1487.3949579831933,53.33333333333334C1489.4957983193278,49.722222222222236,1491.5966386554621,43.05555555555557,1493.6974789915967,40.00000000000001C1495.7983193277312,36.94444444444444,1497.8991596638655,35.972222222222214,1500,34.99999999999998" stroke="steelblue" stroke-width="3"/></g><g class="mark-symbol role-mark" role="graphics-symbol" aria-roledescription="symbol mark container"><path transform="translate(0,750)" d="M2.23606797749979,0A2.23606797749979,2.23606797749979,0,1,1,-2.23606797749979,0A2.23606797749979,2.23606797749979,0,1,1,2.23606797749979,0" fill="white" stroke="steelblue" stroke-width="1.5"/><path transform="translate(18.907563025210084,750)" d="M2.23606797749979,0A2.23606797749979,2.23606797749979,0,1,1,-2.23606797749979,0A2.23606797749979,2.23606797749979,0,1,1,2.23606797749979,0" fill="white" stroke="steelblue" stroke-width="1.5"/><path transform="translate(37.81512605042017,750)" d="M2.23606797749979,0A2.23606797749979,2.23606797749979,0,1,1,-2.23606797749979,0A2.23606797749979,2.23606797749979,0,1,1,2.23606797749979,0" fill="white" stroke="steelblue" stroke-width="1.5"/><path transform="translate(56.72268907563025,750)" d="M2.23606797749979,0A2.23606797749979,2.23606797749979,0,1,1,-2.23606797749979,0A2.23606797749979,2.23606797749979,0,1,1,2.23606797749979,0" fill="white" stroke="steelblue" stroke-width="1.5"/><path transform="translate(75.63025210084034,750)" d="M2.23606797749979,0A2.23606797749979,2.23606797749979,0,1,1,-2.23606797749979,0A2.23606797749979,2.23606797749979,0,1,1,2.23606797749979,0" fill="white" stroke="steelblue" stroke-width="1.5"/><path transform="translate(94.53781512605042,750)" d="M2.23606797749979,0A2.23606797749979,2.23606797749979,0,1,1,-2.23606797749979,0A2.23606797749979,2.23606797749979,0,1,1,2.23606797749979,0" fill="white" stroke="steelblue" stroke-width="1.5"/><path transform="translate(113.4453781512605,750)" d="M2.23606797749979,0A2.23606797749979,2.23606797749979,0,1,1,-2.23606797749979,0A2.23606797749979,2.23606797749979,0,1,1,2.23606797749979,0" fill="white" stroke="steelblue" stroke-width="1.5"/><path transform="translate(132.3529411764706,750)" d="M2.23606797749979,0A2.23606797749979,2.23606797749979,0,1,1,-2.23606797749979,0A2.23606797749979,2.23606797749979,0,1,1,2.23606797749979,0" fill="white" stroke="steelblue" stroke-width="1.5"/><path transform="translate(151.26050420168067,750)" d="M2.23606797749979,0A2.23606797749979,2.23606797749979,0,1,1,-2.23606797749979,0A2.23606797749979,2.23606797749979,0,1,1,2.23606797749979,0" fill="white" stroke="steelblue" stroke-width="1.5"/><path transform="translate(170.16806722689074,741.6666666666667)" d="M2.23606797749979,0A2.23606797749979,2.23606797749979,0,1,1,-2.23606797749979,0A2.23606797749979,2.23606797749979,0,1,1,2.23606797749979,0" fill="white" stroke="steelblue" stroke-width="1.5"/><path transform="translate(189.07563025210084,720)" d="M2.23606797749979,0A2.23606797749979,2.23606797749979,0,1,1,-2.23606797749979,0A2.23606797749979,2.23606797749979,0,1,1,2.23606797749979,0" fill="white" stroke="steelblue" stroke-width="1.5"/><path transform="translate(207.98319327731093,671.6666666666666)" d="M2.23606797749979,0A2.23606797749979,2.23606797749979,0,1,1,-2.23606797749979,0A2.23606797749979,2.23606797749979,0,1,1,2.23606797749979,0" fill="white" stroke="steelblue" stroke-width="1.5"/><path transform="translate(226.890756302521,641.6666666666667)" d="M2.23606797749979,0A2.23606797749979,2.23606797749979,0,1,1,-2.23606797749979,0A2.23606797749979,2.23606797749979,0,1,1,2.23606797749979,0" fill="white" stroke="steelblue" stroke-width="1.5"/><path transform="translate(245.7983193277311,621.6666666666666)" d="M2.23606797749979,0A2.23606797749979,2.23606797749979,0,1,1,-2.23606797749979,0A2.23606797749979,2.23606797749979,0,1,1,2.23606797749979,0" fill="white" stroke="steelblue" stroke-width="1.5"/><path transform="translate(264.7058823529412,600)" d="M2.23606797749979,0A2.23606797749979,2.23606797749979,0,1,1,-2.23606797749979,0A2.23606797749979,2.23606797749979,0,1,1,2.23606797749979,0" fill="white" stroke="steelblue" stroke-width="1.5"/><path transform="translate(283.61344537815125,555)" d="M2.23606797749979,0A2.23606797749979,2.23606797749979,0,1,1,-2.23606797749979,0A2.23606797749979,2.23606797749979,0,1,1,2.23606797749979,0" fill="white" stroke="steelblue" stroke-width="1.5"/><path transform="translate(302.52100840336135,490)" d="M2.23606797749979,0A2.23606797749979,2.23606797749979,0,1,1,-2.23606797749979,0A2.23606797749979,2.23606797749979,0,1,1,2.23606797749979,0" fill="white" stroke="steelblue" stroke-width="1.5"/><path transform="translate(321.4285714285714,433.3333333333333)" d="M2.23606797749979,0A2.23606797749979,2.23606797749979,0,1,1,-2.23606797749979,0A2.23606797749979,2.23606797749979,0,1,1,2.23606797749979,0" fill="white" stroke="steelblue" stroke-width="1.5"/><path transform="translate(340.3361344537815,423.33333333333337)" d="M2.23606797749979,0A2.23606797749979,2.23606797749979,0,1,1,-2.23606797749979,0A2.23606797749979,2.23606797749979,0,1,1,2.23606797749979,0" fill="white" stroke="steelblue" stroke-width="1.5"/><path transform="translate(359.24369747899163,396.66666666666674)" d="M2.23606797749979,0A2.23606797749979,2.23606797749979,0,1,1,-2.23606797749979,0A2.23606797749979,2.23606797749979,0,1,1,2.23606797749979,0" fill="white" stroke="steelblue" stroke-width="1.5"/><path transform="translate(378.1512605042017,371.66666666666663)" d="M2.23606797749979,0A2.23606797749979,2.23606797749979,0,1,1,-2.23606797749979,0A2.23606797749979,2.23606797749979,0,1,1,2.23606797749979,0" fill="white" stroke="steelblue" stroke-width="1.5"/><path transform="translate(397.05882352941177,353.33333333333337)" d="M2.23606797749979,0A2.23606797749979,2.23606797749979,0,1,1,-2.23606797749979,0A2.23606797749979,2.23606797749979,0,1,1,2.23606797749979,0" fill="white" stroke="steelblue" stroke-width="1.5"/><path transform="translate(415.96638655462186,329.99999999999994)" d="M2.23606797749979,0A2.23606797749979,2.23606797749979,0,1,1,-2.23606797749979,0A2.23606797749979,2.23606797749979,0,1,1,2.23606797749979,0" fill="white" stroke="steelblue" stroke-width="1.5"/><path transform="translate(434.87394957983196,321.66666666666663)" d="M2.23606797749979,0A2.23606797749979,2.23606797749979,0,1,1,-2.23606797749979,0A2.23606797749979,2.23606797749979,0,1,1,2.23606797749979,0" fill="white" stroke="steelblue" stroke-width="1.5"/><path transform="translate(453.781512605042,301.6666666666667)" d="M2.23606797749979,0A2.23606797749979,2.23606797749979,0,1,1,-2.23606797749979,0A2.23606797749979,2.23606797749979,0,1,1,2.23606797749979,0" fill="white" stroke="steelblue" stroke-width="1.5"/><path transform="translate(472.6890756302521,295)" d="M2.23606797749979,0A2.23606797749979,2.23606797749979,0,1,1,-2.23606797749979,0A2.23606797749979,2.23606797749979,0,1,1,2.23606797749979,0" fill="white" stroke="steelblue" stroke-width="1.5"/><path transform="translate(491.5966386554622,288.33333333333337)" d="M2.23606797749979,0A2.23606797749979,2.23606797749979,0,1,1,-2.23606797749979,0A2.23606797749979,2.23606797749979,0,1,1,2.23606797749979,0" fill="white" stroke="steelblue" stroke-width="1.5"/><path transform="translate(510.5042016806723,285)" d="M2.23606797749979,0A2.23606797749979,2.23606797749979,0,1,1,-2.23606797749979,0A2.23606797749979,2.23606797749979,0,1,1,2.23606797749979,0" fill="white" stroke="steelblue" stroke-width="1.5"/><path transform="translate(529.4117647058824,281.66666666666663)" d="M2.23606797749979,0A2.23606797749979,2.23606797749979,0,1,1,-2.23606797749979,0A2.23606797749979,2.23606797749979,0,1,1,2.23606797749979,0" fill="white" stroke="steelblue" stroke-width="1.5"/><path transform="translate(548.3193277310924,281.66666666666663)" d="M2.23606797749979,0A2.23606797749979,2.23606797749979,0,1,1,-2.23606797749979,0A2.23606797749979,2.23606797749979,0,1,1,2.23606797749979,0" fill="white" stroke="steelblue" stroke-width="1.5"/><path transform="translate(567.2268907563025,281.66666666666663)" d="M2.23606797749979,0A2.23606797749979,2.23606797749979,0,1,1,-2.23606797749979,0A2.23606797749979,2.23606797749979,0,1,1,2.23606797749979,0" fill="white" stroke="steelblue" stroke-width="1.5"/><path transform="translate(586.1344537815125,279.99999999999994)" d="M2.23606797749979,0A2.23606797749979,2.23606797749979,0,1,1,-2.23606797749979,0A2.23606797749979,2.23606797749979,0,1,1,2.23606797749979,0" fill="white" stroke="steelblue" stroke-width="1.5"/><path transform="translate(605.0420168067227,279.99999999999994)" d="M2.23606797749979,0A2.23606797749979,2.23606797749979,0,1,1,-2.23606797749979,0A2.23606797749979,2.23606797749979,0,1,1,2.23606797749979,0" fill="white" stroke="steelblue" stroke-width="1.5"/><path transform="translate(623.9495798319329,279.99999999999994)" d="M2.23606797749979,0A2.23606797749979,2.23606797749979,0,1,1,-2.23606797749979,0A2.23606797749979,2.23606797749979,0,1,1,2.23606797749979,0" fill="white" stroke="steelblue" stroke-width="1.5"/><path transform="translate(642.8571428571428,279.99999999999994)" d="M2.23606797749979,0A2.23606797749979,2.23606797749979,0,1,1,-2.23606797749979,0A2.23606797749979,2.23606797749979,0,1,1,2.23606797749979,0" fill="white" stroke="steelblue" stroke-width="1.5"/><path transform="translate(661.7647058823529,278.3333333333333)" d="M2.23606797749979,0A2.23606797749979,2.23606797749979,0,1,1,-2.23606797749979,0A2.23606797749979,2.23606797749979,0,1,1,2.23606797749979,0" fill="white" stroke="steelblue" stroke-width="1.5"/><path transform="translate(680.672268907563,276.6666666666667)" d="M2.23606797749979,0A2.23606797749979,2.23606797749979,0,1,1,-2.23606797749979,0A2.23606797749979,2.23606797749979,0,1,1,2.23606797749979,0" fill="white" stroke="steelblue" stroke-width="1.5"/><path transform="translate(699.5798319327731,276.6666666666667)" d="M2.23606797749979,0A2.23606797749979,2.23606797749979,0,1,1,-2.23606797749979,0A2.23606797749979,2.23606797749979,0,1,1,2.23606797749979,0" fill="white" stroke="steelblue" stroke-width="1.5"/><path transform="translate(718.4873949579833,276.6666666666667)" d="M2.23606797749979,0A2.23606797749979,2.23606797749979,0,1,1,-2.23606797749979,0A2.23606797749979,2.23606797749979,0,1,1,2.23606797749979,0" fill="white" stroke="steelblue" stroke-width="1.5"/><path transform="translate(737.3949579831932,276.6666666666667)" d="M2.23606797749979,0A2.23606797749979,2.23606797749979,0,1,1,-2.23606797749979,0A2.23606797749979,2.23606797749979,0,1,1,2.23606797749979,0" fill="white" stroke="steelblue" stroke-width="1.5"/><path transform="translate(756.3025210084033,276.6666666666667)" d="M2.23606797749979,0A2.23606797749979,2.23606797749979,0,1,1,-2.23606797749979,0A2.23606797749979,2.23606797749979,0,1,1,2.23606797749979,0" fill="white" stroke="steelblue" stroke-width="1.5"/><path transform="translate(775.2100840336135,276.6666666666667)" d="M2.23606797749979,0A2.23606797749979,2.23606797749979,0,1,1,-2.23606797749979,0A2.23606797749979,2.23606797749979,0,1,1,2.23606797749979,0" fill="white" stroke="steelblue" stroke-width="1.5"/><path transform="translate(794.1176470588235,276.6666666666667)" d="M2.23606797749979,0A2.23606797749979,2.23606797749979,0,1,1,-2.23606797749979,0A2.23606797749979,2.23606797749979,0,1,1,2.23606797749979,0" fill="white" stroke="steelblue" stroke-width="1.5"/><path transform="translate(813.0252100840336,276.6666666666667)" d="M2.23606797749979,0A2.23606797749979,2.23606797749979,0,1,1,-2.23606797749979,0A2.23606797749979,2.23606797749979,0,1,1,2.23606797749979,0" fill="white" stroke="steelblue" stroke-width="1.5"/><path transform="translate(831.9327731092437,276.6666666666667)" d="M2.23606797749979,0A2.23606797749979,2.23606797749979,0,1,1,-2.23606797749979,0A2.23606797749979,2.23606797749979,0,1,1,2.23606797749979,0" fill="white" stroke="steelblue" stroke-width="1.5"/><path transform="translate(850.8403361344538,276.6666666666667)" d="M2.23606797749979,0A2.23606797749979,2.23606797749979,0,1,1,-2.23606797749979,0A2.23606797749979,2.23606797749979,0,1,1,2.23606797749979,0" fill="white" stroke="steelblue" stroke-width="1.5"/><path transform="translate(869.7478991596639,276.6666666666667)" d="M2.23606797749979,0A2.23606797749979,2.23606797749979,0,1,1,-2.23606797749979,0A2.23606797749979,2.23606797749979,0,1,1,2.23606797749979,0" fill="white" stroke="steelblue" stroke-width="1.5"/><path transform="translate(888.655462184874,275)" d="M2.23606797749979,0A2.23606797749979,2.23606797749979,0,1,1,-2.23606797749979,0A2.23606797749979,2.23606797749979,0,1,1,2.23606797749979,0" fill="white" stroke="steelblue" stroke-width="1.5"/><path transform="translate(907.563025210084,273.33333333333337)" d="M2.23606797749979,0A2.23606797749979,2.23606797749979,0,1,1,-2.23606797749979,0A2.23606797749979,2.23606797749979,0,1,1,2.23606797749979,0" fill="white" stroke="steelblue" stroke-width="1.5"/><path transform="translate(926.4705882352941,266.66666666666663)" d="M2.23606797749979,0A2.23606797749979,2.23606797749979,0,1,1,-2.23606797749979,0A2.23606797749979,2.23606797749979,0,1,1,2.23606797749979,0" fill="white" stroke="steelblue" stroke-width="1.5"/><path transform="translate(945.3781512605042,266.66666666666663)" d="M2.23606797749979,0A2.23606797749979,2.23606797749979,0,1,1,-2.23606797749979,0A2.23606797749979,2.23606797749979,0,1,1,2.23606797749979,0" fill="white" stroke="steelblue" stroke-width="1.5"/><path transform="translate(964.2857142857143,265.00000000000006)" d="M2.23606797749979,0A2.23606797749979,2.23606797749979,0,1,1,-2.23606797749979,0A2.23606797749979,2.23606797749979,0,1,1,2.23606797749979,0" fill="white" stroke="steelblue" stroke-width="1.5"/><path transform="translate(983.1932773109244,260)" d="M2.23606797749979,0A2.23606797749979,2.23606797749979,0,1,1,-2.23606797749979,0A2.23606797749979,2.23606797749979,0,1,1,2.23606797749979,0" fill="white" stroke="steelblue" stroke-width="1.5"/><path transform="translate(1002.1008403361344,254.99999999999997)" d="M2.23606797749979,0A2.23606797749979,2.23606797749979,0,1,1,-2.23606797749979,0A2.23606797749979,2.23606797749979,0,1,1,2.23606797749979,0" fill="white" stroke="steelblue" stroke-width="1.5"/><path transform="translate(1021.0084033613446,250.00000000000003)" d="M2.23606797749979,0A2.23606797749979,2.23606797749979,0,1,1,-2.23606797749979,0A2.23606797749979,2.23606797749979,0,1,1,2.23606797749979,0" fill="white" stroke="steelblue" stroke-width="1.5"/><path transform="translate(1039.9159663865546,241.66666666666663)" d="M2.23606797749979,0A2.23606797749979,2.23606797749979,0,1,1,-2.23606797749979,0A2.23606797749979,2.23606797749979,0,1,1,2.23606797749979,0" fill="white" stroke="steelblue" stroke-width="1.5"/><path transform="translate(1058.8235294117649,241.66666666666663)" d="M2.23606797749979,0A2.23606797749979,2.23606797749979,0,1,1,-2.23606797749979,0A2.23606797749979,2.23606797749979,0,1,1,2.23606797749979,0" fill="white" stroke="steelblue" stroke-width="1.5"/><path transform="translate(1077.731092436975,241.66666666666663)" d="M2.23606797749979,0A2.23606797749979,2.23606797749979,0,1,1,-2.23606797749979,0A2.23606797749979,2.23606797749979,0,1,1,2.23606797749979,0" fill="white" stroke="steelblue" stroke-width="1.5"/><path transform="translate(1096.6386554621847,241.66666666666663)" d="M2.23606797749979,0A2.23606797749979,2.23606797749979,0,1,1,-2.23606797749979,0A2.23606797749979,2.23606797749979,0,1,1,2.23606797749979,0" fill="white" stroke="steelblue" stroke-width="1.5"/><path transform="translate(1115.546218487395,238.33333333333337)" d="M2.23606797749979,0A2.23606797749979,2.23606797749979,0,1,1,-2.23606797749979,0A2.23606797749979,2.23606797749979,0,1,1,2.23606797749979,0" fill="white" stroke="steelblue" stroke-width="1.5"/><path transform="translate(1134.453781512605,229.99999999999997)" d="M2.23606797749979,0A2.23606797749979,2.23606797749979,0,1,1,-2.23606797749979,0A2.23606797749979,2.23606797749979,0,1,1,2.23606797749979,0" fill="white" stroke="steelblue" stroke-width="1.5"/><path transform="translate(1153.3613445378153,218.33333333333331)" d="M2.23606797749979,0A2.23606797749979,2.23606797749979,0,1,1,-2.23606797749979,0A2.23606797749979,2.23606797749979,0,1,1,2.23606797749979,0" fill="white" stroke="steelblue" stroke-width="1.5"/><path transform="translate(1172.268907563025,216.66666666666666)" d="M2.23606797749979,0A2.23606797749979,2.23606797749979,0,1,1,-2.23606797749979,0A2.23606797749979,2.23606797749979,0,1,1,2.23606797749979,0" fill="white" stroke="steelblue" stroke-width="1.5"/><path transform="translate(1191.1764705882351,214.99999999999997)" d="M2.23606797749979,0A2.23606797749979,2.23606797749979,0,1,1,-2.23606797749979,0A2.23606797749979,2.23606797749979,0,1,1,2.23606797749979,0" fill="white" stroke="steelblue" stroke-width="1.5"/><path transform="translate(1210.0840336134454,211.66666666666669)" d="M2.23606797749979,0A2.23606797749979,2.23606797749979,0,1,1,-2.23606797749979,0A2.23606797749979,2.23606797749979,0,1,1,2.23606797749979,0" fill="white" stroke="steelblue" stroke-width="1.5"/><path transform="translate(1228.9915966386554,205)" d="M2.23606797749979,0A2.23606797749979,2.23606797749979,0,1,1,-2.23606797749979,0A2.23606797749979,2.23606797749979,0,1,1,2.23606797749979,0" fill="white" stroke="steelblue" stroke-width="1.5"/><path transform="translate(1247.8991596638657,205)" d="M2.23606797749979,0A2.23606797749979,2.23606797749979,0,1,1,-2.23606797749979,0A2.23606797749979,2.23606797749979,0,1,1,2.23606797749979,0" fill="white" stroke="steelblue" stroke-width="1.5"/><path transform="translate(1266.8067226890755,198.33333333333337)" d="M2.23606797749979,0A2.23606797749979,2.23606797749979,0,1,1,-2.23606797749979,0A2.23606797749979,2.23606797749979,0,1,1,2.23606797749979,0" fill="white" stroke="steelblue" stroke-width="1.5"/><path transform="translate(1285.7142857142856,195)" d="M2.23606797749979,0A2.23606797749979,2.23606797749979,0,1,1,-2.23606797749979,0A2.23606797749979,2.23606797749979,0,1,1,2.23606797749979,0" fill="white" stroke="steelblue" stroke-width="1.5"/><path transform="translate(1304.6218487394958,188.3333333333333)" d="M2.23606797749979,0A2.23606797749979,2.23606797749979,0,1,1,-2.23606797749979,0A2.23606797749979,2.23606797749979,0,1,1,2.23606797749979,0" fill="white" stroke="steelblue" stroke-width="1.5"/><path transform="translate(1323.5294117647059,181.66666666666666)" d="M2.23606797749979,0A2.23606797749979,2.23606797749979,0,1,1,-2.23606797749979,0A2.23606797749979,2.23606797749979,0,1,1,2.23606797749979,0" fill="white" stroke="steelblue" stroke-width="1.5"/><path transform="translate(1342.4369747899161,174.99999999999997)" d="M2.23606797749979,0A2.23606797749979,2.23606797749979,0,1,1,-2.23606797749979,0A2.23606797749979,2.23606797749979,0,1,1,2.23606797749979,0" fill="white" stroke="steelblue" stroke-width="1.5"/><path transform="translate(1361.344537815126,170)" d="M2.23606797749979,0A2.23606797749979,2.23606797749979,0,1,1,-2.23606797749979,0A2.23606797749979,2.23606797749979,0,1,1,2.23606797749979,0" fill="white" stroke="steelblue" stroke-width="1.5"/><path transform="translate(1380.252100840336,168.33333333333334)" d="M2.23606797749979,0A2.23606797749979,2.23606797749979,0,1,1,-2.23606797749979,0A2.23606797749979,2.23606797749979,0,1,1,2.23606797749979,0" fill="white" stroke="steelblue" stroke-width="1.5"/><path transform="translate(1399.1596638655462,164.99999999999997)" d="M2.23606797749979,0A2.23606797749979,2.23606797749979,0,1,1,-2.23606797749979,0A2.23606797749979,2.23606797749979,0,1,1,2.23606797749979,0" fill="white" stroke="steelblue" stroke-width="1.5"/><path transform="translate(1418.0672268907563,143.33333333333334)" d="M2.23606797749979,0A2.23606797749979,2.23606797749979,0,1,1,-2.23606797749979,0A2.23606797749979,2.23606797749979,0,1,1,2.23606797749979,0" fill="white" stroke="steelblue" stroke-width="1.5"/><path transform="translate(1436.9747899159665,108.33333333333337)" d="M2.23606797749979,0A2.23606797749979,2.23606797749979,0,1,1,-2.23606797749979,0A2.23606797749979,2.23606797749979,0,1,1,2.23606797749979,0" fill="white" stroke="steelblue" stroke-width="1.5"/><path transform="translate(1455.8823529411764,91.66666666666667)" d="M2.23606797749979,0A2.23606797749979,2.23606797749979,0,1,1,-2.23606797749979,0A2.23606797749979,2.23606797749979,0,1,1,2.23606797749979,0" fill="white" stroke="steelblue" stroke-width="1.5"/><path transform="translate(1474.7899159663864,61.66666666666665)" d="M2.23606797749979,0A2.23606797749979,2.23606797749979,0,1,1,-2.23606797749979,0A2.23606797749979,2.23606797749979,0,1,1,2.23606797749979,0" fill="white" stroke="steelblue" stroke-width="1.5"/><path transform="translate(1493.6974789915967,40.00000000000001)" d="M2.23606797749979,0A2.23606797749979,2.23606797749979,0,1,1,-2.23606797749979,0A2.23606797749979,2.23606797749979,0,1,1,2.23606797749979,0" fill="white" stroke="steelblue" stroke-width="1.5"/></g><g class="mark-group role-title"><g transform="translate(717.4738907485746,-35)"><path class="background" aria-hidden="true" d="M0,0h0v0h0Z" pointer-events="none"/><g><g class="mark-text role-title-text" role="graphics-symbol" aria-roledescription="title" aria-label="Title text 'Recovered COVID-19 patients in 'Bezirk Amstetten' (absolute)'" pointer-events="none"><text text-anchor="middle" transform="translate(0,19)" font-family="sans-serif" font-size="24px" font-weight="bold" fill="#000" opacity="1">Recovered COVID-19 patients in 'Bezirk Amstetten' (absolute)</text></g></g><path class="foreground" aria-hidden="true" d="" pointer-events="none" display="none"/></g></g></g><path class="foreground" aria-hidden="true" d="" display="none"/></g></g></g></svg>