<svg xmlns="http://www.w3.org/2000/svg" xmlns:xlink="http://www.w3.org/1999/xlink" version="1.1" class="marks" width="1582" height="900" viewBox="0 0 1582 900"><g fill="none" stroke-miterlimit="10" transform="translate(74,40)"><g class="mark-group role-frame root" role="graphics-object" aria-roledescription="group mark container"><g transform="translate(0,0)"><path class="background" aria-hidden="true" d="M0,0h1500v750h-1500Z"/><g><g class="mark-group role-axis" role="graphics-symbol" aria-roledescription="axis" aria-label="Y-axis titled '7-day-incidence' for a linear scale with values from 0 to 100"><g transform="translate(0.5,0.5)"><path class="background" aria-hidden="true" d="M0,0h0v0h0Z" pointer-events="none"/><g><g class="mark-rule role-axis-grid" pointer-events="none"><line transform="translate(0,750)" x2="1500" y2="0" stroke="#ddd" stroke-width="1" opacity="1"/><line transform="translate(0,675)" x2="1500" y2="0" stroke="#ddd" stroke-width="1" opacity="1"/><line transform="translate(0,600)" x2="1500" y2="0" stroke="#ddd" stroke-width="1" opacity="1"/><line transform="translate(0,525)" x2="1500" y2="0" stroke="#ddd" stroke-width="1" opacity="1"/><line transform="translate(0,450)" x2="1500" y2="0" stroke="#ddd" stroke-width="1" opacity="1"/><line transform="translate(0,375)" x2="1500" y2="0" stroke="#ddd" stroke-width="1" opacity="1"/><line transform="translate(0,300)" x2="1500" y2="0" stroke="#ddd" stroke-width="1" opacity="1"/><line transform="translate(0,225)" x2="1500" y2="0" stroke="#ddd" stroke-width="1" opacity="1"/><line transform="translate(0,150)" x2="1500" y2="0" stroke="#ddd" stroke-width="1" opacity="1"/><line transform="translate(0,75)" x2="1500" y2="0" stroke="#ddd" stroke-width="1" opacity="1"/><line transform="translate(0,0)" x2="1500" y2="0" stroke="#ddd" stroke-width="1" opacity="1"/></g><g class="mark-rule role-axis-tick" pointer-events="none"><line transform="translate(0,750)" x2="-5" y2="0" stroke="#888" stroke-width="1" opacity="1"/><line transform="translate(0,675)" x2="-5" y2="0" stroke="#888" stroke-width="1" opacity="1"/><line transform="translate(0,600)" x2="-5" y2="0" stroke="#888" stroke-width="1" opacity="1"/><line transform="translate(0,525)" x2="-5" y2="0" stroke="#888" stroke-width="1" opacity="1"/><line transform="translate(0,450)" x2="-5" y2="0" stroke="#888" stroke-width="1" opacity="1"/><line transform="translate(0,375)" x2="-5" y2="0" stroke="#888" stroke-width="1" opacity="1"/><line transform="translate(0,300)" x2="-5" y2="0" stroke="#888" stroke-width="1" opacity="1"/><line transform="translate(0,225)" x2="-5" y2="0" stroke="#888" stroke-width="1" opacity="1"/><line transform="translate(0,150)" x2="-5" y2="0" stroke="#888" stroke-width="1" opacity="1"/><line transform="translate(0,75)" x2="-5" y2="0" stroke="#888" stroke-width="1" opacity="1"/><line transform="translate(0,0)" x2="-5" y2="0" stroke="#888" stroke-width="1" opacity="1"/></g><g class="mark-text role-axis-label" pointer-events="none"><text text-anchor="end" transform="translate(-7,754)" font-family="sans-serif" font-size="14px" fill="#000" opacity="1">0</text><text text-anchor="end" transform="translate(-7,679)" font-family="sans-serif" font-size="14px" fill="#000" opacity="1">10</text><text text-anchor="end" transform="translate(-7,604)" font-family="sans-serif" font-size="14px" fill="#000" opacity="1">20</text><text text-anchor="end" transform="translate(-7,529)" font-family="sans-serif" font-size="14px" fill="#000" opacity="1">30</text><text text-anchor="end" transform="translate(-7,454)" font-family="sans-serif" font-size="14px" fill="#000" opacity="1">40</text><text text-anchor="end" transform="translate(-7,379)" font-family="sans-serif" font-size="14px" fill="#000" opacity="1">50</text><text text-anchor="end" transform="translate(-7,304)" font-family="sans-serif" font-size="14px" fill="#000" opacity="1">60</text><text text-anchor="end" transform="translate(-7,229.00000000000003)" font-family="sans-serif" font-size="14px" fill="#000" opacity="1">70</text><text text-anchor="end" transform="translate(-7,153.99999999999997)" font-family="sans-serif" font-size="14px" fill="#000" opacity="1">80</text><text text-anchor="end" transform="translate(-7,78.99999999999999)" font-family="sans-serif" font-size="14px" fill="#000" opacity="1">90</text><text text-anchor="end" transform="translate(-7,4)" font-family="sans-serif" font-size="14px" fill="#000" opacity="1">100</text></g><g class="mark-rule role-axis-domain" pointer-events="none"><line transform="translate(0,750)" x2="0" y2="-750" stroke="#888" stroke-width="1" opacity="1"/></g><g class="mark-text role-axis-title" pointer-events="none"><text text-anchor="middle" transform="translate(-50,375) rotate(-90) translate(0,-4)" font-family="sans-serif" font-size="18px" font-weight="bold" fill="#000" opacity="1">7-day-incidence</text></g></g><path class="foreground" aria-hidden="true" d="" pointer-events="none" display="none"/></g></g><g class="mark-group role-axis" role="graphics-symbol" aria-roledescription="axis" aria-label="X-axis titled 'Date' for a linear scale with values from 2020-02-26 to 2020-10-21"><g transform="translate(0.5,750.5)"><path class="background" aria-hidden="true" d="M0,0h0v0h0Z" pointer-events="none"/><g><g class="mark-rule role-axis-tick" pointer-events="none"><line transform="translate(24,0)" x2="0" y2="5" stroke="#888" stroke-width="1" opacity="1"/><line transform="translate(97,0)" x2="0" y2="5" stroke="#888" stroke-width="1" opacity="1"/><line transform="translate(170,0)" x2="0" y2="5" stroke="#888" stroke-width="1" opacity="1"/><line transform="translate(243,0)" x2="0" y2="5" stroke="#888" stroke-width="1" opacity="1"/><line transform="translate(315,0)" x2="0" y2="5" stroke="#888" stroke-width="1" opacity="1"/><line transform="translate(388,0)" x2="0" y2="5" stroke="#888" stroke-width="1" opacity="1"/><line transform="translate(461,0)" x2="0" y2="5" stroke="#888" stroke-width="1" opacity="1"/><line transform="translate(534,0)" x2="0" y2="5" stroke="#888" stroke-width="1" opacity="1"/><line transform="translate(607,0)" x2="0" y2="5" stroke="#888" stroke-width="1" opacity="1"/><line transform="translate(680,0)" x2="0" y2="5" stroke="#888" stroke-width="1" opacity="1"/><line transform="translate(753,0)" x2="0" y2="5" stroke="#888" stroke-width="1" opacity="1"/><line transform="translate(826,0)" x2="0" y2="5" stroke="#888" stroke-width="1" opacity="1"/><line transform="translate(899,0)" x2="0" y2="5" stroke="#888" stroke-width="1" opacity="1"/><line transform="translate(972,0)" x2="0" y2="5" stroke="#888" stroke-width="1" opacity="1"/><line transform="translate(1045,0)" x2="0" y2="5" stroke="#888" stroke-width="1" opacity="1"/><line transform="translate(1118,0)" x2="0" y2="5" stroke="#888" stroke-width="1" opacity="1"/><line transform="translate(1191,0)" x2="0" y2="5" stroke="#888" stroke-width="1" opacity="1"/><line transform="translate(1264,0)" x2="0" y2="5" stroke="#888" stroke-width="1" opacity="1"/><line transform="translate(1337,0)" x2="0" y2="5" stroke="#888" stroke-width="1" opacity="1"/><line transform="translate(1410,0)" x2="0" y2="5" stroke="#888" stroke-width="1" opacity="1"/><line transform="translate(1483,0)" x2="0" y2="5" stroke="#888" stroke-width="1" opacity="1"/></g><g class="mark-text role-axis-label" pointer-events="none"><text text-anchor="end" transform="translate(23.69281045751634,7) rotate(-35) translate(0,11)" font-family="sans-serif" font-size="14px" fill="#000" opacity="1">2020-02-29</text><text text-anchor="end" transform="translate(96.63865546218486,7) rotate(-35) translate(0,11)" font-family="sans-serif" font-size="14px" fill="#000" opacity="1">2020-03-12</text><text text-anchor="end" transform="translate(169.5845004668534,7) rotate(-35) translate(0,11)" font-family="sans-serif" font-size="14px" fill="#000" opacity="1">2020-03-23</text><text text-anchor="end" transform="translate(242.53034547152194,7) rotate(-35) translate(0,11)" font-family="sans-serif" font-size="14px" fill="#000" opacity="1">2020-04-04</text><text text-anchor="end" transform="translate(315.4761904761905,7) rotate(-35) translate(0,11)" font-family="sans-serif" font-size="14px" fill="#000" opacity="1">2020-04-16</text><text text-anchor="end" transform="translate(388.422035480859,7) rotate(-35) translate(0,11)" font-family="sans-serif" font-size="14px" fill="#000" opacity="1">2020-04-27</text><text text-anchor="end" transform="translate(461.3678804855275,7) rotate(-35) translate(0,11)" font-family="sans-serif" font-size="14px" fill="#000" opacity="1">2020-05-09</text><text text-anchor="end" transform="translate(534.3137254901961,7) rotate(-35) translate(0,11)" font-family="sans-serif" font-size="14px" fill="#000" opacity="1">2020-05-20</text><text text-anchor="end" transform="translate(607.2595704948646,7) rotate(-35) translate(0,11)" font-family="sans-serif" font-size="14px" fill="#000" opacity="1">2020-06-01</text><text text-anchor="end" transform="translate(680.2054154995332,7) rotate(-35) translate(0,11)" font-family="sans-serif" font-size="14px" fill="#000" opacity="1">2020-06-12</text><text text-anchor="end" transform="translate(753.1512605042017,7) rotate(-35) translate(0,11)" font-family="sans-serif" font-size="14px" fill="#000" opacity="1">2020-06-24</text><text text-anchor="end" transform="translate(826.0971055088702,7) rotate(-35) translate(0,11)" font-family="sans-serif" font-size="14px" fill="#000" opacity="1">2020-07-06</text><text text-anchor="end" transform="translate(899.0429505135388,7) rotate(-35) translate(0,11)" font-family="sans-serif" font-size="14px" fill="#000" opacity="1">2020-07-17</text><text text-anchor="end" transform="translate(971.9887955182073,7) rotate(-35) translate(0,11)" font-family="sans-serif" font-size="14px" fill="#000" opacity="1">2020-07-29</text><text text-anchor="end" transform="translate(1044.9346405228757,7) rotate(-35) translate(0,11)" font-family="sans-serif" font-size="14px" fill="#000" opacity="1">2020-08-09</text><text text-anchor="end" transform="translate(1117.8804855275444,7) rotate(-35) translate(0,11)" font-family="sans-serif" font-size="14px" fill="#000" opacity="1">2020-08-21</text><text text-anchor="end" transform="translate(1190.8263305322128,7) rotate(-35) translate(0,11)" font-family="sans-serif" font-size="14px" fill="#000" opacity="1">2020-09-01</text><text text-anchor="end" transform="translate(1263.7721755368814,7) rotate(-35) translate(0,11)" font-family="sans-serif" font-size="14px" fill="#000" opacity="1">2020-09-13</text><text text-anchor="end" transform="translate(1336.71802054155,7) rotate(-35) translate(0,11)" font-family="sans-serif" font-size="14px" fill="#000" opacity="1">2020-09-25</text><text text-anchor="end" transform="translate(1409.6638655462184,7) rotate(-35) translate(0,11)" font-family="sans-serif" font-size="14px" fill="#000" opacity="1">2020-10-06</text><text text-anchor="end" transform="translate(1482.609710550887,7) rotate(-35) translate(0,11)" font-family="sans-serif" font-size="14px" fill="#000" opacity="1">2020-10-18</text></g><g class="mark-rule role-axis-domain" pointer-events="none"><line transform="translate(0,0)" x2="1500" y2="0" stroke="#888" stroke-width="1" opacity="1"/></g><g class="mark-text role-axis-title" pointer-events="none"><text text-anchor="middle" transform="translate(750,100.70868949136309)" font-family="sans-serif" font-size="18px" font-weight="bold" fill="#000" opacity="1">Date</text></g></g><path class="foreground" aria-hidden="true" d="" pointer-events="none" display="none"/></g></g><g class="mark-line role-mark" role="graphics-symbol" aria-roledescription="line mark container"><path d="M0,750C2.100840336134454,750,4.201680672268907,750,6.302521008403361,750C8.403361344537815,750,10.504201680672269,750,12.605042016806722,750C14.705882352941176,750,16.80672268907563,750,18.907563025210084,750C21.008403361344538,750,23.10924369747899,750,25.210084033613445,750C27.310924369747898,750,29.411764705882355,750,31.51260504201681,750C33.61344537815126,750,35.714285714285715,750,37.81512605042017,750C39.91596638655462,750,42.016806722689076,750,44.11764705882353,750C46.21848739495798,750,48.319327731092436,750,50.42016806722689,750C52.52100840336134,750,54.621848739495796,750,56.72268907563025,750C58.8235294117647,750,60.92436974789916,750,63.02521008403362,750C65.12605042016807,750,67.22689075630252,750,69.32773109243698,750C71.42857142857143,750,73.52941176470588,750,75.63025210084034,750C77.73109243697479,750,79.83193277310924,750,81.9327731092437,750C84.03361344537815,750,86.1344537815126,737.12667,88.23529411764706,737.12667C90.33613445378151,737.12667,92.43697478991596,737.12667,94.53781512605042,737.12667C96.63865546218487,737.12667,98.73949579831933,734.9811175,100.84033613445378,730.6900125C102.94117647058823,726.3989075,105.04201680672269,716.74390125,107.14285714285714,698.506695C109.24369747899159,680.26948875,111.34453781512605,643.7950950000001,113.4453781512605,621.266775C115.54621848739495,598.738455,117.6470588235294,567.627875,119.74789915966386,563.336775C121.84873949579831,559.045675,123.94957983193278,561.191225,126.05042016806723,556.900125C128.1512605042017,552.609025,130.25210084033614,548.3179,132.3529411764706,531.15345C134.45378151260505,513.9890000000001,136.55462184873952,462.49575000000004,138.65546218487395,441.0402C140.75630252100842,419.58464999999995,142.85714285714286,402.42015000000004,144.95798319327733,402.42015000000004C147.05882352941177,402.42015000000004,149.15966386554624,408.85685000000007,151.26050420168067,415.29352500000005C153.36134453781514,421.7302,155.46218487394958,441.0402,157.56302521008405,441.0402C159.6638655462185,441.0402,161.76470588235296,434.60352500000005,163.8655462184874,421.73017500000003C165.96638655462183,408.856825,168.0672268907563,357.36357499999997,170.16806722689074,344.490225C172.2689075630252,331.616875,174.36974789915965,325.1802,176.47058823529412,325.1802C178.57142857142856,325.1802,180.67226890756302,331.61685,182.77310924369746,331.61685C184.87394957983193,331.61685,186.97478991596637,264.03194999999994,189.07563025210084,228.63029999999992C191.1764705882353,193.22864999999993,193.27731092436974,119.20695000000003,195.3781512605042,119.20695000000003C197.47899159663865,119.20695000000003,199.57983193277312,132.08032499999996,201.68067226890756,132.08032499999996C203.78151260504202,132.08032499999996,205.88235294117646,132.08032499999996,207.98319327731093,132.08032499999996C210.08403361344537,132.08032499999996,212.18487394957984,164.26365000000004,214.28571428571428,164.26365000000004C216.38655462184875,164.26365000000004,218.48739495798318,157.82692499999993,220.58823529411765,157.82692499999993C222.6890756302521,157.82692499999993,224.78991596638656,166.40922500000002,226.890756302521,183.57367499999995C228.99159663865547,200.73812499999997,231.0924369747899,238.28531249999995,233.19327731092437,260.813625C235.2941176470588,283.3419375,237.39495798319328,305.870225,239.49579831932772,318.74355C241.5966386554622,331.6168750000001,243.69747899159663,325.18025,245.7983193277311,338.053575C247.89915966386556,350.92690000000005,250,391.6924,252.10084033613447,395.98350000000005C254.2016806722689,400.2746,256.30252100840335,398.12905000000006,258.4033613445378,402.42015000000004C260.5042016806723,406.71125000000006,262.60504201680675,431.3852,264.7058823529412,441.0402C266.8067226890756,450.6951999999999,268.9075630252101,453.91348750000003,271.0084033613445,460.35015C273.109243697479,466.78681250000005,275.21008403361344,473.2235125,277.3109243697479,479.66017500000004C279.4117647058824,486.0968375,281.5126050420168,498.970125,283.61344537815125,498.970125C285.7142857142857,498.970125,287.8151260504202,453.9135,289.91596638655466,453.9135C292.01680672268907,453.9135,294.11764705882354,456.05905,296.21848739495795,460.35015C298.3193277310924,464.64125000000007,300.4201680672269,501.11567499999995,302.52100840336135,505.406775C304.6218487394958,509.69787499999995,306.7226890756302,507.552325,308.8235294117647,511.84342499999997C310.92436974789916,516.134525,313.02521008403363,520.4256749999998,315.1260504201681,531.15345C317.2268907563025,541.881225,319.327731092437,563.33675,321.4285714285714,576.210075C323.52941176470586,589.0834000000001,325.6302521008403,594.4472875,327.7310924369748,608.3934C329.83193277310926,622.3395125000001,331.9327731092437,651.3045499999998,334.0336134453782,659.88675C336.1344537815126,668.46895,338.2352941176471,672.76005,340.3361344537815,672.76005C342.43697478991595,672.76005,344.5378151260504,659.88675,346.6386554621849,659.88675C348.73949579831935,659.88675,350.84033613445376,673.8328275,352.94117647058823,679.1967075C355.0420168067227,684.5605875,357.14285714285717,692.07003,359.24369747899163,692.07003C361.34453781512605,692.07003,363.4453781512605,692.07003,365.5462184873949,692.07003C367.6470588235294,692.07003,369.74789915966386,695.28836375,371.8487394957983,698.506695C373.9495798319328,701.72502625,376.0504201680672,711.3800175,378.1512605042017,711.3800175C380.25210084033614,711.3800175,382.35294117647055,711.3800175,384.453781512605,711.3800175C386.5546218487395,711.3800175,388.65546218487395,724.2533475,390.7563025210084,724.2533475C392.8571428571429,724.2533475,394.9579831932773,717.8166825,397.05882352941177,717.8166825C399.15966386554624,717.8166825,401.26050420168065,717.8166825,403.3613445378151,717.8166825C405.4621848739496,717.8166825,407.563025210084,721.03501625,409.66386554621846,724.2533475C411.7647058823529,727.47167875,413.8655462184874,737.12667,415.96638655462186,737.12667C418.06722689075633,737.12667,420.16806722689074,737.12667,422.2689075630252,737.12667C424.3697478991597,737.12667,426.4705882352941,737.12667,428.57142857142856,737.12667C430.672268907563,737.12667,432.7731092436975,737.12667,434.87394957983196,737.12667C436.9747899159664,737.12667,439.07563025210084,741.4177815,441.1764705882353,743.5633365C443.2773109243698,745.7088914999999,445.3781512605042,750,447.47899159663865,750C449.5798319327731,750,451.68067226890753,743.5633365,453.781512605042,743.5633365C455.88235294117646,743.5633365,457.98319327731093,743.5633365,460.0840336134454,743.5633365C462.18487394957987,743.5633365,464.2857142857143,743.5633365,466.38655462184875,743.5633365C468.4873949579832,743.5633365,470.5882352941176,743.5633365,472.6890756302521,743.5633365C474.78991596638656,743.5633365,476.89075630252097,743.5633365,478.99159663865544,743.5633365C481.0924369747899,743.5633365,483.1932773109244,743.5633365,485.29411764705884,743.5633365C487.3949579831933,743.5633365,489.4957983193277,737.12667,491.5966386554622,737.12667C493.69747899159665,737.12667,495.79831932773106,743.5633365,497.89915966386553,743.5633365C500,743.5633365,502.10084033613447,743.5633365,504.20168067226894,743.5633365C506.3025210084034,743.5633365,508.4033613445378,743.5633365,510.5042016806723,743.5633365C512.6050420168067,743.5633365,514.7058823529412,743.5633365,516.8067226890756,743.5633365C518.90756302521,743.5633365,521.0084033613446,743.5633365,523.109243697479,743.5633365C525.2100840336135,743.5633365,527.3109243697479,743.5633365,529.4117647058824,743.5633365C531.5126050420168,743.5633365,533.6134453781514,750,535.7142857142858,750C537.8151260504202,750,539.9159663865546,750,542.016806722689,750C544.1176470588234,750,546.218487394958,750,548.3193277310924,750C550.4201680672269,750,552.5210084033613,750,554.6218487394958,750C556.7226890756302,750,558.8235294117648,750,560.9243697478992,750C563.0252100840336,750,565.1260504201681,750,567.2268907563025,750C569.3277310924369,750,571.4285714285714,750,573.5294117647059,750C575.6302521008404,750,577.7310924369748,743.5633365,579.8319327731093,743.5633365C581.9327731092437,743.5633365,584.0336134453781,743.5633365,586.1344537815125,743.5633365C588.235294117647,743.5633365,590.3361344537815,743.5633365,592.4369747899159,743.5633365C594.5378151260504,743.5633365,596.6386554621848,743.5633365,598.7394957983194,743.5633365C600.8403361344538,743.5633365,602.9411764705883,743.5633365,605.0420168067227,743.5633365C607.1428571428571,743.5633365,609.2436974789916,743.5633365,611.344537815126,743.5633365C613.4453781512605,743.5633365,615.546218487395,743.5633365,617.6470588235294,743.5633365C619.7478991596639,743.5633365,621.8487394957983,750,623.9495798319329,750C626.0504201680673,750,628.1512605042018,750,630.2521008403362,750C632.3529411764706,750,634.453781512605,743.5633365,636.5546218487394,743.5633365C638.6554621848738,743.5633365,640.7563025210084,743.5633365,642.8571428571428,743.5633365C644.9579831932773,743.5633365,647.0588235294117,743.5633365,649.1596638655462,743.5633365C651.2605042016806,743.5633365,653.3613445378152,743.5633365,655.4621848739496,743.5633365C657.563025210084,743.5633365,659.6638655462185,743.5633365,661.7647058823529,743.5633365C663.8655462184875,743.5633365,665.9663865546219,743.5633365,668.0672268907564,743.5633365C670.1680672268908,743.5633365,672.2689075630253,743.5633365,674.3697478991597,743.5633365C676.4705882352941,743.5633365,678.5714285714286,750,680.672268907563,750C682.7731092436974,750,684.8739495798319,750,686.9747899159663,750C689.0756302521008,750,691.1764705882352,750,693.2773109243698,750C695.3781512605042,750,697.4789915966387,750,699.5798319327731,750C701.6806722689075,750,703.781512605042,750,705.8823529411765,750C707.9831932773109,750,710.0840336134454,750,712.1848739495798,750C714.2857142857143,750,716.3865546218487,750,718.4873949579833,750C720.5882352941177,750,722.6890756302522,750,724.7899159663866,750C726.890756302521,750,728.9915966386554,750,731.0924369747898,750C733.1932773109243,750,735.2941176470588,750,737.3949579831932,750C739.4957983193277,750,741.5966386554621,750,743.6974789915967,750C745.7983193277311,750,747.8991596638656,750,750,750C752.1008403361344,750,754.2016806722689,750,756.3025210084033,750C758.4033613445378,750,760.5042016806723,750,762.6050420168067,750C764.7058823529411,750,766.8067226890756,750,768.90756302521,750C771.0084033613446,750,773.109243697479,750,775.2100840336135,750C777.3109243697479,750,779.4117647058824,750,781.5126050420168,750C783.6134453781513,750,785.7142857142858,750,787.8151260504202,750C789.9159663865546,750,792.0168067226891,750,794.1176470588235,750C796.218487394958,750,798.3193277310925,750,800.4201680672269,750C802.5210084033613,750,804.6218487394958,750,806.7226890756302,750C808.8235294117646,750,810.9243697478992,743.5633365,813.0252100840336,743.5633365C815.126050420168,743.5633365,817.2268907563025,743.5633365,819.3277310924369,743.5633365C821.4285714285714,743.5633365,823.5294117647059,743.5633365,825.6302521008404,743.5633365C827.7310924369748,743.5633365,829.8319327731093,739.272224,831.9327731092437,737.12667C834.0336134453781,734.9811159999999,836.1344537815127,734.9811175,838.2352941176471,730.6900125C840.3361344537815,726.3989075,842.436974789916,711.3800175,844.5378151260504,711.3800175C846.6386554621848,711.3800175,848.7394957983194,711.3800175,850.8403361344538,711.3800175C852.9411764705882,711.3800175,855.0420168067227,717.8166825,857.1428571428571,717.8166825C859.2436974789915,717.8166825,861.344537815126,711.3800175,863.4453781512605,711.3800175C865.546218487395,711.3800175,867.6470588235294,711.3800175,869.7478991596639,711.3800175C871.8487394957983,711.3800175,873.9495798319329,715.6711275,876.0504201680673,717.8166825C878.1512605042017,719.9622374999999,880.2521008403362,719.9622385,882.3529411764706,724.2533475C884.453781512605,728.5444565,886.5546218487395,743.5633365,888.655462184874,743.5633365C890.7563025210084,743.5633365,892.8571428571429,743.5633365,894.9579831932773,743.5633365C897.0588235294117,743.5633365,899.1596638655462,743.5633365,901.2605042016806,743.5633365C903.3613445378151,743.5633365,905.4621848739496,743.5633365,907.563025210084,743.5633365C909.6638655462184,743.5633365,911.7647058823529,743.5633365,913.8655462184873,743.5633365C915.9663865546219,743.5633365,918.0672268907563,743.5633365,920.1680672268908,743.5633365C922.2689075630252,743.5633365,924.3697478991597,743.5633365,926.4705882352941,743.5633365C928.5714285714286,743.5633365,930.6722689075631,736.053899,932.7731092436975,730.6900125C934.8739495798319,725.3261259999999,936.9747899159664,711.3800175,939.0756302521008,711.3800175C941.1764705882352,711.3800175,943.2773109243698,711.3800175,945.3781512605042,711.3800175C947.4789915966386,711.3800175,949.5798319327731,717.8166825,951.6806722689075,717.8166825C953.7815126050419,717.8166825,955.8823529411765,715.6711262499999,957.9831932773109,711.3800175C960.0840336134454,707.08890875,962.1848739495798,696.3611350000001,964.2857142857143,692.07003C966.3865546218487,687.778925,968.4873949579833,685.6333725,970.5882352941177,685.6333725C972.6890756302521,685.6333725,974.7899159663866,695.28836375,976.890756302521,698.506695C978.9915966386554,701.72502625,981.09243697479,704.94336,983.1932773109244,704.94336C985.2941176470588,704.94336,987.3949579831933,698.506695,989.4957983193277,698.506695C991.5966386554621,698.506695,993.6974789915967,698.506695,995.7983193277311,698.506695C997.8991596638655,698.506695,1000,700.6522512500001,1002.1008403361344,704.94336C1004.2016806722689,709.23446875,1006.3025210084033,719.96223875,1008.4033613445379,724.2533475C1010.5042016806723,728.5444562499999,1012.6050420168068,730.6900125,1014.7058823529412,730.6900125C1016.8067226890756,730.6900125,1018.9075630252102,730.6900125,1021.0084033613446,730.6900125C1023.109243697479,730.6900125,1025.2100840336134,740.34500525,1027.310924369748,743.5633365C1029.4117647058824,746.78166775,1031.5126050420167,750,1033.6134453781513,750C1035.7142857142858,750,1037.81512605042,750,1039.9159663865546,750C1042.0168067226891,750,1044.1176470588234,745.7088914999999,1046.218487394958,743.5633365C1048.3193277310925,741.4177815,1050.4201680672268,739.2722239999999,1052.5210084033613,737.12667C1054.6218487394958,734.9811159999999,1056.7226890756303,730.6900125,1058.8235294117649,730.6900125C1060.9243697478994,730.6900125,1063.0252100840337,730.6900125,1065.1260504201682,730.6900125C1067.2268907563027,730.6900125,1069.327731092437,721.0350149999999,1071.4285714285716,717.8166825C1073.529411764706,714.59835,1075.6302521008404,713.5255712500001,1077.731092436975,711.3800175C1079.8319327731092,709.23446375,1081.9327731092437,704.94336,1084.033613445378,704.94336C1086.1344537815125,704.94336,1088.2352941176468,704.94336,1090.3361344537814,704.94336C1092.436974789916,704.94336,1094.5378151260502,700.65225,1096.6386554621847,698.506695C1098.7394957983192,696.36114,1100.8403361344538,694.2155837500001,1102.9411764705883,692.07003C1105.0420168067228,689.92447625,1107.142857142857,685.6333725,1109.2436974789916,685.6333725C1111.3445378151262,685.6333725,1113.4453781512605,698.506695,1115.546218487395,698.506695C1117.6470588235295,698.506695,1119.7478991596638,698.506695,1121.8487394957983,698.506695C1123.9495798319329,698.506695,1126.0504201680671,702.79780625,1128.1512605042017,704.94336C1130.2521008403362,707.08891375,1132.3529411764705,708.16168625,1134.453781512605,711.3800175C1136.5546218487395,714.59834875,1138.6554621848738,721.035015,1140.7563025210084,724.2533475C1142.857142857143,727.47168,1144.9579831932772,730.6900125,1147.0588235294117,730.6900125C1149.1596638655462,730.6900125,1151.2605042016808,724.2533475,1153.3613445378153,724.2533475C1155.4621848739498,724.2533475,1157.563025210084,724.2533475,1159.6638655462186,724.2533475C1161.7647058823532,724.2533475,1163.8655462184875,717.8166825,1165.966386554622,717.8166825C1168.0672268907563,717.8166825,1170.1680672268908,717.8166825,1172.268907563025,717.8166825C1174.3697478991596,717.8166825,1176.470588235294,702.7978037500001,1178.5714285714284,698.506695C1180.672268907563,694.21558625,1182.7731092436973,692.07003,1184.8739495798318,692.07003C1186.9747899159663,692.07003,1189.0756302521006,695.2883637500001,1191.1764705882351,698.506695C1193.2773109243697,701.72502625,1195.3781512605042,711.3800175,1197.4789915966387,711.3800175C1199.5798319327732,711.3800175,1201.6806722689075,711.3800175,1203.781512605042,711.3800175C1205.8823529411766,711.3800175,1207.9831932773109,717.8166825,1210.0840336134454,717.8166825C1212.18487394958,717.8166825,1214.2857142857142,711.3800175,1216.3865546218487,711.3800175C1218.4873949579833,711.3800175,1220.5882352941176,730.6900125,1222.689075630252,730.6900125C1224.7899159663866,730.6900125,1226.890756302521,715.6711225,1228.9915966386554,711.3800175C1231.09243697479,707.0889125,1233.1932773109243,707.08891375,1235.2941176470588,704.94336C1237.3949579831933,702.79780625,1239.4957983193276,701.7250262499999,1241.5966386554621,698.506695C1243.6974789915967,695.28836375,1245.7983193277312,685.6333725,1247.8991596638657,685.6333725C1250.0000000000002,685.6333725,1252.1008403361345,685.6333725,1254.201680672269,685.6333725C1256.3025210084036,685.6333725,1258.4033613445379,685.6333725,1260.5042016806724,685.6333725C1262.6050420168067,685.6333725,1264.7058823529412,679.1967075,1266.8067226890755,679.1967075C1268.90756302521,679.1967075,1271.0084033613443,698.506695,1273.1092436974789,698.506695C1275.2100840336134,698.506695,1277.3109243697477,698.506695,1279.4117647058822,698.506695C1281.5126050420167,698.506695,1283.613445378151,698.506695,1285.7142857142856,698.506695C1287.81512605042,698.506695,1289.9159663865546,692.07003,1292.0168067226891,692.07003C1294.1176470588236,692.07003,1296.218487394958,692.07003,1298.3193277310925,692.07003C1300.420168067227,692.07003,1302.5210084033613,692.07003,1304.6218487394958,692.07003C1306.7226890756303,692.07003,1308.8235294117646,696.3611400000001,1310.9243697478992,698.506695C1313.0252100840337,700.65225,1315.126050420168,704.94336,1317.2268907563025,704.94336C1319.327731092437,704.94336,1321.4285714285713,701.72502625,1323.5294117647059,698.506695C1325.6302521008404,695.28836375,1327.7310924369747,685.6333725,1329.8319327731092,685.6333725C1331.9327731092437,685.6333725,1334.0336134453783,692.07003,1336.1344537815128,692.07003C1338.2352941176473,692.07003,1340.3361344537816,687.7789262499999,1342.4369747899161,685.6333725C1344.5378151260506,683.48781875,1346.638655462185,679.1967075,1348.7394957983195,679.1967075C1350.840336134454,679.1967075,1352.9411764705883,679.1967075,1355.0420168067228,679.1967075C1357.142857142857,679.1967075,1359.2436974789916,671.6872887499999,1361.344537815126,666.3234C1363.4453781512605,660.9595112499999,1365.5462184873948,651.304475,1367.6470588235293,647.013375C1369.7478991596638,642.722275,1371.848739495798,643.7950500000001,1373.9495798319326,640.576725C1376.0504201680671,637.3584,1378.1512605042014,636.285625,1380.252100840336,627.703425C1382.3529411764705,619.1212249999998,1384.453781512605,539.7356500000003,1386.5546218487395,531.15345C1388.655462184874,522.5712500000001,1390.7563025210084,518.28015,1392.857142857143,518.28015C1394.9579831932774,518.28015,1397.0588235294117,518.28015,1399.1596638655462,518.28015C1401.2605042016808,518.28015,1403.361344537815,498.970125,1405.4621848739496,498.970125C1407.563025210084,498.970125,1409.6638655462184,505.406775,1411.764705882353,505.406775C1413.8655462184875,505.406775,1415.9663865546217,501.115675,1418.0672268907563,492.533475C1420.1680672268908,483.951275,1422.268907563025,441.0402,1424.3697478991596,441.0402C1426.4705882352941,441.0402,1428.5714285714287,520.4256999999999,1430.6722689075632,524.7168C1432.7731092436977,529.0079000000001,1434.873949579832,531.15345,1436.9747899159665,531.15345C1439.075630252101,531.15345,1441.1764705882354,486.096825,1443.2773109243699,486.096825C1445.3781512605044,486.096825,1447.4789915966387,486.096825,1449.5798319327732,486.096825C1451.6806722689075,486.096825,1453.781512605042,464.64124999999984,1455.8823529411764,460.35015C1457.9831932773109,456.05905,1460.0840336134452,457.131825,1462.1848739495797,453.9135C1464.2857142857142,450.695175,1466.3865546218485,449.6224,1468.487394957983,441.0402C1470.5882352941176,432.458,1472.6890756302519,395.9835124999989,1474.7899159663864,357.363525C1476.890756302521,318.74353749999966,1478.9915966386554,243.64913750000008,1481.09243697479,209.320275C1483.1932773109245,174.99141250000116,1485.2941176470588,168.55477499999998,1487.3949579831933,151.39034999999998C1489.4957983193278,134.225925,1491.5966386554621,128.86205,1493.6974789915967,106.33372500000002C1495.7983193277312,83.80540000000002,1497.8991596638655,50.012899999999995,1500,16.22039999999997" stroke="steelblue" stroke-width="3"/></g><g class="mark-symbol role-mark" role="graphics-symbol" aria-roledescription="symbol mark container"><path transform="translate(0,750)" d="M2.23606797749979,0A2.23606797749979,2.23606797749979,0,1,1,-2.23606797749979,0A2.23606797749979,2.23606797749979,0,1,1,2.23606797749979,0" fill="white" stroke="steelblue" stroke-width="1.5"/><path transform="translate(18.907563025210084,750)" d="M2.23606797749979,0A2.23606797749979,2.23606797749979,0,1,1,-2.23606797749979,0A2.23606797749979,2.23606797749979,0,1,1,2.23606797749979,0" fill="white" stroke="steelblue" stroke-width="1.5"/><path transform="translate(37.81512605042017,750)" d="M2.23606797749979,0A2.23606797749979,2.23606797749979,0,1,1,-2.23606797749979,0A2.23606797749979,2.23606797749979,0,1,1,2.23606797749979,0" fill="white" stroke="steelblue" stroke-width="1.5"/><path transform="translate(56.72268907563025,750)" d="M2.23606797749979,0A2.23606797749979,2.23606797749979,0,1,1,-2.23606797749979,0A2.23606797749979,2.23606797749979,0,1,1,2.23606797749979,0" fill="white" stroke="steelblue" stroke-width="1.5"/><path transform="translate(75.63025210084034,750)" d="M2.23606797749979,0A2.23606797749979,2.23606797749979,0,1,1,-2.23606797749979,0A2.23606797749979,2.23606797749979,0,1,1,2.23606797749979,0" fill="white" stroke="steelblue" stroke-width="1.5"/><path transform="translate(94.53781512605042,737.12667)" d="M2.23606797749979,0A2.23606797749979,2.23606797749979,0,1,1,-2.23606797749979,0A2.23606797749979,2.23606797749979,0,1,1,2.23606797749979,0" fill="white" stroke="steelblue" stroke-width="1.5"/><path transform="translate(113.4453781512605,621.266775)" d="M2.23606797749979,0A2.23606797749979,2.23606797749979,0,1,1,-2.23606797749979,0A2.23606797749979,2.23606797749979,0,1,1,2.23606797749979,0" fill="white" stroke="steelblue" stroke-width="1.5"/><path transform="translate(132.3529411764706,531.15345)" d="M2.23606797749979,0A2.23606797749979,2.23606797749979,0,1,1,-2.23606797749979,0A2.23606797749979,2.23606797749979,0,1,1,2.23606797749979,0" fill="white" stroke="steelblue" stroke-width="1.5"/><path transform="translate(151.26050420168067,415.29352500000005)" d="M2.23606797749979,0A2.23606797749979,2.23606797749979,0,1,1,-2.23606797749979,0A2.23606797749979,2.23606797749979,0,1,1,2.23606797749979,0" fill="white" stroke="steelblue" stroke-width="1.5"/><path transform="translate(170.16806722689074,344.490225)" d="M2.23606797749979,0A2.23606797749979,2.23606797749979,0,1,1,-2.23606797749979,0A2.23606797749979,2.23606797749979,0,1,1,2.23606797749979,0" fill="white" stroke="steelblue" stroke-width="1.5"/><path transform="translate(189.07563025210084,228.63029999999992)" d="M2.23606797749979,0A2.23606797749979,2.23606797749979,0,1,1,-2.23606797749979,0A2.23606797749979,2.23606797749979,0,1,1,2.23606797749979,0" fill="white" stroke="steelblue" stroke-width="1.5"/><path transform="translate(207.98319327731093,132.08032499999996)" d="M2.23606797749979,0A2.23606797749979,2.23606797749979,0,1,1,-2.23606797749979,0A2.23606797749979,2.23606797749979,0,1,1,2.23606797749979,0" fill="white" stroke="steelblue" stroke-width="1.5"/><path transform="translate(226.890756302521,183.57367499999995)" d="M2.23606797749979,0A2.23606797749979,2.23606797749979,0,1,1,-2.23606797749979,0A2.23606797749979,2.23606797749979,0,1,1,2.23606797749979,0" fill="white" stroke="steelblue" stroke-width="1.5"/><path transform="translate(245.7983193277311,338.053575)" d="M2.23606797749979,0A2.23606797749979,2.23606797749979,0,1,1,-2.23606797749979,0A2.23606797749979,2.23606797749979,0,1,1,2.23606797749979,0" fill="white" stroke="steelblue" stroke-width="1.5"/><path transform="translate(264.7058823529412,441.0402)" d="M2.23606797749979,0A2.23606797749979,2.23606797749979,0,1,1,-2.23606797749979,0A2.23606797749979,2.23606797749979,0,1,1,2.23606797749979,0" fill="white" stroke="steelblue" stroke-width="1.5"/><path transform="translate(283.61344537815125,498.970125)" d="M2.23606797749979,0A2.23606797749979,2.23606797749979,0,1,1,-2.23606797749979,0A2.23606797749979,2.23606797749979,0,1,1,2.23606797749979,0" fill="white" stroke="steelblue" stroke-width="1.5"/><path transform="translate(302.52100840336135,505.406775)" d="M2.23606797749979,0A2.23606797749979,2.23606797749979,0,1,1,-2.23606797749979,0A2.23606797749979,2.23606797749979,0,1,1,2.23606797749979,0" fill="white" stroke="steelblue" stroke-width="1.5"/><path transform="translate(321.4285714285714,576.210075)" d="M2.23606797749979,0A2.23606797749979,2.23606797749979,0,1,1,-2.23606797749979,0A2.23606797749979,2.23606797749979,0,1,1,2.23606797749979,0" fill="white" stroke="steelblue" stroke-width="1.5"/><path transform="translate(340.3361344537815,672.76005)" d="M2.23606797749979,0A2.23606797749979,2.23606797749979,0,1,1,-2.23606797749979,0A2.23606797749979,2.23606797749979,0,1,1,2.23606797749979,0" fill="white" stroke="steelblue" stroke-width="1.5"/><path transform="translate(359.24369747899163,692.07003)" d="M2.23606797749979,0A2.23606797749979,2.23606797749979,0,1,1,-2.23606797749979,0A2.23606797749979,2.23606797749979,0,1,1,2.23606797749979,0" fill="white" stroke="steelblue" stroke-width="1.5"/><path transform="translate(378.1512605042017,711.3800175)" d="M2.23606797749979,0A2.23606797749979,2.23606797749979,0,1,1,-2.23606797749979,0A2.23606797749979,2.23606797749979,0,1,1,2.23606797749979,0" fill="white" stroke="steelblue" stroke-width="1.5"/><path transform="translate(397.05882352941177,717.8166825)" d="M2.23606797749979,0A2.23606797749979,2.23606797749979,0,1,1,-2.23606797749979,0A2.23606797749979,2.23606797749979,0,1,1,2.23606797749979,0" fill="white" stroke="steelblue" stroke-width="1.5"/><path transform="translate(415.96638655462186,737.12667)" d="M2.23606797749979,0A2.23606797749979,2.23606797749979,0,1,1,-2.23606797749979,0A2.23606797749979,2.23606797749979,0,1,1,2.23606797749979,0" fill="white" stroke="steelblue" stroke-width="1.5"/><path transform="translate(434.87394957983196,737.12667)" d="M2.23606797749979,0A2.23606797749979,2.23606797749979,0,1,1,-2.23606797749979,0A2.23606797749979,2.23606797749979,0,1,1,2.23606797749979,0" fill="white" stroke="steelblue" stroke-width="1.5"/><path transform="translate(453.781512605042,743.5633365)" d="M2.23606797749979,0A2.23606797749979,2.23606797749979,0,1,1,-2.23606797749979,0A2.23606797749979,2.23606797749979,0,1,1,2.23606797749979,0" fill="white" stroke="steelblue" stroke-width="1.5"/><path transform="translate(472.6890756302521,743.5633365)" d="M2.23606797749979,0A2.23606797749979,2.23606797749979,0,1,1,-2.23606797749979,0A2.23606797749979,2.23606797749979,0,1,1,2.23606797749979,0" fill="white" stroke="steelblue" stroke-width="1.5"/><path transform="translate(491.5966386554622,737.12667)" d="M2.23606797749979,0A2.23606797749979,2.23606797749979,0,1,1,-2.23606797749979,0A2.23606797749979,2.23606797749979,0,1,1,2.23606797749979,0" fill="white" stroke="steelblue" stroke-width="1.5"/><path transform="translate(510.5042016806723,743.5633365)" d="M2.23606797749979,0A2.23606797749979,2.23606797749979,0,1,1,-2.23606797749979,0A2.23606797749979,2.23606797749979,0,1,1,2.23606797749979,0" fill="white" stroke="steelblue" stroke-width="1.5"/><path transform="translate(529.4117647058824,743.5633365)" d="M2.23606797749979,0A2.23606797749979,2.23606797749979,0,1,1,-2.23606797749979,0A2.23606797749979,2.23606797749979,0,1,1,2.23606797749979,0" fill="white" stroke="steelblue" stroke-width="1.5"/><path transform="translate(548.3193277310924,750)" d="M2.23606797749979,0A2.23606797749979,2.23606797749979,0,1,1,-2.23606797749979,0A2.23606797749979,2.23606797749979,0,1,1,2.23606797749979,0" fill="white" stroke="steelblue" stroke-width="1.5"/><path transform="translate(567.2268907563025,750)" d="M2.23606797749979,0A2.23606797749979,2.23606797749979,0,1,1,-2.23606797749979,0A2.23606797749979,2.23606797749979,0,1,1,2.23606797749979,0" fill="white" stroke="steelblue" stroke-width="1.5"/><path transform="translate(586.1344537815125,743.5633365)" d="M2.23606797749979,0A2.23606797749979,2.23606797749979,0,1,1,-2.23606797749979,0A2.23606797749979,2.23606797749979,0,1,1,2.23606797749979,0" fill="white" stroke="steelblue" stroke-width="1.5"/><path transform="translate(605.0420168067227,743.5633365)" d="M2.23606797749979,0A2.23606797749979,2.23606797749979,0,1,1,-2.23606797749979,0A2.23606797749979,2.23606797749979,0,1,1,2.23606797749979,0" fill="white" stroke="steelblue" stroke-width="1.5"/><path transform="translate(623.9495798319329,750)" d="M2.23606797749979,0A2.23606797749979,2.23606797749979,0,1,1,-2.23606797749979,0A2.23606797749979,2.23606797749979,0,1,1,2.23606797749979,0" fill="white" stroke="steelblue" stroke-width="1.5"/><path transform="translate(642.8571428571428,743.5633365)" d="M2.23606797749979,0A2.23606797749979,2.23606797749979,0,1,1,-2.23606797749979,0A2.23606797749979,2.23606797749979,0,1,1,2.23606797749979,0" fill="white" stroke="steelblue" stroke-width="1.5"/><path transform="translate(661.7647058823529,743.5633365)" d="M2.23606797749979,0A2.23606797749979,2.23606797749979,0,1,1,-2.23606797749979,0A2.23606797749979,2.23606797749979,0,1,1,2.23606797749979,0" fill="white" stroke="steelblue" stroke-width="1.5"/><path transform="translate(680.672268907563,750)" d="M2.23606797749979,0A2.23606797749979,2.23606797749979,0,1,1,-2.23606797749979,0A2.23606797749979,2.23606797749979,0,1,1,2.23606797749979,0" fill="white" stroke="steelblue" stroke-width="1.5"/><path transform="translate(699.5798319327731,750)" d="M2.23606797749979,0A2.23606797749979,2.23606797749979,0,1,1,-2.23606797749979,0A2.23606797749979,2.23606797749979,0,1,1,2.23606797749979,0" fill="white" stroke="steelblue" stroke-width="1.5"/><path transform="translate(718.4873949579833,750)" d="M2.23606797749979,0A2.23606797749979,2.23606797749979,0,1,1,-2.23606797749979,0A2.23606797749979,2.23606797749979,0,1,1,2.23606797749979,0" fill="white" stroke="steelblue" stroke-width="1.5"/><path transform="translate(737.3949579831932,750)" d="M2.23606797749979,0A2.23606797749979,2.23606797749979,0,1,1,-2.23606797749979,0A2.23606797749979,2.23606797749979,0,1,1,2.23606797749979,0" fill="white" stroke="steelblue" stroke-width="1.5"/><path transform="translate(756.3025210084033,750)" d="M2.23606797749979,0A2.23606797749979,2.23606797749979,0,1,1,-2.23606797749979,0A2.23606797749979,2.23606797749979,0,1,1,2.23606797749979,0" fill="white" stroke="steelblue" stroke-width="1.5"/><path transform="translate(775.2100840336135,750)" d="M2.23606797749979,0A2.23606797749979,2.23606797749979,0,1,1,-2.23606797749979,0A2.23606797749979,2.23606797749979,0,1,1,2.23606797749979,0" fill="white" stroke="steelblue" stroke-width="1.5"/><path transform="translate(794.1176470588235,750)" d="M2.23606797749979,0A2.23606797749979,2.23606797749979,0,1,1,-2.23606797749979,0A2.23606797749979,2.23606797749979,0,1,1,2.23606797749979,0" fill="white" stroke="steelblue" stroke-width="1.5"/><path transform="translate(813.0252100840336,743.5633365)" d="M2.23606797749979,0A2.23606797749979,2.23606797749979,0,1,1,-2.23606797749979,0A2.23606797749979,2.23606797749979,0,1,1,2.23606797749979,0" fill="white" stroke="steelblue" stroke-width="1.5"/><path transform="translate(831.9327731092437,737.12667)" d="M2.23606797749979,0A2.23606797749979,2.23606797749979,0,1,1,-2.23606797749979,0A2.23606797749979,2.23606797749979,0,1,1,2.23606797749979,0" fill="white" stroke="steelblue" stroke-width="1.5"/><path transform="translate(850.8403361344538,711.3800175)" d="M2.23606797749979,0A2.23606797749979,2.23606797749979,0,1,1,-2.23606797749979,0A2.23606797749979,2.23606797749979,0,1,1,2.23606797749979,0" fill="white" stroke="steelblue" stroke-width="1.5"/><path transform="translate(869.7478991596639,711.3800175)" d="M2.23606797749979,0A2.23606797749979,2.23606797749979,0,1,1,-2.23606797749979,0A2.23606797749979,2.23606797749979,0,1,1,2.23606797749979,0" fill="white" stroke="steelblue" stroke-width="1.5"/><path transform="translate(888.655462184874,743.5633365)" d="M2.23606797749979,0A2.23606797749979,2.23606797749979,0,1,1,-2.23606797749979,0A2.23606797749979,2.23606797749979,0,1,1,2.23606797749979,0" fill="white" stroke="steelblue" stroke-width="1.5"/><path transform="translate(907.563025210084,743.5633365)" d="M2.23606797749979,0A2.23606797749979,2.23606797749979,0,1,1,-2.23606797749979,0A2.23606797749979,2.23606797749979,0,1,1,2.23606797749979,0" fill="white" stroke="steelblue" stroke-width="1.5"/><path transform="translate(926.4705882352941,743.5633365)" d="M2.23606797749979,0A2.23606797749979,2.23606797749979,0,1,1,-2.23606797749979,0A2.23606797749979,2.23606797749979,0,1,1,2.23606797749979,0" fill="white" stroke="steelblue" stroke-width="1.5"/><path transform="translate(945.3781512605042,711.3800175)" d="M2.23606797749979,0A2.23606797749979,2.23606797749979,0,1,1,-2.23606797749979,0A2.23606797749979,2.23606797749979,0,1,1,2.23606797749979,0" fill="white" stroke="steelblue" stroke-width="1.5"/><path transform="translate(964.2857142857143,692.07003)" d="M2.23606797749979,0A2.23606797749979,2.23606797749979,0,1,1,-2.23606797749979,0A2.23606797749979,2.23606797749979,0,1,1,2.23606797749979,0" fill="white" stroke="steelblue" stroke-width="1.5"/><path transform="translate(983.1932773109244,704.94336)" d="M2.23606797749979,0A2.23606797749979,2.23606797749979,0,1,1,-2.23606797749979,0A2.23606797749979,2.23606797749979,0,1,1,2.23606797749979,0" fill="white" stroke="steelblue" stroke-width="1.5"/><path transform="translate(1002.1008403361344,704.94336)" d="M2.23606797749979,0A2.23606797749979,2.23606797749979,0,1,1,-2.23606797749979,0A2.23606797749979,2.23606797749979,0,1,1,2.23606797749979,0" fill="white" stroke="steelblue" stroke-width="1.5"/><path transform="translate(1021.0084033613446,730.6900125)" d="M2.23606797749979,0A2.23606797749979,2.23606797749979,0,1,1,-2.23606797749979,0A2.23606797749979,2.23606797749979,0,1,1,2.23606797749979,0" fill="white" stroke="steelblue" stroke-width="1.5"/><path transform="translate(1039.9159663865546,750)" d="M2.23606797749979,0A2.23606797749979,2.23606797749979,0,1,1,-2.23606797749979,0A2.23606797749979,2.23606797749979,0,1,1,2.23606797749979,0" fill="white" stroke="steelblue" stroke-width="1.5"/><path transform="translate(1058.8235294117649,730.6900125)" d="M2.23606797749979,0A2.23606797749979,2.23606797749979,0,1,1,-2.23606797749979,0A2.23606797749979,2.23606797749979,0,1,1,2.23606797749979,0" fill="white" stroke="steelblue" stroke-width="1.5"/><path transform="translate(1077.731092436975,711.3800175)" d="M2.23606797749979,0A2.23606797749979,2.23606797749979,0,1,1,-2.23606797749979,0A2.23606797749979,2.23606797749979,0,1,1,2.23606797749979,0" fill="white" stroke="steelblue" stroke-width="1.5"/><path transform="translate(1096.6386554621847,698.506695)" d="M2.23606797749979,0A2.23606797749979,2.23606797749979,0,1,1,-2.23606797749979,0A2.23606797749979,2.23606797749979,0,1,1,2.23606797749979,0" fill="white" stroke="steelblue" stroke-width="1.5"/><path transform="translate(1115.546218487395,698.506695)" d="M2.23606797749979,0A2.23606797749979,2.23606797749979,0,1,1,-2.23606797749979,0A2.23606797749979,2.23606797749979,0,1,1,2.23606797749979,0" fill="white" stroke="steelblue" stroke-width="1.5"/><path transform="translate(1134.453781512605,711.3800175)" d="M2.23606797749979,0A2.23606797749979,2.23606797749979,0,1,1,-2.23606797749979,0A2.23606797749979,2.23606797749979,0,1,1,2.23606797749979,0" fill="white" stroke="steelblue" stroke-width="1.5"/><path transform="translate(1153.3613445378153,724.2533475)" d="M2.23606797749979,0A2.23606797749979,2.23606797749979,0,1,1,-2.23606797749979,0A2.23606797749979,2.23606797749979,0,1,1,2.23606797749979,0" fill="white" stroke="steelblue" stroke-width="1.5"/><path transform="translate(1172.268907563025,717.8166825)" d="M2.23606797749979,0A2.23606797749979,2.23606797749979,0,1,1,-2.23606797749979,0A2.23606797749979,2.23606797749979,0,1,1,2.23606797749979,0" fill="white" stroke="steelblue" stroke-width="1.5"/><path transform="translate(1191.1764705882351,698.506695)" d="M2.23606797749979,0A2.23606797749979,2.23606797749979,0,1,1,-2.23606797749979,0A2.23606797749979,2.23606797749979,0,1,1,2.23606797749979,0" fill="white" stroke="steelblue" stroke-width="1.5"/><path transform="translate(1210.0840336134454,717.8166825)" d="M2.23606797749979,0A2.23606797749979,2.23606797749979,0,1,1,-2.23606797749979,0A2.23606797749979,2.23606797749979,0,1,1,2.23606797749979,0" fill="white" stroke="steelblue" stroke-width="1.5"/><path transform="translate(1228.9915966386554,711.3800175)" d="M2.23606797749979,0A2.23606797749979,2.23606797749979,0,1,1,-2.23606797749979,0A2.23606797749979,2.23606797749979,0,1,1,2.23606797749979,0" fill="white" stroke="steelblue" stroke-width="1.5"/><path transform="translate(1247.8991596638657,685.6333725)" d="M2.23606797749979,0A2.23606797749979,2.23606797749979,0,1,1,-2.23606797749979,0A2.23606797749979,2.23606797749979,0,1,1,2.23606797749979,0" fill="white" stroke="steelblue" stroke-width="1.5"/><path transform="translate(1266.8067226890755,679.1967075)" d="M2.23606797749979,0A2.23606797749979,2.23606797749979,0,1,1,-2.23606797749979,0A2.23606797749979,2.23606797749979,0,1,1,2.23606797749979,0" fill="white" stroke="steelblue" stroke-width="1.5"/><path transform="translate(1285.7142857142856,698.506695)" d="M2.23606797749979,0A2.23606797749979,2.23606797749979,0,1,1,-2.23606797749979,0A2.23606797749979,2.23606797749979,0,1,1,2.23606797749979,0" fill="white" stroke="steelblue" stroke-width="1.5"/><path transform="translate(1304.6218487394958,692.07003)" d="M2.23606797749979,0A2.23606797749979,2.23606797749979,0,1,1,-2.23606797749979,0A2.23606797749979,2.23606797749979,0,1,1,2.23606797749979,0" fill="white" stroke="steelblue" stroke-width="1.5"/><path transform="translate(1323.5294117647059,698.506695)" d="M2.23606797749979,0A2.23606797749979,2.23606797749979,0,1,1,-2.23606797749979,0A2.23606797749979,2.23606797749979,0,1,1,2.23606797749979,0" fill="white" stroke="steelblue" stroke-width="1.5"/><path transform="translate(1342.4369747899161,685.6333725)" d="M2.23606797749979,0A2.23606797749979,2.23606797749979,0,1,1,-2.23606797749979,0A2.23606797749979,2.23606797749979,0,1,1,2.23606797749979,0" fill="white" stroke="steelblue" stroke-width="1.5"/><path transform="translate(1361.344537815126,666.3234)" d="M2.23606797749979,0A2.23606797749979,2.23606797749979,0,1,1,-2.23606797749979,0A2.23606797749979,2.23606797749979,0,1,1,2.23606797749979,0" fill="white" stroke="steelblue" stroke-width="1.5"/><path transform="translate(1380.252100840336,627.703425)" d="M2.23606797749979,0A2.23606797749979,2.23606797749979,0,1,1,-2.23606797749979,0A2.23606797749979,2.23606797749979,0,1,1,2.23606797749979,0" fill="white" stroke="steelblue" stroke-width="1.5"/><path transform="translate(1399.1596638655462,518.28015)" d="M2.23606797749979,0A2.23606797749979,2.23606797749979,0,1,1,-2.23606797749979,0A2.23606797749979,2.23606797749979,0,1,1,2.23606797749979,0" fill="white" stroke="steelblue" stroke-width="1.5"/><path transform="translate(1418.0672268907563,492.533475)" d="M2.23606797749979,0A2.23606797749979,2.23606797749979,0,1,1,-2.23606797749979,0A2.23606797749979,2.23606797749979,0,1,1,2.23606797749979,0" fill="white" stroke="steelblue" stroke-width="1.5"/><path transform="translate(1436.9747899159665,531.15345)" d="M2.23606797749979,0A2.23606797749979,2.23606797749979,0,1,1,-2.23606797749979,0A2.23606797749979,2.23606797749979,0,1,1,2.23606797749979,0" fill="white" stroke="steelblue" stroke-width="1.5"/><path transform="translate(1455.8823529411764,460.35015)" d="M2.23606797749979,0A2.23606797749979,2.23606797749979,0,1,1,-2.23606797749979,0A2.23606797749979,2.23606797749979,0,1,1,2.23606797749979,0" fill="white" stroke="steelblue" stroke-width="1.5"/><path transform="translate(1474.7899159663864,357.363525)" d="M2.23606797749979,0A2.23606797749979,2.23606797749979,0,1,1,-2.23606797749979,0A2.23606797749979,2.23606797749979,0,1,1,2.23606797749979,0" fill="white" stroke="steelblue" stroke-width="1.5"/><path transform="translate(1493.6974789915967,106.33372500000002)" d="M2.23606797749979,0A2.23606797749979,2.23606797749979,0,1,1,-2.23606797749979,0A2.23606797749979,2.23606797749979,0,1,1,2.23606797749979,0" fill="white" stroke="steelblue" stroke-width="1.5"/></g><g class="mark-group role-title"><g transform="translate(717.4738907485746,-35)"><path class="background" aria-hidden="true" d="M0,0h0v0h0Z" pointer-events="none"/><g><g class="mark-text role-title-text" role="graphics-symbol" aria-roledescription="title" aria-label="Title text 'COVID-19 7-day-incidence in 'Bezirk Amstetten' (absolute)'" pointer-events="none"><text text-anchor="middle" transform="translate(0,19)" font-family="sans-serif" font-size="24px" font-weight="bold" fill="#000" opacity="1">COVID-19 7-day-incidence in 'Bezirk Amstetten' (absolute)</text></g></g><path class="foreground" aria-hidden="true" d="" pointer-events="none" display="none"/></g></g></g><path class="foreground" aria-hidden="true" d="" display="none"/></g></g></g></svg>