<svg xmlns="http://www.w3.org/2000/svg" xmlns:xlink="http://www.w3.org/1999/xlink" version="1.1" class="marks" width="1582" height="900" viewBox="0 0 1582 900"><g fill="none" stroke-miterlimit="10" transform="translate(74,40)"><g class="mark-group role-frame root" role="graphics-object" aria-roledescription="group mark container"><g transform="translate(0,0)"><path class="background" aria-hidden="true" d="M0,0h1500v750h-1500Z"/><g><g class="mark-group role-axis" role="graphics-symbol" aria-roledescription="axis" aria-label="Y-axis titled 'COVID-19 cases (absolute)' for a linear scale with values from 0 to 600"><g transform="translate(0.5,0.5)"><path class="background" aria-hidden="true" d="M0,0h0v0h0Z" pointer-events="none"/><g><g class="mark-rule role-axis-grid" pointer-events="none"><line transform="translate(0,750)" x2="1500" y2="0" stroke="#ddd" stroke-width="1" opacity="1"/><line transform="translate(0,688)" x2="1500" y2="0" stroke="#ddd" stroke-width="1" opacity="1"/><line transform="translate(0,625)" x2="1500" y2="0" stroke="#ddd" stroke-width="1" opacity="1"/><line transform="translate(0,563)" x2="1500" y2="0" stroke="#ddd" stroke-width="1" opacity="1"/><line transform="translate(0,500)" x2="1500" y2="0" stroke="#ddd" stroke-width="1" opacity="1"/><line transform="translate(0,437)" x2="1500" y2="0" stroke="#ddd" stroke-width="1" opacity="1"/><line transform="translate(0,375)" x2="1500" y2="0" stroke="#ddd" stroke-width="1" opacity="1"/><line transform="translate(0,313)" x2="1500" y2="0" stroke="#ddd" stroke-width="1" opacity="1"/><line transform="translate(0,250)" x2="1500" y2="0" stroke="#ddd" stroke-width="1" opacity="1"/><line transform="translate(0,188)" x2="1500" y2="0" stroke="#ddd" stroke-width="1" opacity="1"/><line transform="translate(0,125)" x2="1500" y2="0" stroke="#ddd" stroke-width="1" opacity="1"/><line transform="translate(0,63)" x2="1500" y2="0" stroke="#ddd" stroke-width="1" opacity="1"/><line transform="translate(0,0)" x2="1500" y2="0" stroke="#ddd" stroke-width="1" opacity="1"/></g><g class="mark-rule role-axis-tick" pointer-events="none"><line transform="translate(0,750)" x2="-5" y2="0" stroke="#888" stroke-width="1" opacity="1"/><line transform="translate(0,688)" x2="-5" y2="0" stroke="#888" stroke-width="1" opacity="1"/><line transform="translate(0,625)" x2="-5" y2="0" stroke="#888" stroke-width="1" opacity="1"/><line transform="translate(0,563)" x2="-5" y2="0" stroke="#888" stroke-width="1" opacity="1"/><line transform="translate(0,500)" x2="-5" y2="0" stroke="#888" stroke-width="1" opacity="1"/><line transform="translate(0,437)" x2="-5" y2="0" stroke="#888" stroke-width="1" opacity="1"/><line transform="translate(0,375)" x2="-5" y2="0" stroke="#888" stroke-width="1" opacity="1"/><line transform="translate(0,313)" x2="-5" y2="0" stroke="#888" stroke-width="1" opacity="1"/><line transform="translate(0,250)" x2="-5" y2="0" stroke="#888" stroke-width="1" opacity="1"/><line transform="translate(0,188)" x2="-5" y2="0" stroke="#888" stroke-width="1" opacity="1"/><line transform="translate(0,125)" x2="-5" y2="0" stroke="#888" stroke-width="1" opacity="1"/><line transform="translate(0,63)" x2="-5" y2="0" stroke="#888" stroke-width="1" opacity="1"/><line transform="translate(0,0)" x2="-5" y2="0" stroke="#888" stroke-width="1" opacity="1"/></g><g class="mark-text role-axis-label" pointer-events="none"><text text-anchor="end" transform="translate(-7,754)" font-family="sans-serif" font-size="14px" fill="#000" opacity="1">0</text><text text-anchor="end" transform="translate(-7,691.5)" font-family="sans-serif" font-size="14px" fill="#000" opacity="1">50</text><text text-anchor="end" transform="translate(-7,629)" font-family="sans-serif" font-size="14px" fill="#000" opacity="1">100</text><text text-anchor="end" transform="translate(-7,566.5)" font-family="sans-serif" font-size="14px" fill="#000" opacity="1">150</text><text text-anchor="end" transform="translate(-7,504.00000000000006)" font-family="sans-serif" font-size="14px" fill="#000" opacity="1">200</text><text text-anchor="end" transform="translate(-7,441.49999999999994)" font-family="sans-serif" font-size="14px" fill="#000" opacity="1">250</text><text text-anchor="end" transform="translate(-7,379)" font-family="sans-serif" font-size="14px" fill="#000" opacity="1">300</text><text text-anchor="end" transform="translate(-7,316.5)" font-family="sans-serif" font-size="14px" fill="#000" opacity="1">350</text><text text-anchor="end" transform="translate(-7,254.00000000000003)" font-family="sans-serif" font-size="14px" fill="#000" opacity="1">400</text><text text-anchor="end" transform="translate(-7,191.5)" font-family="sans-serif" font-size="14px" fill="#000" opacity="1">450</text><text text-anchor="end" transform="translate(-7,128.99999999999997)" font-family="sans-serif" font-size="14px" fill="#000" opacity="1">500</text><text text-anchor="end" transform="translate(-7,66.50000000000003)" font-family="sans-serif" font-size="14px" fill="#000" opacity="1">550</text><text text-anchor="end" transform="translate(-7,4)" font-family="sans-serif" font-size="14px" fill="#000" opacity="1">600</text></g><g class="mark-rule role-axis-domain" pointer-events="none"><line transform="translate(0,750)" x2="0" y2="-750" stroke="#888" stroke-width="1" opacity="1"/></g><g class="mark-text role-axis-title" pointer-events="none"><text text-anchor="middle" transform="translate(-50,375) rotate(-90) translate(0,-4)" font-family="sans-serif" font-size="18px" font-weight="bold" fill="#000" opacity="1">COVID-19 cases (absolute)</text></g></g><path class="foreground" aria-hidden="true" d="" pointer-events="none" display="none"/></g></g><g class="mark-group role-axis" role="graphics-symbol" aria-roledescription="axis" aria-label="X-axis titled 'Date' for a linear scale with values from 2020-02-26 to 2020-10-21"><g transform="translate(0.5,750.5)"><path class="background" aria-hidden="true" d="M0,0h0v0h0Z" pointer-events="none"/><g><g class="mark-rule role-axis-tick" pointer-events="none"><line transform="translate(24,0)" x2="0" y2="5" stroke="#888" stroke-width="1" opacity="1"/><line transform="translate(97,0)" x2="0" y2="5" stroke="#888" stroke-width="1" opacity="1"/><line transform="translate(170,0)" x2="0" y2="5" stroke="#888" stroke-width="1" opacity="1"/><line transform="translate(243,0)" x2="0" y2="5" stroke="#888" stroke-width="1" opacity="1"/><line transform="translate(315,0)" x2="0" y2="5" stroke="#888" stroke-width="1" opacity="1"/><line transform="translate(388,0)" x2="0" y2="5" stroke="#888" stroke-width="1" opacity="1"/><line transform="translate(461,0)" x2="0" y2="5" stroke="#888" stroke-width="1" opacity="1"/><line transform="translate(534,0)" x2="0" y2="5" stroke="#888" stroke-width="1" opacity="1"/><line transform="translate(607,0)" x2="0" y2="5" stroke="#888" stroke-width="1" opacity="1"/><line transform="translate(680,0)" x2="0" y2="5" stroke="#888" stroke-width="1" opacity="1"/><line transform="translate(753,0)" x2="0" y2="5" stroke="#888" stroke-width="1" opacity="1"/><line transform="translate(826,0)" x2="0" y2="5" stroke="#888" stroke-width="1" opacity="1"/><line transform="translate(899,0)" x2="0" y2="5" stroke="#888" stroke-width="1" opacity="1"/><line transform="translate(972,0)" x2="0" y2="5" stroke="#888" stroke-width="1" opacity="1"/><line transform="translate(1045,0)" x2="0" y2="5" stroke="#888" stroke-width="1" opacity="1"/><line transform="translate(1118,0)" x2="0" y2="5" stroke="#888" stroke-width="1" opacity="1"/><line transform="translate(1191,0)" x2="0" y2="5" stroke="#888" stroke-width="1" opacity="1"/><line transform="translate(1264,0)" x2="0" y2="5" stroke="#888" stroke-width="1" opacity="1"/><line transform="translate(1337,0)" x2="0" y2="5" stroke="#888" stroke-width="1" opacity="1"/><line transform="translate(1410,0)" x2="0" y2="5" stroke="#888" stroke-width="1" opacity="1"/><line transform="translate(1483,0)" x2="0" y2="5" stroke="#888" stroke-width="1" opacity="1"/></g><g class="mark-text role-axis-label" pointer-events="none"><text text-anchor="end" transform="translate(23.69281045751634,7) rotate(-35) translate(0,11)" font-family="sans-serif" font-size="14px" fill="#000" opacity="1">2020-02-29</text><text text-anchor="end" transform="translate(96.63865546218486,7) rotate(-35) translate(0,11)" font-family="sans-serif" font-size="14px" fill="#000" opacity="1">2020-03-12</text><text text-anchor="end" transform="translate(169.5845004668534,7) rotate(-35) translate(0,11)" font-family="sans-serif" font-size="14px" fill="#000" opacity="1">2020-03-23</text><text text-anchor="end" transform="translate(242.53034547152194,7) rotate(-35) translate(0,11)" font-family="sans-serif" font-size="14px" fill="#000" opacity="1">2020-04-04</text><text text-anchor="end" transform="translate(315.4761904761905,7) rotate(-35) translate(0,11)" font-family="sans-serif" font-size="14px" fill="#000" opacity="1">2020-04-16</text><text text-anchor="end" transform="translate(388.422035480859,7) rotate(-35) translate(0,11)" font-family="sans-serif" font-size="14px" fill="#000" opacity="1">2020-04-27</text><text text-anchor="end" transform="translate(461.3678804855275,7) rotate(-35) translate(0,11)" font-family="sans-serif" font-size="14px" fill="#000" opacity="1">2020-05-09</text><text text-anchor="end" transform="translate(534.3137254901961,7) rotate(-35) translate(0,11)" font-family="sans-serif" font-size="14px" fill="#000" opacity="1">2020-05-20</text><text text-anchor="end" transform="translate(607.2595704948646,7) rotate(-35) translate(0,11)" font-family="sans-serif" font-size="14px" fill="#000" opacity="1">2020-06-01</text><text text-anchor="end" transform="translate(680.2054154995332,7) rotate(-35) translate(0,11)" font-family="sans-serif" font-size="14px" fill="#000" opacity="1">2020-06-12</text><text text-anchor="end" transform="translate(753.1512605042017,7) rotate(-35) translate(0,11)" font-family="sans-serif" font-size="14px" fill="#000" opacity="1">2020-06-24</text><text text-anchor="end" transform="translate(826.0971055088702,7) rotate(-35) translate(0,11)" font-family="sans-serif" font-size="14px" fill="#000" opacity="1">2020-07-06</text><text text-anchor="end" transform="translate(899.0429505135388,7) rotate(-35) translate(0,11)" font-family="sans-serif" font-size="14px" fill="#000" opacity="1">2020-07-17</text><text text-anchor="end" transform="translate(971.9887955182073,7) rotate(-35) translate(0,11)" font-family="sans-serif" font-size="14px" fill="#000" opacity="1">2020-07-29</text><text text-anchor="end" transform="translate(1044.9346405228757,7) rotate(-35) translate(0,11)" font-family="sans-serif" font-size="14px" fill="#000" opacity="1">2020-08-09</text><text text-anchor="end" transform="translate(1117.8804855275444,7) rotate(-35) translate(0,11)" font-family="sans-serif" font-size="14px" fill="#000" opacity="1">2020-08-21</text><text text-anchor="end" transform="translate(1190.8263305322128,7) rotate(-35) translate(0,11)" font-family="sans-serif" font-size="14px" fill="#000" opacity="1">2020-09-01</text><text text-anchor="end" transform="translate(1263.7721755368814,7) rotate(-35) translate(0,11)" font-family="sans-serif" font-size="14px" fill="#000" opacity="1">2020-09-13</text><text text-anchor="end" transform="translate(1336.71802054155,7) rotate(-35) translate(0,11)" font-family="sans-serif" font-size="14px" fill="#000" opacity="1">2020-09-25</text><text text-anchor="end" transform="translate(1409.6638655462184,7) rotate(-35) translate(0,11)" font-family="sans-serif" font-size="14px" fill="#000" opacity="1">2020-10-06</text><text text-anchor="end" transform="translate(1482.609710550887,7) rotate(-35) translate(0,11)" font-family="sans-serif" font-size="14px" fill="#000" opacity="1">2020-10-18</text></g><g class="mark-rule role-axis-domain" pointer-events="none"><line transform="translate(0,0)" x2="1500" y2="0" stroke="#888" stroke-width="1" opacity="1"/></g><g class="mark-text role-axis-title" pointer-events="none"><text text-anchor="middle" transform="translate(750,100.70868949136309)" font-family="sans-serif" font-size="18px" font-weight="bold" fill="#000" opacity="1">Date</text></g></g><path class="foreground" aria-hidden="true" d="" pointer-events="none" display="none"/></g></g><g class="mark-line role-mark" role="graphics-symbol" aria-roledescription="line mark container"><path d="M0,750C2.100840336134454,750,4.201680672268907,750,6.302521008403361,750C8.403361344537815,750,10.504201680672269,750,12.605042016806722,750C14.705882352941176,750,16.80672268907563,750,18.907563025210084,750C21.008403361344538,750,23.10924369747899,750,25.210084033613445,750C27.310924369747898,750,29.411764705882355,750,31.51260504201681,750C33.61344537815126,750,35.714285714285715,750,37.81512605042017,750C39.91596638655462,750,42.016806722689076,750,44.11764705882353,750C46.21848739495798,750,48.319327731092436,750,50.42016806722689,750C52.52100840336134,750,54.621848739495796,750,56.72268907563025,750C58.8235294117647,750,60.92436974789916,750,63.02521008403362,750C65.12605042016807,750,67.22689075630252,750,69.32773109243698,750C71.42857142857143,750,73.52941176470588,750,75.63025210084034,750C77.73109243697479,750,79.83193277310924,747.5,81.9327731092437,747.5C84.03361344537815,747.5,86.1344537815126,747.5,88.23529411764706,747.5C90.33613445378151,747.5,92.43697478991596,747.0833333333334,94.53781512605042,746.25C96.63865546218487,745.4166666666666,98.73949579831933,743.5416666666666,100.84033613445378,740C102.94117647058823,736.4583333333334,105.04201680672269,729.375,107.14285714285714,725C109.24369747899159,720.625,111.34453781512605,714.5833333333334,113.4453781512605,713.75C115.54621848739495,712.9166666666666,117.6470588235294,713.3333333333334,119.74789915966386,712.5C121.84873949579831,711.6666666666666,123.94957983193278,709.1666666666666,126.05042016806723,705C128.1512605042017,700.8333333333334,130.25210084033614,691.875,132.3529411764706,687.5C134.45378151260505,683.125,136.55462184873952,680.8333333333334,138.65546218487395,678.75C140.75630252100842,676.6666666666666,142.85714285714286,677.2916666666666,144.95798319327733,675C147.05882352941177,672.7083333333334,149.15966386554624,669.1666666666666,151.26050420168067,665C153.36134453781514,660.8333333333334,155.46218487394958,655.2083333333334,157.56302521008405,650C159.6638655462185,644.7916666666666,161.76470588235296,638.3333333333334,163.8655462184874,633.75C165.96638655462183,629.1666666666666,168.0672268907563,627.0833333333334,170.16806722689074,622.5C172.2689075630252,617.9166666666666,174.36974789915965,613.75,176.47058823529412,606.25C178.57142857142856,598.75,180.67226890756302,586.4583333333334,182.77310924369746,577.5C184.87394957983193,568.5416666666666,186.97478991596637,557.5,189.07563025210084,552.5C191.1764705882353,547.5,193.27731092436974,548.75,195.3781512605042,545C197.47899159663865,541.25,199.57983193277312,534.1666666666666,201.68067226890756,530C203.78151260504202,525.8333333333334,205.88235294117646,523.75,207.98319327731093,520C210.08403361344537,516.25,212.18487394957984,511.45833333333337,214.28571428571428,507.50000000000006C216.38655462184875,503.5416666666667,218.48739495798318,500.41666666666663,220.58823529411765,496.24999999999994C222.6890756302521,492.08333333333326,224.78991596638656,487.0833333333333,226.890756302521,482.5C228.99159663865547,477.9166666666667,231.0924369747899,471.25,233.19327731092437,468.75C235.2941176470588,466.25,237.39495798319328,466.25,239.49579831932772,465C241.5966386554622,463.75,243.69747899159663,463.33333333333337,245.7983193277311,461.25C247.89915966386556,459.16666666666663,250,454.79166666666663,252.10084033613447,452.49999999999994C254.2016806722689,450.20833333333326,256.30252100840335,449.5833333333333,258.4033613445378,447.5C260.5042016806723,445.4166666666667,262.60504201680675,442.9166666666667,264.7058823529412,440C266.8067226890756,437.08333333333337,268.9075630252101,433.33333333333326,271.0084033613445,429.99999999999994C273.109243697479,426.6666666666666,275.21008403361344,423.75000000000006,277.3109243697479,420.00000000000006C279.4117647058824,416.25000000000006,281.5126050420168,409.16666666666663,283.61344537815125,407.5C285.7142857142857,405.8333333333333,287.8151260504202,405,289.91596638655466,405C292.01680672268907,405,294.11764705882354,405,296.21848739495795,405C298.3193277310924,405,300.4201680672269,402.49999999999994,302.52100840336135,401.24999999999994C304.6218487394958,399.99999999999994,306.7226890756302,398.3333333333333,308.8235294117647,397.5C310.92436974789916,396.6666666666667,313.02521008403363,397.0833333333333,315.1260504201681,396.25C317.2268907563025,395.4166666666667,319.327731092437,393.5416666666667,321.4285714285714,392.5C323.52941176470586,391.4583333333333,325.6302521008403,390,327.7310924369748,390C329.83193277310926,390,331.9327731092437,390,334.0336134453782,390C336.1344537815126,390,338.2352941176471,387.49999999999994,340.3361344537815,387.49999999999994C342.43697478991595,387.49999999999994,344.5378151260504,387.49999999999994,346.6386554621849,387.49999999999994C348.73949579831935,387.49999999999994,350.84033613445376,386.66666666666663,352.94117647058823,386.25C355.0420168067227,385.8333333333333,357.14285714285717,385.625,359.24369747899163,385C361.34453781512605,384.375,363.4453781512605,382.5,365.5462184873949,382.5C367.6470588235294,382.5,369.74789915966386,382.5,371.8487394957983,382.5C373.9495798319328,382.5,376.0504201680672,382.5,378.1512605042017,382.5C380.25210084033614,382.5,382.35294117647055,382.5,384.453781512605,382.5C386.5546218487395,382.5,388.65546218487395,381.6666666666667,390.7563025210084,381.25C392.8571428571429,380.8333333333333,394.9579831932773,379.99999999999994,397.05882352941177,379.99999999999994C399.15966386554624,379.99999999999994,401.26050420168065,379.99999999999994,403.3613445378151,379.99999999999994C405.4621848739496,379.99999999999994,407.563025210084,379.99999999999994,409.66386554621846,379.99999999999994C411.7647058823529,379.99999999999994,413.8655462184874,379.99999999999994,415.96638655462186,379.99999999999994C418.06722689075633,379.99999999999994,420.16806722689074,379.99999999999994,422.2689075630252,379.99999999999994C424.3697478991597,379.99999999999994,426.4705882352941,379.99999999999994,428.57142857142856,379.99999999999994C430.672268907563,379.99999999999994,432.7731092436975,379.99999999999994,434.87394957983196,379.99999999999994C436.9747899159664,379.99999999999994,439.07563025210084,379.99999999999994,441.1764705882353,379.99999999999994C443.2773109243698,379.99999999999994,445.3781512605042,378.75,447.47899159663865,378.75C449.5798319327731,378.75,451.68067226890753,378.75,453.781512605042,378.75C455.88235294117646,378.75,457.98319327731093,378.75,460.0840336134454,378.75C462.18487394957987,378.75,464.2857142857143,378.75,466.38655462184875,378.75C468.4873949579832,378.75,470.5882352941176,378.75,472.6890756302521,378.75C474.78991596638656,378.75,476.89075630252097,378.75,478.99159663865544,378.75C481.0924369747899,378.75,483.1932773109244,377.50000000000006,485.29411764705884,377.50000000000006C487.3949579831933,377.50000000000006,489.4957983193277,377.50000000000006,491.5966386554622,377.50000000000006C493.69747899159665,377.50000000000006,495.79831932773106,377.50000000000006,497.89915966386553,377.50000000000006C500,377.50000000000006,502.10084033613447,377.50000000000006,504.20168067226894,377.50000000000006C506.3025210084034,377.50000000000006,508.4033613445378,377.50000000000006,510.5042016806723,377.50000000000006C512.6050420168067,377.50000000000006,514.7058823529412,377.50000000000006,516.8067226890756,377.50000000000006C518.90756302521,377.50000000000006,521.0084033613446,377.50000000000006,523.109243697479,377.50000000000006C525.2100840336135,377.50000000000006,527.3109243697479,377.50000000000006,529.4117647058824,377.50000000000006C531.5126050420168,377.50000000000006,533.6134453781514,377.50000000000006,535.7142857142858,377.50000000000006C537.8151260504202,377.50000000000006,539.9159663865546,377.50000000000006,542.016806722689,377.50000000000006C544.1176470588234,377.50000000000006,546.218487394958,377.50000000000006,548.3193277310924,377.50000000000006C550.4201680672269,377.50000000000006,552.5210084033613,377.50000000000006,554.6218487394958,377.50000000000006C556.7226890756302,377.50000000000006,558.8235294117648,377.50000000000006,560.9243697478992,377.50000000000006C563.0252100840336,377.50000000000006,565.1260504201681,377.50000000000006,567.2268907563025,377.50000000000006C569.3277310924369,377.50000000000006,571.4285714285714,376.25000000000006,573.5294117647059,376.25000000000006C575.6302521008404,376.25000000000006,577.7310924369748,376.25000000000006,579.8319327731093,376.25000000000006C581.9327731092437,376.25000000000006,584.0336134453781,376.25000000000006,586.1344537815125,376.25000000000006C588.235294117647,376.25000000000006,590.3361344537815,376.25000000000006,592.4369747899159,376.25000000000006C594.5378151260504,376.25000000000006,596.6386554621848,376.25000000000006,598.7394957983194,376.25000000000006C600.8403361344538,376.25000000000006,602.9411764705883,376.25000000000006,605.0420168067227,376.25000000000006C607.1428571428571,376.25000000000006,609.2436974789916,376.25000000000006,611.344537815126,376.25000000000006C613.4453781512605,376.25000000000006,615.546218487395,376.25000000000006,617.6470588235294,376.25000000000006C619.7478991596639,376.25000000000006,621.8487394957983,376.25000000000006,623.9495798319329,376.25000000000006C626.0504201680673,376.25000000000006,628.1512605042018,375,630.2521008403362,375C632.3529411764706,375,634.453781512605,375,636.5546218487394,375C638.6554621848738,375,640.7563025210084,375,642.8571428571428,375C644.9579831932773,375,647.0588235294117,375,649.1596638655462,375C651.2605042016806,375,653.3613445378152,375,655.4621848739496,375C657.563025210084,375,659.6638655462185,375,661.7647058823529,375C663.8655462184875,375,665.9663865546219,375,668.0672268907564,375C670.1680672268908,375,672.2689075630253,375,674.3697478991597,375C676.4705882352941,375,678.5714285714286,375,680.672268907563,375C682.7731092436974,375,684.8739495798319,375,686.9747899159663,375C689.0756302521008,375,691.1764705882352,375,693.2773109243698,375C695.3781512605042,375,697.4789915966387,375,699.5798319327731,375C701.6806722689075,375,703.781512605042,375,705.8823529411765,375C707.9831932773109,375,710.0840336134454,375,712.1848739495798,375C714.2857142857143,375,716.3865546218487,375,718.4873949579833,375C720.5882352941177,375,722.6890756302522,375,724.7899159663866,375C726.890756302521,375,728.9915966386554,375,731.0924369747898,375C733.1932773109243,375,735.2941176470588,375,737.3949579831932,375C739.4957983193277,375,741.5966386554621,375,743.6974789915967,375C745.7983193277311,375,747.8991596638656,375,750,375C752.1008403361344,375,754.2016806722689,375,756.3025210084033,375C758.4033613445378,375,760.5042016806723,375,762.6050420168067,375C764.7058823529411,375,766.8067226890756,375,768.90756302521,375C771.0084033613446,375,773.109243697479,375,775.2100840336135,375C777.3109243697479,375,779.4117647058824,375,781.5126050420168,375C783.6134453781513,375,785.7142857142858,375,787.8151260504202,375C789.9159663865546,375,792.0168067226891,375,794.1176470588235,375C796.218487394958,375,798.3193277310925,375,800.4201680672269,375C802.5210084033613,375,804.6218487394958,373.74999999999994,806.7226890756302,373.74999999999994C808.8235294117646,373.74999999999994,810.9243697478992,373.74999999999994,813.0252100840336,373.74999999999994C815.126050420168,373.74999999999994,817.2268907563025,373.74999999999994,819.3277310924369,373.74999999999994C821.4285714285714,373.74999999999994,823.5294117647059,372.9166666666667,825.6302521008404,372.5C827.7310924369748,372.08333333333337,829.8319327731093,372.0833333333333,831.9327731092437,371.25C834.0336134453781,370.4166666666667,836.1344537815127,367.5,838.2352941176471,367.5C840.3361344537815,367.5,842.436974789916,367.5,844.5378151260504,367.5C846.6386554621848,367.5,848.7394957983194,367.5,850.8403361344538,367.5C852.9411764705882,367.5,855.0420168067227,366.24999999999994,857.1428571428571,366.24999999999994C859.2436974789915,366.24999999999994,861.344537815126,366.24999999999994,863.4453781512605,366.24999999999994C865.546218487395,366.24999999999994,867.6470588235294,366.24999999999994,869.7478991596639,366.24999999999994C871.8487394957983,366.24999999999994,873.9495798319329,366.24999999999994,876.0504201680673,366.24999999999994C878.1512605042017,366.24999999999994,880.2521008403362,366.24999999999994,882.3529411764706,366.24999999999994C884.453781512605,366.24999999999994,886.5546218487395,366.24999999999994,888.655462184874,366.24999999999994C890.7563025210084,366.24999999999994,892.8571428571429,366.24999999999994,894.9579831932773,366.24999999999994C897.0588235294117,366.24999999999994,899.1596638655462,365,901.2605042016806,365C903.3613445378151,365,905.4621848739496,365,907.563025210084,365C909.6638655462184,365,911.7647058823529,365,913.8655462184873,365C915.9663865546219,365,918.0672268907563,365,920.1680672268908,365C922.2689075630252,365,924.3697478991597,363.54166666666663,926.4705882352941,362.49999999999994C928.5714285714286,361.45833333333326,930.6722689075631,358.75000000000006,932.7731092436975,358.75000000000006C934.8739495798319,358.75000000000006,936.9747899159664,358.75000000000006,939.0756302521008,358.75000000000006C941.1764705882352,358.75000000000006,943.2773109243698,358.75000000000006,945.3781512605042,358.75000000000006C947.4789915966386,358.75000000000006,949.5798319327731,358.33333333333337,951.6806722689075,357.5C953.7815126050419,356.66666666666663,955.8823529411765,354.5833333333333,957.9831932773109,353.75C960.0840336134454,352.9166666666667,962.1848739495798,352.5,964.2857142857143,352.5C966.3865546218487,352.5,968.4873949579833,352.5,970.5882352941177,352.5C972.6890756302521,352.5,974.7899159663866,350.625,976.890756302521,350C978.9915966386554,349.375,981.09243697479,348.75,983.1932773109244,348.75C985.2941176470588,348.75,987.3949579831933,348.75,989.4957983193277,348.75C991.5966386554621,348.75,993.6974789915967,348.75,995.7983193277311,348.75C997.8991596638655,348.75,1000,348.75,1002.1008403361344,348.75C1004.2016806722689,348.75,1006.3025210084033,348.75,1008.4033613445379,348.75C1010.5042016806723,348.75,1012.6050420168068,348.75,1014.7058823529412,348.75C1016.8067226890756,348.75,1018.9075630252102,348.75,1021.0084033613446,348.75C1023.109243697479,348.75,1025.2100840336134,348.75,1027.310924369748,348.75C1029.4117647058824,348.75,1031.5126050420167,348.75,1033.6134453781513,348.75C1035.7142857142858,348.75,1037.81512605042,347.91666666666674,1039.9159663865546,347.50000000000006C1042.0168067226891,347.08333333333337,1044.1176470588234,346.6666666666667,1046.218487394958,346.25C1048.3193277310925,345.8333333333333,1050.4201680672268,345,1052.5210084033613,345C1054.6218487394958,345,1056.7226890756303,345,1058.8235294117649,345C1060.9243697478994,345,1063.0252100840337,343.125,1065.1260504201682,342.5C1067.2268907563027,341.875,1069.327731092437,341.66666666666663,1071.4285714285716,341.24999999999994C1073.529411764706,340.83333333333326,1075.6302521008404,340.4166666666667,1077.731092436975,340C1079.8319327731092,339.58333333333337,1081.9327731092437,339.375,1084.033613445378,338.75C1086.1344537815125,338.125,1088.2352941176468,337.08333333333337,1090.3361344537814,336.25C1092.436974789916,335.41666666666663,1094.5378151260502,334.37499999999994,1096.6386554621847,333.74999999999994C1098.7394957983192,333.12499999999994,1100.8403361344538,332.5,1102.9411764705883,332.5C1105.0420168067228,332.5,1107.142857142857,332.5,1109.2436974789916,332.5C1111.3445378151262,332.5,1113.4453781512605,331.25,1115.546218487395,331.25C1117.6470588235295,331.25,1119.7478991596638,331.25,1121.8487394957983,331.25C1123.9495798319329,331.25,1126.0504201680671,331.25,1128.1512605042017,331.25C1130.2521008403362,331.25,1132.3529411764705,331.25,1134.453781512605,331.25C1136.5546218487395,331.25,1138.6554621848738,330.62499999999994,1140.7563025210084,329.99999999999994C1142.857142857143,329.37499999999994,1144.9579831932772,327.5,1147.0588235294117,327.5C1149.1596638655462,327.5,1151.2605042016808,327.5,1153.3613445378153,327.5C1155.4621848739498,327.5,1157.563025210084,325,1159.6638655462186,325C1161.7647058823532,325,1163.8655462184875,325,1165.966386554622,325C1168.0672268907563,325,1170.1680672268908,322.0833333333333,1172.268907563025,321.25C1174.3697478991596,320.4166666666667,1176.470588235294,320,1178.5714285714284,320C1180.672268907563,320,1182.7731092436973,320,1184.8739495798318,320C1186.9747899159663,320,1189.0756302521006,320,1191.1764705882351,320C1193.2773109243697,320,1195.3781512605042,320,1197.4789915966387,320C1199.5798319327732,320,1201.6806722689075,319.16666666666674,1203.781512605042,318.75000000000006C1205.8823529411766,318.33333333333337,1207.9831932773109,317.5,1210.0840336134454,317.5C1212.18487394958,317.5,1214.2857142857142,317.5,1216.3865546218487,317.5C1218.4873949579833,317.5,1220.5882352941176,313.3333333333333,1222.689075630252,312.5C1224.7899159663866,311.6666666666667,1226.890756302521,311.6666666666667,1228.9915966386554,311.25C1231.09243697479,310.8333333333333,1233.1932773109243,310.625,1235.2941176470588,310C1237.3949579831933,309.375,1239.4957983193276,308.125,1241.5966386554621,307.5C1243.6974789915967,306.875,1245.7983193277312,306.6666666666667,1247.8991596638657,306.25C1250.0000000000002,305.8333333333333,1252.1008403361345,305.41666666666663,1254.201680672269,304.99999999999994C1256.3025210084036,304.58333333333326,1258.4033613445379,304.1666666666667,1260.5042016806724,303.75C1262.6050420168067,303.33333333333337,1264.7058823529412,302.9166666666667,1266.8067226890755,302.5C1268.90756302521,302.0833333333333,1271.0084033613443,301.66666666666663,1273.1092436974789,301.24999999999994C1275.2100840336134,300.83333333333326,1277.3109243697477,300.8333333333333,1279.4117647058822,300C1281.5126050420167,299.1666666666667,1283.613445378151,297.0833333333333,1285.7142857142856,296.25C1287.81512605042,295.4166666666667,1289.9159663865546,295.4166666666667,1292.0168067226891,295C1294.1176470588236,294.58333333333337,1296.218487394958,293.75000000000006,1298.3193277310925,293.75000000000006C1300.420168067227,293.75000000000006,1302.5210084033613,293.75000000000006,1304.6218487394958,293.75000000000006C1306.7226890756303,293.75000000000006,1308.8235294117646,293.75000000000006,1310.9243697478992,293.75000000000006C1313.0252100840337,293.75000000000006,1315.126050420168,292.2916666666667,1317.2268907563025,291.25C1319.327731092437,290.2083333333333,1321.4285714285713,288.5416666666667,1323.5294117647059,287.5C1325.6302521008404,286.4583333333333,1327.7310924369747,285.8333333333333,1329.8319327731092,285C1331.9327731092437,284.1666666666667,1334.0336134453783,283.3333333333334,1336.1344537815128,282.50000000000006C1338.2352941176473,281.66666666666674,1340.3361344537816,279.99999999999994,1342.4369747899161,279.99999999999994C1344.5378151260506,279.99999999999994,1346.638655462185,279.99999999999994,1348.7394957983195,279.99999999999994C1350.840336134454,279.99999999999994,1352.9411764705883,278.95833333333337,1355.0420168067228,277.5C1357.142857142857,276.0416666666667,1359.2436974789916,273.125,1361.344537815126,271.25C1363.4453781512605,269.37499999999994,1365.5462184873948,267.91666666666663,1367.6470588235293,266.25C1369.7478991596638,264.58333333333337,1371.848739495798,264.58333333333337,1373.9495798319326,261.25000000000006C1376.0504201680671,257.91666666666674,1378.1512605042014,243.33333333333314,1380.252100840336,239.99999999999997C1382.3529411764705,236.66666666666669,1384.453781512605,235.00000000000003,1386.5546218487395,235.00000000000003C1388.655462184874,235.00000000000003,1390.7563025210084,235.00000000000003,1392.857142857143,235.00000000000003C1394.9579831932774,235.00000000000003,1397.0588235294117,230.62500000000003,1399.1596638655462,228.75000000000003C1401.2605042016808,226.87500000000003,1403.361344537815,225.83333333333334,1405.4621848739496,223.75C1407.563025210084,221.66666666666666,1409.6638655462184,220,1411.764705882353,216.25C1413.8655462184875,212.5,1415.9663865546217,204.58333333333326,1418.0672268907563,201.24999999999997C1420.1680672268908,197.91666666666669,1422.268907563025,197.70833333333334,1424.3697478991596,196.25000000000003C1426.4705882352941,194.79166666666666,1428.5714285714287,194.58333333333343,1430.6722689075632,192.50000000000003C1432.7731092436977,190.41666666666669,1434.873949579832,186.25,1436.9747899159665,183.75C1439.075630252101,181.25,1441.1764705882354,180.20833333333334,1443.2773109243699,177.50000000000003C1445.3781512605044,174.7916666666667,1447.4789915966387,170.62500000000009,1449.5798319327732,167.50000000000003C1451.6806722689075,164.37500000000009,1453.781512605042,163.12499999999986,1455.8823529411764,158.75C1457.9831932773109,154.37499999999997,1460.0840336134452,147.70833333333337,1462.1848739495797,141.25000000000003C1464.2857142857142,134.79166666666669,1466.3865546218485,127.9166666666667,1468.487394957983,120.00000000000003C1470.5882352941176,112.08333333333336,1472.6890756302519,102.70833333333317,1474.7899159663864,93.75C1476.890756302521,84.79166666666652,1478.9915966386554,74.37500000000013,1481.09243697479,66.25000000000003C1483.1932773109245,58.12500000000022,1485.2941176470588,51.87500000000005,1487.3949579831933,45.00000000000004C1489.4957983193278,38.125000000000036,1491.5966386554621,29.583333333333336,1493.6974789915967,24.999999999999993C1495.7983193277312,20.41666666666665,1497.8991596638655,18.95833333333332,1500,17.49999999999999" stroke="steelblue" stroke-width="3"/></g><g class="mark-symbol role-mark" role="graphics-symbol" aria-roledescription="symbol mark container"><path transform="translate(0,750)" d="M2.23606797749979,0A2.23606797749979,2.23606797749979,0,1,1,-2.23606797749979,0A2.23606797749979,2.23606797749979,0,1,1,2.23606797749979,0" fill="white" stroke="steelblue" stroke-width="1.5"/><path transform="translate(18.907563025210084,750)" d="M2.23606797749979,0A2.23606797749979,2.23606797749979,0,1,1,-2.23606797749979,0A2.23606797749979,2.23606797749979,0,1,1,2.23606797749979,0" fill="white" stroke="steelblue" stroke-width="1.5"/><path transform="translate(37.81512605042017,750)" d="M2.23606797749979,0A2.23606797749979,2.23606797749979,0,1,1,-2.23606797749979,0A2.23606797749979,2.23606797749979,0,1,1,2.23606797749979,0" fill="white" stroke="steelblue" stroke-width="1.5"/><path transform="translate(56.72268907563025,750)" d="M2.23606797749979,0A2.23606797749979,2.23606797749979,0,1,1,-2.23606797749979,0A2.23606797749979,2.23606797749979,0,1,1,2.23606797749979,0" fill="white" stroke="steelblue" stroke-width="1.5"/><path transform="translate(75.63025210084034,750)" d="M2.23606797749979,0A2.23606797749979,2.23606797749979,0,1,1,-2.23606797749979,0A2.23606797749979,2.23606797749979,0,1,1,2.23606797749979,0" fill="white" stroke="steelblue" stroke-width="1.5"/><path transform="translate(94.53781512605042,746.25)" d="M2.23606797749979,0A2.23606797749979,2.23606797749979,0,1,1,-2.23606797749979,0A2.23606797749979,2.23606797749979,0,1,1,2.23606797749979,0" fill="white" stroke="steelblue" stroke-width="1.5"/><path transform="translate(113.4453781512605,713.75)" d="M2.23606797749979,0A2.23606797749979,2.23606797749979,0,1,1,-2.23606797749979,0A2.23606797749979,2.23606797749979,0,1,1,2.23606797749979,0" fill="white" stroke="steelblue" stroke-width="1.5"/><path transform="translate(132.3529411764706,687.5)" d="M2.23606797749979,0A2.23606797749979,2.23606797749979,0,1,1,-2.23606797749979,0A2.23606797749979,2.23606797749979,0,1,1,2.23606797749979,0" fill="white" stroke="steelblue" stroke-width="1.5"/><path transform="translate(151.26050420168067,665)" d="M2.23606797749979,0A2.23606797749979,2.23606797749979,0,1,1,-2.23606797749979,0A2.23606797749979,2.23606797749979,0,1,1,2.23606797749979,0" fill="white" stroke="steelblue" stroke-width="1.5"/><path transform="translate(170.16806722689074,622.5)" d="M2.23606797749979,0A2.23606797749979,2.23606797749979,0,1,1,-2.23606797749979,0A2.23606797749979,2.23606797749979,0,1,1,2.23606797749979,0" fill="white" stroke="steelblue" stroke-width="1.5"/><path transform="translate(189.07563025210084,552.5)" d="M2.23606797749979,0A2.23606797749979,2.23606797749979,0,1,1,-2.23606797749979,0A2.23606797749979,2.23606797749979,0,1,1,2.23606797749979,0" fill="white" stroke="steelblue" stroke-width="1.5"/><path transform="translate(207.98319327731093,520)" d="M2.23606797749979,0A2.23606797749979,2.23606797749979,0,1,1,-2.23606797749979,0A2.23606797749979,2.23606797749979,0,1,1,2.23606797749979,0" fill="white" stroke="steelblue" stroke-width="1.5"/><path transform="translate(226.890756302521,482.5)" d="M2.23606797749979,0A2.23606797749979,2.23606797749979,0,1,1,-2.23606797749979,0A2.23606797749979,2.23606797749979,0,1,1,2.23606797749979,0" fill="white" stroke="steelblue" stroke-width="1.5"/><path transform="translate(245.7983193277311,461.25)" d="M2.23606797749979,0A2.23606797749979,2.23606797749979,0,1,1,-2.23606797749979,0A2.23606797749979,2.23606797749979,0,1,1,2.23606797749979,0" fill="white" stroke="steelblue" stroke-width="1.5"/><path transform="translate(264.7058823529412,440)" d="M2.23606797749979,0A2.23606797749979,2.23606797749979,0,1,1,-2.23606797749979,0A2.23606797749979,2.23606797749979,0,1,1,2.23606797749979,0" fill="white" stroke="steelblue" stroke-width="1.5"/><path transform="translate(283.61344537815125,407.5)" d="M2.23606797749979,0A2.23606797749979,2.23606797749979,0,1,1,-2.23606797749979,0A2.23606797749979,2.23606797749979,0,1,1,2.23606797749979,0" fill="white" stroke="steelblue" stroke-width="1.5"/><path transform="translate(302.52100840336135,401.24999999999994)" d="M2.23606797749979,0A2.23606797749979,2.23606797749979,0,1,1,-2.23606797749979,0A2.23606797749979,2.23606797749979,0,1,1,2.23606797749979,0" fill="white" stroke="steelblue" stroke-width="1.5"/><path transform="translate(321.4285714285714,392.5)" d="M2.23606797749979,0A2.23606797749979,2.23606797749979,0,1,1,-2.23606797749979,0A2.23606797749979,2.23606797749979,0,1,1,2.23606797749979,0" fill="white" stroke="steelblue" stroke-width="1.5"/><path transform="translate(340.3361344537815,387.49999999999994)" d="M2.23606797749979,0A2.23606797749979,2.23606797749979,0,1,1,-2.23606797749979,0A2.23606797749979,2.23606797749979,0,1,1,2.23606797749979,0" fill="white" stroke="steelblue" stroke-width="1.5"/><path transform="translate(359.24369747899163,385)" d="M2.23606797749979,0A2.23606797749979,2.23606797749979,0,1,1,-2.23606797749979,0A2.23606797749979,2.23606797749979,0,1,1,2.23606797749979,0" fill="white" stroke="steelblue" stroke-width="1.5"/><path transform="translate(378.1512605042017,382.5)" d="M2.23606797749979,0A2.23606797749979,2.23606797749979,0,1,1,-2.23606797749979,0A2.23606797749979,2.23606797749979,0,1,1,2.23606797749979,0" fill="white" stroke="steelblue" stroke-width="1.5"/><path transform="translate(397.05882352941177,379.99999999999994)" d="M2.23606797749979,0A2.23606797749979,2.23606797749979,0,1,1,-2.23606797749979,0A2.23606797749979,2.23606797749979,0,1,1,2.23606797749979,0" fill="white" stroke="steelblue" stroke-width="1.5"/><path transform="translate(415.96638655462186,379.99999999999994)" d="M2.23606797749979,0A2.23606797749979,2.23606797749979,0,1,1,-2.23606797749979,0A2.23606797749979,2.23606797749979,0,1,1,2.23606797749979,0" fill="white" stroke="steelblue" stroke-width="1.5"/><path transform="translate(434.87394957983196,379.99999999999994)" d="M2.23606797749979,0A2.23606797749979,2.23606797749979,0,1,1,-2.23606797749979,0A2.23606797749979,2.23606797749979,0,1,1,2.23606797749979,0" fill="white" stroke="steelblue" stroke-width="1.5"/><path transform="translate(453.781512605042,378.75)" d="M2.23606797749979,0A2.23606797749979,2.23606797749979,0,1,1,-2.23606797749979,0A2.23606797749979,2.23606797749979,0,1,1,2.23606797749979,0" fill="white" stroke="steelblue" stroke-width="1.5"/><path transform="translate(472.6890756302521,378.75)" d="M2.23606797749979,0A2.23606797749979,2.23606797749979,0,1,1,-2.23606797749979,0A2.23606797749979,2.23606797749979,0,1,1,2.23606797749979,0" fill="white" stroke="steelblue" stroke-width="1.5"/><path transform="translate(491.5966386554622,377.50000000000006)" d="M2.23606797749979,0A2.23606797749979,2.23606797749979,0,1,1,-2.23606797749979,0A2.23606797749979,2.23606797749979,0,1,1,2.23606797749979,0" fill="white" stroke="steelblue" stroke-width="1.5"/><path transform="translate(510.5042016806723,377.50000000000006)" d="M2.23606797749979,0A2.23606797749979,2.23606797749979,0,1,1,-2.23606797749979,0A2.23606797749979,2.23606797749979,0,1,1,2.23606797749979,0" fill="white" stroke="steelblue" stroke-width="1.5"/><path transform="translate(529.4117647058824,377.50000000000006)" d="M2.23606797749979,0A2.23606797749979,2.23606797749979,0,1,1,-2.23606797749979,0A2.23606797749979,2.23606797749979,0,1,1,2.23606797749979,0" fill="white" stroke="steelblue" stroke-width="1.5"/><path transform="translate(548.3193277310924,377.50000000000006)" d="M2.23606797749979,0A2.23606797749979,2.23606797749979,0,1,1,-2.23606797749979,0A2.23606797749979,2.23606797749979,0,1,1,2.23606797749979,0" fill="white" stroke="steelblue" stroke-width="1.5"/><path transform="translate(567.2268907563025,377.50000000000006)" d="M2.23606797749979,0A2.23606797749979,2.23606797749979,0,1,1,-2.23606797749979,0A2.23606797749979,2.23606797749979,0,1,1,2.23606797749979,0" fill="white" stroke="steelblue" stroke-width="1.5"/><path transform="translate(586.1344537815125,376.25000000000006)" d="M2.23606797749979,0A2.23606797749979,2.23606797749979,0,1,1,-2.23606797749979,0A2.23606797749979,2.23606797749979,0,1,1,2.23606797749979,0" fill="white" stroke="steelblue" stroke-width="1.5"/><path transform="translate(605.0420168067227,376.25000000000006)" d="M2.23606797749979,0A2.23606797749979,2.23606797749979,0,1,1,-2.23606797749979,0A2.23606797749979,2.23606797749979,0,1,1,2.23606797749979,0" fill="white" stroke="steelblue" stroke-width="1.5"/><path transform="translate(623.9495798319329,376.25000000000006)" d="M2.23606797749979,0A2.23606797749979,2.23606797749979,0,1,1,-2.23606797749979,0A2.23606797749979,2.23606797749979,0,1,1,2.23606797749979,0" fill="white" stroke="steelblue" stroke-width="1.5"/><path transform="translate(642.8571428571428,375)" d="M2.23606797749979,0A2.23606797749979,2.23606797749979,0,1,1,-2.23606797749979,0A2.23606797749979,2.23606797749979,0,1,1,2.23606797749979,0" fill="white" stroke="steelblue" stroke-width="1.5"/><path transform="translate(661.7647058823529,375)" d="M2.23606797749979,0A2.23606797749979,2.23606797749979,0,1,1,-2.23606797749979,0A2.23606797749979,2.23606797749979,0,1,1,2.23606797749979,0" fill="white" stroke="steelblue" stroke-width="1.5"/><path transform="translate(680.672268907563,375)" d="M2.23606797749979,0A2.23606797749979,2.23606797749979,0,1,1,-2.23606797749979,0A2.23606797749979,2.23606797749979,0,1,1,2.23606797749979,0" fill="white" stroke="steelblue" stroke-width="1.5"/><path transform="translate(699.5798319327731,375)" d="M2.23606797749979,0A2.23606797749979,2.23606797749979,0,1,1,-2.23606797749979,0A2.23606797749979,2.23606797749979,0,1,1,2.23606797749979,0" fill="white" stroke="steelblue" stroke-width="1.5"/><path transform="translate(718.4873949579833,375)" d="M2.23606797749979,0A2.23606797749979,2.23606797749979,0,1,1,-2.23606797749979,0A2.23606797749979,2.23606797749979,0,1,1,2.23606797749979,0" fill="white" stroke="steelblue" stroke-width="1.5"/><path transform="translate(737.3949579831932,375)" d="M2.23606797749979,0A2.23606797749979,2.23606797749979,0,1,1,-2.23606797749979,0A2.23606797749979,2.23606797749979,0,1,1,2.23606797749979,0" fill="white" stroke="steelblue" stroke-width="1.5"/><path transform="translate(756.3025210084033,375)" d="M2.23606797749979,0A2.23606797749979,2.23606797749979,0,1,1,-2.23606797749979,0A2.23606797749979,2.23606797749979,0,1,1,2.23606797749979,0" fill="white" stroke="steelblue" stroke-width="1.5"/><path transform="translate(775.2100840336135,375)" d="M2.23606797749979,0A2.23606797749979,2.23606797749979,0,1,1,-2.23606797749979,0A2.23606797749979,2.23606797749979,0,1,1,2.23606797749979,0" fill="white" stroke="steelblue" stroke-width="1.5"/><path transform="translate(794.1176470588235,375)" d="M2.23606797749979,0A2.23606797749979,2.23606797749979,0,1,1,-2.23606797749979,0A2.23606797749979,2.23606797749979,0,1,1,2.23606797749979,0" fill="white" stroke="steelblue" stroke-width="1.5"/><path transform="translate(813.0252100840336,373.74999999999994)" d="M2.23606797749979,0A2.23606797749979,2.23606797749979,0,1,1,-2.23606797749979,0A2.23606797749979,2.23606797749979,0,1,1,2.23606797749979,0" fill="white" stroke="steelblue" stroke-width="1.5"/><path transform="translate(831.9327731092437,371.25)" d="M2.23606797749979,0A2.23606797749979,2.23606797749979,0,1,1,-2.23606797749979,0A2.23606797749979,2.23606797749979,0,1,1,2.23606797749979,0" fill="white" stroke="steelblue" stroke-width="1.5"/><path transform="translate(850.8403361344538,367.5)" d="M2.23606797749979,0A2.23606797749979,2.23606797749979,0,1,1,-2.23606797749979,0A2.23606797749979,2.23606797749979,0,1,1,2.23606797749979,0" fill="white" stroke="steelblue" stroke-width="1.5"/><path transform="translate(869.7478991596639,366.24999999999994)" d="M2.23606797749979,0A2.23606797749979,2.23606797749979,0,1,1,-2.23606797749979,0A2.23606797749979,2.23606797749979,0,1,1,2.23606797749979,0" fill="white" stroke="steelblue" stroke-width="1.5"/><path transform="translate(888.655462184874,366.24999999999994)" d="M2.23606797749979,0A2.23606797749979,2.23606797749979,0,1,1,-2.23606797749979,0A2.23606797749979,2.23606797749979,0,1,1,2.23606797749979,0" fill="white" stroke="steelblue" stroke-width="1.5"/><path transform="translate(907.563025210084,365)" d="M2.23606797749979,0A2.23606797749979,2.23606797749979,0,1,1,-2.23606797749979,0A2.23606797749979,2.23606797749979,0,1,1,2.23606797749979,0" fill="white" stroke="steelblue" stroke-width="1.5"/><path transform="translate(926.4705882352941,362.49999999999994)" d="M2.23606797749979,0A2.23606797749979,2.23606797749979,0,1,1,-2.23606797749979,0A2.23606797749979,2.23606797749979,0,1,1,2.23606797749979,0" fill="white" stroke="steelblue" stroke-width="1.5"/><path transform="translate(945.3781512605042,358.75000000000006)" d="M2.23606797749979,0A2.23606797749979,2.23606797749979,0,1,1,-2.23606797749979,0A2.23606797749979,2.23606797749979,0,1,1,2.23606797749979,0" fill="white" stroke="steelblue" stroke-width="1.5"/><path transform="translate(964.2857142857143,352.5)" d="M2.23606797749979,0A2.23606797749979,2.23606797749979,0,1,1,-2.23606797749979,0A2.23606797749979,2.23606797749979,0,1,1,2.23606797749979,0" fill="white" stroke="steelblue" stroke-width="1.5"/><path transform="translate(983.1932773109244,348.75)" d="M2.23606797749979,0A2.23606797749979,2.23606797749979,0,1,1,-2.23606797749979,0A2.23606797749979,2.23606797749979,0,1,1,2.23606797749979,0" fill="white" stroke="steelblue" stroke-width="1.5"/><path transform="translate(1002.1008403361344,348.75)" d="M2.23606797749979,0A2.23606797749979,2.23606797749979,0,1,1,-2.23606797749979,0A2.23606797749979,2.23606797749979,0,1,1,2.23606797749979,0" fill="white" stroke="steelblue" stroke-width="1.5"/><path transform="translate(1021.0084033613446,348.75)" d="M2.23606797749979,0A2.23606797749979,2.23606797749979,0,1,1,-2.23606797749979,0A2.23606797749979,2.23606797749979,0,1,1,2.23606797749979,0" fill="white" stroke="steelblue" stroke-width="1.5"/><path transform="translate(1039.9159663865546,347.50000000000006)" d="M2.23606797749979,0A2.23606797749979,2.23606797749979,0,1,1,-2.23606797749979,0A2.23606797749979,2.23606797749979,0,1,1,2.23606797749979,0" fill="white" stroke="steelblue" stroke-width="1.5"/><path transform="translate(1058.8235294117649,345)" d="M2.23606797749979,0A2.23606797749979,2.23606797749979,0,1,1,-2.23606797749979,0A2.23606797749979,2.23606797749979,0,1,1,2.23606797749979,0" fill="white" stroke="steelblue" stroke-width="1.5"/><path transform="translate(1077.731092436975,340)" d="M2.23606797749979,0A2.23606797749979,2.23606797749979,0,1,1,-2.23606797749979,0A2.23606797749979,2.23606797749979,0,1,1,2.23606797749979,0" fill="white" stroke="steelblue" stroke-width="1.5"/><path transform="translate(1096.6386554621847,333.74999999999994)" d="M2.23606797749979,0A2.23606797749979,2.23606797749979,0,1,1,-2.23606797749979,0A2.23606797749979,2.23606797749979,0,1,1,2.23606797749979,0" fill="white" stroke="steelblue" stroke-width="1.5"/><path transform="translate(1115.546218487395,331.25)" d="M2.23606797749979,0A2.23606797749979,2.23606797749979,0,1,1,-2.23606797749979,0A2.23606797749979,2.23606797749979,0,1,1,2.23606797749979,0" fill="white" stroke="steelblue" stroke-width="1.5"/><path transform="translate(1134.453781512605,331.25)" d="M2.23606797749979,0A2.23606797749979,2.23606797749979,0,1,1,-2.23606797749979,0A2.23606797749979,2.23606797749979,0,1,1,2.23606797749979,0" fill="white" stroke="steelblue" stroke-width="1.5"/><path transform="translate(1153.3613445378153,327.5)" d="M2.23606797749979,0A2.23606797749979,2.23606797749979,0,1,1,-2.23606797749979,0A2.23606797749979,2.23606797749979,0,1,1,2.23606797749979,0" fill="white" stroke="steelblue" stroke-width="1.5"/><path transform="translate(1172.268907563025,321.25)" d="M2.23606797749979,0A2.23606797749979,2.23606797749979,0,1,1,-2.23606797749979,0A2.23606797749979,2.23606797749979,0,1,1,2.23606797749979,0" fill="white" stroke="steelblue" stroke-width="1.5"/><path transform="translate(1191.1764705882351,320)" d="M2.23606797749979,0A2.23606797749979,2.23606797749979,0,1,1,-2.23606797749979,0A2.23606797749979,2.23606797749979,0,1,1,2.23606797749979,0" fill="white" stroke="steelblue" stroke-width="1.5"/><path transform="translate(1210.0840336134454,317.5)" d="M2.23606797749979,0A2.23606797749979,2.23606797749979,0,1,1,-2.23606797749979,0A2.23606797749979,2.23606797749979,0,1,1,2.23606797749979,0" fill="white" stroke="steelblue" stroke-width="1.5"/><path transform="translate(1228.9915966386554,311.25)" d="M2.23606797749979,0A2.23606797749979,2.23606797749979,0,1,1,-2.23606797749979,0A2.23606797749979,2.23606797749979,0,1,1,2.23606797749979,0" fill="white" stroke="steelblue" stroke-width="1.5"/><path transform="translate(1247.8991596638657,306.25)" d="M2.23606797749979,0A2.23606797749979,2.23606797749979,0,1,1,-2.23606797749979,0A2.23606797749979,2.23606797749979,0,1,1,2.23606797749979,0" fill="white" stroke="steelblue" stroke-width="1.5"/><path transform="translate(1266.8067226890755,302.5)" d="M2.23606797749979,0A2.23606797749979,2.23606797749979,0,1,1,-2.23606797749979,0A2.23606797749979,2.23606797749979,0,1,1,2.23606797749979,0" fill="white" stroke="steelblue" stroke-width="1.5"/><path transform="translate(1285.7142857142856,296.25)" d="M2.23606797749979,0A2.23606797749979,2.23606797749979,0,1,1,-2.23606797749979,0A2.23606797749979,2.23606797749979,0,1,1,2.23606797749979,0" fill="white" stroke="steelblue" stroke-width="1.5"/><path transform="translate(1304.6218487394958,293.75000000000006)" d="M2.23606797749979,0A2.23606797749979,2.23606797749979,0,1,1,-2.23606797749979,0A2.23606797749979,2.23606797749979,0,1,1,2.23606797749979,0" fill="white" stroke="steelblue" stroke-width="1.5"/><path transform="translate(1323.5294117647059,287.5)" d="M2.23606797749979,0A2.23606797749979,2.23606797749979,0,1,1,-2.23606797749979,0A2.23606797749979,2.23606797749979,0,1,1,2.23606797749979,0" fill="white" stroke="steelblue" stroke-width="1.5"/><path transform="translate(1342.4369747899161,279.99999999999994)" d="M2.23606797749979,0A2.23606797749979,2.23606797749979,0,1,1,-2.23606797749979,0A2.23606797749979,2.23606797749979,0,1,1,2.23606797749979,0" fill="white" stroke="steelblue" stroke-width="1.5"/><path transform="translate(1361.344537815126,271.25)" d="M2.23606797749979,0A2.23606797749979,2.23606797749979,0,1,1,-2.23606797749979,0A2.23606797749979,2.23606797749979,0,1,1,2.23606797749979,0" fill="white" stroke="steelblue" stroke-width="1.5"/><path transform="translate(1380.252100840336,239.99999999999997)" d="M2.23606797749979,0A2.23606797749979,2.23606797749979,0,1,1,-2.23606797749979,0A2.23606797749979,2.23606797749979,0,1,1,2.23606797749979,0" fill="white" stroke="steelblue" stroke-width="1.5"/><path transform="translate(1399.1596638655462,228.75000000000003)" d="M2.23606797749979,0A2.23606797749979,2.23606797749979,0,1,1,-2.23606797749979,0A2.23606797749979,2.23606797749979,0,1,1,2.23606797749979,0" fill="white" stroke="steelblue" stroke-width="1.5"/><path transform="translate(1418.0672268907563,201.24999999999997)" d="M2.23606797749979,0A2.23606797749979,2.23606797749979,0,1,1,-2.23606797749979,0A2.23606797749979,2.23606797749979,0,1,1,2.23606797749979,0" fill="white" stroke="steelblue" stroke-width="1.5"/><path transform="translate(1436.9747899159665,183.75)" d="M2.23606797749979,0A2.23606797749979,2.23606797749979,0,1,1,-2.23606797749979,0A2.23606797749979,2.23606797749979,0,1,1,2.23606797749979,0" fill="white" stroke="steelblue" stroke-width="1.5"/><path transform="translate(1455.8823529411764,158.75)" d="M2.23606797749979,0A2.23606797749979,2.23606797749979,0,1,1,-2.23606797749979,0A2.23606797749979,2.23606797749979,0,1,1,2.23606797749979,0" fill="white" stroke="steelblue" stroke-width="1.5"/><path transform="translate(1474.7899159663864,93.75)" d="M2.23606797749979,0A2.23606797749979,2.23606797749979,0,1,1,-2.23606797749979,0A2.23606797749979,2.23606797749979,0,1,1,2.23606797749979,0" fill="white" stroke="steelblue" stroke-width="1.5"/><path transform="translate(1493.6974789915967,24.999999999999993)" d="M2.23606797749979,0A2.23606797749979,2.23606797749979,0,1,1,-2.23606797749979,0A2.23606797749979,2.23606797749979,0,1,1,2.23606797749979,0" fill="white" stroke="steelblue" stroke-width="1.5"/></g><g class="mark-group role-title"><g transform="translate(717.4738907485746,-35)"><path class="background" aria-hidden="true" d="M0,0h0v0h0Z" pointer-events="none"/><g><g class="mark-text role-title-text" role="graphics-symbol" aria-roledescription="title" aria-label="Title text 'Total COVID-19 cases in 'Bezirk Amstetten' (absolute)'" pointer-events="none"><text text-anchor="middle" transform="translate(0,19)" font-family="sans-serif" font-size="24px" font-weight="bold" fill="#000" opacity="1">Total COVID-19 cases in 'Bezirk Amstetten' (absolute)</text></g></g><path class="foreground" aria-hidden="true" d="" pointer-events="none" display="none"/></g></g></g><path class="foreground" aria-hidden="true" d="" display="none"/></g></g></g></svg>