<svg xmlns="http://www.w3.org/2000/svg" xmlns:xlink="http://www.w3.org/1999/xlink" version="1.1" class="marks" width="1582" height="900" viewBox="0 0 1582 900"><g fill="none" stroke-miterlimit="10" transform="translate(74,40)"><g class="mark-group role-frame root" role="graphics-object" aria-roledescription="group mark container"><g transform="translate(0,0)"><path class="background" aria-hidden="true" d="M0,0h1500v750h-1500Z"/><g><g class="mark-group role-axis" role="graphics-symbol" aria-roledescription="axis" aria-label="Y-axis titled 'COVID-19 deaths (absolute)' for a linear scale with values from 0 to 16"><g transform="translate(0.5,0.5)"><path class="background" aria-hidden="true" d="M0,0h0v0h0Z" pointer-events="none"/><g><g class="mark-rule role-axis-grid" pointer-events="none"><line transform="translate(0,750)" x2="1500" y2="0" stroke="#ddd" stroke-width="1" opacity="1"/><line transform="translate(0,656)" x2="1500" y2="0" stroke="#ddd" stroke-width="1" opacity="1"/><line transform="translate(0,563)" x2="1500" y2="0" stroke="#ddd" stroke-width="1" opacity="1"/><line transform="translate(0,469)" x2="1500" y2="0" stroke="#ddd" stroke-width="1" opacity="1"/><line transform="translate(0,375)" x2="1500" y2="0" stroke="#ddd" stroke-width="1" opacity="1"/><line transform="translate(0,281)" x2="1500" y2="0" stroke="#ddd" stroke-width="1" opacity="1"/><line transform="translate(0,188)" x2="1500" y2="0" stroke="#ddd" stroke-width="1" opacity="1"/><line transform="translate(0,94)" x2="1500" y2="0" stroke="#ddd" stroke-width="1" opacity="1"/><line transform="translate(0,0)" x2="1500" y2="0" stroke="#ddd" stroke-width="1" opacity="1"/></g><g class="mark-rule role-axis-tick" pointer-events="none"><line transform="translate(0,750)" x2="-5" y2="0" stroke="#888" stroke-width="1" opacity="1"/><line transform="translate(0,656)" x2="-5" y2="0" stroke="#888" stroke-width="1" opacity="1"/><line transform="translate(0,563)" x2="-5" y2="0" stroke="#888" stroke-width="1" opacity="1"/><line transform="translate(0,469)" x2="-5" y2="0" stroke="#888" stroke-width="1" opacity="1"/><line transform="translate(0,375)" x2="-5" y2="0" stroke="#888" stroke-width="1" opacity="1"/><line transform="translate(0,281)" x2="-5" y2="0" stroke="#888" stroke-width="1" opacity="1"/><line transform="translate(0,188)" x2="-5" y2="0" stroke="#888" stroke-width="1" opacity="1"/><line transform="translate(0,94)" x2="-5" y2="0" stroke="#888" stroke-width="1" opacity="1"/><line transform="translate(0,0)" x2="-5" y2="0" stroke="#888" stroke-width="1" opacity="1"/></g><g class="mark-text role-axis-label" pointer-events="none"><text text-anchor="end" transform="translate(-7,754)" font-family="sans-serif" font-size="14px" fill="#000" opacity="1">0</text><text text-anchor="end" transform="translate(-7,660.25)" font-family="sans-serif" font-size="14px" fill="#000" opacity="1">2</text><text text-anchor="end" transform="translate(-7,566.5)" font-family="sans-serif" font-size="14px" fill="#000" opacity="1">4</text><text text-anchor="end" transform="translate(-7,472.75)" font-family="sans-serif" font-size="14px" fill="#000" opacity="1">6</text><text text-anchor="end" transform="translate(-7,379)" font-family="sans-serif" font-size="14px" fill="#000" opacity="1">8</text><text text-anchor="end" transform="translate(-7,285.25)" font-family="sans-serif" font-size="14px" fill="#000" opacity="1">10</text><text text-anchor="end" transform="translate(-7,191.5)" font-family="sans-serif" font-size="14px" fill="#000" opacity="1">12</text><text text-anchor="end" transform="translate(-7,97.75)" font-family="sans-serif" font-size="14px" fill="#000" opacity="1">14</text><text text-anchor="end" transform="translate(-7,4)" font-family="sans-serif" font-size="14px" fill="#000" opacity="1">16</text></g><g class="mark-rule role-axis-domain" pointer-events="none"><line transform="translate(0,750)" x2="0" y2="-750" stroke="#888" stroke-width="1" opacity="1"/></g><g class="mark-text role-axis-title" pointer-events="none"><text text-anchor="middle" transform="translate(-39,375) rotate(-90) translate(0,-4)" font-family="sans-serif" font-size="18px" font-weight="bold" fill="#000" opacity="1">COVID-19 deaths (absolute)</text></g></g><path class="foreground" aria-hidden="true" d="" pointer-events="none" display="none"/></g></g><g class="mark-group role-axis" role="graphics-symbol" aria-roledescription="axis" aria-label="X-axis titled 'Date' for a linear scale with values from 2020-02-26 to 2020-10-21"><g transform="translate(0.5,750.5)"><path class="background" aria-hidden="true" d="M0,0h0v0h0Z" pointer-events="none"/><g><g class="mark-rule role-axis-tick" pointer-events="none"><line transform="translate(24,0)" x2="0" y2="5" stroke="#888" stroke-width="1" opacity="1"/><line transform="translate(97,0)" x2="0" y2="5" stroke="#888" stroke-width="1" opacity="1"/><line transform="translate(170,0)" x2="0" y2="5" stroke="#888" stroke-width="1" opacity="1"/><line transform="translate(243,0)" x2="0" y2="5" stroke="#888" stroke-width="1" opacity="1"/><line transform="translate(315,0)" x2="0" y2="5" stroke="#888" stroke-width="1" opacity="1"/><line transform="translate(388,0)" x2="0" y2="5" stroke="#888" stroke-width="1" opacity="1"/><line transform="translate(461,0)" x2="0" y2="5" stroke="#888" stroke-width="1" opacity="1"/><line transform="translate(534,0)" x2="0" y2="5" stroke="#888" stroke-width="1" opacity="1"/><line transform="translate(607,0)" x2="0" y2="5" stroke="#888" stroke-width="1" opacity="1"/><line transform="translate(680,0)" x2="0" y2="5" stroke="#888" stroke-width="1" opacity="1"/><line transform="translate(753,0)" x2="0" y2="5" stroke="#888" stroke-width="1" opacity="1"/><line transform="translate(826,0)" x2="0" y2="5" stroke="#888" stroke-width="1" opacity="1"/><line transform="translate(899,0)" x2="0" y2="5" stroke="#888" stroke-width="1" opacity="1"/><line transform="translate(972,0)" x2="0" y2="5" stroke="#888" stroke-width="1" opacity="1"/><line transform="translate(1045,0)" x2="0" y2="5" stroke="#888" stroke-width="1" opacity="1"/><line transform="translate(1118,0)" x2="0" y2="5" stroke="#888" stroke-width="1" opacity="1"/><line transform="translate(1191,0)" x2="0" y2="5" stroke="#888" stroke-width="1" opacity="1"/><line transform="translate(1264,0)" x2="0" y2="5" stroke="#888" stroke-width="1" opacity="1"/><line transform="translate(1337,0)" x2="0" y2="5" stroke="#888" stroke-width="1" opacity="1"/><line transform="translate(1410,0)" x2="0" y2="5" stroke="#888" stroke-width="1" opacity="1"/><line transform="translate(1483,0)" x2="0" y2="5" stroke="#888" stroke-width="1" opacity="1"/></g><g class="mark-text role-axis-label" pointer-events="none"><text text-anchor="end" transform="translate(23.69281045751634,7) rotate(-35) translate(0,11)" font-family="sans-serif" font-size="14px" fill="#000" opacity="1">2020-02-29</text><text text-anchor="end" transform="translate(96.63865546218486,7) rotate(-35) translate(0,11)" font-family="sans-serif" font-size="14px" fill="#000" opacity="1">2020-03-12</text><text text-anchor="end" transform="translate(169.5845004668534,7) rotate(-35) translate(0,11)" font-family="sans-serif" font-size="14px" fill="#000" opacity="1">2020-03-23</text><text text-anchor="end" transform="translate(242.53034547152194,7) rotate(-35) translate(0,11)" font-family="sans-serif" font-size="14px" fill="#000" opacity="1">2020-04-04</text><text text-anchor="end" transform="translate(315.4761904761905,7) rotate(-35) translate(0,11)" font-family="sans-serif" font-size="14px" fill="#000" opacity="1">2020-04-16</text><text text-anchor="end" transform="translate(388.422035480859,7) rotate(-35) translate(0,11)" font-family="sans-serif" font-size="14px" fill="#000" opacity="1">2020-04-27</text><text text-anchor="end" transform="translate(461.3678804855275,7) rotate(-35) translate(0,11)" font-family="sans-serif" font-size="14px" fill="#000" opacity="1">2020-05-09</text><text text-anchor="end" transform="translate(534.3137254901961,7) rotate(-35) translate(0,11)" font-family="sans-serif" font-size="14px" fill="#000" opacity="1">2020-05-20</text><text text-anchor="end" transform="translate(607.2595704948646,7) rotate(-35) translate(0,11)" font-family="sans-serif" font-size="14px" fill="#000" opacity="1">2020-06-01</text><text text-anchor="end" transform="translate(680.2054154995332,7) rotate(-35) translate(0,11)" font-family="sans-serif" font-size="14px" fill="#000" opacity="1">2020-06-12</text><text text-anchor="end" transform="translate(753.1512605042017,7) rotate(-35) translate(0,11)" font-family="sans-serif" font-size="14px" fill="#000" opacity="1">2020-06-24</text><text text-anchor="end" transform="translate(826.0971055088702,7) rotate(-35) translate(0,11)" font-family="sans-serif" font-size="14px" fill="#000" opacity="1">2020-07-06</text><text text-anchor="end" transform="translate(899.0429505135388,7) rotate(-35) translate(0,11)" font-family="sans-serif" font-size="14px" fill="#000" opacity="1">2020-07-17</text><text text-anchor="end" transform="translate(971.9887955182073,7) rotate(-35) translate(0,11)" font-family="sans-serif" font-size="14px" fill="#000" opacity="1">2020-07-29</text><text text-anchor="end" transform="translate(1044.9346405228757,7) rotate(-35) translate(0,11)" font-family="sans-serif" font-size="14px" fill="#000" opacity="1">2020-08-09</text><text text-anchor="end" transform="translate(1117.8804855275444,7) rotate(-35) translate(0,11)" font-family="sans-serif" font-size="14px" fill="#000" opacity="1">2020-08-21</text><text text-anchor="end" transform="translate(1190.8263305322128,7) rotate(-35) translate(0,11)" font-family="sans-serif" font-size="14px" fill="#000" opacity="1">2020-09-01</text><text text-anchor="end" transform="translate(1263.7721755368814,7) rotate(-35) translate(0,11)" font-family="sans-serif" font-size="14px" fill="#000" opacity="1">2020-09-13</text><text text-anchor="end" transform="translate(1336.71802054155,7) rotate(-35) translate(0,11)" font-family="sans-serif" font-size="14px" fill="#000" opacity="1">2020-09-25</text><text text-anchor="end" transform="translate(1409.6638655462184,7) rotate(-35) translate(0,11)" font-family="sans-serif" font-size="14px" fill="#000" opacity="1">2020-10-06</text><text text-anchor="end" transform="translate(1482.609710550887,7) rotate(-35) translate(0,11)" font-family="sans-serif" font-size="14px" fill="#000" opacity="1">2020-10-18</text></g><g class="mark-rule role-axis-domain" pointer-events="none"><line transform="translate(0,0)" x2="1500" y2="0" stroke="#888" stroke-width="1" opacity="1"/></g><g class="mark-text role-axis-title" pointer-events="none"><text text-anchor="middle" transform="translate(750,100.70868949136309)" font-family="sans-serif" font-size="18px" font-weight="bold" fill="#000" opacity="1">Date</text></g></g><path class="foreground" aria-hidden="true" d="" pointer-events="none" display="none"/></g></g><g class="mark-line role-mark" role="graphics-symbol" aria-roledescription="line mark container"><path d="M0,750C2.100840336134454,750,4.201680672268907,750,6.302521008403361,750C8.403361344537815,750,10.504201680672269,750,12.605042016806722,750C14.705882352941176,750,16.80672268907563,750,18.907563025210084,750C21.008403361344538,750,23.10924369747899,750,25.210084033613445,750C27.310924369747898,750,29.411764705882355,750,31.51260504201681,750C33.61344537815126,750,35.714285714285715,750,37.81512605042017,750C39.91596638655462,750,42.016806722689076,750,44.11764705882353,750C46.21848739495798,750,48.319327731092436,750,50.42016806722689,750C52.52100840336134,750,54.621848739495796,750,56.72268907563025,750C58.8235294117647,750,60.92436974789916,750,63.02521008403362,750C65.12605042016807,750,67.22689075630252,750,69.32773109243698,750C71.42857142857143,750,73.52941176470588,750,75.63025210084034,750C77.73109243697479,750,79.83193277310924,750,81.9327731092437,750C84.03361344537815,750,86.1344537815126,750,88.23529411764706,750C90.33613445378151,750,92.43697478991596,750,94.53781512605042,750C96.63865546218487,750,98.73949579831933,750,100.84033613445378,750C102.94117647058823,750,105.04201680672269,750,107.14285714285714,750C109.24369747899159,750,111.34453781512605,750,113.4453781512605,750C115.54621848739495,750,117.6470588235294,750,119.74789915966386,750C121.84873949579831,750,123.94957983193278,750,126.05042016806723,750C128.1512605042017,750,130.25210084033614,750,132.3529411764706,750C134.45378151260505,750,136.55462184873952,750,138.65546218487395,750C140.75630252100842,750,142.85714285714286,750,144.95798319327733,750C147.05882352941177,750,149.15966386554624,750,151.26050420168067,750C153.36134453781514,750,155.46218487394958,750,157.56302521008405,750C159.6638655462185,750,161.76470588235296,750,163.8655462184874,750C165.96638655462183,750,168.0672268907563,750,170.16806722689074,750C172.2689075630252,750,174.36974789915965,750,176.47058823529412,750C178.57142857142856,750,180.67226890756302,718.75,182.77310924369746,703.125C184.87394957983193,687.5,186.97478991596637,671.875,189.07563025210084,656.25C191.1764705882353,640.625,193.27731092436974,625,195.3781512605042,609.375C197.47899159663865,593.75,199.57983193277312,562.5,201.68067226890756,562.5C203.78151260504202,562.5,205.88235294117646,562.5,207.98319327731093,562.5C210.08403361344537,562.5,212.18487394957984,562.5,214.28571428571428,562.5C216.38655462184875,562.5,218.48739495798318,562.5,220.58823529411765,562.5C222.6890756302521,562.5,224.78991596638656,562.5,226.890756302521,562.5C228.99159663865547,562.5,231.0924369747899,515.625,233.19327731092437,515.625C235.2941176470588,515.625,237.39495798319328,515.625,239.49579831932772,515.625C241.5966386554622,515.625,243.69747899159663,468.75,245.7983193277311,468.75C247.89915966386556,468.75,250,468.75,252.10084033613447,468.75C254.2016806722689,468.75,256.30252100840335,437.49999999999994,258.4033613445378,421.875C260.5042016806723,406.24999999999994,262.60504201680675,375,264.7058823529412,375C266.8067226890756,375,268.9075630252101,375,271.0084033613445,375C273.109243697479,375,275.21008403361344,375,277.3109243697479,375C279.4117647058824,375,281.5126050420168,281.25,283.61344537815125,281.25C285.7142857142857,281.25,287.8151260504202,281.25,289.91596638655466,281.25C292.01680672268907,281.25,294.11764705882354,187.5,296.21848739495795,187.5C298.3193277310924,187.5,300.4201680672269,187.5,302.52100840336135,187.5C304.6218487394958,187.5,306.7226890756302,156.24999999999994,308.8235294117647,140.625C310.92436974789916,124.99999999999993,313.02521008403363,93.75,315.1260504201681,93.75C317.2268907563025,93.75,319.327731092437,93.75,321.4285714285714,93.75C323.52941176470586,93.75,325.6302521008403,93.75,327.7310924369748,93.75C329.83193277310926,93.75,331.9327731092437,46.875,334.0336134453782,46.875C336.1344537815126,46.875,338.2352941176471,46.875,340.3361344537815,46.875C342.43697478991595,46.875,344.5378151260504,46.875,346.6386554621849,46.875C348.73949579831935,46.875,350.84033613445376,46.875,352.94117647058823,46.875C355.0420168067227,46.875,357.14285714285717,46.875,359.24369747899163,46.875C361.34453781512605,46.875,363.4453781512605,46.875,365.5462184873949,46.875C367.6470588235294,46.875,369.74789915966386,46.875,371.8487394957983,46.875C373.9495798319328,46.875,376.0504201680672,46.875,378.1512605042017,46.875C380.25210084033614,46.875,382.35294117647055,46.875,384.453781512605,46.875C386.5546218487395,46.875,388.65546218487395,46.875,390.7563025210084,46.875C392.8571428571429,46.875,394.9579831932773,46.875,397.05882352941177,46.875C399.15966386554624,46.875,401.26050420168065,46.875,403.3613445378151,46.875C405.4621848739496,46.875,407.563025210084,46.875,409.66386554621846,46.875C411.7647058823529,46.875,413.8655462184874,46.875,415.96638655462186,46.875C418.06722689075633,46.875,420.16806722689074,46.875,422.2689075630252,46.875C424.3697478991597,46.875,426.4705882352941,46.875,428.57142857142856,46.875C430.672268907563,46.875,432.7731092436975,0,434.87394957983196,0C436.9747899159664,0,439.07563025210084,0,441.1764705882353,0C443.2773109243698,0,445.3781512605042,0,447.47899159663865,0C449.5798319327731,0,451.68067226890753,0,453.781512605042,0C455.88235294117646,0,457.98319327731093,0,460.0840336134454,0C462.18487394957987,0,464.2857142857143,0,466.38655462184875,0C468.4873949579832,0,470.5882352941176,0,472.6890756302521,0C474.78991596638656,0,476.89075630252097,0,478.99159663865544,0C481.0924369747899,0,483.1932773109244,0,485.29411764705884,0C487.3949579831933,0,489.4957983193277,0,491.5966386554622,0C493.69747899159665,0,495.79831932773106,0,497.89915966386553,0C500,0,502.10084033613447,0,504.20168067226894,0C506.3025210084034,0,508.4033613445378,0,510.5042016806723,0C512.6050420168067,0,514.7058823529412,0,516.8067226890756,0C518.90756302521,0,521.0084033613446,0,523.109243697479,0C525.2100840336135,0,527.3109243697479,0,529.4117647058824,0C531.5126050420168,0,533.6134453781514,0,535.7142857142858,0C537.8151260504202,0,539.9159663865546,0,542.016806722689,0C544.1176470588234,0,546.218487394958,0,548.3193277310924,0C550.4201680672269,0,552.5210084033613,0,554.6218487394958,0C556.7226890756302,0,558.8235294117648,0,560.9243697478992,0C563.0252100840336,0,565.1260504201681,0,567.2268907563025,0C569.3277310924369,0,571.4285714285714,0,573.5294117647059,0C575.6302521008404,0,577.7310924369748,0,579.8319327731093,0C581.9327731092437,0,584.0336134453781,0,586.1344537815125,0C588.235294117647,0,590.3361344537815,0,592.4369747899159,0C594.5378151260504,0,596.6386554621848,0,598.7394957983194,0C600.8403361344538,0,602.9411764705883,0,605.0420168067227,0C607.1428571428571,0,609.2436974789916,0,611.344537815126,0C613.4453781512605,0,615.546218487395,0,617.6470588235294,0C619.7478991596639,0,621.8487394957983,0,623.9495798319329,0C626.0504201680673,0,628.1512605042018,0,630.2521008403362,0C632.3529411764706,0,634.453781512605,0,636.5546218487394,0C638.6554621848738,0,640.7563025210084,0,642.8571428571428,0C644.9579831932773,0,647.0588235294117,0,649.1596638655462,0C651.2605042016806,0,653.3613445378152,0,655.4621848739496,0C657.563025210084,0,659.6638655462185,0,661.7647058823529,0C663.8655462184875,0,665.9663865546219,0,668.0672268907564,0C670.1680672268908,0,672.2689075630253,0,674.3697478991597,0C676.4705882352941,0,678.5714285714286,0,680.672268907563,0C682.7731092436974,0,684.8739495798319,0,686.9747899159663,0C689.0756302521008,0,691.1764705882352,0,693.2773109243698,0C695.3781512605042,0,697.4789915966387,0,699.5798319327731,0C701.6806722689075,0,703.781512605042,0,705.8823529411765,0C707.9831932773109,0,710.0840336134454,0,712.1848739495798,0C714.2857142857143,0,716.3865546218487,0,718.4873949579833,0C720.5882352941177,0,722.6890756302522,0,724.7899159663866,0C726.890756302521,0,728.9915966386554,0,731.0924369747898,0C733.1932773109243,0,735.2941176470588,0,737.3949579831932,0C739.4957983193277,0,741.5966386554621,0,743.6974789915967,0C745.7983193277311,0,747.8991596638656,0,750,0C752.1008403361344,0,754.2016806722689,0,756.3025210084033,0C758.4033613445378,0,760.5042016806723,0,762.6050420168067,0C764.7058823529411,0,766.8067226890756,0,768.90756302521,0C771.0084033613446,0,773.109243697479,0,775.2100840336135,0C777.3109243697479,0,779.4117647058824,0,781.5126050420168,0C783.6134453781513,0,785.7142857142858,0,787.8151260504202,0C789.9159663865546,0,792.0168067226891,0,794.1176470588235,0C796.218487394958,0,798.3193277310925,0,800.4201680672269,0C802.5210084033613,0,804.6218487394958,0,806.7226890756302,0C808.8235294117646,0,810.9243697478992,0,813.0252100840336,0C815.126050420168,0,817.2268907563025,0,819.3277310924369,0C821.4285714285714,0,823.5294117647059,0,825.6302521008404,0C827.7310924369748,0,829.8319327731093,0,831.9327731092437,0C834.0336134453781,0,836.1344537815127,0,838.2352941176471,0C840.3361344537815,0,842.436974789916,0,844.5378151260504,0C846.6386554621848,0,848.7394957983194,0,850.8403361344538,0C852.9411764705882,0,855.0420168067227,0,857.1428571428571,0C859.2436974789915,0,861.344537815126,0,863.4453781512605,0C865.546218487395,0,867.6470588235294,0,869.7478991596639,0C871.8487394957983,0,873.9495798319329,0,876.0504201680673,0C878.1512605042017,0,880.2521008403362,0,882.3529411764706,0C884.453781512605,0,886.5546218487395,0,888.655462184874,0C890.7563025210084,0,892.8571428571429,0,894.9579831932773,0C897.0588235294117,0,899.1596638655462,0,901.2605042016806,0C903.3613445378151,0,905.4621848739496,0,907.563025210084,0C909.6638655462184,0,911.7647058823529,0,913.8655462184873,0C915.9663865546219,0,918.0672268907563,0,920.1680672268908,0C922.2689075630252,0,924.3697478991597,0,926.4705882352941,0C928.5714285714286,0,930.6722689075631,0,932.7731092436975,0C934.8739495798319,0,936.9747899159664,0,939.0756302521008,0C941.1764705882352,0,943.2773109243698,0,945.3781512605042,0C947.4789915966386,0,949.5798319327731,0,951.6806722689075,0C953.7815126050419,0,955.8823529411765,0,957.9831932773109,0C960.0840336134454,0,962.1848739495798,0,964.2857142857143,0C966.3865546218487,0,968.4873949579833,0,970.5882352941177,0C972.6890756302521,0,974.7899159663866,0,976.890756302521,0C978.9915966386554,0,981.09243697479,0,983.1932773109244,0C985.2941176470588,0,987.3949579831933,0,989.4957983193277,0C991.5966386554621,0,993.6974789915967,0,995.7983193277311,0C997.8991596638655,0,1000,0,1002.1008403361344,0C1004.2016806722689,0,1006.3025210084033,0,1008.4033613445379,0C1010.5042016806723,0,1012.6050420168068,0,1014.7058823529412,0C1016.8067226890756,0,1018.9075630252102,0,1021.0084033613446,0C1023.109243697479,0,1025.2100840336134,0,1027.310924369748,0C1029.4117647058824,0,1031.5126050420167,0,1033.6134453781513,0C1035.7142857142858,0,1037.81512605042,0,1039.9159663865546,0C1042.0168067226891,0,1044.1176470588234,0,1046.218487394958,0C1048.3193277310925,0,1050.4201680672268,0,1052.5210084033613,0C1054.6218487394958,0,1056.7226890756303,0,1058.8235294117649,0C1060.9243697478994,0,1063.0252100840337,0,1065.1260504201682,0C1067.2268907563027,0,1069.327731092437,0,1071.4285714285716,0C1073.529411764706,0,1075.6302521008404,0,1077.731092436975,0C1079.8319327731092,0,1081.9327731092437,0,1084.033613445378,0C1086.1344537815125,0,1088.2352941176468,0,1090.3361344537814,0C1092.436974789916,0,1094.5378151260502,0,1096.6386554621847,0C1098.7394957983192,0,1100.8403361344538,0,1102.9411764705883,0C1105.0420168067228,0,1107.142857142857,0,1109.2436974789916,0C1111.3445378151262,0,1113.4453781512605,0,1115.546218487395,0C1117.6470588235295,0,1119.7478991596638,0,1121.8487394957983,0C1123.9495798319329,0,1126.0504201680671,0,1128.1512605042017,0C1130.2521008403362,0,1132.3529411764705,0,1134.453781512605,0C1136.5546218487395,0,1138.6554621848738,0,1140.7563025210084,0C1142.857142857143,0,1144.9579831932772,0,1147.0588235294117,0C1149.1596638655462,0,1151.2605042016808,0,1153.3613445378153,0C1155.4621848739498,0,1157.563025210084,0,1159.6638655462186,0C1161.7647058823532,0,1163.8655462184875,0,1165.966386554622,0C1168.0672268907563,0,1170.1680672268908,0,1172.268907563025,0C1174.3697478991596,0,1176.470588235294,0,1178.5714285714284,0C1180.672268907563,0,1182.7731092436973,0,1184.8739495798318,0C1186.9747899159663,0,1189.0756302521006,0,1191.1764705882351,0C1193.2773109243697,0,1195.3781512605042,0,1197.4789915966387,0C1199.5798319327732,0,1201.6806722689075,0,1203.781512605042,0C1205.8823529411766,0,1207.9831932773109,0,1210.0840336134454,0C1212.18487394958,0,1214.2857142857142,0,1216.3865546218487,0C1218.4873949579833,0,1220.5882352941176,0,1222.689075630252,0C1224.7899159663866,0,1226.890756302521,0,1228.9915966386554,0C1231.09243697479,0,1233.1932773109243,0,1235.2941176470588,0C1237.3949579831933,0,1239.4957983193276,0,1241.5966386554621,0C1243.6974789915967,0,1245.7983193277312,0,1247.8991596638657,0C1250.0000000000002,0,1252.1008403361345,0,1254.201680672269,0C1256.3025210084036,0,1258.4033613445379,0,1260.5042016806724,0C1262.6050420168067,0,1264.7058823529412,0,1266.8067226890755,0C1268.90756302521,0,1271.0084033613443,0,1273.1092436974789,0C1275.2100840336134,0,1277.3109243697477,0,1279.4117647058822,0C1281.5126050420167,0,1283.613445378151,0,1285.7142857142856,0C1287.81512605042,0,1289.9159663865546,0,1292.0168067226891,0C1294.1176470588236,0,1296.218487394958,0,1298.3193277310925,0C1300.420168067227,0,1302.5210084033613,0,1304.6218487394958,0C1306.7226890756303,0,1308.8235294117646,0,1310.9243697478992,0C1313.0252100840337,0,1315.126050420168,0,1317.2268907563025,0C1319.327731092437,0,1321.4285714285713,0,1323.5294117647059,0C1325.6302521008404,0,1327.7310924369747,0,1329.8319327731092,0C1331.9327731092437,0,1334.0336134453783,0,1336.1344537815128,0C1338.2352941176473,0,1340.3361344537816,0,1342.4369747899161,0C1344.5378151260506,0,1346.638655462185,0,1348.7394957983195,0C1350.840336134454,0,1352.9411764705883,0,1355.0420168067228,0C1357.142857142857,0,1359.2436974789916,0,1361.344537815126,0C1363.4453781512605,0,1365.5462184873948,0,1367.6470588235293,0C1369.7478991596638,0,1371.848739495798,0,1373.9495798319326,0C1376.0504201680671,0,1378.1512605042014,0,1380.252100840336,0C1382.3529411764705,0,1384.453781512605,0,1386.5546218487395,0C1388.655462184874,0,1390.7563025210084,0,1392.857142857143,0C1394.9579831932774,0,1397.0588235294117,0,1399.1596638655462,0C1401.2605042016808,0,1403.361344537815,0,1405.4621848739496,0C1407.563025210084,0,1409.6638655462184,0,1411.764705882353,0C1413.8655462184875,0,1415.9663865546217,0,1418.0672268907563,0C1420.1680672268908,0,1422.268907563025,0,1424.3697478991596,0C1426.4705882352941,0,1428.5714285714287,0,1430.6722689075632,0C1432.7731092436977,0,1434.873949579832,0,1436.9747899159665,0C1439.075630252101,0,1441.1764705882354,0,1443.2773109243699,0C1445.3781512605044,0,1447.4789915966387,0,1449.5798319327732,0C1451.6806722689075,0,1453.781512605042,0,1455.8823529411764,0C1457.9831932773109,0,1460.0840336134452,0,1462.1848739495797,0C1464.2857142857142,0,1466.3865546218485,0,1468.487394957983,0C1470.5882352941176,0,1472.6890756302519,0,1474.7899159663864,0C1476.890756302521,0,1478.9915966386554,0,1481.09243697479,0C1483.1932773109245,0,1485.2941176470588,0,1487.3949579831933,0C1489.4957983193278,0,1491.5966386554621,0,1493.6974789915967,0C1495.7983193277312,0,1497.8991596638655,0,1500,0" stroke="steelblue" stroke-width="3"/></g><g class="mark-symbol role-mark" role="graphics-symbol" aria-roledescription="symbol mark container"><path transform="translate(0,750)" d="M2.23606797749979,0A2.23606797749979,2.23606797749979,0,1,1,-2.23606797749979,0A2.23606797749979,2.23606797749979,0,1,1,2.23606797749979,0" fill="white" stroke="steelblue" stroke-width="1.5"/><path transform="translate(18.907563025210084,750)" d="M2.23606797749979,0A2.23606797749979,2.23606797749979,0,1,1,-2.23606797749979,0A2.23606797749979,2.23606797749979,0,1,1,2.23606797749979,0" fill="white" stroke="steelblue" stroke-width="1.5"/><path transform="translate(37.81512605042017,750)" d="M2.23606797749979,0A2.23606797749979,2.23606797749979,0,1,1,-2.23606797749979,0A2.23606797749979,2.23606797749979,0,1,1,2.23606797749979,0" fill="white" stroke="steelblue" stroke-width="1.5"/><path transform="translate(56.72268907563025,750)" d="M2.23606797749979,0A2.23606797749979,2.23606797749979,0,1,1,-2.23606797749979,0A2.23606797749979,2.23606797749979,0,1,1,2.23606797749979,0" fill="white" stroke="steelblue" stroke-width="1.5"/><path transform="translate(75.63025210084034,750)" d="M2.23606797749979,0A2.23606797749979,2.23606797749979,0,1,1,-2.23606797749979,0A2.23606797749979,2.23606797749979,0,1,1,2.23606797749979,0" fill="white" stroke="steelblue" stroke-width="1.5"/><path transform="translate(94.53781512605042,750)" d="M2.23606797749979,0A2.23606797749979,2.23606797749979,0,1,1,-2.23606797749979,0A2.23606797749979,2.23606797749979,0,1,1,2.23606797749979,0" fill="white" stroke="steelblue" stroke-width="1.5"/><path transform="translate(113.4453781512605,750)" d="M2.23606797749979,0A2.23606797749979,2.23606797749979,0,1,1,-2.23606797749979,0A2.23606797749979,2.23606797749979,0,1,1,2.23606797749979,0" fill="white" stroke="steelblue" stroke-width="1.5"/><path transform="translate(132.3529411764706,750)" d="M2.23606797749979,0A2.23606797749979,2.23606797749979,0,1,1,-2.23606797749979,0A2.23606797749979,2.23606797749979,0,1,1,2.23606797749979,0" fill="white" stroke="steelblue" stroke-width="1.5"/><path transform="translate(151.26050420168067,750)" d="M2.23606797749979,0A2.23606797749979,2.23606797749979,0,1,1,-2.23606797749979,0A2.23606797749979,2.23606797749979,0,1,1,2.23606797749979,0" fill="white" stroke="steelblue" stroke-width="1.5"/><path transform="translate(170.16806722689074,750)" d="M2.23606797749979,0A2.23606797749979,2.23606797749979,0,1,1,-2.23606797749979,0A2.23606797749979,2.23606797749979,0,1,1,2.23606797749979,0" fill="white" stroke="steelblue" stroke-width="1.5"/><path transform="translate(189.07563025210084,656.25)" d="M2.23606797749979,0A2.23606797749979,2.23606797749979,0,1,1,-2.23606797749979,0A2.23606797749979,2.23606797749979,0,1,1,2.23606797749979,0" fill="white" stroke="steelblue" stroke-width="1.5"/><path transform="translate(207.98319327731093,562.5)" d="M2.23606797749979,0A2.23606797749979,2.23606797749979,0,1,1,-2.23606797749979,0A2.23606797749979,2.23606797749979,0,1,1,2.23606797749979,0" fill="white" stroke="steelblue" stroke-width="1.5"/><path transform="translate(226.890756302521,562.5)" d="M2.23606797749979,0A2.23606797749979,2.23606797749979,0,1,1,-2.23606797749979,0A2.23606797749979,2.23606797749979,0,1,1,2.23606797749979,0" fill="white" stroke="steelblue" stroke-width="1.5"/><path transform="translate(245.7983193277311,468.75)" d="M2.23606797749979,0A2.23606797749979,2.23606797749979,0,1,1,-2.23606797749979,0A2.23606797749979,2.23606797749979,0,1,1,2.23606797749979,0" fill="white" stroke="steelblue" stroke-width="1.5"/><path transform="translate(264.7058823529412,375)" d="M2.23606797749979,0A2.23606797749979,2.23606797749979,0,1,1,-2.23606797749979,0A2.23606797749979,2.23606797749979,0,1,1,2.23606797749979,0" fill="white" stroke="steelblue" stroke-width="1.5"/><path transform="translate(283.61344537815125,281.25)" d="M2.23606797749979,0A2.23606797749979,2.23606797749979,0,1,1,-2.23606797749979,0A2.23606797749979,2.23606797749979,0,1,1,2.23606797749979,0" fill="white" stroke="steelblue" stroke-width="1.5"/><path transform="translate(302.52100840336135,187.5)" d="M2.23606797749979,0A2.23606797749979,2.23606797749979,0,1,1,-2.23606797749979,0A2.23606797749979,2.23606797749979,0,1,1,2.23606797749979,0" fill="white" stroke="steelblue" stroke-width="1.5"/><path transform="translate(321.4285714285714,93.75)" d="M2.23606797749979,0A2.23606797749979,2.23606797749979,0,1,1,-2.23606797749979,0A2.23606797749979,2.23606797749979,0,1,1,2.23606797749979,0" fill="white" stroke="steelblue" stroke-width="1.5"/><path transform="translate(340.3361344537815,46.875)" d="M2.23606797749979,0A2.23606797749979,2.23606797749979,0,1,1,-2.23606797749979,0A2.23606797749979,2.23606797749979,0,1,1,2.23606797749979,0" fill="white" stroke="steelblue" stroke-width="1.5"/><path transform="translate(359.24369747899163,46.875)" d="M2.23606797749979,0A2.23606797749979,2.23606797749979,0,1,1,-2.23606797749979,0A2.23606797749979,2.23606797749979,0,1,1,2.23606797749979,0" fill="white" stroke="steelblue" stroke-width="1.5"/><path transform="translate(378.1512605042017,46.875)" d="M2.23606797749979,0A2.23606797749979,2.23606797749979,0,1,1,-2.23606797749979,0A2.23606797749979,2.23606797749979,0,1,1,2.23606797749979,0" fill="white" stroke="steelblue" stroke-width="1.5"/><path transform="translate(397.05882352941177,46.875)" d="M2.23606797749979,0A2.23606797749979,2.23606797749979,0,1,1,-2.23606797749979,0A2.23606797749979,2.23606797749979,0,1,1,2.23606797749979,0" fill="white" stroke="steelblue" stroke-width="1.5"/><path transform="translate(415.96638655462186,46.875)" d="M2.23606797749979,0A2.23606797749979,2.23606797749979,0,1,1,-2.23606797749979,0A2.23606797749979,2.23606797749979,0,1,1,2.23606797749979,0" fill="white" stroke="steelblue" stroke-width="1.5"/><path transform="translate(434.87394957983196,0)" d="M2.23606797749979,0A2.23606797749979,2.23606797749979,0,1,1,-2.23606797749979,0A2.23606797749979,2.23606797749979,0,1,1,2.23606797749979,0" fill="white" stroke="steelblue" stroke-width="1.5"/><path transform="translate(453.781512605042,0)" d="M2.23606797749979,0A2.23606797749979,2.23606797749979,0,1,1,-2.23606797749979,0A2.23606797749979,2.23606797749979,0,1,1,2.23606797749979,0" fill="white" stroke="steelblue" stroke-width="1.5"/><path transform="translate(472.6890756302521,0)" d="M2.23606797749979,0A2.23606797749979,2.23606797749979,0,1,1,-2.23606797749979,0A2.23606797749979,2.23606797749979,0,1,1,2.23606797749979,0" fill="white" stroke="steelblue" stroke-width="1.5"/><path transform="translate(491.5966386554622,0)" d="M2.23606797749979,0A2.23606797749979,2.23606797749979,0,1,1,-2.23606797749979,0A2.23606797749979,2.23606797749979,0,1,1,2.23606797749979,0" fill="white" stroke="steelblue" stroke-width="1.5"/><path transform="translate(510.5042016806723,0)" d="M2.23606797749979,0A2.23606797749979,2.23606797749979,0,1,1,-2.23606797749979,0A2.23606797749979,2.23606797749979,0,1,1,2.23606797749979,0" fill="white" stroke="steelblue" stroke-width="1.5"/><path transform="translate(529.4117647058824,0)" d="M2.23606797749979,0A2.23606797749979,2.23606797749979,0,1,1,-2.23606797749979,0A2.23606797749979,2.23606797749979,0,1,1,2.23606797749979,0" fill="white" stroke="steelblue" stroke-width="1.5"/><path transform="translate(548.3193277310924,0)" d="M2.23606797749979,0A2.23606797749979,2.23606797749979,0,1,1,-2.23606797749979,0A2.23606797749979,2.23606797749979,0,1,1,2.23606797749979,0" fill="white" stroke="steelblue" stroke-width="1.5"/><path transform="translate(567.2268907563025,0)" d="M2.23606797749979,0A2.23606797749979,2.23606797749979,0,1,1,-2.23606797749979,0A2.23606797749979,2.23606797749979,0,1,1,2.23606797749979,0" fill="white" stroke="steelblue" stroke-width="1.5"/><path transform="translate(586.1344537815125,0)" d="M2.23606797749979,0A2.23606797749979,2.23606797749979,0,1,1,-2.23606797749979,0A2.23606797749979,2.23606797749979,0,1,1,2.23606797749979,0" fill="white" stroke="steelblue" stroke-width="1.5"/><path transform="translate(605.0420168067227,0)" d="M2.23606797749979,0A2.23606797749979,2.23606797749979,0,1,1,-2.23606797749979,0A2.23606797749979,2.23606797749979,0,1,1,2.23606797749979,0" fill="white" stroke="steelblue" stroke-width="1.5"/><path transform="translate(623.9495798319329,0)" d="M2.23606797749979,0A2.23606797749979,2.23606797749979,0,1,1,-2.23606797749979,0A2.23606797749979,2.23606797749979,0,1,1,2.23606797749979,0" fill="white" stroke="steelblue" stroke-width="1.5"/><path transform="translate(642.8571428571428,0)" d="M2.23606797749979,0A2.23606797749979,2.23606797749979,0,1,1,-2.23606797749979,0A2.23606797749979,2.23606797749979,0,1,1,2.23606797749979,0" fill="white" stroke="steelblue" stroke-width="1.5"/><path transform="translate(661.7647058823529,0)" d="M2.23606797749979,0A2.23606797749979,2.23606797749979,0,1,1,-2.23606797749979,0A2.23606797749979,2.23606797749979,0,1,1,2.23606797749979,0" fill="white" stroke="steelblue" stroke-width="1.5"/><path transform="translate(680.672268907563,0)" d="M2.23606797749979,0A2.23606797749979,2.23606797749979,0,1,1,-2.23606797749979,0A2.23606797749979,2.23606797749979,0,1,1,2.23606797749979,0" fill="white" stroke="steelblue" stroke-width="1.5"/><path transform="translate(699.5798319327731,0)" d="M2.23606797749979,0A2.23606797749979,2.23606797749979,0,1,1,-2.23606797749979,0A2.23606797749979,2.23606797749979,0,1,1,2.23606797749979,0" fill="white" stroke="steelblue" stroke-width="1.5"/><path transform="translate(718.4873949579833,0)" d="M2.23606797749979,0A2.23606797749979,2.23606797749979,0,1,1,-2.23606797749979,0A2.23606797749979,2.23606797749979,0,1,1,2.23606797749979,0" fill="white" stroke="steelblue" stroke-width="1.5"/><path transform="translate(737.3949579831932,0)" d="M2.23606797749979,0A2.23606797749979,2.23606797749979,0,1,1,-2.23606797749979,0A2.23606797749979,2.23606797749979,0,1,1,2.23606797749979,0" fill="white" stroke="steelblue" stroke-width="1.5"/><path transform="translate(756.3025210084033,0)" d="M2.23606797749979,0A2.23606797749979,2.23606797749979,0,1,1,-2.23606797749979,0A2.23606797749979,2.23606797749979,0,1,1,2.23606797749979,0" fill="white" stroke="steelblue" stroke-width="1.5"/><path transform="translate(775.2100840336135,0)" d="M2.23606797749979,0A2.23606797749979,2.23606797749979,0,1,1,-2.23606797749979,0A2.23606797749979,2.23606797749979,0,1,1,2.23606797749979,0" fill="white" stroke="steelblue" stroke-width="1.5"/><path transform="translate(794.1176470588235,0)" d="M2.23606797749979,0A2.23606797749979,2.23606797749979,0,1,1,-2.23606797749979,0A2.23606797749979,2.23606797749979,0,1,1,2.23606797749979,0" fill="white" stroke="steelblue" stroke-width="1.5"/><path transform="translate(813.0252100840336,0)" d="M2.23606797749979,0A2.23606797749979,2.23606797749979,0,1,1,-2.23606797749979,0A2.23606797749979,2.23606797749979,0,1,1,2.23606797749979,0" fill="white" stroke="steelblue" stroke-width="1.5"/><path transform="translate(831.9327731092437,0)" d="M2.23606797749979,0A2.23606797749979,2.23606797749979,0,1,1,-2.23606797749979,0A2.23606797749979,2.23606797749979,0,1,1,2.23606797749979,0" fill="white" stroke="steelblue" stroke-width="1.5"/><path transform="translate(850.8403361344538,0)" d="M2.23606797749979,0A2.23606797749979,2.23606797749979,0,1,1,-2.23606797749979,0A2.23606797749979,2.23606797749979,0,1,1,2.23606797749979,0" fill="white" stroke="steelblue" stroke-width="1.5"/><path transform="translate(869.7478991596639,0)" d="M2.23606797749979,0A2.23606797749979,2.23606797749979,0,1,1,-2.23606797749979,0A2.23606797749979,2.23606797749979,0,1,1,2.23606797749979,0" fill="white" stroke="steelblue" stroke-width="1.5"/><path transform="translate(888.655462184874,0)" d="M2.23606797749979,0A2.23606797749979,2.23606797749979,0,1,1,-2.23606797749979,0A2.23606797749979,2.23606797749979,0,1,1,2.23606797749979,0" fill="white" stroke="steelblue" stroke-width="1.5"/><path transform="translate(907.563025210084,0)" d="M2.23606797749979,0A2.23606797749979,2.23606797749979,0,1,1,-2.23606797749979,0A2.23606797749979,2.23606797749979,0,1,1,2.23606797749979,0" fill="white" stroke="steelblue" stroke-width="1.5"/><path transform="translate(926.4705882352941,0)" d="M2.23606797749979,0A2.23606797749979,2.23606797749979,0,1,1,-2.23606797749979,0A2.23606797749979,2.23606797749979,0,1,1,2.23606797749979,0" fill="white" stroke="steelblue" stroke-width="1.5"/><path transform="translate(945.3781512605042,0)" d="M2.23606797749979,0A2.23606797749979,2.23606797749979,0,1,1,-2.23606797749979,0A2.23606797749979,2.23606797749979,0,1,1,2.23606797749979,0" fill="white" stroke="steelblue" stroke-width="1.5"/><path transform="translate(964.2857142857143,0)" d="M2.23606797749979,0A2.23606797749979,2.23606797749979,0,1,1,-2.23606797749979,0A2.23606797749979,2.23606797749979,0,1,1,2.23606797749979,0" fill="white" stroke="steelblue" stroke-width="1.5"/><path transform="translate(983.1932773109244,0)" d="M2.23606797749979,0A2.23606797749979,2.23606797749979,0,1,1,-2.23606797749979,0A2.23606797749979,2.23606797749979,0,1,1,2.23606797749979,0" fill="white" stroke="steelblue" stroke-width="1.5"/><path transform="translate(1002.1008403361344,0)" d="M2.23606797749979,0A2.23606797749979,2.23606797749979,0,1,1,-2.23606797749979,0A2.23606797749979,2.23606797749979,0,1,1,2.23606797749979,0" fill="white" stroke="steelblue" stroke-width="1.5"/><path transform="translate(1021.0084033613446,0)" d="M2.23606797749979,0A2.23606797749979,2.23606797749979,0,1,1,-2.23606797749979,0A2.23606797749979,2.23606797749979,0,1,1,2.23606797749979,0" fill="white" stroke="steelblue" stroke-width="1.5"/><path transform="translate(1039.9159663865546,0)" d="M2.23606797749979,0A2.23606797749979,2.23606797749979,0,1,1,-2.23606797749979,0A2.23606797749979,2.23606797749979,0,1,1,2.23606797749979,0" fill="white" stroke="steelblue" stroke-width="1.5"/><path transform="translate(1058.8235294117649,0)" d="M2.23606797749979,0A2.23606797749979,2.23606797749979,0,1,1,-2.23606797749979,0A2.23606797749979,2.23606797749979,0,1,1,2.23606797749979,0" fill="white" stroke="steelblue" stroke-width="1.5"/><path transform="translate(1077.731092436975,0)" d="M2.23606797749979,0A2.23606797749979,2.23606797749979,0,1,1,-2.23606797749979,0A2.23606797749979,2.23606797749979,0,1,1,2.23606797749979,0" fill="white" stroke="steelblue" stroke-width="1.5"/><path transform="translate(1096.6386554621847,0)" d="M2.23606797749979,0A2.23606797749979,2.23606797749979,0,1,1,-2.23606797749979,0A2.23606797749979,2.23606797749979,0,1,1,2.23606797749979,0" fill="white" stroke="steelblue" stroke-width="1.5"/><path transform="translate(1115.546218487395,0)" d="M2.23606797749979,0A2.23606797749979,2.23606797749979,0,1,1,-2.23606797749979,0A2.23606797749979,2.23606797749979,0,1,1,2.23606797749979,0" fill="white" stroke="steelblue" stroke-width="1.5"/><path transform="translate(1134.453781512605,0)" d="M2.23606797749979,0A2.23606797749979,2.23606797749979,0,1,1,-2.23606797749979,0A2.23606797749979,2.23606797749979,0,1,1,2.23606797749979,0" fill="white" stroke="steelblue" stroke-width="1.5"/><path transform="translate(1153.3613445378153,0)" d="M2.23606797749979,0A2.23606797749979,2.23606797749979,0,1,1,-2.23606797749979,0A2.23606797749979,2.23606797749979,0,1,1,2.23606797749979,0" fill="white" stroke="steelblue" stroke-width="1.5"/><path transform="translate(1172.268907563025,0)" d="M2.23606797749979,0A2.23606797749979,2.23606797749979,0,1,1,-2.23606797749979,0A2.23606797749979,2.23606797749979,0,1,1,2.23606797749979,0" fill="white" stroke="steelblue" stroke-width="1.5"/><path transform="translate(1191.1764705882351,0)" d="M2.23606797749979,0A2.23606797749979,2.23606797749979,0,1,1,-2.23606797749979,0A2.23606797749979,2.23606797749979,0,1,1,2.23606797749979,0" fill="white" stroke="steelblue" stroke-width="1.5"/><path transform="translate(1210.0840336134454,0)" d="M2.23606797749979,0A2.23606797749979,2.23606797749979,0,1,1,-2.23606797749979,0A2.23606797749979,2.23606797749979,0,1,1,2.23606797749979,0" fill="white" stroke="steelblue" stroke-width="1.5"/><path transform="translate(1228.9915966386554,0)" d="M2.23606797749979,0A2.23606797749979,2.23606797749979,0,1,1,-2.23606797749979,0A2.23606797749979,2.23606797749979,0,1,1,2.23606797749979,0" fill="white" stroke="steelblue" stroke-width="1.5"/><path transform="translate(1247.8991596638657,0)" d="M2.23606797749979,0A2.23606797749979,2.23606797749979,0,1,1,-2.23606797749979,0A2.23606797749979,2.23606797749979,0,1,1,2.23606797749979,0" fill="white" stroke="steelblue" stroke-width="1.5"/><path transform="translate(1266.8067226890755,0)" d="M2.23606797749979,0A2.23606797749979,2.23606797749979,0,1,1,-2.23606797749979,0A2.23606797749979,2.23606797749979,0,1,1,2.23606797749979,0" fill="white" stroke="steelblue" stroke-width="1.5"/><path transform="translate(1285.7142857142856,0)" d="M2.23606797749979,0A2.23606797749979,2.23606797749979,0,1,1,-2.23606797749979,0A2.23606797749979,2.23606797749979,0,1,1,2.23606797749979,0" fill="white" stroke="steelblue" stroke-width="1.5"/><path transform="translate(1304.6218487394958,0)" d="M2.23606797749979,0A2.23606797749979,2.23606797749979,0,1,1,-2.23606797749979,0A2.23606797749979,2.23606797749979,0,1,1,2.23606797749979,0" fill="white" stroke="steelblue" stroke-width="1.5"/><path transform="translate(1323.5294117647059,0)" d="M2.23606797749979,0A2.23606797749979,2.23606797749979,0,1,1,-2.23606797749979,0A2.23606797749979,2.23606797749979,0,1,1,2.23606797749979,0" fill="white" stroke="steelblue" stroke-width="1.5"/><path transform="translate(1342.4369747899161,0)" d="M2.23606797749979,0A2.23606797749979,2.23606797749979,0,1,1,-2.23606797749979,0A2.23606797749979,2.23606797749979,0,1,1,2.23606797749979,0" fill="white" stroke="steelblue" stroke-width="1.5"/><path transform="translate(1361.344537815126,0)" d="M2.23606797749979,0A2.23606797749979,2.23606797749979,0,1,1,-2.23606797749979,0A2.23606797749979,2.23606797749979,0,1,1,2.23606797749979,0" fill="white" stroke="steelblue" stroke-width="1.5"/><path transform="translate(1380.252100840336,0)" d="M2.23606797749979,0A2.23606797749979,2.23606797749979,0,1,1,-2.23606797749979,0A2.23606797749979,2.23606797749979,0,1,1,2.23606797749979,0" fill="white" stroke="steelblue" stroke-width="1.5"/><path transform="translate(1399.1596638655462,0)" d="M2.23606797749979,0A2.23606797749979,2.23606797749979,0,1,1,-2.23606797749979,0A2.23606797749979,2.23606797749979,0,1,1,2.23606797749979,0" fill="white" stroke="steelblue" stroke-width="1.5"/><path transform="translate(1418.0672268907563,0)" d="M2.23606797749979,0A2.23606797749979,2.23606797749979,0,1,1,-2.23606797749979,0A2.23606797749979,2.23606797749979,0,1,1,2.23606797749979,0" fill="white" stroke="steelblue" stroke-width="1.5"/><path transform="translate(1436.9747899159665,0)" d="M2.23606797749979,0A2.23606797749979,2.23606797749979,0,1,1,-2.23606797749979,0A2.23606797749979,2.23606797749979,0,1,1,2.23606797749979,0" fill="white" stroke="steelblue" stroke-width="1.5"/><path transform="translate(1455.8823529411764,0)" d="M2.23606797749979,0A2.23606797749979,2.23606797749979,0,1,1,-2.23606797749979,0A2.23606797749979,2.23606797749979,0,1,1,2.23606797749979,0" fill="white" stroke="steelblue" stroke-width="1.5"/><path transform="translate(1474.7899159663864,0)" d="M2.23606797749979,0A2.23606797749979,2.23606797749979,0,1,1,-2.23606797749979,0A2.23606797749979,2.23606797749979,0,1,1,2.23606797749979,0" fill="white" stroke="steelblue" stroke-width="1.5"/><path transform="translate(1493.6974789915967,0)" d="M2.23606797749979,0A2.23606797749979,2.23606797749979,0,1,1,-2.23606797749979,0A2.23606797749979,2.23606797749979,0,1,1,2.23606797749979,0" fill="white" stroke="steelblue" stroke-width="1.5"/></g><g class="mark-group role-title"><g transform="translate(717.4738907485746,-35)"><path class="background" aria-hidden="true" d="M0,0h0v0h0Z" pointer-events="none"/><g><g class="mark-text role-title-text" role="graphics-symbol" aria-roledescription="title" aria-label="Title text 'Total COVID-19 deaths in 'Bezirk Amstetten' (absolute)'" pointer-events="none"><text text-anchor="middle" transform="translate(0,19)" font-family="sans-serif" font-size="24px" font-weight="bold" fill="#000" opacity="1">Total COVID-19 deaths in 'Bezirk Amstetten' (absolute)</text></g></g><path class="foreground" aria-hidden="true" d="" pointer-events="none" display="none"/></g></g></g><path class="foreground" aria-hidden="true" d="" display="none"/></g></g></g></svg>