<svg xmlns="http://www.w3.org/2000/svg" xmlns:xlink="http://www.w3.org/1999/xlink" version="1.1" class="marks" width="1585" height="900" viewBox="0 0 1585 900"><g fill="none" stroke-miterlimit="10" transform="translate(77,40)"><g class="mark-group role-frame root" role="graphics-object" aria-roledescription="group mark container"><g transform="translate(0,0)"><path class="background" aria-hidden="true" d="M0,0h1500v750h-1500Z"/><g><g class="mark-group role-axis" role="graphics-symbol" aria-roledescription="axis" aria-label="Y-axis titled '7-day-incidence' for a linear scale with values from 0 to 900"><g transform="translate(0.5,0.5)"><path class="background" aria-hidden="true" d="M0,0h0v0h0Z" pointer-events="none"/><g><g class="mark-rule role-axis-grid" pointer-events="none"><line transform="translate(0,750)" x2="1500" y2="0" stroke="#ddd" stroke-width="1" opacity="1"/><line transform="translate(0,667)" x2="1500" y2="0" stroke="#ddd" stroke-width="1" opacity="1"/><line transform="translate(0,583)" x2="1500" y2="0" stroke="#ddd" stroke-width="1" opacity="1"/><line transform="translate(0,500)" x2="1500" y2="0" stroke="#ddd" stroke-width="1" opacity="1"/><line transform="translate(0,417)" x2="1500" y2="0" stroke="#ddd" stroke-width="1" opacity="1"/><line transform="translate(0,333)" x2="1500" y2="0" stroke="#ddd" stroke-width="1" opacity="1"/><line transform="translate(0,250)" x2="1500" y2="0" stroke="#ddd" stroke-width="1" opacity="1"/><line transform="translate(0,167)" x2="1500" y2="0" stroke="#ddd" stroke-width="1" opacity="1"/><line transform="translate(0,83)" x2="1500" y2="0" stroke="#ddd" stroke-width="1" opacity="1"/><line transform="translate(0,0)" x2="1500" y2="0" stroke="#ddd" stroke-width="1" opacity="1"/></g><g class="mark-rule role-axis-tick" pointer-events="none"><line transform="translate(0,750)" x2="-5" y2="0" stroke="#888" stroke-width="1" opacity="1"/><line transform="translate(0,667)" x2="-5" y2="0" stroke="#888" stroke-width="1" opacity="1"/><line transform="translate(0,583)" x2="-5" y2="0" stroke="#888" stroke-width="1" opacity="1"/><line transform="translate(0,500)" x2="-5" y2="0" stroke="#888" stroke-width="1" opacity="1"/><line transform="translate(0,417)" x2="-5" y2="0" stroke="#888" stroke-width="1" opacity="1"/><line transform="translate(0,333)" x2="-5" y2="0" stroke="#888" stroke-width="1" opacity="1"/><line transform="translate(0,250)" x2="-5" y2="0" stroke="#888" stroke-width="1" opacity="1"/><line transform="translate(0,167)" x2="-5" y2="0" stroke="#888" stroke-width="1" opacity="1"/><line transform="translate(0,83)" x2="-5" y2="0" stroke="#888" stroke-width="1" opacity="1"/><line transform="translate(0,0)" x2="-5" y2="0" stroke="#888" stroke-width="1" opacity="1"/></g><g class="mark-text role-axis-label" pointer-events="none"><text text-anchor="end" transform="translate(-7,754)" font-family="sans-serif" font-size="14px" fill="#000" opacity="1">0</text><text text-anchor="end" transform="translate(-7,670.6666666666666)" font-family="sans-serif" font-size="14px" fill="#000" opacity="1">100</text><text text-anchor="end" transform="translate(-7,587.3333333333334)" font-family="sans-serif" font-size="14px" fill="#000" opacity="1">200</text><text text-anchor="end" transform="translate(-7,504.00000000000006)" font-family="sans-serif" font-size="14px" fill="#000" opacity="1">300</text><text text-anchor="end" transform="translate(-7,420.6666666666667)" font-family="sans-serif" font-size="14px" fill="#000" opacity="1">400</text><text text-anchor="end" transform="translate(-7,337.3333333333333)" font-family="sans-serif" font-size="14px" fill="#000" opacity="1">500</text><text text-anchor="end" transform="translate(-7,254.00000000000003)" font-family="sans-serif" font-size="14px" fill="#000" opacity="1">600</text><text text-anchor="end" transform="translate(-7,170.66666666666666)" font-family="sans-serif" font-size="14px" fill="#000" opacity="1">700</text><text text-anchor="end" transform="translate(-7,87.33333333333337)" font-family="sans-serif" font-size="14px" fill="#000" opacity="1">800</text><text text-anchor="end" transform="translate(-7,4)" font-family="sans-serif" font-size="14px" fill="#000" opacity="1">900</text></g><g class="mark-rule role-axis-domain" pointer-events="none"><line transform="translate(0,750)" x2="0" y2="-750" stroke="#888" stroke-width="1" opacity="1"/></g><g class="mark-text role-axis-title" pointer-events="none"><text text-anchor="middle" transform="translate(-50,375) rotate(-90) translate(0,-4)" font-family="sans-serif" font-size="18px" font-weight="bold" fill="#000" opacity="1">7-day-incidence</text></g></g><path class="foreground" aria-hidden="true" d="" pointer-events="none" display="none"/></g></g><g class="mark-group role-axis" role="graphics-symbol" aria-roledescription="axis" aria-label="X-axis titled 'Date' for a linear scale with values from 2020-02-26 to 2020-11-29"><g transform="translate(0.5,750.5)"><path class="background" aria-hidden="true" d="M0,0h0v0h0Z" pointer-events="none"/><g><g class="mark-rule role-axis-tick" pointer-events="none"><line transform="translate(20,0)" x2="0" y2="5" stroke="#888" stroke-width="1" opacity="1"/><line transform="translate(83,0)" x2="0" y2="5" stroke="#888" stroke-width="1" opacity="1"/><line transform="translate(146,0)" x2="0" y2="5" stroke="#888" stroke-width="1" opacity="1"/><line transform="translate(208,0)" x2="0" y2="5" stroke="#888" stroke-width="1" opacity="1"/><line transform="translate(271,0)" x2="0" y2="5" stroke="#888" stroke-width="1" opacity="1"/><line transform="translate(334,0)" x2="0" y2="5" stroke="#888" stroke-width="1" opacity="1"/><line transform="translate(396,0)" x2="0" y2="5" stroke="#888" stroke-width="1" opacity="1"/><line transform="translate(459,0)" x2="0" y2="5" stroke="#888" stroke-width="1" opacity="1"/><line transform="translate(522,0)" x2="0" y2="5" stroke="#888" stroke-width="1" opacity="1"/><line transform="translate(584,0)" x2="0" y2="5" stroke="#888" stroke-width="1" opacity="1"/><line transform="translate(647,0)" x2="0" y2="5" stroke="#888" stroke-width="1" opacity="1"/><line transform="translate(710,0)" x2="0" y2="5" stroke="#888" stroke-width="1" opacity="1"/><line transform="translate(772,0)" x2="0" y2="5" stroke="#888" stroke-width="1" opacity="1"/><line transform="translate(835,0)" x2="0" y2="5" stroke="#888" stroke-width="1" opacity="1"/><line transform="translate(898,0)" x2="0" y2="5" stroke="#888" stroke-width="1" opacity="1"/><line transform="translate(960,0)" x2="0" y2="5" stroke="#888" stroke-width="1" opacity="1"/><line transform="translate(1023,0)" x2="0" y2="5" stroke="#888" stroke-width="1" opacity="1"/><line transform="translate(1086,0)" x2="0" y2="5" stroke="#888" stroke-width="1" opacity="1"/><line transform="translate(1149,0)" x2="0" y2="5" stroke="#888" stroke-width="1" opacity="1"/><line transform="translate(1211,0)" x2="0" y2="5" stroke="#888" stroke-width="1" opacity="1"/><line transform="translate(1274,0)" x2="0" y2="5" stroke="#888" stroke-width="1" opacity="1"/><line transform="translate(1337,0)" x2="0" y2="5" stroke="#888" stroke-width="1" opacity="1"/><line transform="translate(1399,0)" x2="0" y2="5" stroke="#888" stroke-width="1" opacity="1"/><line transform="translate(1462,0)" x2="0" y2="5" stroke="#888" stroke-width="1" opacity="1"/></g><g class="mark-text role-axis-label" pointer-events="none"><text text-anchor="end" transform="translate(20.356999598876854,7) rotate(-35) translate(0,11)" font-family="sans-serif" font-size="14px" fill="#000" opacity="1">2020-02-29</text><text text-anchor="end" transform="translate(83.03249097472924,7) rotate(-35) translate(0,11)" font-family="sans-serif" font-size="14px" fill="#000" opacity="1">2020-03-12</text><text text-anchor="end" transform="translate(145.70798235058163,7) rotate(-35) translate(0,11)" font-family="sans-serif" font-size="14px" fill="#000" opacity="1">2020-03-23</text><text text-anchor="end" transform="translate(208.38347372643403,7) rotate(-35) translate(0,11)" font-family="sans-serif" font-size="14px" fill="#000" opacity="1">2020-04-04</text><text text-anchor="end" transform="translate(271.05896510228644,7) rotate(-35) translate(0,11)" font-family="sans-serif" font-size="14px" fill="#000" opacity="1">2020-04-16</text><text text-anchor="end" transform="translate(333.7344564781388,7) rotate(-35) translate(0,11)" font-family="sans-serif" font-size="14px" fill="#000" opacity="1">2020-04-27</text><text text-anchor="end" transform="translate(396.4099478539912,7) rotate(-35) translate(0,11)" font-family="sans-serif" font-size="14px" fill="#000" opacity="1">2020-05-09</text><text text-anchor="end" transform="translate(459.08543922984353,7) rotate(-35) translate(0,11)" font-family="sans-serif" font-size="14px" fill="#000" opacity="1">2020-05-20</text><text text-anchor="end" transform="translate(521.760930605696,7) rotate(-35) translate(0,11)" font-family="sans-serif" font-size="14px" fill="#000" opacity="1">2020-06-01</text><text text-anchor="end" transform="translate(584.4364219815483,7) rotate(-35) translate(0,11)" font-family="sans-serif" font-size="14px" fill="#000" opacity="1">2020-06-12</text><text text-anchor="end" transform="translate(647.1119133574008,7) rotate(-35) translate(0,11)" font-family="sans-serif" font-size="14px" fill="#000" opacity="1">2020-06-24</text><text text-anchor="end" transform="translate(709.7874047332531,7) rotate(-35) translate(0,11)" font-family="sans-serif" font-size="14px" fill="#000" opacity="1">2020-07-06</text><text text-anchor="end" transform="translate(772.4628961091055,7) rotate(-35) translate(0,11)" font-family="sans-serif" font-size="14px" fill="#000" opacity="1">2020-07-17</text><text text-anchor="end" transform="translate(835.1383874849579,7) rotate(-35) translate(0,11)" font-family="sans-serif" font-size="14px" fill="#000" opacity="1">2020-07-29</text><text text-anchor="end" transform="translate(897.8138788608103,7) rotate(-35) translate(0,11)" font-family="sans-serif" font-size="14px" fill="#000" opacity="1">2020-08-09</text><text text-anchor="end" transform="translate(960.4893702366626,7) rotate(-35) translate(0,11)" font-family="sans-serif" font-size="14px" fill="#000" opacity="1">2020-08-21</text><text text-anchor="end" transform="translate(1023.164861612515,7) rotate(-35) translate(0,11)" font-family="sans-serif" font-size="14px" fill="#000" opacity="1">2020-09-01</text><text text-anchor="end" transform="translate(1085.8403529883674,7) rotate(-35) translate(0,11)" font-family="sans-serif" font-size="14px" fill="#000" opacity="1">2020-09-13</text><text text-anchor="end" transform="translate(1148.51584436422,7) rotate(-35) translate(0,11)" font-family="sans-serif" font-size="14px" fill="#000" opacity="1">2020-09-25</text><text text-anchor="end" transform="translate(1211.1913357400722,7) rotate(-35) translate(0,11)" font-family="sans-serif" font-size="14px" fill="#000" opacity="1">2020-10-06</text><text text-anchor="end" transform="translate(1273.8668271159245,7) rotate(-35) translate(0,11)" font-family="sans-serif" font-size="14px" fill="#000" opacity="1">2020-10-18</text><text text-anchor="end" transform="translate(1336.542318491777,7) rotate(-35) translate(0,11)" font-family="sans-serif" font-size="14px" fill="#000" opacity="1">2020-10-29</text><text text-anchor="end" transform="translate(1399.2178098676293,7) rotate(-35) translate(0,11)" font-family="sans-serif" font-size="14px" fill="#000" opacity="1">2020-11-10</text><text text-anchor="end" transform="translate(1461.8933012434818,7) rotate(-35) translate(0,11)" font-family="sans-serif" font-size="14px" fill="#000" opacity="1">2020-11-21</text></g><g class="mark-rule role-axis-domain" pointer-events="none"><line transform="translate(0,0)" x2="1500" y2="0" stroke="#888" stroke-width="1" opacity="1"/></g><g class="mark-text role-axis-title" pointer-events="none"><text text-anchor="middle" transform="translate(750,100.70868949136309)" font-family="sans-serif" font-size="18px" font-weight="bold" fill="#000" opacity="1">Date</text></g></g><path class="foreground" aria-hidden="true" d="" pointer-events="none" display="none"/></g></g><g class="mark-line role-mark" role="graphics-symbol" aria-roledescription="line mark container"><path d="M0,750C1.8050541516245489,750,3.610108303249098,750,5.415162454873647,750C7.220216606498195,750,9.025270758122744,750,10.830324909747294,750C12.635379061371841,750,14.44043321299639,750,16.24548736462094,750C18.050541516245488,750,19.855595667870038,750,21.660649819494587,750C23.465703971119137,750,25.270758122743683,750,27.075812274368232,750C28.88086642599278,750,30.685920577617328,750,32.49097472924188,750C34.29602888086642,750,36.101083032490976,750,37.90613718411552,750C39.711191335740075,750,41.51624548736462,750,43.321299638989174,750C45.12635379061372,750,46.931407942238266,750,48.73646209386281,750C50.541516245487365,750,52.34657039711191,750,54.151624548736464,750C55.95667870036101,750,57.76173285198556,750,59.56678700361011,750C61.371841155234655,750,63.17689530685921,750,64.98194945848375,750C66.7870036101083,750,68.59205776173286,750,70.3971119133574,750C72.20216606498195,750,74.0072202166065,748.56963,75.81227436823104,748.56963C77.61732851985559,748.56963,79.42238267148015,748.56963,81.2274368231047,748.56963C83.03249097472924,748.56963,84.8375451263538,748.3312352777778,86.64259927797835,747.8544458333333C88.4476534296029,747.3776563888889,90.25270758122744,746.3048779166667,92.05776173285199,744.2785216666666C93.86281588447653,742.2521654166666,95.66787003610108,738.199455,97.47292418772562,735.6963083333333C99.27797833935017,733.1931616666666,101.08303249097473,729.7364305555556,102.88808664259928,729.2596416666667C104.69314079422382,728.7828527777777,106.49819494584838,729.0212472222222,108.30324909747293,728.5444583333333C110.10830324909747,728.0676694444444,111.91335740072202,727.5908777777778,113.71841155234657,725.6837166666667C115.52346570397111,723.7765555555555,117.32851985559567,718.0550833333334,119.13357400722022,715.6711333333334C120.93862815884476,713.2871833333334,122.74368231046931,711.3800166666666,124.54873646209386,711.3800166666666C126.3537906137184,711.3800166666666,128.15884476534296,712.0952055555555,129.9638989169675,712.8103916666666C131.76895306859205,713.5255777777778,133.57400722021663,715.6711333333334,135.37906137184117,715.6711333333334C137.18411552346572,715.6711333333334,138.98916967509027,714.9559472222222,140.7942238267148,713.525575C142.59927797833936,712.0952027777778,144.4043321299639,706.3737305555555,146.20938628158845,704.9433583333333C148.014440433213,703.5129861111111,149.81949458483754,702.7978,151.6245487364621,702.7978C153.42960288808663,702.7978,155.2346570397112,703.5129833333333,157.03971119133575,703.5129833333333C158.8447653429603,703.5129833333333,160.64981949458485,696.0035500000001,162.4548736462094,692.0700333333334C164.25992779783394,688.1365166666667,166.06498194945848,679.9118833333333,167.87003610108303,679.9118833333333C169.67509025270758,679.9118833333333,171.48014440433215,681.3422583333333,173.2851985559567,681.3422583333333C175.09025270758124,681.3422583333333,176.8953068592058,681.3422583333333,178.70036101083033,681.3422583333333C180.50541516245488,681.3422583333333,182.31046931407943,684.9181833333333,184.11552346570397,684.9181833333333C185.92057761732852,684.9181833333333,187.72563176895306,684.2029916666667,189.5306859205776,684.2029916666667C191.33574007220216,684.2029916666667,193.1407942238267,685.1565805555556,194.94584837545125,687.0637416666667C196.7509025270758,688.9709027777778,198.55595667870037,693.1428125,200.36101083032491,695.6459583333333C202.16606498194946,698.1491041666666,203.971119133574,700.6522472222223,205.77617328519855,702.0826166666667C207.5812274368231,703.5129861111112,209.38628158844767,702.7978055555557,211.19133574007222,704.2281750000001C212.99638989169677,705.6585444444445,214.8014440433213,710.1880444444444,216.60649819494586,710.6648333333333C218.4115523465704,711.1416222222222,220.21660649819495,710.9032277777777,222.0216606498195,711.3800166666666C223.82671480144404,711.8568055555555,225.6317689530686,714.5983555555556,227.43682310469313,715.6711333333334C229.24187725631768,716.7439111111112,231.04693140794225,717.1014986111111,232.8519855595668,717.8166833333333C234.65703971119135,718.5318680555555,236.4620938628159,719.2470569444444,238.26714801444044,719.9622416666666C240.07220216606498,720.6774263888889,241.87725631768953,722.1077916666667,243.68231046931407,722.1077916666667C245.48736462093862,722.1077916666667,247.29241877256317,717.1015,249.0974729241877,717.1015C250.90252707581226,717.1015,252.70758122743683,717.3398944444444,254.51263537906138,717.8166833333333C256.3176895306859,718.2934722222222,258.12274368231044,722.3461861111109,259.927797833935,722.8229749999999C261.73285198555953,723.299763888889,263.5379061371841,723.0613694444444,265.3429602888086,723.5381583333334C267.1480144404332,724.0149472222224,268.9530685920578,724.4917416666666,270.75812274368235,725.6837166666667C272.56317689530687,726.8756916666666,274.36823104693144,729.259638888889,276.17328519855596,730.6900083333334C277.97833935018053,732.1203777777778,279.78339350180505,732.7163652777778,281.5884476534296,734.2659333333334C283.39350180505414,735.815501388889,285.1985559566787,739.033838888889,287.00361010830323,739.9874166666667C288.8086642599278,740.9409944444444,290.6137184115523,741.4177833333333,292.4187725631769,741.4177833333333C294.2238267148014,741.4177833333333,296.028880866426,739.9874166666667,297.8339350180505,739.9874166666667C299.6389891696751,739.9874166666667,301.4440433212996,741.5369808333332,303.2490974729242,742.1329675C305.05415162454875,742.7289541666667,306.85920577617327,743.5633366666667,308.66425992779784,743.5633366666667C310.4693140794224,743.5633366666667,312.27436823104694,743.5633366666667,314.0794223826715,743.5633366666667C315.884476534296,743.5633366666667,317.6895306859206,743.9209293055555,319.4945848375451,744.2785216666666C321.2996389891697,744.6361140277777,323.1046931407942,745.7088908333334,324.9097472924188,745.7088908333334C326.7148014440433,745.7088908333334,328.5198555956679,745.7088908333334,330.3249097472924,745.7088908333334C332.12996389891697,745.7088908333334,333.9350180505415,747.1392608333334,335.74007220216606,747.1392608333334C337.54512635379064,747.1392608333334,339.35018050541515,746.4240758333334,341.1552346570397,746.4240758333334C342.9602888086643,746.4240758333334,344.7653429602888,746.4240758333334,346.5703971119134,746.4240758333334C348.3754512635379,746.4240758333334,350.1805054151625,746.7816684722223,351.985559566787,747.1392608333334C353.7906137184116,747.4968531944445,355.5956678700361,748.56963,357.40072202166067,748.56963C359.2057761732852,748.56963,361.01083032490976,748.56963,362.8158844765343,748.56963C364.62093862815885,748.56963,366.42599277978337,748.56963,368.23104693140795,748.56963C370.03610108303246,748.56963,371.84115523465704,748.56963,373.64620938628155,748.56963C375.45126353790613,748.56963,377.25631768953065,749.0464201666667,379.0613718411552,749.2848151666667C380.86642599277974,749.5232101666667,382.6714801444043,750,384.47653429602883,750C386.2815884476534,750,388.0866425992779,749.2848151666667,389.8916967509025,749.2848151666667C391.69675090252707,749.2848151666667,393.50180505415165,749.2848151666667,395.3068592057762,749.2848151666667C397.11191335740074,749.2848151666667,398.9169675090253,749.2848151666667,400.72202166064983,749.2848151666667C402.5270758122744,749.2848151666667,404.3321299638989,749.2848151666667,406.1371841155235,749.2848151666667C407.942238267148,749.2848151666667,409.7472924187726,749.2848151666667,411.5523465703971,749.2848151666667C413.3574007220217,749.2848151666667,415.1624548736462,749.2848151666667,416.9675090252708,749.2848151666667C418.77256317689535,749.2848151666667,420.57761732851986,748.56963,422.38267148014444,748.56963C424.18772563176896,748.56963,425.99277978339353,749.2848151666667,427.79783393501805,749.2848151666667C429.6028880866426,749.2848151666667,431.40794223826714,749.2848151666667,433.2129963898917,749.2848151666667C435.01805054151623,749.2848151666667,436.8231046931408,749.2848151666667,438.6281588447653,749.2848151666667C440.4332129963899,749.2848151666667,442.2382671480144,749.2848151666667,444.043321299639,749.2848151666667C445.8483754512635,749.2848151666667,447.6534296028881,749.2848151666667,449.4584837545126,749.2848151666667C451.2635379061372,749.2848151666667,453.0685920577617,749.2848151666667,454.87364620938627,749.2848151666667C456.6787003610108,749.2848151666667,458.48375451263536,750,460.2888086642599,750C462.09386281588445,750,463.898916967509,750,465.7039711191336,750C467.5090252707582,750,469.3140794223827,750,471.11913357400726,750C472.9241877256318,750,474.72924187725636,750,476.5342960288809,750C478.33935018050545,750,480.14440433212997,750,481.94945848375454,750C483.75451263537906,750,485.55956678700363,750,487.36462093862815,750C489.1696750902527,750,490.97472924187724,750,492.7797833935018,750C494.58483754512633,750,496.3898916967509,749.2848151666667,498.1949458483754,749.2848151666667C500,749.2848151666667,501.8050541516245,749.2848151666667,503.6101083032491,749.2848151666667C505.41516245487367,749.2848151666667,507.2202166064982,749.2848151666667,509.02527075812276,749.2848151666667C510.8303249097473,749.2848151666667,512.6353790613719,749.2848151666667,514.4404332129964,749.2848151666667C516.2454873646209,749.2848151666667,518.0505415162455,749.2848151666667,519.85559566787,749.2848151666667C521.6606498194946,749.2848151666667,523.4657039711192,749.2848151666667,525.2707581227437,749.2848151666667C527.0758122743682,749.2848151666667,528.8808664259927,749.2848151666667,530.6859205776173,749.2848151666667C532.4909747292419,749.2848151666667,534.2960288808664,750,536.101083032491,750C537.9061371841156,750,539.7111913357402,750,541.5162454873647,750C543.3212996389892,750,545.1263537906137,749.2848151666667,546.9314079422383,749.2848151666667C548.7364620938628,749.2848151666667,550.5415162454874,749.2848151666667,552.3465703971119,749.2848151666667C554.1516245487364,749.2848151666667,555.9566787003611,749.2848151666667,557.7617328519856,749.2848151666667C559.5667870036101,749.2848151666667,561.3718411552347,749.2848151666667,563.1768953068593,749.2848151666667C564.9819494584838,749.2848151666667,566.7870036101083,749.2848151666667,568.5920577617328,749.2848151666667C570.3971119133573,749.2848151666667,572.202166064982,749.2848151666667,574.0072202166065,749.2848151666667C575.812274368231,749.2848151666667,577.6173285198556,749.2848151666667,579.4223826714801,749.2848151666667C581.2274368231047,749.2848151666667,583.0324909747293,750,584.8375451263538,750C586.6425992779783,750,588.447653429603,750,590.2527075812275,750C592.057761732852,750,593.8628158844765,750,595.667870036101,750C597.4729241877255,750,599.2779783393502,750,601.0830324909747,750C602.8880866425992,750,604.6931407942238,750,606.4981949458484,750C608.3032490974729,750,610.1083032490975,750,611.913357400722,750C613.7184115523465,750,615.5234657039712,750,617.3285198555957,750C619.1335740072202,750,620.9386281588448,750,622.7436823104694,750C624.5487364620939,750,626.3537906137185,750,628.158844765343,750C629.9638989169675,750,631.768953068592,750,633.5740072202166,750C635.3790613718411,750,637.1841155234657,750,638.9891696750902,750C640.7942238267148,750,642.5992779783394,750,644.4043321299639,750C646.2093862815884,750,648.014440433213,750,649.8194945848376,750C651.6245487364621,750,653.4296028880866,750,655.2346570397111,750C657.0397111913356,750,658.8447653429603,750,660.6498194945848,750C662.4548736462093,750,664.2599277978339,750,666.0649819494585,750C667.870036101083,750,669.6750902527076,750,671.4801444043321,750C673.2851985559566,750,675.0902527075813,750,676.8953068592058,750C678.7003610108303,750,680.5054151624549,750,682.3104693140795,750C684.115523465704,750,685.9205776173286,750,687.7256317689531,750C689.5306859205776,750,691.3357400722023,750,693.1407942238268,750C694.9458483754513,750,696.7509025270758,749.2848151666667,698.5559566787003,749.2848151666667C700.3610108303249,749.2848151666667,702.1660649819495,749.2848151666667,703.971119133574,749.2848151666667C705.7761732851985,749.2848151666667,707.5812274368232,749.2848151666667,709.3862815884477,749.2848151666667C711.1913357400722,749.2848151666667,712.9963898916968,748.8080248888889,714.8014440433213,748.56963C716.6064981949459,748.331235111111,718.4115523465704,748.3312352777778,720.2166064981949,747.8544458333333C722.0216606498194,747.3776563888889,723.826714801444,745.7088908333334,725.6317689530686,745.7088908333334C727.4368231046931,745.7088908333334,729.2418772563177,745.7088908333334,731.0469314079422,745.7088908333334C732.8519855595667,745.7088908333334,734.6570397111914,746.4240758333334,736.4620938628159,746.4240758333334C738.2671480144404,746.4240758333334,740.0722021660649,745.7088908333334,741.8772563176894,745.7088908333334C743.682310469314,745.7088908333334,745.4873646209386,745.7088908333334,747.2924187725631,745.7088908333334C749.0974729241877,745.7088908333334,750.9025270758123,746.1856808333334,752.7075812274369,746.4240758333334C754.5126353790614,746.6624708333334,756.3176895306859,746.6624709444445,758.1227436823104,747.1392608333334C759.927797833935,747.6160507222223,761.7328519855596,749.2848151666667,763.5379061371841,749.2848151666667C765.3429602888086,749.2848151666667,767.1480144404331,749.2848151666667,768.9530685920577,749.2848151666667C770.7581227436823,749.2848151666667,772.5631768953068,749.2848151666667,774.3682310469314,749.2848151666667C776.173285198556,749.2848151666667,777.9783393501805,749.2848151666667,779.783393501805,749.2848151666667C781.5884476534295,749.2848151666667,783.3935018050541,749.2848151666667,785.1985559566787,749.2848151666667C787.0036101083033,749.2848151666667,788.8086642599278,749.2848151666667,790.6137184115524,749.2848151666667C792.418772563177,749.2848151666667,794.2238267148015,749.2848151666667,796.028880866426,749.2848151666667C797.8339350180505,749.2848151666667,799.6389891696751,748.4504332222223,801.4440433212997,747.8544458333333C803.2490974729242,747.2584584444445,805.0541516245487,745.7088908333334,806.8592057761732,745.7088908333334C808.6642599277978,745.7088908333334,810.4693140794224,745.7088908333334,812.274368231047,745.7088908333334C814.0794223826715,745.7088908333334,815.884476534296,746.4240758333334,817.6895306859205,746.4240758333334C819.4945848375451,746.4240758333334,821.2996389891697,746.1856806944445,823.1046931407942,745.7088908333334C824.9097472924187,745.2321009722223,826.7148014440432,744.0401261111111,828.5198555956678,743.5633366666667C830.3249097472924,743.0865472222222,832.1299638989169,742.8481525,833.9350180505415,742.8481525C835.7400722021661,742.8481525,837.5451263537906,743.9209293055555,839.3501805054151,744.2785216666666C841.1552346570397,744.6361140277777,842.9602888086642,744.9937066666666,844.7653429602889,744.9937066666666C846.5703971119134,744.9937066666666,848.3754512635379,744.2785216666666,850.1805054151624,744.2785216666666C851.985559566787,744.2785216666666,853.7906137184116,744.2785216666666,855.5956678700361,744.2785216666666C857.4007220216607,744.2785216666666,859.2057761732852,744.5169168055555,861.0108303249099,744.9937066666666C862.8158844765344,745.4704965277778,864.6209386281589,746.6624709722223,866.4259927797834,747.1392608333334C868.231046931408,747.6160506944445,870.0361010830326,747.8544458333333,871.8411552346571,747.8544458333333C873.6462093862816,747.8544458333333,875.4512635379061,747.8544458333333,877.2563176895306,747.8544458333333C879.0613718411553,747.8544458333333,880.8664259927798,748.9272228055556,882.6714801444044,749.2848151666667C884.476534296029,749.6424075277778,886.2815884476535,750,888.086642599278,750C889.8916967509025,750,891.6967509025271,750,893.5018050541516,750C895.3068592057762,750,897.1119133574007,749.5232101666667,898.9169675090252,749.2848151666667C900.7220216606498,749.0464201666667,902.5270758122743,748.8080248888889,904.332129963899,748.56963C906.1371841155235,748.331235111111,907.942238267148,747.8544458333333,909.7472924187725,747.8544458333333C911.552346570397,747.8544458333333,913.3574007220217,747.8544458333333,915.1624548736462,747.8544458333333C916.9675090252707,747.8544458333333,918.7725631768952,746.7816683333334,920.5776173285198,746.4240758333334C922.3826714801444,746.0664833333334,924.1877256317689,745.9472856944445,925.9927797833935,745.7088908333334C927.797833935018,745.4704959722222,929.6028880866427,744.9937066666666,931.4079422382672,744.9937066666666C933.2129963898917,744.9937066666666,935.0180505415162,744.9937066666666,936.8231046931407,744.9937066666666C938.6281588447654,744.9937066666666,940.4332129963899,744.5169166666666,942.2382671480145,744.2785216666666C944.043321299639,744.0401266666667,945.8483754512636,743.8017315277779,947.6534296028881,743.5633366666667C949.4584837545126,743.3249418055556,951.2635379061372,742.8481525,953.0685920577617,742.8481525C954.8736462093863,742.8481525,956.6787003610108,744.2785216666666,958.4837545126353,744.2785216666666C960.2888086642599,744.2785216666666,962.0938628158844,744.2785216666666,963.8989169675091,744.2785216666666C965.7039711191336,744.2785216666666,967.5090252707581,744.7553118055555,969.3140794223826,744.9937066666666C971.1191335740072,745.2321015277778,972.9241877256318,745.3512984722222,974.7292418772563,745.7088908333334C976.5342960288808,746.0664831944445,978.3393501805053,746.7816683333334,980.1444043321299,747.1392608333334C981.9494584837545,747.4968533333334,983.754512635379,747.8544458333333,985.5595667870036,747.8544458333333C987.3646209386281,747.8544458333333,989.1696750902527,747.1392608333334,990.9747292418772,747.1392608333334C992.7797833935017,747.1392608333334,994.5848375451263,747.1392608333334,996.3898916967509,747.1392608333334C998.1949458483755,747.1392608333334,1000,746.4240758333334,1001.8050541516246,746.4240758333334C1003.6101083032491,746.4240758333334,1005.4151624548737,746.4240758333334,1007.2202166064982,746.4240758333334C1009.0252707581228,746.4240758333334,1010.8303249097473,744.7553115277777,1012.635379061372,744.2785216666666C1014.4404332129965,743.8017318055555,1016.245487364621,743.5633366666667,1018.0505415162455,743.5633366666667C1019.85559566787,743.5633366666667,1021.6606498194947,743.9209293055555,1023.4657039711192,744.2785216666666C1025.2707581227437,744.6361140277777,1027.0758122743682,745.7088908333334,1028.8808664259927,745.7088908333334C1030.6859205776173,745.7088908333334,1032.490974729242,745.7088908333334,1034.2960288808665,745.7088908333334C1036.101083032491,745.7088908333334,1037.9061371841156,746.4240758333334,1039.71119133574,746.4240758333334C1041.5162454873646,746.4240758333334,1043.3212996389893,745.7088908333334,1045.1263537906138,745.7088908333334C1046.9314079422384,745.7088908333334,1048.7364620938629,747.8544458333333,1050.5415162454874,747.8544458333333C1052.346570397112,747.8544458333333,1054.1516245487364,746.1856802777779,1055.956678700361,745.7088908333334C1057.7617328519855,745.2321013888889,1059.56678700361,745.2321015277778,1061.3718411552345,744.9937066666666C1063.176895306859,744.7553118055555,1064.9819494584838,744.6361140277777,1066.7870036101083,744.2785216666666C1068.5920577617328,743.9209293055555,1070.3971119133575,742.8481525,1072.202166064982,742.8481525C1074.0072202166066,742.8481525,1075.812274368231,742.8481525,1077.6173285198556,742.8481525C1079.4223826714801,742.8481525,1081.2274368231049,742.8481525,1083.0324909747294,742.8481525C1084.837545126354,742.8481525,1086.6425992779784,742.1329675,1088.447653429603,742.1329675C1090.2527075812275,742.1329675,1092.057761732852,744.2785216666666,1093.8628158844765,744.2785216666666C1095.667870036101,744.2785216666666,1097.4729241877255,744.2785216666666,1099.27797833935,744.2785216666666C1101.0830324909746,744.2785216666666,1102.8880866425993,744.2785216666666,1104.6931407942238,744.2785216666666C1106.4981949458484,744.2785216666666,1108.3032490974729,743.5633366666667,1110.1083032490974,743.5633366666667C1111.913357400722,743.5633366666667,1113.7184115523467,743.5633366666667,1115.5234657039712,743.5633366666667C1117.3285198555957,743.5633366666667,1119.1335740072202,743.5633366666667,1120.9386281588447,743.5633366666667C1122.7436823104692,743.5633366666667,1124.548736462094,744.0401266666667,1126.3537906137185,744.2785216666666C1128.158844765343,744.5169166666666,1129.9638989169675,744.9937066666666,1131.768953068592,744.9937066666666C1133.5740072202166,744.9937066666666,1135.379061371841,744.6361140277777,1137.1841155234656,744.2785216666666C1138.9891696750901,743.9209293055555,1140.7942238267146,742.8481525,1142.5992779783392,742.8481525C1144.4043321299637,742.8481525,1146.2093862815884,743.5633366666667,1148.014440433213,743.5633366666667C1149.8194945848375,743.5633366666667,1151.6245487364622,743.0865473611111,1153.4296028880867,742.8481525C1155.2346570397112,742.6097576388888,1157.0397111913358,742.1329675,1158.8447653429603,742.1329675C1160.6498194945848,742.1329675,1162.4548736462095,742.1329675,1164.259927797834,742.1329675C1166.0649819494586,742.1329675,1167.870036101083,741.2985876388889,1169.6750902527076,740.7026C1171.4801444043321,740.106612361111,1173.2851985559569,739.0338305555556,1175.0902527075814,738.5570416666667C1176.895306859206,738.0802527777778,1178.7003610108304,738.19945,1180.505415162455,737.8418583333333C1182.3104693140795,737.4842666666667,1184.115523465704,737.3650694444444,1185.9205776173285,736.4114916666666C1187.725631768953,735.4579138888888,1189.5306859205775,726.6372944444445,1191.335740072202,725.6837166666667C1193.1407942238266,724.7301388888889,1194.9458483754513,724.25335,1196.7509025270758,724.25335C1198.5559566787003,724.25335,1200.3610108303249,724.25335,1202.1660649819494,724.25335C1203.971119133574,724.25335,1205.7761732851986,722.1077916666667,1207.5812274368232,722.1077916666667C1209.3862815884477,722.1077916666667,1211.1913357400722,722.8229749999999,1212.9963898916967,722.8229749999999C1214.8014440433212,722.8229749999999,1216.606498194946,722.346186111111,1218.4115523465705,721.3926083333333C1220.216606498195,720.4390305555556,1222.0216606498195,715.6711333333334,1223.826714801444,715.6711333333334C1225.6317689530686,715.6711333333334,1227.436823104693,724.4917444444444,1229.2418772563176,724.9685333333333C1231.046931407942,725.4453222222222,1232.8519855595669,725.6837166666667,1234.6570397111914,725.6837166666667C1236.462093862816,725.6837166666667,1238.2671480144404,720.6774250000001,1240.072202166065,720.6774250000001C1241.8772563176894,720.6774250000001,1243.6823104693142,720.6774250000001,1245.4873646209387,720.6774250000001C1247.2924187725632,720.6774250000001,1249.0974729241877,718.2934722222222,1250.9025270758123,717.8166833333333C1252.7075812274368,717.3398944444444,1254.5126353790615,717.4590916666666,1256.317689530686,717.1015C1258.1227436823106,716.7439083333334,1259.927797833935,716.6247111111111,1261.7328519855596,715.6711333333334C1263.537906137184,714.7175555555557,1265.3429602888086,710.6648347222223,1267.1480144404331,706.373725C1268.9530685920577,702.0826152777778,1270.7581227436822,693.7387930555556,1272.5631768953067,689.924475C1274.3682310469312,686.1101569444443,1276.173285198556,685.3949749999999,1277.9783393501805,683.4878166666666C1279.783393501805,681.5806583333333,1281.5884476534295,681.8190527777778,1283.393501805054,678.481525C1285.1985559566785,675.1439972222222,1287.0036101083033,666.4425319444445,1288.8086642599278,662.7474166666667C1290.6137184115523,659.052301388889,1292.418772563177,660.6018888888889,1294.2238267148016,656.3108333333333C1296.028880866426,652.0197777777779,1297.8339350180506,634.9744722222222,1299.6389891696751,627.7034166666666C1301.4440433212997,620.432361111111,1303.2490974729242,617.2139999999999,1305.0541516245487,612.6845C1306.8592057761732,608.155,1308.6642599277977,603.9831388888888,1310.4693140794222,600.5264166666666C1312.2743682310468,597.0696944444443,1314.0794223826715,597.6656666666667,1315.884476534296,591.9441666666667C1317.6895306859205,586.2226666666669,1319.494584837545,552.8473888888885,1321.2996389891696,546.1723333333333C1323.104693140794,539.4972777777778,1324.9097472924188,542.4772083333336,1326.7148014440434,536.15975C1328.5198555956679,529.8422916666667,1330.3249097472924,515.7770277777777,1332.129963898917,508.26758333333333C1333.9350180505414,500.75813888888865,1335.7400722021662,495.99019444444457,1337.5451263537907,491.10308333333336C1339.3501805054152,486.2159722222224,1341.1552346570397,487.0503611111111,1342.9602888086642,478.9449166666666C1344.7653429602888,470.83947222222173,1346.5703971119135,449.97997222222256,1348.375451263538,434.6035C1350.1805054151625,419.22702777777806,1351.985559566787,388.1164166666666,1353.7906137184116,386.68608333333333C1355.595667870036,385.25575000000003,1357.4007220216606,385.97091666666665,1359.2057761732851,384.54058333333336C1361.0108303249096,383.11025,1362.8158844765344,344.0133888888891,1364.620938628159,337.3383333333333C1366.4259927797834,330.6632777777778,1368.231046931408,334.00080555555553,1370.0361010830325,327.32575C1371.841155234657,320.65069444444424,1373.6462093862817,289.8977500000003,1375.4512635379062,280.83874999999995C1377.2563176895308,271.77975,1379.0613718411553,272.7333333333332,1380.8664259927798,267.25025C1382.6714801444043,261.7671666666666,1384.476534296029,250.32419444444446,1386.2815884476536,247.94024999999996C1388.086642599278,245.55630555555558,1389.8916967509026,246.74827777777776,1391.6967509025271,244.36433333333338C1393.5018050541516,241.980388888889,1395.3068592057762,186.67272222222235,1397.1119133574007,185.71916666666675C1398.9169675090252,184.76561111111116,1400.7220216606497,185.24238888888894,1402.5270758122742,184.28883333333334C1404.3321299638988,183.3352777777777,1406.1371841155235,179.99775000000002,1407.942238267148,179.99775000000002C1409.7472924187725,179.99775000000002,1411.552346570397,181.42808333333332,1413.3574007220216,181.42808333333332C1415.162454873646,181.42808333333332,1416.9675090252708,160.92608333333342,1418.7725631768953,155.6814166666666C1420.5776173285199,150.43674999999996,1422.3826714801444,150.43676388888883,1424.187725631769,147.81441666666666C1425.9927797833934,145.19206944444437,1427.7978339350182,139.94733333333326,1429.6028880866427,139.94733333333326C1431.4079422382672,139.94733333333326,1433.2129963898917,141.61611111111105,1435.0180505415162,144.95366666666663C1436.8231046931407,148.29122222222222,1438.6281588447653,161.40291666666664,1440.4332129963898,161.40291666666664C1442.2382671480143,161.40291666666664,1444.043321299639,146.14568055555583,1445.8483754512636,137.08666666666673C1447.653429602888,128.027652777778,1449.4584837545126,116.10784722222209,1451.2635379061371,107.04883333333335C1453.0685920577616,97.98981944444422,1454.8736462093864,82.73258333333334,1456.678700361011,82.73258333333334C1458.4837545126354,82.73258333333334,1460.28880866426,143.7616944444447,1462.0938628158844,148.52958333333333C1463.898916967509,153.29747222222218,1465.7039711191337,150.91352777777774,1467.5090252707582,155.6814166666666C1469.3140794223827,160.44930555555524,1471.1191335740073,192.87108333333333,1472.9241877256318,192.87108333333333C1474.7292418772563,192.87108333333333,1476.5342960288808,154.25108333333338,1478.3393501805053,154.25108333333338C1480.1444043321299,154.25108333333338,1481.9494584837544,172.60748611111143,1483.754512635379,184.28883333333334C1485.5595667870034,195.97018055555574,1487.3646209386281,206.45955555555503,1489.1696750902527,224.3391666666667C1490.9747292418772,242.21877777777763,1492.7797833935017,291.5665,1494.5848375451262,291.5665C1496.3898916967507,291.5665,1498.1949458483755,285.12987499999997,1500,278.69325" stroke="steelblue" stroke-width="3"/></g><g class="mark-symbol role-mark" role="graphics-symbol" aria-roledescription="symbol mark container"><path transform="translate(0,750)" d="M2.23606797749979,0A2.23606797749979,2.23606797749979,0,1,1,-2.23606797749979,0A2.23606797749979,2.23606797749979,0,1,1,2.23606797749979,0" fill="white" stroke="steelblue" stroke-width="1.5"/><path transform="translate(16.24548736462094,750)" d="M2.23606797749979,0A2.23606797749979,2.23606797749979,0,1,1,-2.23606797749979,0A2.23606797749979,2.23606797749979,0,1,1,2.23606797749979,0" fill="white" stroke="steelblue" stroke-width="1.5"/><path transform="translate(32.49097472924188,750)" d="M2.23606797749979,0A2.23606797749979,2.23606797749979,0,1,1,-2.23606797749979,0A2.23606797749979,2.23606797749979,0,1,1,2.23606797749979,0" fill="white" stroke="steelblue" stroke-width="1.5"/><path transform="translate(48.73646209386281,750)" d="M2.23606797749979,0A2.23606797749979,2.23606797749979,0,1,1,-2.23606797749979,0A2.23606797749979,2.23606797749979,0,1,1,2.23606797749979,0" fill="white" stroke="steelblue" stroke-width="1.5"/><path transform="translate(64.98194945848375,750)" d="M2.23606797749979,0A2.23606797749979,2.23606797749979,0,1,1,-2.23606797749979,0A2.23606797749979,2.23606797749979,0,1,1,2.23606797749979,0" fill="white" stroke="steelblue" stroke-width="1.5"/><path transform="translate(81.2274368231047,748.56963)" d="M2.23606797749979,0A2.23606797749979,2.23606797749979,0,1,1,-2.23606797749979,0A2.23606797749979,2.23606797749979,0,1,1,2.23606797749979,0" fill="white" stroke="steelblue" stroke-width="1.5"/><path transform="translate(97.47292418772562,735.6963083333333)" d="M2.23606797749979,0A2.23606797749979,2.23606797749979,0,1,1,-2.23606797749979,0A2.23606797749979,2.23606797749979,0,1,1,2.23606797749979,0" fill="white" stroke="steelblue" stroke-width="1.5"/><path transform="translate(113.71841155234657,725.6837166666667)" d="M2.23606797749979,0A2.23606797749979,2.23606797749979,0,1,1,-2.23606797749979,0A2.23606797749979,2.23606797749979,0,1,1,2.23606797749979,0" fill="white" stroke="steelblue" stroke-width="1.5"/><path transform="translate(129.9638989169675,712.8103916666666)" d="M2.23606797749979,0A2.23606797749979,2.23606797749979,0,1,1,-2.23606797749979,0A2.23606797749979,2.23606797749979,0,1,1,2.23606797749979,0" fill="white" stroke="steelblue" stroke-width="1.5"/><path transform="translate(146.20938628158845,704.9433583333333)" d="M2.23606797749979,0A2.23606797749979,2.23606797749979,0,1,1,-2.23606797749979,0A2.23606797749979,2.23606797749979,0,1,1,2.23606797749979,0" fill="white" stroke="steelblue" stroke-width="1.5"/><path transform="translate(162.4548736462094,692.0700333333334)" d="M2.23606797749979,0A2.23606797749979,2.23606797749979,0,1,1,-2.23606797749979,0A2.23606797749979,2.23606797749979,0,1,1,2.23606797749979,0" fill="white" stroke="steelblue" stroke-width="1.5"/><path transform="translate(178.70036101083033,681.3422583333333)" d="M2.23606797749979,0A2.23606797749979,2.23606797749979,0,1,1,-2.23606797749979,0A2.23606797749979,2.23606797749979,0,1,1,2.23606797749979,0" fill="white" stroke="steelblue" stroke-width="1.5"/><path transform="translate(194.94584837545125,687.0637416666667)" d="M2.23606797749979,0A2.23606797749979,2.23606797749979,0,1,1,-2.23606797749979,0A2.23606797749979,2.23606797749979,0,1,1,2.23606797749979,0" fill="white" stroke="steelblue" stroke-width="1.5"/><path transform="translate(211.19133574007222,704.2281750000001)" d="M2.23606797749979,0A2.23606797749979,2.23606797749979,0,1,1,-2.23606797749979,0A2.23606797749979,2.23606797749979,0,1,1,2.23606797749979,0" fill="white" stroke="steelblue" stroke-width="1.5"/><path transform="translate(227.43682310469313,715.6711333333334)" d="M2.23606797749979,0A2.23606797749979,2.23606797749979,0,1,1,-2.23606797749979,0A2.23606797749979,2.23606797749979,0,1,1,2.23606797749979,0" fill="white" stroke="steelblue" stroke-width="1.5"/><path transform="translate(243.68231046931407,722.1077916666667)" d="M2.23606797749979,0A2.23606797749979,2.23606797749979,0,1,1,-2.23606797749979,0A2.23606797749979,2.23606797749979,0,1,1,2.23606797749979,0" fill="white" stroke="steelblue" stroke-width="1.5"/><path transform="translate(259.927797833935,722.8229749999999)" d="M2.23606797749979,0A2.23606797749979,2.23606797749979,0,1,1,-2.23606797749979,0A2.23606797749979,2.23606797749979,0,1,1,2.23606797749979,0" fill="white" stroke="steelblue" stroke-width="1.5"/><path transform="translate(276.17328519855596,730.6900083333334)" d="M2.23606797749979,0A2.23606797749979,2.23606797749979,0,1,1,-2.23606797749979,0A2.23606797749979,2.23606797749979,0,1,1,2.23606797749979,0" fill="white" stroke="steelblue" stroke-width="1.5"/><path transform="translate(292.4187725631769,741.4177833333333)" d="M2.23606797749979,0A2.23606797749979,2.23606797749979,0,1,1,-2.23606797749979,0A2.23606797749979,2.23606797749979,0,1,1,2.23606797749979,0" fill="white" stroke="steelblue" stroke-width="1.5"/><path transform="translate(308.66425992779784,743.5633366666667)" d="M2.23606797749979,0A2.23606797749979,2.23606797749979,0,1,1,-2.23606797749979,0A2.23606797749979,2.23606797749979,0,1,1,2.23606797749979,0" fill="white" stroke="steelblue" stroke-width="1.5"/><path transform="translate(324.9097472924188,745.7088908333334)" d="M2.23606797749979,0A2.23606797749979,2.23606797749979,0,1,1,-2.23606797749979,0A2.23606797749979,2.23606797749979,0,1,1,2.23606797749979,0" fill="white" stroke="steelblue" stroke-width="1.5"/><path transform="translate(341.1552346570397,746.4240758333334)" d="M2.23606797749979,0A2.23606797749979,2.23606797749979,0,1,1,-2.23606797749979,0A2.23606797749979,2.23606797749979,0,1,1,2.23606797749979,0" fill="white" stroke="steelblue" stroke-width="1.5"/><path transform="translate(357.40072202166067,748.56963)" d="M2.23606797749979,0A2.23606797749979,2.23606797749979,0,1,1,-2.23606797749979,0A2.23606797749979,2.23606797749979,0,1,1,2.23606797749979,0" fill="white" stroke="steelblue" stroke-width="1.5"/><path transform="translate(373.64620938628155,748.56963)" d="M2.23606797749979,0A2.23606797749979,2.23606797749979,0,1,1,-2.23606797749979,0A2.23606797749979,2.23606797749979,0,1,1,2.23606797749979,0" fill="white" stroke="steelblue" stroke-width="1.5"/><path transform="translate(389.8916967509025,749.2848151666667)" d="M2.23606797749979,0A2.23606797749979,2.23606797749979,0,1,1,-2.23606797749979,0A2.23606797749979,2.23606797749979,0,1,1,2.23606797749979,0" fill="white" stroke="steelblue" stroke-width="1.5"/><path transform="translate(406.1371841155235,749.2848151666667)" d="M2.23606797749979,0A2.23606797749979,2.23606797749979,0,1,1,-2.23606797749979,0A2.23606797749979,2.23606797749979,0,1,1,2.23606797749979,0" fill="white" stroke="steelblue" stroke-width="1.5"/><path transform="translate(422.38267148014444,748.56963)" d="M2.23606797749979,0A2.23606797749979,2.23606797749979,0,1,1,-2.23606797749979,0A2.23606797749979,2.23606797749979,0,1,1,2.23606797749979,0" fill="white" stroke="steelblue" stroke-width="1.5"/><path transform="translate(438.6281588447653,749.2848151666667)" d="M2.23606797749979,0A2.23606797749979,2.23606797749979,0,1,1,-2.23606797749979,0A2.23606797749979,2.23606797749979,0,1,1,2.23606797749979,0" fill="white" stroke="steelblue" stroke-width="1.5"/><path transform="translate(454.87364620938627,749.2848151666667)" d="M2.23606797749979,0A2.23606797749979,2.23606797749979,0,1,1,-2.23606797749979,0A2.23606797749979,2.23606797749979,0,1,1,2.23606797749979,0" fill="white" stroke="steelblue" stroke-width="1.5"/><path transform="translate(471.11913357400726,750)" d="M2.23606797749979,0A2.23606797749979,2.23606797749979,0,1,1,-2.23606797749979,0A2.23606797749979,2.23606797749979,0,1,1,2.23606797749979,0" fill="white" stroke="steelblue" stroke-width="1.5"/><path transform="translate(487.36462093862815,750)" d="M2.23606797749979,0A2.23606797749979,2.23606797749979,0,1,1,-2.23606797749979,0A2.23606797749979,2.23606797749979,0,1,1,2.23606797749979,0" fill="white" stroke="steelblue" stroke-width="1.5"/><path transform="translate(503.6101083032491,749.2848151666667)" d="M2.23606797749979,0A2.23606797749979,2.23606797749979,0,1,1,-2.23606797749979,0A2.23606797749979,2.23606797749979,0,1,1,2.23606797749979,0" fill="white" stroke="steelblue" stroke-width="1.5"/><path transform="translate(519.85559566787,749.2848151666667)" d="M2.23606797749979,0A2.23606797749979,2.23606797749979,0,1,1,-2.23606797749979,0A2.23606797749979,2.23606797749979,0,1,1,2.23606797749979,0" fill="white" stroke="steelblue" stroke-width="1.5"/><path transform="translate(536.101083032491,750)" d="M2.23606797749979,0A2.23606797749979,2.23606797749979,0,1,1,-2.23606797749979,0A2.23606797749979,2.23606797749979,0,1,1,2.23606797749979,0" fill="white" stroke="steelblue" stroke-width="1.5"/><path transform="translate(552.3465703971119,749.2848151666667)" d="M2.23606797749979,0A2.23606797749979,2.23606797749979,0,1,1,-2.23606797749979,0A2.23606797749979,2.23606797749979,0,1,1,2.23606797749979,0" fill="white" stroke="steelblue" stroke-width="1.5"/><path transform="translate(568.5920577617328,749.2848151666667)" d="M2.23606797749979,0A2.23606797749979,2.23606797749979,0,1,1,-2.23606797749979,0A2.23606797749979,2.23606797749979,0,1,1,2.23606797749979,0" fill="white" stroke="steelblue" stroke-width="1.5"/><path transform="translate(584.8375451263538,750)" d="M2.23606797749979,0A2.23606797749979,2.23606797749979,0,1,1,-2.23606797749979,0A2.23606797749979,2.23606797749979,0,1,1,2.23606797749979,0" fill="white" stroke="steelblue" stroke-width="1.5"/><path transform="translate(601.0830324909747,750)" d="M2.23606797749979,0A2.23606797749979,2.23606797749979,0,1,1,-2.23606797749979,0A2.23606797749979,2.23606797749979,0,1,1,2.23606797749979,0" fill="white" stroke="steelblue" stroke-width="1.5"/><path transform="translate(617.3285198555957,750)" d="M2.23606797749979,0A2.23606797749979,2.23606797749979,0,1,1,-2.23606797749979,0A2.23606797749979,2.23606797749979,0,1,1,2.23606797749979,0" fill="white" stroke="steelblue" stroke-width="1.5"/><path transform="translate(633.5740072202166,750)" d="M2.23606797749979,0A2.23606797749979,2.23606797749979,0,1,1,-2.23606797749979,0A2.23606797749979,2.23606797749979,0,1,1,2.23606797749979,0" fill="white" stroke="steelblue" stroke-width="1.5"/><path transform="translate(649.8194945848376,750)" d="M2.23606797749979,0A2.23606797749979,2.23606797749979,0,1,1,-2.23606797749979,0A2.23606797749979,2.23606797749979,0,1,1,2.23606797749979,0" fill="white" stroke="steelblue" stroke-width="1.5"/><path transform="translate(666.0649819494585,750)" d="M2.23606797749979,0A2.23606797749979,2.23606797749979,0,1,1,-2.23606797749979,0A2.23606797749979,2.23606797749979,0,1,1,2.23606797749979,0" fill="white" stroke="steelblue" stroke-width="1.5"/><path transform="translate(682.3104693140795,750)" d="M2.23606797749979,0A2.23606797749979,2.23606797749979,0,1,1,-2.23606797749979,0A2.23606797749979,2.23606797749979,0,1,1,2.23606797749979,0" fill="white" stroke="steelblue" stroke-width="1.5"/><path transform="translate(698.5559566787003,749.2848151666667)" d="M2.23606797749979,0A2.23606797749979,2.23606797749979,0,1,1,-2.23606797749979,0A2.23606797749979,2.23606797749979,0,1,1,2.23606797749979,0" fill="white" stroke="steelblue" stroke-width="1.5"/><path transform="translate(714.8014440433213,748.56963)" d="M2.23606797749979,0A2.23606797749979,2.23606797749979,0,1,1,-2.23606797749979,0A2.23606797749979,2.23606797749979,0,1,1,2.23606797749979,0" fill="white" stroke="steelblue" stroke-width="1.5"/><path transform="translate(731.0469314079422,745.7088908333334)" d="M2.23606797749979,0A2.23606797749979,2.23606797749979,0,1,1,-2.23606797749979,0A2.23606797749979,2.23606797749979,0,1,1,2.23606797749979,0" fill="white" stroke="steelblue" stroke-width="1.5"/><path transform="translate(747.2924187725631,745.7088908333334)" d="M2.23606797749979,0A2.23606797749979,2.23606797749979,0,1,1,-2.23606797749979,0A2.23606797749979,2.23606797749979,0,1,1,2.23606797749979,0" fill="white" stroke="steelblue" stroke-width="1.5"/><path transform="translate(763.5379061371841,749.2848151666667)" d="M2.23606797749979,0A2.23606797749979,2.23606797749979,0,1,1,-2.23606797749979,0A2.23606797749979,2.23606797749979,0,1,1,2.23606797749979,0" fill="white" stroke="steelblue" stroke-width="1.5"/><path transform="translate(779.783393501805,749.2848151666667)" d="M2.23606797749979,0A2.23606797749979,2.23606797749979,0,1,1,-2.23606797749979,0A2.23606797749979,2.23606797749979,0,1,1,2.23606797749979,0" fill="white" stroke="steelblue" stroke-width="1.5"/><path transform="translate(796.028880866426,749.2848151666667)" d="M2.23606797749979,0A2.23606797749979,2.23606797749979,0,1,1,-2.23606797749979,0A2.23606797749979,2.23606797749979,0,1,1,2.23606797749979,0" fill="white" stroke="steelblue" stroke-width="1.5"/><path transform="translate(812.274368231047,745.7088908333334)" d="M2.23606797749979,0A2.23606797749979,2.23606797749979,0,1,1,-2.23606797749979,0A2.23606797749979,2.23606797749979,0,1,1,2.23606797749979,0" fill="white" stroke="steelblue" stroke-width="1.5"/><path transform="translate(828.5198555956678,743.5633366666667)" d="M2.23606797749979,0A2.23606797749979,2.23606797749979,0,1,1,-2.23606797749979,0A2.23606797749979,2.23606797749979,0,1,1,2.23606797749979,0" fill="white" stroke="steelblue" stroke-width="1.5"/><path transform="translate(844.7653429602889,744.9937066666666)" d="M2.23606797749979,0A2.23606797749979,2.23606797749979,0,1,1,-2.23606797749979,0A2.23606797749979,2.23606797749979,0,1,1,2.23606797749979,0" fill="white" stroke="steelblue" stroke-width="1.5"/><path transform="translate(861.0108303249099,744.9937066666666)" d="M2.23606797749979,0A2.23606797749979,2.23606797749979,0,1,1,-2.23606797749979,0A2.23606797749979,2.23606797749979,0,1,1,2.23606797749979,0" fill="white" stroke="steelblue" stroke-width="1.5"/><path transform="translate(877.2563176895306,747.8544458333333)" d="M2.23606797749979,0A2.23606797749979,2.23606797749979,0,1,1,-2.23606797749979,0A2.23606797749979,2.23606797749979,0,1,1,2.23606797749979,0" fill="white" stroke="steelblue" stroke-width="1.5"/><path transform="translate(893.5018050541516,750)" d="M2.23606797749979,0A2.23606797749979,2.23606797749979,0,1,1,-2.23606797749979,0A2.23606797749979,2.23606797749979,0,1,1,2.23606797749979,0" fill="white" stroke="steelblue" stroke-width="1.5"/><path transform="translate(909.7472924187725,747.8544458333333)" d="M2.23606797749979,0A2.23606797749979,2.23606797749979,0,1,1,-2.23606797749979,0A2.23606797749979,2.23606797749979,0,1,1,2.23606797749979,0" fill="white" stroke="steelblue" stroke-width="1.5"/><path transform="translate(925.9927797833935,745.7088908333334)" d="M2.23606797749979,0A2.23606797749979,2.23606797749979,0,1,1,-2.23606797749979,0A2.23606797749979,2.23606797749979,0,1,1,2.23606797749979,0" fill="white" stroke="steelblue" stroke-width="1.5"/><path transform="translate(942.2382671480145,744.2785216666666)" d="M2.23606797749979,0A2.23606797749979,2.23606797749979,0,1,1,-2.23606797749979,0A2.23606797749979,2.23606797749979,0,1,1,2.23606797749979,0" fill="white" stroke="steelblue" stroke-width="1.5"/><path transform="translate(958.4837545126353,744.2785216666666)" d="M2.23606797749979,0A2.23606797749979,2.23606797749979,0,1,1,-2.23606797749979,0A2.23606797749979,2.23606797749979,0,1,1,2.23606797749979,0" fill="white" stroke="steelblue" stroke-width="1.5"/><path transform="translate(974.7292418772563,745.7088908333334)" d="M2.23606797749979,0A2.23606797749979,2.23606797749979,0,1,1,-2.23606797749979,0A2.23606797749979,2.23606797749979,0,1,1,2.23606797749979,0" fill="white" stroke="steelblue" stroke-width="1.5"/><path transform="translate(990.9747292418772,747.1392608333334)" d="M2.23606797749979,0A2.23606797749979,2.23606797749979,0,1,1,-2.23606797749979,0A2.23606797749979,2.23606797749979,0,1,1,2.23606797749979,0" fill="white" stroke="steelblue" stroke-width="1.5"/><path transform="translate(1007.2202166064982,746.4240758333334)" d="M2.23606797749979,0A2.23606797749979,2.23606797749979,0,1,1,-2.23606797749979,0A2.23606797749979,2.23606797749979,0,1,1,2.23606797749979,0" fill="white" stroke="steelblue" stroke-width="1.5"/><path transform="translate(1023.4657039711192,744.2785216666666)" d="M2.23606797749979,0A2.23606797749979,2.23606797749979,0,1,1,-2.23606797749979,0A2.23606797749979,2.23606797749979,0,1,1,2.23606797749979,0" fill="white" stroke="steelblue" stroke-width="1.5"/><path transform="translate(1039.71119133574,746.4240758333334)" d="M2.23606797749979,0A2.23606797749979,2.23606797749979,0,1,1,-2.23606797749979,0A2.23606797749979,2.23606797749979,0,1,1,2.23606797749979,0" fill="white" stroke="steelblue" stroke-width="1.5"/><path transform="translate(1055.956678700361,745.7088908333334)" d="M2.23606797749979,0A2.23606797749979,2.23606797749979,0,1,1,-2.23606797749979,0A2.23606797749979,2.23606797749979,0,1,1,2.23606797749979,0" fill="white" stroke="steelblue" stroke-width="1.5"/><path transform="translate(1072.202166064982,742.8481525)" d="M2.23606797749979,0A2.23606797749979,2.23606797749979,0,1,1,-2.23606797749979,0A2.23606797749979,2.23606797749979,0,1,1,2.23606797749979,0" fill="white" stroke="steelblue" stroke-width="1.5"/><path transform="translate(1088.447653429603,742.1329675)" d="M2.23606797749979,0A2.23606797749979,2.23606797749979,0,1,1,-2.23606797749979,0A2.23606797749979,2.23606797749979,0,1,1,2.23606797749979,0" fill="white" stroke="steelblue" stroke-width="1.5"/><path transform="translate(1104.6931407942238,744.2785216666666)" d="M2.23606797749979,0A2.23606797749979,2.23606797749979,0,1,1,-2.23606797749979,0A2.23606797749979,2.23606797749979,0,1,1,2.23606797749979,0" fill="white" stroke="steelblue" stroke-width="1.5"/><path transform="translate(1120.9386281588447,743.5633366666667)" d="M2.23606797749979,0A2.23606797749979,2.23606797749979,0,1,1,-2.23606797749979,0A2.23606797749979,2.23606797749979,0,1,1,2.23606797749979,0" fill="white" stroke="steelblue" stroke-width="1.5"/><path transform="translate(1137.1841155234656,744.2785216666666)" d="M2.23606797749979,0A2.23606797749979,2.23606797749979,0,1,1,-2.23606797749979,0A2.23606797749979,2.23606797749979,0,1,1,2.23606797749979,0" fill="white" stroke="steelblue" stroke-width="1.5"/><path transform="translate(1153.4296028880867,742.8481525)" d="M2.23606797749979,0A2.23606797749979,2.23606797749979,0,1,1,-2.23606797749979,0A2.23606797749979,2.23606797749979,0,1,1,2.23606797749979,0" fill="white" stroke="steelblue" stroke-width="1.5"/><path transform="translate(1169.6750902527076,740.7026)" d="M2.23606797749979,0A2.23606797749979,2.23606797749979,0,1,1,-2.23606797749979,0A2.23606797749979,2.23606797749979,0,1,1,2.23606797749979,0" fill="white" stroke="steelblue" stroke-width="1.5"/><path transform="translate(1185.9205776173285,736.4114916666666)" d="M2.23606797749979,0A2.23606797749979,2.23606797749979,0,1,1,-2.23606797749979,0A2.23606797749979,2.23606797749979,0,1,1,2.23606797749979,0" fill="white" stroke="steelblue" stroke-width="1.5"/><path transform="translate(1202.1660649819494,724.25335)" d="M2.23606797749979,0A2.23606797749979,2.23606797749979,0,1,1,-2.23606797749979,0A2.23606797749979,2.23606797749979,0,1,1,2.23606797749979,0" fill="white" stroke="steelblue" stroke-width="1.5"/><path transform="translate(1218.4115523465705,721.3926083333333)" d="M2.23606797749979,0A2.23606797749979,2.23606797749979,0,1,1,-2.23606797749979,0A2.23606797749979,2.23606797749979,0,1,1,2.23606797749979,0" fill="white" stroke="steelblue" stroke-width="1.5"/><path transform="translate(1234.6570397111914,725.6837166666667)" d="M2.23606797749979,0A2.23606797749979,2.23606797749979,0,1,1,-2.23606797749979,0A2.23606797749979,2.23606797749979,0,1,1,2.23606797749979,0" fill="white" stroke="steelblue" stroke-width="1.5"/><path transform="translate(1250.9025270758123,717.8166833333333)" d="M2.23606797749979,0A2.23606797749979,2.23606797749979,0,1,1,-2.23606797749979,0A2.23606797749979,2.23606797749979,0,1,1,2.23606797749979,0" fill="white" stroke="steelblue" stroke-width="1.5"/><path transform="translate(1267.1480144404331,706.373725)" d="M2.23606797749979,0A2.23606797749979,2.23606797749979,0,1,1,-2.23606797749979,0A2.23606797749979,2.23606797749979,0,1,1,2.23606797749979,0" fill="white" stroke="steelblue" stroke-width="1.5"/><path transform="translate(1283.393501805054,678.481525)" d="M2.23606797749979,0A2.23606797749979,2.23606797749979,0,1,1,-2.23606797749979,0A2.23606797749979,2.23606797749979,0,1,1,2.23606797749979,0" fill="white" stroke="steelblue" stroke-width="1.5"/><path transform="translate(1299.6389891696751,627.7034166666666)" d="M2.23606797749979,0A2.23606797749979,2.23606797749979,0,1,1,-2.23606797749979,0A2.23606797749979,2.23606797749979,0,1,1,2.23606797749979,0" fill="white" stroke="steelblue" stroke-width="1.5"/><path transform="translate(1315.884476534296,591.9441666666667)" d="M2.23606797749979,0A2.23606797749979,2.23606797749979,0,1,1,-2.23606797749979,0A2.23606797749979,2.23606797749979,0,1,1,2.23606797749979,0" fill="white" stroke="steelblue" stroke-width="1.5"/><path transform="translate(1332.129963898917,508.26758333333333)" d="M2.23606797749979,0A2.23606797749979,2.23606797749979,0,1,1,-2.23606797749979,0A2.23606797749979,2.23606797749979,0,1,1,2.23606797749979,0" fill="white" stroke="steelblue" stroke-width="1.5"/><path transform="translate(1348.375451263538,434.6035)" d="M2.23606797749979,0A2.23606797749979,2.23606797749979,0,1,1,-2.23606797749979,0A2.23606797749979,2.23606797749979,0,1,1,2.23606797749979,0" fill="white" stroke="steelblue" stroke-width="1.5"/><path transform="translate(1364.620938628159,337.3383333333333)" d="M2.23606797749979,0A2.23606797749979,2.23606797749979,0,1,1,-2.23606797749979,0A2.23606797749979,2.23606797749979,0,1,1,2.23606797749979,0" fill="white" stroke="steelblue" stroke-width="1.5"/><path transform="translate(1380.8664259927798,267.25025)" d="M2.23606797749979,0A2.23606797749979,2.23606797749979,0,1,1,-2.23606797749979,0A2.23606797749979,2.23606797749979,0,1,1,2.23606797749979,0" fill="white" stroke="steelblue" stroke-width="1.5"/><path transform="translate(1397.1119133574007,185.71916666666675)" d="M2.23606797749979,0A2.23606797749979,2.23606797749979,0,1,1,-2.23606797749979,0A2.23606797749979,2.23606797749979,0,1,1,2.23606797749979,0" fill="white" stroke="steelblue" stroke-width="1.5"/><path transform="translate(1413.3574007220216,181.42808333333332)" d="M2.23606797749979,0A2.23606797749979,2.23606797749979,0,1,1,-2.23606797749979,0A2.23606797749979,2.23606797749979,0,1,1,2.23606797749979,0" fill="white" stroke="steelblue" stroke-width="1.5"/><path transform="translate(1429.6028880866427,139.94733333333326)" d="M2.23606797749979,0A2.23606797749979,2.23606797749979,0,1,1,-2.23606797749979,0A2.23606797749979,2.23606797749979,0,1,1,2.23606797749979,0" fill="white" stroke="steelblue" stroke-width="1.5"/><path transform="translate(1445.8483754512636,137.08666666666673)" d="M2.23606797749979,0A2.23606797749979,2.23606797749979,0,1,1,-2.23606797749979,0A2.23606797749979,2.23606797749979,0,1,1,2.23606797749979,0" fill="white" stroke="steelblue" stroke-width="1.5"/><path transform="translate(1462.0938628158844,148.52958333333333)" d="M2.23606797749979,0A2.23606797749979,2.23606797749979,0,1,1,-2.23606797749979,0A2.23606797749979,2.23606797749979,0,1,1,2.23606797749979,0" fill="white" stroke="steelblue" stroke-width="1.5"/><path transform="translate(1478.3393501805053,154.25108333333338)" d="M2.23606797749979,0A2.23606797749979,2.23606797749979,0,1,1,-2.23606797749979,0A2.23606797749979,2.23606797749979,0,1,1,2.23606797749979,0" fill="white" stroke="steelblue" stroke-width="1.5"/><path transform="translate(1494.5848375451262,291.5665)" d="M2.23606797749979,0A2.23606797749979,2.23606797749979,0,1,1,-2.23606797749979,0A2.23606797749979,2.23606797749979,0,1,1,2.23606797749979,0" fill="white" stroke="steelblue" stroke-width="1.5"/></g><g class="mark-group role-title"><g transform="translate(715.8059853192549,-35)"><path class="background" aria-hidden="true" d="M0,0h0v0h0Z" pointer-events="none"/><g><g class="mark-text role-title-text" role="graphics-symbol" aria-roledescription="title" aria-label="Title text 'COVID-19 7-day-incidence in 'Bezirk Amstetten' (absolute)'" pointer-events="none"><text text-anchor="middle" transform="translate(0,19)" font-family="sans-serif" font-size="24px" font-weight="bold" fill="#000" opacity="1">COVID-19 7-day-incidence in 'Bezirk Amstetten' (absolute)</text></g></g><path class="foreground" aria-hidden="true" d="" pointer-events="none" display="none"/></g></g></g><path class="foreground" aria-hidden="true" d="" display="none"/></g></g></g></svg>