<svg xmlns="http://www.w3.org/2000/svg" xmlns:xlink="http://www.w3.org/1999/xlink" version="1.1" class="marks" width="1604" height="900" viewBox="0 0 1604 900"><g fill="none" stroke-miterlimit="10" transform="translate(96,40)"><g class="mark-group role-frame root" role="graphics-object" aria-roledescription="group mark container"><g transform="translate(0,0)"><path class="background" aria-hidden="true" d="M0,0h1500v750h-1500Z"/><g><g class="mark-group role-axis" role="graphics-symbol" aria-roledescription="axis" aria-label="Y-axis titled 'COVID-19 recovered count (absolute)' for a linear scale with values from 0 to 2,200"><g transform="translate(0.5,0.5)"><path class="background" aria-hidden="true" d="M0,0h0v0h0Z" pointer-events="none"/><g><g class="mark-rule role-axis-grid" pointer-events="none"><line transform="translate(0,750)" x2="1500" y2="0" stroke="#ddd" stroke-width="1" opacity="1"/><line transform="translate(0,682)" x2="1500" y2="0" stroke="#ddd" stroke-width="1" opacity="1"/><line transform="translate(0,614)" x2="1500" y2="0" stroke="#ddd" stroke-width="1" opacity="1"/><line transform="translate(0,545)" x2="1500" y2="0" stroke="#ddd" stroke-width="1" opacity="1"/><line transform="translate(0,477)" x2="1500" y2="0" stroke="#ddd" stroke-width="1" opacity="1"/><line transform="translate(0,409)" x2="1500" y2="0" stroke="#ddd" stroke-width="1" opacity="1"/><line transform="translate(0,341)" x2="1500" y2="0" stroke="#ddd" stroke-width="1" opacity="1"/><line transform="translate(0,273)" x2="1500" y2="0" stroke="#ddd" stroke-width="1" opacity="1"/><line transform="translate(0,205)" x2="1500" y2="0" stroke="#ddd" stroke-width="1" opacity="1"/><line transform="translate(0,136)" x2="1500" y2="0" stroke="#ddd" stroke-width="1" opacity="1"/><line transform="translate(0,68)" x2="1500" y2="0" stroke="#ddd" stroke-width="1" opacity="1"/><line transform="translate(0,0)" x2="1500" y2="0" stroke="#ddd" stroke-width="1" opacity="1"/></g><g class="mark-rule role-axis-tick" pointer-events="none"><line transform="translate(0,750)" x2="-5" y2="0" stroke="#888" stroke-width="1" opacity="1"/><line transform="translate(0,682)" x2="-5" y2="0" stroke="#888" stroke-width="1" opacity="1"/><line transform="translate(0,614)" x2="-5" y2="0" stroke="#888" stroke-width="1" opacity="1"/><line transform="translate(0,545)" x2="-5" y2="0" stroke="#888" stroke-width="1" opacity="1"/><line transform="translate(0,477)" x2="-5" y2="0" stroke="#888" stroke-width="1" opacity="1"/><line transform="translate(0,409)" x2="-5" y2="0" stroke="#888" stroke-width="1" opacity="1"/><line transform="translate(0,341)" x2="-5" y2="0" stroke="#888" stroke-width="1" opacity="1"/><line transform="translate(0,273)" x2="-5" y2="0" stroke="#888" stroke-width="1" opacity="1"/><line transform="translate(0,205)" x2="-5" y2="0" stroke="#888" stroke-width="1" opacity="1"/><line transform="translate(0,136)" x2="-5" y2="0" stroke="#888" stroke-width="1" opacity="1"/><line transform="translate(0,68)" x2="-5" y2="0" stroke="#888" stroke-width="1" opacity="1"/><line transform="translate(0,0)" x2="-5" y2="0" stroke="#888" stroke-width="1" opacity="1"/></g><g class="mark-text role-axis-label" pointer-events="none"><text text-anchor="end" transform="translate(-7,754)" font-family="sans-serif" font-size="14px" fill="#000" opacity="1">0</text><text text-anchor="end" transform="translate(-7,685.8181818181818)" font-family="sans-serif" font-size="14px" fill="#000" opacity="1">200</text><text text-anchor="end" transform="translate(-7,617.6363636363636)" font-family="sans-serif" font-size="14px" fill="#000" opacity="1">400</text><text text-anchor="end" transform="translate(-7,549.4545454545455)" font-family="sans-serif" font-size="14px" fill="#000" opacity="1">600</text><text text-anchor="end" transform="translate(-7,481.27272727272725)" font-family="sans-serif" font-size="14px" fill="#000" opacity="1">800</text><text text-anchor="end" transform="translate(-7,413.09090909090907)" font-family="sans-serif" font-size="14px" fill="#000" opacity="1">1,000</text><text text-anchor="end" transform="translate(-7,344.90909090909093)" font-family="sans-serif" font-size="14px" fill="#000" opacity="1">1,200</text><text text-anchor="end" transform="translate(-7,276.72727272727275)" font-family="sans-serif" font-size="14px" fill="#000" opacity="1">1,400</text><text text-anchor="end" transform="translate(-7,208.54545454545453)" font-family="sans-serif" font-size="14px" fill="#000" opacity="1">1,600</text><text text-anchor="end" transform="translate(-7,140.36363636363632)" font-family="sans-serif" font-size="14px" fill="#000" opacity="1">1,800</text><text text-anchor="end" transform="translate(-7,72.1818181818182)" font-family="sans-serif" font-size="14px" fill="#000" opacity="1">2,000</text><text text-anchor="end" transform="translate(-7,4)" font-family="sans-serif" font-size="14px" fill="#000" opacity="1">2,200</text></g><g class="mark-rule role-axis-domain" pointer-events="none"><line transform="translate(0,750)" x2="0" y2="-750" stroke="#888" stroke-width="1" opacity="1"/></g><g class="mark-text role-axis-title" pointer-events="none"><text text-anchor="middle" transform="translate(-73,375) rotate(-90) translate(0,-4)" font-family="sans-serif" font-size="18px" font-weight="bold" fill="#000" opacity="1">COVID-19 recovered count (absolute)</text></g></g><path class="foreground" aria-hidden="true" d="" pointer-events="none" display="none"/></g></g><g class="mark-group role-axis" role="graphics-symbol" aria-roledescription="axis" aria-label="X-axis titled 'Date' for a linear scale with values from 2020-02-26 to 2020-11-29"><g transform="translate(0.5,750.5)"><path class="background" aria-hidden="true" d="M0,0h0v0h0Z" pointer-events="none"/><g><g class="mark-rule role-axis-tick" pointer-events="none"><line transform="translate(20,0)" x2="0" y2="5" stroke="#888" stroke-width="1" opacity="1"/><line transform="translate(83,0)" x2="0" y2="5" stroke="#888" stroke-width="1" opacity="1"/><line transform="translate(146,0)" x2="0" y2="5" stroke="#888" stroke-width="1" opacity="1"/><line transform="translate(208,0)" x2="0" y2="5" stroke="#888" stroke-width="1" opacity="1"/><line transform="translate(271,0)" x2="0" y2="5" stroke="#888" stroke-width="1" opacity="1"/><line transform="translate(334,0)" x2="0" y2="5" stroke="#888" stroke-width="1" opacity="1"/><line transform="translate(396,0)" x2="0" y2="5" stroke="#888" stroke-width="1" opacity="1"/><line transform="translate(459,0)" x2="0" y2="5" stroke="#888" stroke-width="1" opacity="1"/><line transform="translate(522,0)" x2="0" y2="5" stroke="#888" stroke-width="1" opacity="1"/><line transform="translate(584,0)" x2="0" y2="5" stroke="#888" stroke-width="1" opacity="1"/><line transform="translate(647,0)" x2="0" y2="5" stroke="#888" stroke-width="1" opacity="1"/><line transform="translate(710,0)" x2="0" y2="5" stroke="#888" stroke-width="1" opacity="1"/><line transform="translate(772,0)" x2="0" y2="5" stroke="#888" stroke-width="1" opacity="1"/><line transform="translate(835,0)" x2="0" y2="5" stroke="#888" stroke-width="1" opacity="1"/><line transform="translate(898,0)" x2="0" y2="5" stroke="#888" stroke-width="1" opacity="1"/><line transform="translate(960,0)" x2="0" y2="5" stroke="#888" stroke-width="1" opacity="1"/><line transform="translate(1023,0)" x2="0" y2="5" stroke="#888" stroke-width="1" opacity="1"/><line transform="translate(1086,0)" x2="0" y2="5" stroke="#888" stroke-width="1" opacity="1"/><line transform="translate(1149,0)" x2="0" y2="5" stroke="#888" stroke-width="1" opacity="1"/><line transform="translate(1211,0)" x2="0" y2="5" stroke="#888" stroke-width="1" opacity="1"/><line transform="translate(1274,0)" x2="0" y2="5" stroke="#888" stroke-width="1" opacity="1"/><line transform="translate(1337,0)" x2="0" y2="5" stroke="#888" stroke-width="1" opacity="1"/><line transform="translate(1399,0)" x2="0" y2="5" stroke="#888" stroke-width="1" opacity="1"/><line transform="translate(1462,0)" x2="0" y2="5" stroke="#888" stroke-width="1" opacity="1"/></g><g class="mark-text role-axis-label" pointer-events="none"><text text-anchor="end" transform="translate(20.356999598876854,7) rotate(-35) translate(0,11)" font-family="sans-serif" font-size="14px" fill="#000" opacity="1">2020-02-29</text><text text-anchor="end" transform="translate(83.03249097472924,7) rotate(-35) translate(0,11)" font-family="sans-serif" font-size="14px" fill="#000" opacity="1">2020-03-12</text><text text-anchor="end" transform="translate(145.70798235058163,7) rotate(-35) translate(0,11)" font-family="sans-serif" font-size="14px" fill="#000" opacity="1">2020-03-23</text><text text-anchor="end" transform="translate(208.38347372643403,7) rotate(-35) translate(0,11)" font-family="sans-serif" font-size="14px" fill="#000" opacity="1">2020-04-04</text><text text-anchor="end" transform="translate(271.05896510228644,7) rotate(-35) translate(0,11)" font-family="sans-serif" font-size="14px" fill="#000" opacity="1">2020-04-16</text><text text-anchor="end" transform="translate(333.7344564781388,7) rotate(-35) translate(0,11)" font-family="sans-serif" font-size="14px" fill="#000" opacity="1">2020-04-27</text><text text-anchor="end" transform="translate(396.4099478539912,7) rotate(-35) translate(0,11)" font-family="sans-serif" font-size="14px" fill="#000" opacity="1">2020-05-09</text><text text-anchor="end" transform="translate(459.08543922984353,7) rotate(-35) translate(0,11)" font-family="sans-serif" font-size="14px" fill="#000" opacity="1">2020-05-20</text><text text-anchor="end" transform="translate(521.760930605696,7) rotate(-35) translate(0,11)" font-family="sans-serif" font-size="14px" fill="#000" opacity="1">2020-06-01</text><text text-anchor="end" transform="translate(584.4364219815483,7) rotate(-35) translate(0,11)" font-family="sans-serif" font-size="14px" fill="#000" opacity="1">2020-06-12</text><text text-anchor="end" transform="translate(647.1119133574008,7) rotate(-35) translate(0,11)" font-family="sans-serif" font-size="14px" fill="#000" opacity="1">2020-06-24</text><text text-anchor="end" transform="translate(709.7874047332531,7) rotate(-35) translate(0,11)" font-family="sans-serif" font-size="14px" fill="#000" opacity="1">2020-07-06</text><text text-anchor="end" transform="translate(772.4628961091055,7) rotate(-35) translate(0,11)" font-family="sans-serif" font-size="14px" fill="#000" opacity="1">2020-07-17</text><text text-anchor="end" transform="translate(835.1383874849579,7) rotate(-35) translate(0,11)" font-family="sans-serif" font-size="14px" fill="#000" opacity="1">2020-07-29</text><text text-anchor="end" transform="translate(897.8138788608103,7) rotate(-35) translate(0,11)" font-family="sans-serif" font-size="14px" fill="#000" opacity="1">2020-08-09</text><text text-anchor="end" transform="translate(960.4893702366626,7) rotate(-35) translate(0,11)" font-family="sans-serif" font-size="14px" fill="#000" opacity="1">2020-08-21</text><text text-anchor="end" transform="translate(1023.164861612515,7) rotate(-35) translate(0,11)" font-family="sans-serif" font-size="14px" fill="#000" opacity="1">2020-09-01</text><text text-anchor="end" transform="translate(1085.8403529883674,7) rotate(-35) translate(0,11)" font-family="sans-serif" font-size="14px" fill="#000" opacity="1">2020-09-13</text><text text-anchor="end" transform="translate(1148.51584436422,7) rotate(-35) translate(0,11)" font-family="sans-serif" font-size="14px" fill="#000" opacity="1">2020-09-25</text><text text-anchor="end" transform="translate(1211.1913357400722,7) rotate(-35) translate(0,11)" font-family="sans-serif" font-size="14px" fill="#000" opacity="1">2020-10-06</text><text text-anchor="end" transform="translate(1273.8668271159245,7) rotate(-35) translate(0,11)" font-family="sans-serif" font-size="14px" fill="#000" opacity="1">2020-10-18</text><text text-anchor="end" transform="translate(1336.542318491777,7) rotate(-35) translate(0,11)" font-family="sans-serif" font-size="14px" fill="#000" opacity="1">2020-10-29</text><text text-anchor="end" transform="translate(1399.2178098676293,7) rotate(-35) translate(0,11)" font-family="sans-serif" font-size="14px" fill="#000" opacity="1">2020-11-10</text><text text-anchor="end" transform="translate(1461.8933012434818,7) rotate(-35) translate(0,11)" font-family="sans-serif" font-size="14px" fill="#000" opacity="1">2020-11-21</text></g><g class="mark-rule role-axis-domain" pointer-events="none"><line transform="translate(0,0)" x2="1500" y2="0" stroke="#888" stroke-width="1" opacity="1"/></g><g class="mark-text role-axis-title" pointer-events="none"><text text-anchor="middle" transform="translate(750,100.70868949136309)" font-family="sans-serif" font-size="18px" font-weight="bold" fill="#000" opacity="1">Date</text></g></g><path class="foreground" aria-hidden="true" d="" pointer-events="none" display="none"/></g></g><g class="mark-line role-mark" role="graphics-symbol" aria-roledescription="line mark container"><path d="M0,750C1.8050541516245489,750,3.610108303249098,750,5.415162454873647,750C7.220216606498195,750,9.025270758122744,750,10.830324909747294,750C12.635379061371841,750,14.44043321299639,750,16.24548736462094,750C18.050541516245488,750,19.855595667870038,750,21.660649819494587,750C23.465703971119137,750,25.270758122743683,750,27.075812274368232,750C28.88086642599278,750,30.685920577617328,750,32.49097472924188,750C34.29602888086642,750,36.101083032490976,750,37.90613718411552,750C39.711191335740075,750,41.51624548736462,750,43.321299638989174,750C45.12635379061372,750,46.931407942238266,750,48.73646209386281,750C50.541516245487365,750,52.34657039711191,750,54.151624548736464,750C55.95667870036101,750,57.76173285198556,750,59.56678700361011,750C61.371841155234655,750,63.17689530685921,750,64.98194945848375,750C66.7870036101083,750,68.59205776173286,750,70.3971119133574,750C72.20216606498195,750,74.0072202166065,750,75.81227436823104,750C77.61732851985559,750,79.42238267148015,750,81.2274368231047,750C83.03249097472924,750,84.8375451263538,750,86.64259927797835,750C88.4476534296029,750,90.25270758122744,750,92.05776173285199,750C93.86281588447653,750,95.66787003610108,750,97.47292418772562,750C99.27797833935017,750,101.08303249097473,750,102.88808664259928,750C104.69314079422382,750,106.49819494584838,750,108.30324909747293,750C110.10830324909747,750,111.91335740072202,750,113.71841155234657,750C115.52346570397111,750,117.32851985559567,750,119.13357400722022,750C120.93862815884476,750,122.74368231046931,750,124.54873646209386,750C126.3537906137184,750,128.15884476534296,750,129.9638989169675,750C131.76895306859205,750,133.57400722021663,750,135.37906137184117,750C137.18411552346572,750,138.98916967509027,748.2954545454545,140.7942238267148,748.2954545454545C142.59927797833936,748.2954545454545,144.4043321299639,748.2954545454545,146.20938628158845,748.2954545454545C148.014440433213,748.2954545454545,149.81949458483754,748.1818181818181,151.6245487364621,747.9545454545455C153.42960288808663,747.7272727272729,155.2346570397112,747.6136363636364,157.03971119133575,746.9318181818181C158.8447653429603,746.25,160.64981949458485,744.5454545454545,162.4548736462094,743.8636363636364C164.25992779783394,743.1818181818182,166.06498194945848,743.5227272727273,167.87003610108303,742.8409090909091C169.67509025270758,742.159090909091,171.48014440433215,740.2272727272727,173.2851985559567,738.75C175.09025270758124,737.2727272727273,176.8953068592058,735.0568181818182,178.70036101083033,733.9772727272727C180.50541516245488,732.8977272727273,182.31046931407943,733.0113636363636,184.11552346570397,732.2727272727273C185.92057761732852,731.5340909090909,187.72563176895306,730.284090909091,189.5306859205776,729.5454545454546C191.33574007220216,728.8068181818182,193.1407942238267,728.5795454545455,194.94584837545125,727.8409090909091C196.7509025270758,727.1022727272727,198.55595667870037,725.7386363636364,200.36101083032491,725.1136363636364C202.16606498194946,724.4886363636364,203.971119133574,724.3181818181819,205.77617328519855,724.0909090909091C207.5812274368231,723.8636363636364,209.38628158844767,723.9772727272727,211.19133574007222,723.75C212.99638989169677,723.5227272727273,214.8014440433213,722.2727272727273,216.60649819494586,721.7045454545455C218.4115523465704,721.1363636363637,220.21660649819495,720.7386363636364,222.0216606498195,720.3409090909091C223.82671480144404,719.9431818181819,225.6317689530686,720,227.43682310469313,719.3181818181819C229.24187725631768,718.6363636363637,231.04693140794225,716.6477272727274,232.8519855595668,715.5681818181819C234.65703971119135,714.4886363636364,236.4620938628159,713.75,238.26714801444044,712.8409090909091C240.07220216606498,711.9318181818182,241.87725631768953,711.0795454545455,243.68231046931407,710.1136363636364C245.48736462093862,709.1477272727273,247.29241877256317,707.9545454545454,249.0974729241877,707.0454545454545C250.90252707581226,706.1363636363636,252.70758122743683,706.25,254.51263537906138,704.6590909090909C256.3176895306859,703.0681818181818,258.12274368231044,698.6931818181818,259.927797833935,696.8181818181818C261.73285198555953,694.9431818181818,263.5379061371841,694.4886363636364,265.3429602888086,693.4090909090909C267.1480144404332,692.3295454545454,268.9530685920578,691.7045454545454,270.75812274368235,690.340909090909C272.56317689530687,688.9772727272726,274.36823104693144,685.681818181818,276.17328519855596,685.2272727272726C277.97833935018053,684.7727272727273,279.78339350180505,684.5454545454545,281.5884476534296,684.5454545454545C283.39350180505414,684.5454545454545,285.1985559566787,684.5454545454545,287.00361010830323,684.5454545454545C288.8086642599278,684.5454545454545,290.6137184115523,683.9772727272726,292.4187725631769,683.1818181818181C294.2238267148014,682.3863636363636,296.028880866426,680.2272727272726,297.8339350180505,679.7727272727273C299.6389891696751,679.3181818181819,301.4440433212996,679.4318181818182,303.2490974729242,679.0909090909091C305.05415162454875,678.75,306.85920577617327,678.6363636363636,308.66425992779784,677.7272727272727C310.4693140794224,676.8181818181819,312.27436823104694,673.7499999999999,314.0794223826715,673.2954545454545C315.884476534296,672.8409090909091,317.6895306859206,672.6136363636364,319.4945848375451,672.6136363636364C321.2996389891697,672.6136363636364,323.1046931407942,672.6136363636364,324.9097472924188,672.6136363636364C326.7148014440433,672.6136363636364,328.5198555956679,671.8181818181818,330.3249097472924,671.25C332.12996389891697,670.6818181818181,333.9350180505415,669.4318181818182,335.74007220216606,669.2045454545455C337.54512635379064,668.9772727272727,339.35018050541515,669.0909090909091,341.1552346570397,668.8636363636364C342.9602888086643,668.6363636363636,344.7653429602888,666.4772727272726,346.5703971119134,665.7954545454545C348.3754512635379,665.1136363636364,350.1805054151625,665.0568181818181,351.985559566787,664.7727272727273C353.7906137184116,664.4886363636364,355.5956678700361,664.3181818181819,357.40072202166067,664.0909090909091C359.2057761732852,663.8636363636364,361.01083032490976,663.6363636363636,362.8158844765343,663.4090909090909C364.62093862815885,663.1818181818181,366.42599277978337,662.8977272727273,368.23104693140795,662.7272727272727C370.03610108303246,662.5568181818182,371.84115523465704,662.6136363636364,373.64620938628155,662.3863636363636C375.45126353790613,662.1590909090909,377.25631768953065,660.5681818181819,379.0613718411552,660C380.86642599277974,659.4318181818182,382.6714801444043,659.2613636363636,384.47653429602883,658.9772727272727C386.2815884476534,658.6931818181819,388.0866425992779,658.465909090909,389.8916967509025,658.2954545454545C391.69675090252707,658.125,393.50180505415165,657.9545454545455,395.3068592057762,657.9545454545455C397.11191335740074,657.9545454545455,398.9169675090253,657.9545454545455,400.72202166064983,657.9545454545455C402.5270758122744,657.9545454545455,404.3321299638989,657.2159090909091,406.1371841155235,656.9318181818182C407.942238267148,656.6477272727274,409.7472924187726,656.25,411.5523465703971,656.25C413.3574007220217,656.25,415.1624548736462,656.25,416.9675090252708,656.25C418.77256317689535,656.25,420.57761732851986,655.7954545454545,422.38267148014444,655.5681818181818C424.18772563176896,655.340909090909,425.99277978339353,654.8863636363636,427.79783393501805,654.8863636363636C429.6028880866426,654.8863636363636,431.40794223826714,654.8863636363636,433.2129963898917,654.8863636363636C435.01805054151623,654.8863636363636,436.8231046931408,654.8863636363636,438.6281588447653,654.8863636363636C440.4332129963899,654.8863636363636,442.2382671480144,654.659090909091,444.043321299639,654.5454545454546C445.8483754512635,654.4318181818182,447.6534296028881,654.2045454545455,449.4584837545126,654.2045454545455C451.2635379061372,654.2045454545455,453.0685920577617,654.2045454545455,454.87364620938627,654.2045454545455C456.6787003610108,654.2045454545455,458.48375451263536,654.2045454545455,460.2888086642599,654.2045454545455C462.09386281588445,654.2045454545455,463.898916967509,654.2045454545455,465.7039711191336,654.2045454545455C467.5090252707582,654.2045454545455,469.3140794223827,654.2045454545455,471.11913357400726,654.2045454545455C472.9241877256318,654.2045454545455,474.72924187725636,654.2045454545455,476.5342960288809,654.2045454545455C478.33935018050545,654.2045454545455,480.14440433212997,654.2045454545455,481.94945848375454,654.2045454545455C483.75451263537906,654.2045454545455,485.55956678700363,654.2045454545455,487.36462093862815,654.2045454545455C489.1696750902527,654.2045454545455,490.97472924187724,653.8636363636364,492.7797833935018,653.8636363636364C494.58483754512633,653.8636363636364,496.3898916967509,653.8636363636364,498.1949458483754,653.8636363636364C500,653.8636363636364,501.8050541516245,653.8636363636364,503.6101083032491,653.8636363636364C505.41516245487367,653.8636363636364,507.2202166064982,653.8636363636364,509.02527075812276,653.8636363636364C510.8303249097473,653.8636363636364,512.6353790613719,653.8636363636364,514.4404332129964,653.8636363636364C516.2454873646209,653.8636363636364,518.0505415162455,653.8636363636364,519.85559566787,653.8636363636364C521.6606498194946,653.8636363636364,523.4657039711192,653.8636363636364,525.2707581227437,653.8636363636364C527.0758122743682,653.8636363636364,528.8808664259927,653.8636363636364,530.6859205776173,653.8636363636364C532.4909747292419,653.8636363636364,534.2960288808664,653.8636363636364,536.101083032491,653.8636363636364C537.9061371841156,653.8636363636364,539.7111913357402,653.8636363636364,541.5162454873647,653.8636363636364C543.3212996389892,653.8636363636364,545.1263537906137,653.8636363636364,546.9314079422383,653.8636363636364C548.7364620938628,653.8636363636364,550.5415162454874,653.8636363636364,552.3465703971119,653.8636363636364C554.1516245487364,653.8636363636364,555.9566787003611,653.8636363636364,557.7617328519856,653.8636363636364C559.5667870036101,653.8636363636364,561.3718411552347,653.8636363636364,563.1768953068593,653.8636363636364C564.9819494584838,653.8636363636364,566.7870036101083,653.5227272727273,568.5920577617328,653.5227272727273C570.3971119133573,653.5227272727273,572.202166064982,653.5227272727273,574.0072202166065,653.5227272727273C575.812274368231,653.5227272727273,577.6173285198556,653.1818181818181,579.4223826714801,653.1818181818181C581.2274368231047,653.1818181818181,583.0324909747293,653.1818181818181,584.8375451263538,653.1818181818181C586.6425992779783,653.1818181818181,588.447653429603,653.1818181818181,590.2527075812275,653.1818181818181C592.057761732852,653.1818181818181,593.8628158844765,653.1818181818181,595.667870036101,653.1818181818181C597.4729241877255,653.1818181818181,599.2779783393502,653.1818181818181,601.0830324909747,653.1818181818181C602.8880866425992,653.1818181818181,604.6931407942238,653.1818181818181,606.4981949458484,653.1818181818181C608.3032490974729,653.1818181818181,610.1083032490975,653.1818181818181,611.913357400722,653.1818181818181C613.7184115523465,653.1818181818181,615.5234657039712,653.1818181818181,617.3285198555957,653.1818181818181C619.1335740072202,653.1818181818181,620.9386281588448,653.1818181818181,622.7436823104694,653.1818181818181C624.5487364620939,653.1818181818181,626.3537906137185,653.1818181818181,628.158844765343,653.1818181818181C629.9638989169675,653.1818181818181,631.768953068592,653.1818181818181,633.5740072202166,653.1818181818181C635.3790613718411,653.1818181818181,637.1841155234657,653.1818181818181,638.9891696750902,653.1818181818181C640.7942238267148,653.1818181818181,642.5992779783394,653.1818181818181,644.4043321299639,653.1818181818181C646.2093862815884,653.1818181818181,648.014440433213,653.1818181818181,649.8194945848376,653.1818181818181C651.6245487364621,653.1818181818181,653.4296028880866,653.1818181818181,655.2346570397111,653.1818181818181C657.0397111913356,653.1818181818181,658.8447653429603,653.1818181818181,660.6498194945848,653.1818181818181C662.4548736462093,653.1818181818181,664.2599277978339,653.1818181818181,666.0649819494585,653.1818181818181C667.870036101083,653.1818181818181,669.6750902527076,653.1818181818181,671.4801444043321,653.1818181818181C673.2851985559566,653.1818181818181,675.0902527075813,653.1818181818181,676.8953068592058,653.1818181818181C678.7003610108303,653.1818181818181,680.5054151624549,653.1818181818181,682.3104693140795,653.1818181818181C684.115523465704,653.1818181818181,685.9205776173286,653.1818181818181,687.7256317689531,653.1818181818181C689.5306859205776,653.1818181818181,691.3357400722023,653.1818181818181,693.1407942238268,653.1818181818181C694.9458483754513,653.1818181818181,696.7509025270758,653.1818181818181,698.5559566787003,653.1818181818181C700.3610108303249,653.1818181818181,702.1660649819495,653.1818181818181,703.971119133574,653.1818181818181C705.7761732851985,653.1818181818181,707.5812274368232,653.1818181818181,709.3862815884477,653.1818181818181C711.1913357400722,653.1818181818181,712.9963898916968,653.1818181818181,714.8014440433213,653.1818181818181C716.6064981949459,653.1818181818181,718.4115523465704,653.1818181818181,720.2166064981949,653.1818181818181C722.0216606498194,653.1818181818181,723.826714801444,653.1818181818181,725.6317689530686,653.1818181818181C727.4368231046931,653.1818181818181,729.2418772563177,653.1818181818181,731.0469314079422,653.1818181818181C732.8519855595667,653.1818181818181,734.6570397111914,653.1818181818181,736.4620938628159,653.1818181818181C738.2671480144404,653.1818181818181,740.0722021660649,653.1818181818181,741.8772563176894,653.1818181818181C743.682310469314,653.1818181818181,745.4873646209386,653.1818181818181,747.2924187725631,653.1818181818181C749.0974729241877,653.1818181818181,750.9025270758123,653.1818181818181,752.7075812274369,653.1818181818181C754.5126353790614,653.1818181818181,756.3176895306859,653.1818181818181,758.1227436823104,653.1818181818181C759.927797833935,653.1818181818181,761.7328519855596,652.9545454545455,763.5379061371841,652.8409090909091C765.3429602888086,652.7272727272727,767.1480144404331,652.5,768.9530685920577,652.5C770.7581227436823,652.5,772.5631768953068,652.5,774.3682310469314,652.5C776.173285198556,652.5,777.9783393501805,652.5,779.783393501805,652.5C781.5884476534295,652.5,783.3935018050541,652.3295454545454,785.1985559566787,652.1590909090909C787.0036101083033,651.9886363636364,788.8086642599278,651.6477272727273,790.6137184115524,651.4772727272727C792.418772563177,651.3068181818182,794.2238267148015,651.1363636363636,796.028880866426,651.1363636363636C797.8339350180505,651.1363636363636,799.6389891696751,651.1363636363636,801.4440433212997,651.1363636363636C803.2490974729242,651.1363636363636,805.0541516245487,651.1363636363636,806.8592057761732,651.1363636363636C808.6642599277978,651.1363636363636,810.4693140794224,651.1363636363636,812.274368231047,651.1363636363636C814.0794223826715,651.1363636363636,815.884476534296,651.1363636363636,817.6895306859205,651.1363636363636C819.4945848375451,651.1363636363636,821.2996389891697,650.7954545454545,823.1046931407942,650.7954545454545C824.9097472924187,650.7954545454545,826.7148014440432,650.7954545454545,828.5198555956678,650.7954545454545C830.3249097472924,650.7954545454545,832.1299638989169,650.7954545454545,833.9350180505415,650.7954545454545C835.7400722021661,650.7954545454545,837.5451263537906,650.625,839.3501805054151,650.4545454545455C841.1552346570397,650.284090909091,842.9602888086642,649.9431818181818,844.7653429602889,649.7727272727273C846.5703971119134,649.6022727272727,848.3754512635379,649.6022727272727,850.1805054151624,649.4318181818182C851.985559566787,649.2613636363637,853.7906137184116,648.75,855.5956678700361,648.75C857.4007220216607,648.75,859.2057761732852,648.75,861.0108303249099,648.75C862.8158844765344,648.75,864.6209386281589,648.2386363636364,866.4259927797834,648.0681818181819C868.231046931408,647.8977272727274,870.0361010830326,647.7272727272727,871.8411552346571,647.7272727272727C873.6462093862816,647.7272727272727,875.4512635379061,647.7272727272727,877.2563176895306,647.7272727272727C879.0613718411553,647.7272727272727,880.8664259927798,646.5909090909091,882.6714801444044,646.3636363636364C884.476534296029,646.1363636363636,886.2815884476535,646.0227272727273,888.086642599278,646.0227272727273C889.8916967509025,646.0227272727273,891.6967509025271,646.0227272727273,893.5018050541516,646.0227272727273C895.3068592057762,646.0227272727273,897.1119133574007,646.0227272727273,898.9169675090252,646.0227272727273C900.7220216606498,646.0227272727273,902.5270758122743,646.0227272727273,904.332129963899,646.0227272727273C906.1371841155235,646.0227272727273,907.942238267148,646.0227272727273,909.7472924187725,646.0227272727273C911.552346570397,646.0227272727273,913.3574007220217,646.0227272727273,915.1624548736462,646.0227272727273C916.9675090252707,646.0227272727273,918.7725631768952,646.0227272727273,920.5776173285198,646.0227272727273C922.3826714801444,646.0227272727273,924.1877256317689,646.0227272727273,925.9927797833935,646.0227272727273C927.797833935018,646.0227272727273,929.6028880866427,646.0227272727273,931.4079422382672,646.0227272727273C933.2129963898917,646.0227272727273,935.0180505415162,646.0227272727273,936.8231046931407,646.0227272727273C938.6281588447654,646.0227272727273,940.4332129963899,646.0227272727273,942.2382671480145,646.0227272727273C944.043321299639,646.0227272727273,945.8483754512636,646.0227272727273,947.6534296028881,646.0227272727273C949.4584837545126,646.0227272727273,951.2635379061372,645.3409090909091,953.0685920577617,645.3409090909091C954.8736462093863,645.3409090909091,956.6787003610108,645.3409090909091,958.4837545126353,645.3409090909091C960.2888086642599,645.3409090909091,962.0938628158844,645.1704545454545,963.8989169675091,645C965.7039711191336,644.8295454545455,967.5090252707581,644.5454545454546,969.3140794223826,644.3181818181819C971.1191335740072,644.0909090909091,972.9241877256318,643.8068181818182,974.7292418772563,643.6363636363636C976.5342960288808,643.4659090909091,978.3393501805053,643.5227272727273,980.1444043321299,643.2954545454545C981.9494584837545,643.0681818181818,983.754512635379,642.6136363636364,985.5595667870036,642.2727272727273C987.3646209386281,641.9318181818181,989.1696750902527,641.4772727272727,990.9747292418772,641.25C992.7797833935017,641.0227272727273,994.5848375451263,640.9090909090909,996.3898916967509,640.9090909090909C998.1949458483755,640.9090909090909,1000,640.9090909090909,1001.8050541516246,640.9090909090909C1003.6101083032491,640.9090909090909,1005.4151624548737,640.9090909090909,1007.2202166064982,640.9090909090909C1009.0252707581228,640.9090909090909,1010.8303249097473,640.5681818181819,1012.635379061372,640.5681818181819C1014.4404332129965,640.5681818181819,1016.245487364621,640.5681818181819,1018.0505415162455,640.5681818181819C1019.85559566787,640.5681818181819,1021.6606498194947,640.5681818181819,1023.4657039711192,640.5681818181819C1025.2707581227437,640.5681818181819,1027.0758122743682,640.5681818181819,1028.8808664259927,640.5681818181819C1030.6859205776173,640.5681818181819,1032.490974729242,640.3409090909091,1034.2960288808665,640.2272727272727C1036.101083032491,640.1136363636364,1037.9061371841156,639.8863636363636,1039.71119133574,639.8863636363636C1041.5162454873646,639.8863636363636,1043.3212996389893,639.8863636363636,1045.1263537906138,639.8863636363636C1046.9314079422384,639.8863636363636,1048.7364620938629,639.7727272727273,1050.5415162454874,639.5454545454546C1052.346570397112,639.318181818182,1054.1516245487364,638.5227272727273,1055.956678700361,638.5227272727273C1057.7617328519855,638.5227272727273,1059.56678700361,638.5227272727273,1061.3718411552345,638.5227272727273C1063.176895306859,638.5227272727273,1064.9819494584838,638.5227272727273,1066.7870036101083,638.5227272727273C1068.5920577617328,638.5227272727273,1070.3971119133575,638.5227272727273,1072.202166064982,638.5227272727273C1074.0072202166066,638.5227272727273,1075.812274368231,637.8409090909091,1077.6173285198556,637.8409090909091C1079.4223826714801,637.8409090909091,1081.2274368231049,637.8409090909091,1083.0324909747294,637.8409090909091C1084.837545126354,637.8409090909091,1086.6425992779784,637.159090909091,1088.447653429603,637.159090909091C1090.2527075812275,637.159090909091,1092.057761732852,637.159090909091,1093.8628158844765,637.159090909091C1095.667870036101,637.159090909091,1097.4729241877255,636.4772727272727,1099.27797833935,636.4772727272727C1101.0830324909746,636.4772727272727,1102.8880866425993,636.4772727272727,1104.6931407942238,636.4772727272727C1106.4981949458484,636.4772727272727,1108.3032490974729,635.6818181818182,1110.1083032490974,635.4545454545455C1111.913357400722,635.2272727272727,1113.7184115523467,635.1136363636364,1115.5234657039712,635.1136363636364C1117.3285198555957,635.1136363636364,1119.1335740072202,635.1136363636364,1120.9386281588447,635.1136363636364C1122.7436823104692,635.1136363636364,1124.548736462094,634.4318181818182,1126.3537906137185,634.4318181818182C1128.158844765343,634.4318181818182,1129.9638989169675,634.4318181818182,1131.768953068592,634.4318181818182C1133.5740072202166,634.4318181818182,1135.379061371841,633.75,1137.1841155234656,633.75C1138.9891696750901,633.75,1140.7942238267146,633.75,1142.5992779783392,633.75C1144.4043321299637,633.75,1146.2093862815884,632.9545454545455,1148.014440433213,632.7272727272727C1149.8194945848375,632.5,1151.6245487364622,632.5568181818181,1153.4296028880867,632.3863636363636C1155.2346570397112,632.2159090909091,1157.0397111913358,631.875,1158.8447653429603,631.7045454545455C1160.6498194945848,631.534090909091,1162.4548736462095,631.3636363636364,1164.259927797834,631.3636363636364C1166.0649819494586,631.3636363636364,1167.870036101083,631.3636363636364,1169.6750902527076,631.3636363636364C1171.4801444043321,631.3636363636364,1173.2851985559569,631.0227272727273,1175.0902527075814,631.0227272727273C1176.895306859206,631.0227272727273,1178.7003610108304,631.0227272727273,1180.505415162455,631.0227272727273C1182.3104693140795,631.0227272727273,1184.115523465704,631.0227272727273,1185.9205776173285,631.0227272727273C1187.725631768953,631.0227272727273,1189.5306859205775,630.6818181818182,1191.335740072202,630.6818181818182C1193.1407942238266,630.6818181818182,1194.9458483754513,630.6818181818182,1196.7509025270758,630.6818181818182C1198.5559566787003,630.6818181818182,1200.3610108303249,630.5681818181819,1202.1660649819494,630.3409090909091C1203.971119133574,630.1136363636364,1205.7761732851986,629.6022727272727,1207.5812274368232,629.3181818181819C1209.3862815884477,629.034090909091,1211.1913357400722,629.0909090909091,1212.9963898916967,628.6363636363636C1214.8014440433212,628.1818181818181,1216.606498194946,626.7613636363636,1218.4115523465705,625.9090909090909C1220.216606498195,625.0568181818181,1222.0216606498195,623.9772727272726,1223.826714801444,623.5227272727273C1225.6317689530686,623.0681818181819,1227.436823104693,623.2954545454545,1229.2418772563176,622.8409090909091C1231.046931407942,622.3863636363636,1232.8519855595669,619.7159090909091,1234.6570397111914,618.75C1236.462093862816,617.784090909091,1238.2671480144404,617.5000000000001,1240.072202166065,617.0454545454546C1241.8772563176894,616.5909090909091,1243.6823104693142,616.3068181818181,1245.4873646209387,616.0227272727273C1247.2924187725632,615.7386363636364,1249.0974729241877,615.6818181818182,1250.9025270758123,615.3409090909091C1252.7075812274368,615,1254.5126353790615,613.9772727272727,1256.317689530686,613.9772727272727C1258.1227436823106,613.9772727272727,1259.927797833935,613.9772727272727,1261.7328519855596,613.9772727272727C1263.537906137184,613.9772727272727,1265.3429602888086,609.2045454545455,1267.1480144404331,609.2045454545455C1268.9530685920577,609.2045454545455,1270.7581227436822,609.2045454545455,1272.5631768953067,609.2045454545455C1274.3682310469312,609.2045454545455,1276.173285198556,608.2386363636364,1277.9783393501805,607.5C1279.783393501805,606.7613636363636,1281.5884476534295,605.3977272727273,1283.393501805054,604.7727272727273C1285.1985559566785,604.1477272727273,1287.0036101083033,604.2045454545455,1288.8086642599278,603.75C1290.6137184115523,603.2954545454545,1292.418772563177,602.2727272727273,1294.2238267148016,602.0454545454545C1296.028880866426,601.8181818181818,1297.8339350180506,601.9318181818181,1299.6389891696751,601.7045454545454C1301.4440433212997,601.4772727272726,1303.2490974729242,599.9431818181818,1305.0541516245487,598.6363636363636C1306.8592057761732,597.3295454545455,1308.6642599277977,594.9431818181818,1310.4693140794222,593.8636363636363C1312.2743682310468,592.7840909090908,1314.0794223826715,593.2954545454545,1315.884476534296,592.1590909090909C1317.6895306859205,591.0227272727274,1319.494584837545,584.3749999999999,1321.2996389891696,581.9318181818181C1323.104693140794,579.4886363636363,1324.9097472924188,579.4318181818182,1326.7148014440434,577.5C1328.5198555956679,575.5681818181819,1330.3249097472924,574.1477272727271,1332.129963898917,570.3409090909091C1333.9350180505414,566.5340909090909,1335.7400722021662,555.5681818181818,1337.5451263537907,554.6590909090909C1339.3501805054152,553.75,1341.1552346570397,554.2045454545455,1342.9602888086642,553.2954545454546C1344.7653429602888,552.3863636363637,1346.5703971119135,536.7045454545456,1348.375451263538,536.2500000000001C1350.1805054151625,535.7954545454546,1351.985559566787,536.0227272727274,1353.7906137184116,535.5681818181819C1355.595667870036,535.1136363636364,1357.4007220216606,532.6136363636361,1359.2057761732851,527.7272727272727C1361.0108303249096,522.8409090909091,1362.8158844765344,510.5681818181821,1364.620938628159,506.25000000000006C1366.4259927797834,501.93181818181824,1368.231046931408,502.49999999999994,1370.0361010830325,499.7727272727273C1371.841155234657,497.04545454545456,1373.6462093862817,493.97727272727286,1375.4512635379062,489.8863636363636C1377.2563176895308,485.79545454545456,1379.0613718411553,482.44318181818153,1380.8664259927798,475.2272727272727C1382.6714801444043,468.01136363636357,1384.476534296029,454.14772727272737,1386.2815884476536,446.5909090909091C1388.086642599278,439.0340909090912,1389.8916967509026,435.73863636363643,1391.6967509025271,429.8863636363637C1393.5018050541516,424.03409090909093,1395.3068592057762,415.9090909090909,1397.1119133574007,411.4772727272727C1398.9169675090252,407.0454545454545,1400.7220216606497,407.3295454545453,1402.5270758122742,403.29545454545456C1404.3321299638988,399.2613636363636,1406.1371841155235,392.159090909091,1407.942238267148,387.27272727272725C1409.7472924187725,382.38636363636374,1411.552346570397,378.12499999999994,1413.3574007220216,373.97727272727275C1415.162454873646,369.8295454545454,1416.9675090252708,365,1418.7725631768953,362.3863636363636C1420.5776173285199,359.77272727272737,1422.3826714801444,361.02272727272725,1424.187725631769,358.29545454545456C1425.9927797833934,355.56818181818176,1427.7978339350182,347.15909090909093,1429.6028880866427,342.95454545454544C1431.4079422382672,338.7500000000001,1433.2129963898917,336.70454545454544,1435.0180505415162,333.0681818181818C1436.8231046931407,329.4318181818182,1438.6281588447653,326.0795454545454,1440.4332129963898,321.1363636363637C1442.2382671480143,316.1931818181818,1444.043321299639,309.4886363636365,1445.8483754512636,303.4090909090909C1447.653429602888,297.32954545454555,1449.4584837545126,286.70454545454527,1451.2635379061371,284.6590909090909C1453.0685920577616,282.6136363636364,1454.8736462093864,283.6363636363636,1456.678700361011,281.5909090909091C1458.4837545126354,279.54545454545473,1460.28880866426,276.9318181818182,1462.0938628158844,267.6136363636364C1463.898916967509,258.29545454545416,1465.7039711191337,232.1590909090915,1467.5090252707582,209.6590909090909C1469.3140794223827,187.15909090909125,1471.1191335740073,156.98863636363632,1472.9241877256318,132.61363636363632C1474.7292418772563,108.23863636363632,1476.5342960288808,71.36363636363643,1478.3393501805053,63.40909090909094C1480.1444043321299,55.45454545454545,1481.9494584837544,56.647727272727096,1483.754512635379,51.477272727272705C1485.5595667870034,46.3068181818181,1487.3646209386281,39.7159090909093,1489.1696750902527,32.386363636363654C1490.9747292418772,25.056818181818315,1492.7797833935017,12.272727272727069,1494.5848375451262,7.500000000000007C1496.3898916967507,2.7272727272727453,1498.1949458483755,1.5340909090909296,1500,0.3409090909091139" stroke="steelblue" stroke-width="3"/></g><g class="mark-symbol role-mark" role="graphics-symbol" aria-roledescription="symbol mark container"><path transform="translate(0,750)" d="M2.23606797749979,0A2.23606797749979,2.23606797749979,0,1,1,-2.23606797749979,0A2.23606797749979,2.23606797749979,0,1,1,2.23606797749979,0" fill="white" stroke="steelblue" stroke-width="1.5"/><path transform="translate(16.24548736462094,750)" d="M2.23606797749979,0A2.23606797749979,2.23606797749979,0,1,1,-2.23606797749979,0A2.23606797749979,2.23606797749979,0,1,1,2.23606797749979,0" fill="white" stroke="steelblue" stroke-width="1.5"/><path transform="translate(32.49097472924188,750)" d="M2.23606797749979,0A2.23606797749979,2.23606797749979,0,1,1,-2.23606797749979,0A2.23606797749979,2.23606797749979,0,1,1,2.23606797749979,0" fill="white" stroke="steelblue" stroke-width="1.5"/><path transform="translate(48.73646209386281,750)" d="M2.23606797749979,0A2.23606797749979,2.23606797749979,0,1,1,-2.23606797749979,0A2.23606797749979,2.23606797749979,0,1,1,2.23606797749979,0" fill="white" stroke="steelblue" stroke-width="1.5"/><path transform="translate(64.98194945848375,750)" d="M2.23606797749979,0A2.23606797749979,2.23606797749979,0,1,1,-2.23606797749979,0A2.23606797749979,2.23606797749979,0,1,1,2.23606797749979,0" fill="white" stroke="steelblue" stroke-width="1.5"/><path transform="translate(81.2274368231047,750)" d="M2.23606797749979,0A2.23606797749979,2.23606797749979,0,1,1,-2.23606797749979,0A2.23606797749979,2.23606797749979,0,1,1,2.23606797749979,0" fill="white" stroke="steelblue" stroke-width="1.5"/><path transform="translate(97.47292418772562,750)" d="M2.23606797749979,0A2.23606797749979,2.23606797749979,0,1,1,-2.23606797749979,0A2.23606797749979,2.23606797749979,0,1,1,2.23606797749979,0" fill="white" stroke="steelblue" stroke-width="1.5"/><path transform="translate(113.71841155234657,750)" d="M2.23606797749979,0A2.23606797749979,2.23606797749979,0,1,1,-2.23606797749979,0A2.23606797749979,2.23606797749979,0,1,1,2.23606797749979,0" fill="white" stroke="steelblue" stroke-width="1.5"/><path transform="translate(129.9638989169675,750)" d="M2.23606797749979,0A2.23606797749979,2.23606797749979,0,1,1,-2.23606797749979,0A2.23606797749979,2.23606797749979,0,1,1,2.23606797749979,0" fill="white" stroke="steelblue" stroke-width="1.5"/><path transform="translate(146.20938628158845,748.2954545454545)" d="M2.23606797749979,0A2.23606797749979,2.23606797749979,0,1,1,-2.23606797749979,0A2.23606797749979,2.23606797749979,0,1,1,2.23606797749979,0" fill="white" stroke="steelblue" stroke-width="1.5"/><path transform="translate(162.4548736462094,743.8636363636364)" d="M2.23606797749979,0A2.23606797749979,2.23606797749979,0,1,1,-2.23606797749979,0A2.23606797749979,2.23606797749979,0,1,1,2.23606797749979,0" fill="white" stroke="steelblue" stroke-width="1.5"/><path transform="translate(178.70036101083033,733.9772727272727)" d="M2.23606797749979,0A2.23606797749979,2.23606797749979,0,1,1,-2.23606797749979,0A2.23606797749979,2.23606797749979,0,1,1,2.23606797749979,0" fill="white" stroke="steelblue" stroke-width="1.5"/><path transform="translate(194.94584837545125,727.8409090909091)" d="M2.23606797749979,0A2.23606797749979,2.23606797749979,0,1,1,-2.23606797749979,0A2.23606797749979,2.23606797749979,0,1,1,2.23606797749979,0" fill="white" stroke="steelblue" stroke-width="1.5"/><path transform="translate(211.19133574007222,723.75)" d="M2.23606797749979,0A2.23606797749979,2.23606797749979,0,1,1,-2.23606797749979,0A2.23606797749979,2.23606797749979,0,1,1,2.23606797749979,0" fill="white" stroke="steelblue" stroke-width="1.5"/><path transform="translate(227.43682310469313,719.3181818181819)" d="M2.23606797749979,0A2.23606797749979,2.23606797749979,0,1,1,-2.23606797749979,0A2.23606797749979,2.23606797749979,0,1,1,2.23606797749979,0" fill="white" stroke="steelblue" stroke-width="1.5"/><path transform="translate(243.68231046931407,710.1136363636364)" d="M2.23606797749979,0A2.23606797749979,2.23606797749979,0,1,1,-2.23606797749979,0A2.23606797749979,2.23606797749979,0,1,1,2.23606797749979,0" fill="white" stroke="steelblue" stroke-width="1.5"/><path transform="translate(259.927797833935,696.8181818181818)" d="M2.23606797749979,0A2.23606797749979,2.23606797749979,0,1,1,-2.23606797749979,0A2.23606797749979,2.23606797749979,0,1,1,2.23606797749979,0" fill="white" stroke="steelblue" stroke-width="1.5"/><path transform="translate(276.17328519855596,685.2272727272726)" d="M2.23606797749979,0A2.23606797749979,2.23606797749979,0,1,1,-2.23606797749979,0A2.23606797749979,2.23606797749979,0,1,1,2.23606797749979,0" fill="white" stroke="steelblue" stroke-width="1.5"/><path transform="translate(292.4187725631769,683.1818181818181)" d="M2.23606797749979,0A2.23606797749979,2.23606797749979,0,1,1,-2.23606797749979,0A2.23606797749979,2.23606797749979,0,1,1,2.23606797749979,0" fill="white" stroke="steelblue" stroke-width="1.5"/><path transform="translate(308.66425992779784,677.7272727272727)" d="M2.23606797749979,0A2.23606797749979,2.23606797749979,0,1,1,-2.23606797749979,0A2.23606797749979,2.23606797749979,0,1,1,2.23606797749979,0" fill="white" stroke="steelblue" stroke-width="1.5"/><path transform="translate(324.9097472924188,672.6136363636364)" d="M2.23606797749979,0A2.23606797749979,2.23606797749979,0,1,1,-2.23606797749979,0A2.23606797749979,2.23606797749979,0,1,1,2.23606797749979,0" fill="white" stroke="steelblue" stroke-width="1.5"/><path transform="translate(341.1552346570397,668.8636363636364)" d="M2.23606797749979,0A2.23606797749979,2.23606797749979,0,1,1,-2.23606797749979,0A2.23606797749979,2.23606797749979,0,1,1,2.23606797749979,0" fill="white" stroke="steelblue" stroke-width="1.5"/><path transform="translate(357.40072202166067,664.0909090909091)" d="M2.23606797749979,0A2.23606797749979,2.23606797749979,0,1,1,-2.23606797749979,0A2.23606797749979,2.23606797749979,0,1,1,2.23606797749979,0" fill="white" stroke="steelblue" stroke-width="1.5"/><path transform="translate(373.64620938628155,662.3863636363636)" d="M2.23606797749979,0A2.23606797749979,2.23606797749979,0,1,1,-2.23606797749979,0A2.23606797749979,2.23606797749979,0,1,1,2.23606797749979,0" fill="white" stroke="steelblue" stroke-width="1.5"/><path transform="translate(389.8916967509025,658.2954545454545)" d="M2.23606797749979,0A2.23606797749979,2.23606797749979,0,1,1,-2.23606797749979,0A2.23606797749979,2.23606797749979,0,1,1,2.23606797749979,0" fill="white" stroke="steelblue" stroke-width="1.5"/><path transform="translate(406.1371841155235,656.9318181818182)" d="M2.23606797749979,0A2.23606797749979,2.23606797749979,0,1,1,-2.23606797749979,0A2.23606797749979,2.23606797749979,0,1,1,2.23606797749979,0" fill="white" stroke="steelblue" stroke-width="1.5"/><path transform="translate(422.38267148014444,655.5681818181818)" d="M2.23606797749979,0A2.23606797749979,2.23606797749979,0,1,1,-2.23606797749979,0A2.23606797749979,2.23606797749979,0,1,1,2.23606797749979,0" fill="white" stroke="steelblue" stroke-width="1.5"/><path transform="translate(438.6281588447653,654.8863636363636)" d="M2.23606797749979,0A2.23606797749979,2.23606797749979,0,1,1,-2.23606797749979,0A2.23606797749979,2.23606797749979,0,1,1,2.23606797749979,0" fill="white" stroke="steelblue" stroke-width="1.5"/><path transform="translate(454.87364620938627,654.2045454545455)" d="M2.23606797749979,0A2.23606797749979,2.23606797749979,0,1,1,-2.23606797749979,0A2.23606797749979,2.23606797749979,0,1,1,2.23606797749979,0" fill="white" stroke="steelblue" stroke-width="1.5"/><path transform="translate(471.11913357400726,654.2045454545455)" d="M2.23606797749979,0A2.23606797749979,2.23606797749979,0,1,1,-2.23606797749979,0A2.23606797749979,2.23606797749979,0,1,1,2.23606797749979,0" fill="white" stroke="steelblue" stroke-width="1.5"/><path transform="translate(487.36462093862815,654.2045454545455)" d="M2.23606797749979,0A2.23606797749979,2.23606797749979,0,1,1,-2.23606797749979,0A2.23606797749979,2.23606797749979,0,1,1,2.23606797749979,0" fill="white" stroke="steelblue" stroke-width="1.5"/><path transform="translate(503.6101083032491,653.8636363636364)" d="M2.23606797749979,0A2.23606797749979,2.23606797749979,0,1,1,-2.23606797749979,0A2.23606797749979,2.23606797749979,0,1,1,2.23606797749979,0" fill="white" stroke="steelblue" stroke-width="1.5"/><path transform="translate(519.85559566787,653.8636363636364)" d="M2.23606797749979,0A2.23606797749979,2.23606797749979,0,1,1,-2.23606797749979,0A2.23606797749979,2.23606797749979,0,1,1,2.23606797749979,0" fill="white" stroke="steelblue" stroke-width="1.5"/><path transform="translate(536.101083032491,653.8636363636364)" d="M2.23606797749979,0A2.23606797749979,2.23606797749979,0,1,1,-2.23606797749979,0A2.23606797749979,2.23606797749979,0,1,1,2.23606797749979,0" fill="white" stroke="steelblue" stroke-width="1.5"/><path transform="translate(552.3465703971119,653.8636363636364)" d="M2.23606797749979,0A2.23606797749979,2.23606797749979,0,1,1,-2.23606797749979,0A2.23606797749979,2.23606797749979,0,1,1,2.23606797749979,0" fill="white" stroke="steelblue" stroke-width="1.5"/><path transform="translate(568.5920577617328,653.5227272727273)" d="M2.23606797749979,0A2.23606797749979,2.23606797749979,0,1,1,-2.23606797749979,0A2.23606797749979,2.23606797749979,0,1,1,2.23606797749979,0" fill="white" stroke="steelblue" stroke-width="1.5"/><path transform="translate(584.8375451263538,653.1818181818181)" d="M2.23606797749979,0A2.23606797749979,2.23606797749979,0,1,1,-2.23606797749979,0A2.23606797749979,2.23606797749979,0,1,1,2.23606797749979,0" fill="white" stroke="steelblue" stroke-width="1.5"/><path transform="translate(601.0830324909747,653.1818181818181)" d="M2.23606797749979,0A2.23606797749979,2.23606797749979,0,1,1,-2.23606797749979,0A2.23606797749979,2.23606797749979,0,1,1,2.23606797749979,0" fill="white" stroke="steelblue" stroke-width="1.5"/><path transform="translate(617.3285198555957,653.1818181818181)" d="M2.23606797749979,0A2.23606797749979,2.23606797749979,0,1,1,-2.23606797749979,0A2.23606797749979,2.23606797749979,0,1,1,2.23606797749979,0" fill="white" stroke="steelblue" stroke-width="1.5"/><path transform="translate(633.5740072202166,653.1818181818181)" d="M2.23606797749979,0A2.23606797749979,2.23606797749979,0,1,1,-2.23606797749979,0A2.23606797749979,2.23606797749979,0,1,1,2.23606797749979,0" fill="white" stroke="steelblue" stroke-width="1.5"/><path transform="translate(649.8194945848376,653.1818181818181)" d="M2.23606797749979,0A2.23606797749979,2.23606797749979,0,1,1,-2.23606797749979,0A2.23606797749979,2.23606797749979,0,1,1,2.23606797749979,0" fill="white" stroke="steelblue" stroke-width="1.5"/><path transform="translate(666.0649819494585,653.1818181818181)" d="M2.23606797749979,0A2.23606797749979,2.23606797749979,0,1,1,-2.23606797749979,0A2.23606797749979,2.23606797749979,0,1,1,2.23606797749979,0" fill="white" stroke="steelblue" stroke-width="1.5"/><path transform="translate(682.3104693140795,653.1818181818181)" d="M2.23606797749979,0A2.23606797749979,2.23606797749979,0,1,1,-2.23606797749979,0A2.23606797749979,2.23606797749979,0,1,1,2.23606797749979,0" fill="white" stroke="steelblue" stroke-width="1.5"/><path transform="translate(698.5559566787003,653.1818181818181)" d="M2.23606797749979,0A2.23606797749979,2.23606797749979,0,1,1,-2.23606797749979,0A2.23606797749979,2.23606797749979,0,1,1,2.23606797749979,0" fill="white" stroke="steelblue" stroke-width="1.5"/><path transform="translate(714.8014440433213,653.1818181818181)" d="M2.23606797749979,0A2.23606797749979,2.23606797749979,0,1,1,-2.23606797749979,0A2.23606797749979,2.23606797749979,0,1,1,2.23606797749979,0" fill="white" stroke="steelblue" stroke-width="1.5"/><path transform="translate(731.0469314079422,653.1818181818181)" d="M2.23606797749979,0A2.23606797749979,2.23606797749979,0,1,1,-2.23606797749979,0A2.23606797749979,2.23606797749979,0,1,1,2.23606797749979,0" fill="white" stroke="steelblue" stroke-width="1.5"/><path transform="translate(747.2924187725631,653.1818181818181)" d="M2.23606797749979,0A2.23606797749979,2.23606797749979,0,1,1,-2.23606797749979,0A2.23606797749979,2.23606797749979,0,1,1,2.23606797749979,0" fill="white" stroke="steelblue" stroke-width="1.5"/><path transform="translate(763.5379061371841,652.8409090909091)" d="M2.23606797749979,0A2.23606797749979,2.23606797749979,0,1,1,-2.23606797749979,0A2.23606797749979,2.23606797749979,0,1,1,2.23606797749979,0" fill="white" stroke="steelblue" stroke-width="1.5"/><path transform="translate(779.783393501805,652.5)" d="M2.23606797749979,0A2.23606797749979,2.23606797749979,0,1,1,-2.23606797749979,0A2.23606797749979,2.23606797749979,0,1,1,2.23606797749979,0" fill="white" stroke="steelblue" stroke-width="1.5"/><path transform="translate(796.028880866426,651.1363636363636)" d="M2.23606797749979,0A2.23606797749979,2.23606797749979,0,1,1,-2.23606797749979,0A2.23606797749979,2.23606797749979,0,1,1,2.23606797749979,0" fill="white" stroke="steelblue" stroke-width="1.5"/><path transform="translate(812.274368231047,651.1363636363636)" d="M2.23606797749979,0A2.23606797749979,2.23606797749979,0,1,1,-2.23606797749979,0A2.23606797749979,2.23606797749979,0,1,1,2.23606797749979,0" fill="white" stroke="steelblue" stroke-width="1.5"/><path transform="translate(828.5198555956678,650.7954545454545)" d="M2.23606797749979,0A2.23606797749979,2.23606797749979,0,1,1,-2.23606797749979,0A2.23606797749979,2.23606797749979,0,1,1,2.23606797749979,0" fill="white" stroke="steelblue" stroke-width="1.5"/><path transform="translate(844.7653429602889,649.7727272727273)" d="M2.23606797749979,0A2.23606797749979,2.23606797749979,0,1,1,-2.23606797749979,0A2.23606797749979,2.23606797749979,0,1,1,2.23606797749979,0" fill="white" stroke="steelblue" stroke-width="1.5"/><path transform="translate(861.0108303249099,648.75)" d="M2.23606797749979,0A2.23606797749979,2.23606797749979,0,1,1,-2.23606797749979,0A2.23606797749979,2.23606797749979,0,1,1,2.23606797749979,0" fill="white" stroke="steelblue" stroke-width="1.5"/><path transform="translate(877.2563176895306,647.7272727272727)" d="M2.23606797749979,0A2.23606797749979,2.23606797749979,0,1,1,-2.23606797749979,0A2.23606797749979,2.23606797749979,0,1,1,2.23606797749979,0" fill="white" stroke="steelblue" stroke-width="1.5"/><path transform="translate(893.5018050541516,646.0227272727273)" d="M2.23606797749979,0A2.23606797749979,2.23606797749979,0,1,1,-2.23606797749979,0A2.23606797749979,2.23606797749979,0,1,1,2.23606797749979,0" fill="white" stroke="steelblue" stroke-width="1.5"/><path transform="translate(909.7472924187725,646.0227272727273)" d="M2.23606797749979,0A2.23606797749979,2.23606797749979,0,1,1,-2.23606797749979,0A2.23606797749979,2.23606797749979,0,1,1,2.23606797749979,0" fill="white" stroke="steelblue" stroke-width="1.5"/><path transform="translate(925.9927797833935,646.0227272727273)" d="M2.23606797749979,0A2.23606797749979,2.23606797749979,0,1,1,-2.23606797749979,0A2.23606797749979,2.23606797749979,0,1,1,2.23606797749979,0" fill="white" stroke="steelblue" stroke-width="1.5"/><path transform="translate(942.2382671480145,646.0227272727273)" d="M2.23606797749979,0A2.23606797749979,2.23606797749979,0,1,1,-2.23606797749979,0A2.23606797749979,2.23606797749979,0,1,1,2.23606797749979,0" fill="white" stroke="steelblue" stroke-width="1.5"/><path transform="translate(958.4837545126353,645.3409090909091)" d="M2.23606797749979,0A2.23606797749979,2.23606797749979,0,1,1,-2.23606797749979,0A2.23606797749979,2.23606797749979,0,1,1,2.23606797749979,0" fill="white" stroke="steelblue" stroke-width="1.5"/><path transform="translate(974.7292418772563,643.6363636363636)" d="M2.23606797749979,0A2.23606797749979,2.23606797749979,0,1,1,-2.23606797749979,0A2.23606797749979,2.23606797749979,0,1,1,2.23606797749979,0" fill="white" stroke="steelblue" stroke-width="1.5"/><path transform="translate(990.9747292418772,641.25)" d="M2.23606797749979,0A2.23606797749979,2.23606797749979,0,1,1,-2.23606797749979,0A2.23606797749979,2.23606797749979,0,1,1,2.23606797749979,0" fill="white" stroke="steelblue" stroke-width="1.5"/><path transform="translate(1007.2202166064982,640.9090909090909)" d="M2.23606797749979,0A2.23606797749979,2.23606797749979,0,1,1,-2.23606797749979,0A2.23606797749979,2.23606797749979,0,1,1,2.23606797749979,0" fill="white" stroke="steelblue" stroke-width="1.5"/><path transform="translate(1023.4657039711192,640.5681818181819)" d="M2.23606797749979,0A2.23606797749979,2.23606797749979,0,1,1,-2.23606797749979,0A2.23606797749979,2.23606797749979,0,1,1,2.23606797749979,0" fill="white" stroke="steelblue" stroke-width="1.5"/><path transform="translate(1039.71119133574,639.8863636363636)" d="M2.23606797749979,0A2.23606797749979,2.23606797749979,0,1,1,-2.23606797749979,0A2.23606797749979,2.23606797749979,0,1,1,2.23606797749979,0" fill="white" stroke="steelblue" stroke-width="1.5"/><path transform="translate(1055.956678700361,638.5227272727273)" d="M2.23606797749979,0A2.23606797749979,2.23606797749979,0,1,1,-2.23606797749979,0A2.23606797749979,2.23606797749979,0,1,1,2.23606797749979,0" fill="white" stroke="steelblue" stroke-width="1.5"/><path transform="translate(1072.202166064982,638.5227272727273)" d="M2.23606797749979,0A2.23606797749979,2.23606797749979,0,1,1,-2.23606797749979,0A2.23606797749979,2.23606797749979,0,1,1,2.23606797749979,0" fill="white" stroke="steelblue" stroke-width="1.5"/><path transform="translate(1088.447653429603,637.159090909091)" d="M2.23606797749979,0A2.23606797749979,2.23606797749979,0,1,1,-2.23606797749979,0A2.23606797749979,2.23606797749979,0,1,1,2.23606797749979,0" fill="white" stroke="steelblue" stroke-width="1.5"/><path transform="translate(1104.6931407942238,636.4772727272727)" d="M2.23606797749979,0A2.23606797749979,2.23606797749979,0,1,1,-2.23606797749979,0A2.23606797749979,2.23606797749979,0,1,1,2.23606797749979,0" fill="white" stroke="steelblue" stroke-width="1.5"/><path transform="translate(1120.9386281588447,635.1136363636364)" d="M2.23606797749979,0A2.23606797749979,2.23606797749979,0,1,1,-2.23606797749979,0A2.23606797749979,2.23606797749979,0,1,1,2.23606797749979,0" fill="white" stroke="steelblue" stroke-width="1.5"/><path transform="translate(1137.1841155234656,633.75)" d="M2.23606797749979,0A2.23606797749979,2.23606797749979,0,1,1,-2.23606797749979,0A2.23606797749979,2.23606797749979,0,1,1,2.23606797749979,0" fill="white" stroke="steelblue" stroke-width="1.5"/><path transform="translate(1153.4296028880867,632.3863636363636)" d="M2.23606797749979,0A2.23606797749979,2.23606797749979,0,1,1,-2.23606797749979,0A2.23606797749979,2.23606797749979,0,1,1,2.23606797749979,0" fill="white" stroke="steelblue" stroke-width="1.5"/><path transform="translate(1169.6750902527076,631.3636363636364)" d="M2.23606797749979,0A2.23606797749979,2.23606797749979,0,1,1,-2.23606797749979,0A2.23606797749979,2.23606797749979,0,1,1,2.23606797749979,0" fill="white" stroke="steelblue" stroke-width="1.5"/><path transform="translate(1185.9205776173285,631.0227272727273)" d="M2.23606797749979,0A2.23606797749979,2.23606797749979,0,1,1,-2.23606797749979,0A2.23606797749979,2.23606797749979,0,1,1,2.23606797749979,0" fill="white" stroke="steelblue" stroke-width="1.5"/><path transform="translate(1202.1660649819494,630.3409090909091)" d="M2.23606797749979,0A2.23606797749979,2.23606797749979,0,1,1,-2.23606797749979,0A2.23606797749979,2.23606797749979,0,1,1,2.23606797749979,0" fill="white" stroke="steelblue" stroke-width="1.5"/><path transform="translate(1218.4115523465705,625.9090909090909)" d="M2.23606797749979,0A2.23606797749979,2.23606797749979,0,1,1,-2.23606797749979,0A2.23606797749979,2.23606797749979,0,1,1,2.23606797749979,0" fill="white" stroke="steelblue" stroke-width="1.5"/><path transform="translate(1234.6570397111914,618.75)" d="M2.23606797749979,0A2.23606797749979,2.23606797749979,0,1,1,-2.23606797749979,0A2.23606797749979,2.23606797749979,0,1,1,2.23606797749979,0" fill="white" stroke="steelblue" stroke-width="1.5"/><path transform="translate(1250.9025270758123,615.3409090909091)" d="M2.23606797749979,0A2.23606797749979,2.23606797749979,0,1,1,-2.23606797749979,0A2.23606797749979,2.23606797749979,0,1,1,2.23606797749979,0" fill="white" stroke="steelblue" stroke-width="1.5"/><path transform="translate(1267.1480144404331,609.2045454545455)" d="M2.23606797749979,0A2.23606797749979,2.23606797749979,0,1,1,-2.23606797749979,0A2.23606797749979,2.23606797749979,0,1,1,2.23606797749979,0" fill="white" stroke="steelblue" stroke-width="1.5"/><path transform="translate(1283.393501805054,604.7727272727273)" d="M2.23606797749979,0A2.23606797749979,2.23606797749979,0,1,1,-2.23606797749979,0A2.23606797749979,2.23606797749979,0,1,1,2.23606797749979,0" fill="white" stroke="steelblue" stroke-width="1.5"/><path transform="translate(1299.6389891696751,601.7045454545454)" d="M2.23606797749979,0A2.23606797749979,2.23606797749979,0,1,1,-2.23606797749979,0A2.23606797749979,2.23606797749979,0,1,1,2.23606797749979,0" fill="white" stroke="steelblue" stroke-width="1.5"/><path transform="translate(1315.884476534296,592.1590909090909)" d="M2.23606797749979,0A2.23606797749979,2.23606797749979,0,1,1,-2.23606797749979,0A2.23606797749979,2.23606797749979,0,1,1,2.23606797749979,0" fill="white" stroke="steelblue" stroke-width="1.5"/><path transform="translate(1332.129963898917,570.3409090909091)" d="M2.23606797749979,0A2.23606797749979,2.23606797749979,0,1,1,-2.23606797749979,0A2.23606797749979,2.23606797749979,0,1,1,2.23606797749979,0" fill="white" stroke="steelblue" stroke-width="1.5"/><path transform="translate(1348.375451263538,536.2500000000001)" d="M2.23606797749979,0A2.23606797749979,2.23606797749979,0,1,1,-2.23606797749979,0A2.23606797749979,2.23606797749979,0,1,1,2.23606797749979,0" fill="white" stroke="steelblue" stroke-width="1.5"/><path transform="translate(1364.620938628159,506.25000000000006)" d="M2.23606797749979,0A2.23606797749979,2.23606797749979,0,1,1,-2.23606797749979,0A2.23606797749979,2.23606797749979,0,1,1,2.23606797749979,0" fill="white" stroke="steelblue" stroke-width="1.5"/><path transform="translate(1380.8664259927798,475.2272727272727)" d="M2.23606797749979,0A2.23606797749979,2.23606797749979,0,1,1,-2.23606797749979,0A2.23606797749979,2.23606797749979,0,1,1,2.23606797749979,0" fill="white" stroke="steelblue" stroke-width="1.5"/><path transform="translate(1397.1119133574007,411.4772727272727)" d="M2.23606797749979,0A2.23606797749979,2.23606797749979,0,1,1,-2.23606797749979,0A2.23606797749979,2.23606797749979,0,1,1,2.23606797749979,0" fill="white" stroke="steelblue" stroke-width="1.5"/><path transform="translate(1413.3574007220216,373.97727272727275)" d="M2.23606797749979,0A2.23606797749979,2.23606797749979,0,1,1,-2.23606797749979,0A2.23606797749979,2.23606797749979,0,1,1,2.23606797749979,0" fill="white" stroke="steelblue" stroke-width="1.5"/><path transform="translate(1429.6028880866427,342.95454545454544)" d="M2.23606797749979,0A2.23606797749979,2.23606797749979,0,1,1,-2.23606797749979,0A2.23606797749979,2.23606797749979,0,1,1,2.23606797749979,0" fill="white" stroke="steelblue" stroke-width="1.5"/><path transform="translate(1445.8483754512636,303.4090909090909)" d="M2.23606797749979,0A2.23606797749979,2.23606797749979,0,1,1,-2.23606797749979,0A2.23606797749979,2.23606797749979,0,1,1,2.23606797749979,0" fill="white" stroke="steelblue" stroke-width="1.5"/><path transform="translate(1462.0938628158844,267.6136363636364)" d="M2.23606797749979,0A2.23606797749979,2.23606797749979,0,1,1,-2.23606797749979,0A2.23606797749979,2.23606797749979,0,1,1,2.23606797749979,0" fill="white" stroke="steelblue" stroke-width="1.5"/><path transform="translate(1478.3393501805053,63.40909090909094)" d="M2.23606797749979,0A2.23606797749979,2.23606797749979,0,1,1,-2.23606797749979,0A2.23606797749979,2.23606797749979,0,1,1,2.23606797749979,0" fill="white" stroke="steelblue" stroke-width="1.5"/><path transform="translate(1494.5848375451262,7.500000000000007)" d="M2.23606797749979,0A2.23606797749979,2.23606797749979,0,1,1,-2.23606797749979,0A2.23606797749979,2.23606797749979,0,1,1,2.23606797749979,0" fill="white" stroke="steelblue" stroke-width="1.5"/></g><g class="mark-group role-title"><g transform="translate(706,-35)"><path class="background" aria-hidden="true" d="M0,0h0v0h0Z" pointer-events="none"/><g><g class="mark-text role-title-text" role="graphics-symbol" aria-roledescription="title" aria-label="Title text 'Recovered COVID-19 patients in 'Bezirk Amstetten' (absolute)'" pointer-events="none"><text text-anchor="middle" transform="translate(0,19)" font-family="sans-serif" font-size="24px" font-weight="bold" fill="#000" opacity="1">Recovered COVID-19 patients in 'Bezirk Amstetten' (absolute)</text></g></g><path class="foreground" aria-hidden="true" d="" pointer-events="none" display="none"/></g></g></g><path class="foreground" aria-hidden="true" d="" display="none"/></g></g></g></svg>